<svg width="40" height="40" viewBox="0 0 40 40" fill="none" xmlns="http://www.w3.org/2000/svg"><path fill-rule="evenodd" clip-rule="evenodd" d="M19.9341 0.374481C30.6203 0.374481 39.2963 9.0504 39.2963 19.7367C39.2963 30.4229 30.6203 39.0988 19.9341 39.0988C9.24782 39.0988 0.571899 30.4229 0.571899 19.7367C0.571899 9.0504 9.24782 0.374481 19.9341 0.374481ZM19.9341 7.6353C16.6476 7.6353 16.2354 7.64921 14.9447 7.70813C13.6566 7.7669 12.777 7.97149 12.0072 8.27062C11.2114 8.57988 10.5365 8.99368 9.86378 9.66644C9.19102 10.3392 8.77723 11.0141 8.46796 11.8098C8.16883 12.5795 7.96432 13.4592 7.90548 14.7473C7.84663 16.038 7.83272 16.4502 7.83272 19.7367C7.83272 23.0232 7.84663 23.4353 7.90548 24.726C7.96432 26.0141 8.16883 26.8938 8.46796 27.6635C8.77723 28.4592 9.19102 29.1341 9.86378 29.807C10.5365 30.4797 11.2114 30.8935 12.0072 31.2028C12.777 31.5018 13.6566 31.7064 14.9447 31.7652C16.2354 31.8241 16.6476 31.838 19.9341 31.838C23.2206 31.838 23.6327 31.8241 24.9235 31.7652C26.2115 31.7064 27.0912 31.5018 27.8609 31.2028C28.6567 30.8935 29.3315 30.4797 30.0044 29.807C30.6771 29.1341 31.0909 28.4592 31.4002 27.6635C31.6992 26.8938 31.9038 26.0141 31.9626 24.726C32.0215 23.4353 32.0354 23.0232 32.0354 19.7367C32.0354 16.4502 32.0215 16.038 31.9626 14.7473C31.9038 13.4592 31.6992 12.5795 31.4002 11.8098C31.0909 11.0141 30.6771 10.3392 30.0044 9.66644C29.3315 8.99368 28.6567 8.57988 27.8609 8.27062C27.0912 7.97149 26.2115 7.7669 24.9235 7.70813C23.6327 7.64921 23.2206 7.6353 19.9341 7.6353ZM19.9341 9.81574C23.1653 9.81574 23.548 9.82806 24.8241 9.8863C26.004 9.94015 26.6447 10.1373 27.0711 10.303C27.636 10.5225 28.0391 10.7848 28.4625 11.2082C28.8861 11.6316 29.1483 12.0348 29.3678 12.5997C29.5335 13.0261 29.7307 13.6668 29.7844 14.8466C29.8427 16.1227 29.855 16.5054 29.855 19.7367C29.855 22.9679 29.8427 23.3506 29.7844 24.6267C29.7307 25.8065 29.5335 26.4472 29.3678 26.8737C29.1483 27.4386 28.8861 27.8417 28.4625 28.2651C28.0391 28.6886 27.636 28.9509 27.0711 29.1703C26.6447 29.3361 26.004 29.5332 24.8241 29.587C23.5482 29.6453 23.1655 29.6576 19.9341 29.6576C16.7026 29.6576 16.32 29.6453 15.0441 29.587C13.8642 29.5332 13.2235 29.3361 12.7971 29.1703C12.2322 28.9509 11.829 28.6886 11.4056 28.2651C10.9821 27.8417 10.7199 27.4386 10.5004 26.8737C10.3347 26.4472 10.1375 25.8065 10.0836 24.6267C10.0254 23.3506 10.0132 22.9679 10.0132 19.7367C10.0132 16.5054 10.0254 16.1227 10.0836 14.8466C10.1375 13.6668 10.3347 13.0261 10.5004 12.5997C10.7199 12.0348 10.9821 11.6316 11.4056 11.2082C11.829 10.7848 12.2322 10.5225 12.7971 10.303C13.2235 10.1373 13.8642 9.94015 15.0441 9.8863C16.3202 9.82806 16.7029 9.81574 19.9341 9.81574ZM19.9341 13.5225C16.5021 13.5225 13.7199 16.3046 13.7199 19.7367C13.7199 23.1687 16.5021 25.9509 19.9341 25.9509C23.3661 25.9509 26.1483 23.1687 26.1483 19.7367C26.1483 16.3046 23.3661 13.5225 19.9341 13.5225ZM19.9341 23.7704C17.7063 23.7704 15.9003 21.9644 15.9003 19.7367C15.9003 17.5089 17.7063 15.7029 19.9341 15.7029C22.1619 15.7029 23.9678 17.5089 23.9678 19.7367C23.9678 21.9644 22.1619 23.7704 19.9341 23.7704ZM27.846 13.277C27.846 14.079 27.1958 14.729 26.3938 14.729C25.5918 14.729 24.9417 14.079 24.9417 13.277C24.9417 12.4749 25.5918 11.8248 26.3938 11.8248C27.1958 11.8248 27.846 12.4749 27.846 13.277Z" fill="#2C260C"/></svg>