<svg width="40" height="40" viewBox="0 0 40 40" fill="none" xmlns="http://www.w3.org/2000/svg"><path d="M20.0659 0.374481C9.37241 0.374481 0.703674 9.04322 0.703674 19.7367C0.703674 30.4301 9.37241 39.0988 20.0659 39.0988C30.7593 39.0988 39.428 30.4301 39.428 19.7367C39.428 9.04322 30.7593 0.374481 20.0659 0.374481ZM30.1296 12.6223L26.6907 29.0396C26.6491 29.2381 26.5582 29.4231 26.4265 29.5774C26.2948 29.7317 26.1264 29.8504 25.9368 29.9226C25.7472 29.9949 25.5425 30.0183 25.3415 29.9908C25.1405 29.9633 24.9496 29.8857 24.7864 29.7651L19.7843 26.0696L16.7539 28.9286C16.7142 28.966 16.6675 28.9951 16.6164 29.0143C16.5654 29.0335 16.511 29.0423 16.4565 29.0402C16.402 29.0381 16.3485 29.0252 16.299 29.0022C16.2496 28.9792 16.2052 28.9466 16.1685 28.9063L16.1033 28.8348L16.6299 23.739L26.1207 15.0675C26.1676 15.0247 26.1968 14.9658 26.2025 14.9026C26.2082 14.8393 26.1899 14.7762 26.1514 14.7257C26.1128 14.6752 26.0567 14.641 25.9942 14.6298C25.9317 14.6187 25.8672 14.6313 25.8135 14.6654L13.676 22.3475L8.44855 20.5918C8.30955 20.5452 8.18841 20.4566 8.10174 20.3383C8.01507 20.22 7.96712 20.0779 7.96447 19.9313C7.96182 19.7846 8.0046 19.6408 8.08693 19.5195C8.16927 19.3982 8.28713 19.3053 8.42434 19.2536L28.8772 11.5489C29.0349 11.4895 29.2057 11.4736 29.3718 11.5028C29.5378 11.5321 29.6929 11.6054 29.8209 11.7151C29.9489 11.8248 30.0451 11.9669 30.0994 12.1264C30.1537 12.286 30.1641 12.4573 30.1296 12.6223Z" fill="#2C260C"/></svg>