<svg width="16" height="16" viewBox="0 0 16 16" fill="none" xmlns="http://www.w3.org/2000/svg"><path d="M5.0015 1.65076C7.00052 1.64989 8.99993 1.64983 10.999 1.65025C11.1922 1.65029 11.3487 1.80683 11.3488 1.99993C11.3497 4.21208 11.3496 6.42394 11.3494 8.63596C11.3494 10.1599 11.3493 11.6839 11.3495 13.2082C11.3496 13.4813 11.0476 13.6537 10.8102 13.509C10.3466 13.2265 9.88233 12.9445 9.41847 12.6627C9.23197 12.5495 9.04554 12.4362 8.85925 12.323C8.33283 12.0031 7.67157 12.0026 7.14463 12.3232C6.58186 12.6655 6.0193 13.0083 5.45694 13.351L5.18226 13.5183C4.94959 13.6601 4.65084 13.4928 4.65094 13.2193C4.65156 11.4784 4.65141 9.7388 4.65125 7.99938C4.65107 5.9999 4.65089 4.00072 4.65189 2.0003C4.65199 1.8073 4.80843 1.65084 5.0015 1.65076Z" fill="#E6E6E7" stroke="#E6E6E7" stroke-width="1.3"/></svg>