<svg width="16" height="16" viewBox="0 0 16 16" fill="none" xmlns="http://www.w3.org/2000/svg"><path d="M5.00144 1.65079C7.00046 1.64992 8.99987 1.64986 10.9989 1.65028C11.1921 1.65032 11.3486 1.80686 11.3487 1.99996C11.3496 4.21211 11.3495 6.42397 11.3493 8.63599C11.3493 10.1599 11.3492 11.6839 11.3494 13.2082C11.3495 13.4813 11.0475 13.6537 10.8101 13.509C10.3465 13.2265 9.88227 12.9445 9.41841 12.6627C9.23191 12.5495 9.04548 12.4362 8.85919 12.323C8.33277 12.0031 7.67151 12.0026 7.14457 12.3232C6.5818 12.6655 6.01924 13.0083 5.45688 13.351L5.1822 13.5183C4.94953 13.6601 4.65078 13.4928 4.65088 13.2193C4.6515 11.4784 4.65135 9.73883 4.65119 7.99941C4.65101 5.99993 4.65083 4.00075 4.65183 2.00033C4.65193 1.80733 4.80837 1.65087 5.00144 1.65079Z" stroke="#E6E6E7" stroke-width="1.3"/></svg>