<svg width="16" height="16" viewBox="0 0 16 16" fill="none" xmlns="http://www.w3.org/2000/svg"><path fill-rule="evenodd" clip-rule="evenodd" d="M6.99094 2.74279C7.44054 1.96795 8.55948 1.96795 9.00908 2.74279L10.386 5.1157C10.5129 5.33442 10.7323 5.48368 10.9823 5.52145L13.2687 5.86679C14.2654 6.01732 14.615 7.27573 13.8388 7.91873L12.1729 9.299C11.9391 9.49266 11.8291 9.79826 11.8859 10.0966L12.3526 12.5472C12.5354 13.5072 11.5276 14.2531 10.6629 13.7977L8.38828 12.6001C8.14521 12.4721 7.85481 12.4721 7.61174 12.6001L5.33707 13.7977C4.4724 14.2531 3.46464 13.5072 3.64744 12.5472L4.1141 10.0966C4.1709 9.79826 4.06095 9.49266 3.82712 9.299L2.16119 7.91873C1.385 7.27573 1.7346 6.01732 2.73126 5.86679L5.0177 5.52145C5.26774 5.48368 5.4871 5.33442 5.61402 5.1157L6.99094 2.74279ZM8.14414 3.24468C8.07994 3.13399 7.92008 3.13399 7.85588 3.24468L6.47895 5.61758C6.19974 6.09878 5.71713 6.42715 5.16704 6.51023L2.88061 6.8556C2.73823 6.87706 2.68828 7.05686 2.79917 7.14873L4.4651 8.52893C4.97952 8.95513 5.22141 9.6274 5.09644 10.2836L4.62979 12.7343C4.60368 12.8714 4.74764 12.978 4.87116 12.9129L7.14587 11.7152C7.68047 11.4337 8.31954 11.4337 8.85414 11.7152L11.1289 12.9129C11.2524 12.978 11.3963 12.8714 11.3702 12.7343L10.9036 10.2836C10.7786 9.6274 11.0205 8.95513 11.5349 8.52893L13.2009 7.14873C13.3117 7.05686 13.2618 6.87706 13.1194 6.8556L10.833 6.51023C10.2829 6.42715 9.80028 6.09878 9.52108 5.61758L8.14414 3.24468Z" fill="#E6E6E7" stroke="#E6E6E7" stroke-width="0.2"/></svg>