<svg width="20" height="20" viewBox="0 0 20 20" fill="none" xmlns="http://www.w3.org/2000/svg"><path fill-rule="evenodd" clip-rule="evenodd" d="M6.04169 12.5422C6.03479 12.8289 6.22397 13.0836 6.5005 13.1597C6.77704 13.2359 7.06994 13.1141 7.21086 12.8643L7.96279 11.5313C8.8545 9.9505 10.6297 9.0845 12.4244 9.35458L12.5488 9.37333C12.5713 9.93817 12.603 10.5028 12.6441 11.0669L12.7007 11.8424C12.7466 12.4731 13.4498 12.8257 13.9827 12.4852C15.7308 11.3682 17.2504 9.929 18.4607 8.24417L18.8408 7.71505C18.9973 7.49716 18.9973 7.20367 18.8408 6.98577L18.4607 6.45667C17.2504 4.77187 15.7308 3.33262 13.9827 2.21566C13.4498 1.87517 12.7466 2.22773 12.7007 2.85841L12.6441 3.63394C12.6109 4.08872 12.5839 4.54383 12.5629 4.99914H11.7144C8.6605 4.99914 6.16445 7.43589 6.09105 10.4889L6.04169 12.5422ZM12.6105 8.11852C10.5944 7.81508 8.5975 8.62675 7.36062 10.1921C7.57863 7.97282 9.44925 6.24914 11.7144 6.24914H13.1633C13.5002 6.24914 13.7765 5.98217 13.788 5.64551C13.8099 5.00484 13.8442 4.36449 13.8908 3.72482L13.8953 3.66277C15.2648 4.63083 16.4651 5.82115 17.4455 7.18594L17.5636 7.35042L17.4455 7.51489C16.4651 8.87967 15.2648 10.07 13.8953 11.0381L13.8908 10.976C13.8383 10.2561 13.8015 9.53533 13.7803 8.81425C13.7714 8.51208 13.5476 8.25955 13.2486 8.21456L12.6105 8.11852Z" fill="#FCCD03"/><path d="M16.3675 14.5095C16.4658 13.6692 16.5352 12.8264 16.5757 11.9825C16.58 11.8912 16.6214 11.8056 16.69 11.7451C16.9928 11.4778 17.2863 11.2 17.5697 10.9124C17.6763 10.8041 17.8626 10.8798 17.8593 11.0317C17.8333 12.2416 17.7499 13.4506 17.6091 14.6546C17.4119 16.3401 16.0583 17.661 14.3816 17.8484C11.4928 18.1712 8.50668 18.1712 5.61789 17.8484C3.94118 17.661 2.58756 16.3401 2.39044 14.6546C2.04499 11.701 2.04499 8.71729 2.39044 5.76371C2.58756 4.07827 3.94118 2.75743 5.61789 2.57003C7.52704 2.35666 9.47868 2.28429 11.4167 2.35295C11.5798 2.35873 11.6922 2.51846 11.6718 2.68046C11.6676 2.71419 11.6642 2.74832 11.6617 2.78281L11.6189 3.36933C11.6091 3.50398 11.4942 3.60643 11.3593 3.6017C9.48668 3.536 7.60073 3.6062 5.75673 3.81229C4.64831 3.93618 3.7604 4.81086 3.63198 5.90892C3.29781 8.76604 3.29781 11.6524 3.63198 14.5095C3.7604 15.6075 4.64831 16.4822 5.75673 16.606C8.55326 16.9186 11.4463 16.9186 14.2428 16.606C15.3512 16.4822 16.2391 15.6075 16.3675 14.5095Z" fill="#FCCD03"/></svg>