<svg width="29" height="36" viewBox="0 0 29 36" fill="none" xmlns="http://www.w3.org/2000/svg"><path d="M25.4455 1H10.7164C10.1476 1.00065 9.60232 1.22689 9.20013 1.62908C8.79794 2.03128 8.57171 2.57658 8.57107 3.14537V7.07369C8.57107 7.17725 8.61221 7.27657 8.68544 7.3498C8.75867 7.42303 8.85799 7.46417 8.96155 7.46417H9.9706V17.532C9.94142 17.4997 9.91135 17.4681 9.88041 17.437C9.40536 16.962 8.76106 16.6951 8.08923 16.6951C7.41741 16.6951 6.77311 16.962 6.29805 17.437L6.14876 17.5863L4.05149 19.6836L1.80499 21.9301C1.46702 22.268 1.23156 22.6946 1.12578 23.1607C1.02001 23.6268 1.04826 24.1133 1.20725 24.564C1.36625 25.0147 1.6495 25.4112 2.0243 25.7077C2.3991 26.0042 2.85015 26.1887 3.32533 26.2398C2.70329 26.6248 2.17517 27.1439 1.77959 27.7593C1.38401 28.3747 1.13096 29.0707 1.03897 29.7965C0.946974 30.5222 1.01835 31.2593 1.24788 31.9539C1.47741 32.6486 1.85929 33.2831 2.36558 33.8111C2.87188 34.3392 3.4898 34.7474 4.17416 35.0059C4.85851 35.2644 5.59199 35.3667 6.32096 35.3053C7.04993 35.2439 7.75596 35.0203 8.38742 34.651C9.01887 34.2816 9.55979 33.7757 9.97061 33.1704V33.1977C9.97122 33.7527 10.192 34.2848 10.5844 34.6773C10.9768 35.0697 11.5089 35.2905 12.0639 35.2911H24.098C24.653 35.2905 25.1851 35.0698 25.5776 34.6773C25.97 34.2848 26.1908 33.7527 26.1914 33.1977V7.46417H27.2004C27.304 7.46417 27.4033 7.42303 27.4765 7.3498C27.5498 7.27657 27.5909 7.17725 27.5909 7.07369V3.14537C27.5903 2.57658 27.364 2.03126 26.9618 1.62907C26.5596 1.22687 26.0143 1.00064 25.4455 1ZM25.4104 29.3153H10.7515V12.659H25.4104V29.3153ZM7.35772 22.4376L4.87983 19.9597L6.701 18.1386C7.46642 17.373 8.64502 17.306 9.32818 17.9893C10.0113 18.6725 9.94436 19.851 9.17882 20.6164L7.35772 22.4376ZM2.35717 24.9602C2.19447 24.7975 2.0654 24.6044 1.97735 24.3918C1.88929 24.1792 1.84397 23.9514 1.84397 23.7213C1.84397 23.4912 1.88929 23.2634 1.97735 23.0508C2.0654 22.8382 2.19447 22.645 2.35717 22.4823L4.32755 20.512L6.80544 22.9898L4.835 24.9602C4.67231 25.1229 4.47916 25.252 4.26658 25.34C4.05401 25.4281 3.82617 25.4734 3.59609 25.4734C3.366 25.4734 3.13816 25.4281 2.92559 25.34C2.71301 25.252 2.51986 25.1229 2.35717 24.9602ZM5.38731 25.5125L7.63391 23.2659L9.73113 21.1687L9.88043 21.0194C9.91143 20.9884 9.94149 20.9567 9.97061 20.9244V27.6513C9.46887 26.9116 8.77414 26.3234 7.9618 25.9505C7.14946 25.5776 6.25053 25.4343 5.36251 25.5362C5.37068 25.5282 5.3792 25.5206 5.38731 25.5125ZM2.99284 27.492C3.71971 26.7668 4.69054 26.3381 5.71619 26.2895C6.74184 26.241 7.74884 26.576 8.54098 27.2293L2.73015 33.0402C2.07699 32.2479 1.74208 31.241 1.79064 30.2154C1.8392 29.1898 2.26776 28.219 2.99284 27.492ZM8.83055 33.3297C8.10361 34.0548 7.1328 34.4834 6.10719 34.532C5.08159 34.5805 4.07462 34.2456 3.28242 33.5924L9.09326 27.7816C9.54354 28.3257 9.84574 28.9767 9.97059 29.6718V31.15C9.8224 31.976 9.42452 32.7368 8.83055 33.3297ZM24.098 34.5102H12.0639C11.716 34.5098 11.3824 34.3714 11.1363 34.1253C10.8903 33.8793 10.7519 33.5457 10.7515 33.1977V31.2123C10.8121 30.8436 10.8307 30.4692 10.807 30.0963H25.4104V33.1977C25.4101 33.5457 25.2717 33.8793 25.0256 34.1253C24.7796 34.3714 24.446 34.5098 24.098 34.5102ZM25.4105 11.8781H10.7515V7.46417H25.4104L25.4105 11.8781ZM26.81 6.68323H9.35203V3.14537C9.35245 2.78363 9.49633 2.43683 9.75212 2.18105C10.0079 1.92526 10.3547 1.78138 10.7164 1.78096H25.4455C25.8073 1.78137 26.1541 1.92525 26.4099 2.18104C26.6656 2.43683 26.8095 2.78363 26.8099 3.14537L26.81 6.68323Z" fill="#5C4A04" stroke="#5C4A04"/></svg>