<svg width="44" height="29" viewBox="0 0 44 29" fill="none" xmlns="http://www.w3.org/2000/svg"><path d="M6.59314 0.0519182C6.98383 0.0334786 7.37106 0.0173446 7.7629 0.00927734C7.83781 0.020802 7.98533 0.0426978 8.05908 0.05307C8.41635 0.130285 8.78399 0.16025 9.14932 0.125676C9.78088 0.270887 10.5 0.205196 11.0774 0.516363C11.0486 1.16866 10.7974 1.7956 10.8446 2.45712C10.7662 2.44905 10.6083 2.43407 10.53 2.42601C9.17583 2.29463 7.79517 2.27734 6.44332 2.42485C5.81523 2.58966 5.09608 2.77636 4.74689 3.3814C3.85487 4.6376 3.79034 6.25912 3.56215 7.72967C3.5172 8.15724 3.37545 8.63782 3.55639 9.05616C3.7258 9.67389 4.13032 10.2478 4.8218 10.325C5.23438 10.4334 5.64581 10.4264 6.05725 10.3054C6.62311 10.2098 7.14057 9.91936 7.5739 9.54942C7.92425 9.09074 7.72717 8.43959 7.84127 7.91176L7.87699 7.79997C8.07522 7.22719 8.00722 6.59795 8.18125 6.01825C9.10322 6.04591 10.0264 5.99405 10.9483 6.04015C10.9656 6.1312 10.999 6.31098 11.0163 6.40203C10.5957 8.2817 10.4528 10.2121 10.1427 12.1114C10.0148 12.373 10.001 12.8028 9.4651 12.4848C8.97414 12.4352 8.43018 12.6104 7.96919 12.3741C8.00492 11.8037 7.97034 10.7307 7.08525 11.0108C6.34651 11.8451 5.39918 12.4778 4.31471 12.7544C3.75576 12.7233 3.19681 12.7083 2.63902 12.7395C1.36208 12.5631 0.541524 11.3749 0.394008 10.1545C0.370958 10.0185 0.347909 9.88248 0.32486 9.74764C0.362891 9.00661 0.362892 8.26672 0.364044 7.52569C0.543829 5.66906 0.784695 3.74328 1.7447 2.10677C2.5618 0.826378 4.05541 0.246685 5.51558 0.114151C5.87631 0.168317 6.23703 0.132591 6.59314 0.0519182Z" fill="#5C4A04"/><path d="M35.7702 0.176412C36.1067 0.154515 36.4387 0.153362 36.7798 0.148752C37.7882 0.157972 38.7943 0.15682 39.8027 0.121094C39.9779 0.139533 40.1542 0.159125 40.3305 0.179869C41.4761 0.336605 42.7 0.741121 43.3489 1.76567C43.6462 2.37763 43.8663 3.0426 43.9274 3.72256C43.9263 4.18355 43.9263 4.64569 43.9286 5.10783C43.8594 6.38822 43.5817 7.64096 43.312 8.89023C42.9155 9.9263 42.617 11.1502 41.6225 11.7922C40.7328 12.4652 39.5861 12.6104 38.5096 12.7164C37.7098 12.698 36.9112 12.7452 36.1148 12.6876C35.4971 12.5735 34.8678 12.5954 34.2455 12.5954C33.8917 12.592 33.546 12.5977 33.1956 12.6012C33.002 12.6023 32.6136 12.6046 32.42 12.6058C32.3578 12.6035 32.2356 12.5989 32.1745 12.5977C32.0961 11.5455 32.42 10.5233 32.5249 9.48491C32.9225 6.41127 33.41 3.34916 33.7972 0.274372C33.9459 0.265153 34.0945 0.262847 34.2455 0.266304C34.7549 0.274372 35.2643 0.261695 35.7702 0.176412ZM37.0114 1.88207V1.99501L36.8962 1.99847L36.9008 2.11141C36.449 2.22435 36.5262 2.83631 36.4732 3.1809C36.1275 5.39595 35.8647 7.62252 35.5328 9.84102C35.5017 10.1049 35.3738 10.5682 35.7126 10.6189C35.7483 10.6524 35.8209 10.7192 35.8578 10.7526L35.8613 10.8633C36.5896 10.8875 37.318 10.8656 38.0475 10.869L38.0498 10.7595C38.9245 10.6892 39.54 9.86177 39.8523 9.1069C40.2925 7.86108 40.5046 6.53804 40.5864 5.22192L40.697 5.22077C40.7063 4.60651 40.7063 3.99224 40.697 3.37912L40.5829 3.37682C40.5242 2.74872 39.9606 2.12293 39.3187 2.10795C39.2841 1.98233 39.1689 1.94315 38.9706 1.9927L38.9683 1.88322C38.316 1.86247 37.6626 1.87861 37.0114 1.88207Z" fill="#5C4A04"/><path d="M15.3865 0.290423C16.0077 0.147517 16.6427 0.0945025 17.2719 0C17.703 0.0472513 18.1351 0.0265058 18.5696 0.0242009C18.8589 0.165955 19.2058 0.130228 19.5204 0.126771C20.1128 0.209748 20.7086 0.338825 21.2572 0.580844C22.2633 1.03146 22.8257 2.07099 22.9882 3.11743C22.9778 3.44358 22.9248 3.78125 23.0239 4.10049C23.0481 4.44162 23.0746 4.78851 23.0977 5.1331C22.8222 7.06579 22.6862 9.11488 21.6663 10.8309C21.422 11.1836 21.12 11.489 20.8331 11.8059C20.2396 12.1712 19.608 12.5031 18.9119 12.6149C18.6549 12.6622 18.3991 12.7117 18.1421 12.7544C17.7364 12.7394 17.3146 12.6414 16.9274 12.7982C16.8548 12.8005 16.7107 12.8028 16.6381 12.8039C16.1633 12.7014 15.6827 12.7244 15.2033 12.7406C14.3712 12.6703 13.5472 12.4386 12.8303 12.0041C12.3451 11.7391 12.1377 11.179 11.8496 10.7341C11.7551 10.3699 11.6698 10.0034 11.6145 9.63234C11.6583 8.88323 11.6756 8.13298 11.6283 7.38503C11.7101 5.75428 12.0962 4.14198 12.6955 2.62763C13.0332 2.01682 13.3674 1.34954 13.977 0.966922C14.3919 0.639621 14.899 0.475971 15.3865 0.290423ZM16.4053 2.48127C15.8798 2.86734 15.6977 3.51273 15.5075 4.1051C15.2275 5.30828 14.9209 6.51376 14.884 7.75612L14.7711 7.75843C14.7711 8.18945 14.7699 9.0538 14.7699 9.48482L14.8806 9.48713C14.9013 10.1002 15.4971 10.7433 16.1172 10.7318C16.4134 10.7629 17.0046 10.8251 17.3008 10.8563L17.3376 10.7283C18.0499 10.7698 18.5777 10.1475 18.875 9.56665C19.4351 8.0235 19.6506 6.38238 19.842 4.762C19.8696 4.47389 19.9249 3.89765 19.9537 3.60953L19.8385 3.60723C19.7705 3.14624 19.5711 2.70254 19.2438 2.36602C18.3691 1.87276 17.2178 1.86815 16.4053 2.48127Z" fill="#5C4A04"/><path d="M4.85984 16.4676C5.50407 16.327 6.15291 16.123 6.81673 16.1103C7.70874 16.1218 8.60075 16.1115 9.49276 16.085C9.62991 16.1022 9.76705 16.1218 9.90535 16.1414C10.4931 16.2071 11.0728 16.3281 11.6467 16.471C11.5857 17.1291 11.4404 17.7722 11.2883 18.4141C10.681 18.4164 10.0748 18.4153 9.46741 18.4176C8.6918 18.4706 7.88507 18.2931 7.12559 18.489C6.64271 18.6377 6.07569 18.7852 5.80256 19.2473C5.13758 20.152 5.09955 21.3103 4.92438 22.3763C4.88289 23.4953 4.40115 24.74 4.99122 25.7761C5.2874 26.161 5.75992 26.2912 6.20823 26.4042C6.83517 26.5171 7.49323 26.5344 8.12017 26.4122C8.33453 26.3558 8.55696 26.3708 8.77708 26.3684C9.21156 26.3788 9.64374 26.3512 10.0748 26.2866C10.1981 26.2474 10.2995 26.2797 10.3767 26.3846C10.3894 26.5229 10.4032 26.6623 10.4193 26.8018C10.3963 27.3066 10.4078 27.8159 10.3825 28.3242C9.73709 28.4567 9.09171 28.6653 8.42904 28.6757C7.99455 28.6607 7.56238 28.6895 7.13481 28.7621L7.03916 28.7748C6.65538 28.7806 6.27507 28.7921 5.8936 28.7921C4.54752 28.7045 2.91101 28.5224 2.09621 27.2881C1.72627 26.6658 1.5073 25.942 1.51191 25.2171C1.51652 24.6766 1.51537 24.1407 1.51537 23.6025C1.58798 22.0824 1.90029 20.5761 2.36243 19.1309C2.77041 17.9566 3.61863 16.8214 4.85984 16.4676Z" fill="#5C4A04"/><path d="M33.6969 16.3744C33.8606 16.0505 34.2928 16.266 34.5913 16.2257C34.9762 16.2326 35.3553 16.2269 35.7437 16.228C37.2039 16.228 38.6629 16.2303 40.1243 16.2246C41.2007 16.2407 42.6793 16.674 42.7761 17.9544C42.7703 18.2979 42.7761 18.6494 42.7738 18.9962C42.7323 19.6762 42.4765 20.3239 42.171 20.9255C41.7239 21.2931 41.1811 21.5697 40.5818 21.5282C40.0079 21.5547 39.7232 22.4802 40.2695 22.7648C40.9471 22.8812 41.8276 22.9135 42.1987 23.6038C42.8107 24.8151 42.5537 26.3294 41.9452 27.4911C41.3021 28.4753 40.0413 28.5836 38.9718 28.6758C37.5105 28.6724 36.0491 28.6758 34.5889 28.6747C34.5094 28.6678 34.3504 28.6516 34.2709 28.6447C33.7649 28.5594 33.2555 28.556 32.7461 28.5594C32.5779 28.5571 32.2402 28.5514 32.072 28.5491C32.0581 28.3992 32.0501 28.2494 32.0466 28.1008C32.3958 24.9418 32.9421 21.8048 33.3328 18.6494C33.4307 17.8876 33.554 17.1292 33.6969 16.3744ZM36.7798 17.8461L36.7867 17.9579C36.5931 17.9994 36.4894 18.2057 36.3488 18.3313C36.2358 19.2048 36.1044 20.0761 35.9834 20.9485C36.0595 21.1514 36.1505 21.4821 36.4329 21.4153L36.4387 21.5248C37.1278 21.549 37.817 21.5259 38.5085 21.5282L38.5108 21.4164C38.8854 21.4614 39.1712 21.1767 39.4109 20.9335C39.8454 20.2824 39.9272 19.4411 39.8626 18.6828C39.6886 18.2944 39.3118 17.9221 38.8577 17.9544L38.8519 17.8461C38.1616 17.8219 37.469 17.8415 36.7798 17.8461ZM36.0883 22.8017L36.0952 22.9135C35.9016 22.955 35.7979 23.1613 35.6573 23.2869C35.5536 24.24 35.3553 25.1839 35.2793 26.1381C35.0684 26.4032 35.2966 26.9056 35.6273 26.8319L35.6296 26.9437C36.396 26.9517 37.1636 26.9517 37.9323 26.9448L37.9357 26.833C38.3471 26.825 38.7909 26.4988 38.9729 26.1416C39.3244 25.4224 39.5572 24.5949 39.3636 23.7963C39.2703 23.2535 38.6848 22.9216 38.1662 22.91L38.1605 22.8017C37.4701 22.7775 36.7775 22.7971 36.0883 22.8017Z" fill="#5C4A04"/><path d="M21.687 16.3432C22.6782 16.3455 23.6693 16.3294 24.6616 16.349C24.6869 16.546 24.6996 16.7454 24.7123 16.9448C24.3965 18.6193 24.166 20.3123 23.9897 22.0076C23.7903 22.7452 23.7477 23.5162 23.6174 24.2687C23.5125 24.6698 23.5102 25.072 23.6105 25.4765C23.7027 26.236 24.393 26.7385 25.1133 26.8595C25.4326 26.924 25.7818 27.0059 26.0964 26.8722C26.7579 26.6958 27.4125 26.3639 27.7202 25.7185C28.1973 24.4266 28.361 23.0494 28.55 21.6918C28.7828 19.9078 29.0859 18.1318 29.2899 16.3432C30.3179 16.3421 31.3459 16.3478 32.3739 16.334C31.9763 18.488 31.7688 20.673 31.4035 22.8328C31.211 24.1489 31.0751 25.5169 30.4331 26.7085C29.6875 28.1871 27.9899 28.7611 26.4352 28.8002C25.814 28.7922 25.1963 28.783 24.5763 28.7968C23.3581 28.6746 22.0005 28.413 21.2145 27.3723C20.9206 26.8872 20.7305 26.3443 20.6394 25.7854C20.6452 25.1239 20.6429 24.4635 20.6302 23.8043C21.0071 21.3219 21.4127 18.8383 21.687 16.3432Z" fill="#5C4A04"/><path d="M24.816 0.385946C25.7967 0.382489 26.7775 0.362898 27.7594 0.392862C27.7721 0.445876 27.7974 0.550749 27.8101 0.603763C27.4574 3.39159 26.9953 6.16789 26.5885 8.94995C26.3833 9.59764 26.8754 10.2615 27.5243 10.3214C28.8715 10.5 30.2372 10.3744 31.5937 10.409C31.5937 11.0613 31.5937 11.7136 31.596 12.3659L31.5925 12.4788C31.3862 12.4823 30.9759 12.4869 30.7696 12.4892C30.576 12.488 30.1888 12.4857 29.9952 12.4846C29.5204 12.5053 29.0294 12.4373 28.5673 12.5641C28.4244 12.5791 28.2826 12.5918 28.1409 12.601C27.1785 12.5941 26.2162 12.5998 25.2551 12.5975C24.4599 12.4627 23.7442 11.9395 23.4468 11.1788C23.3477 10.4678 23.4388 9.75668 23.5644 9.05828C23.8675 6.58393 24.2513 4.11995 24.5717 1.6479C24.6454 1.22495 24.6304 0.781243 24.816 0.385946Z" fill="#5C4A04"/><path d="M12.8038 16.3389C13.8065 16.3458 14.808 16.3412 15.8118 16.3492C15.4407 19.2016 14.9716 22.0401 14.5636 24.8867C14.4092 25.448 14.7296 26.1429 15.3116 26.2893C15.3715 26.3146 15.4914 26.3654 15.5513 26.3907C16.5032 26.5855 17.4909 26.4368 18.4578 26.4875C18.837 26.3873 19.238 26.6431 19.6091 26.4967C19.6103 27.1179 19.5999 27.7437 19.6218 28.3672C19.1055 28.5355 18.5662 28.5942 18.0257 28.5977C17.439 28.57 16.8536 28.5527 16.2658 28.5597C15.2194 28.5539 14.1718 28.5504 13.1265 28.5931C12.3036 28.4214 11.5476 27.8175 11.4013 26.9623C11.4001 26.7526 11.3989 26.3342 11.3978 26.1245C11.883 23.1984 12.2299 20.2504 12.6482 17.3139C12.684 17.1133 12.6782 16.9093 12.6598 16.7077C12.7001 16.582 12.7473 16.4587 12.8038 16.3389Z" fill="#5C4A04"/></svg>