<svg width="30" height="44" viewBox="0 0 30 44" fill="none" xmlns="http://www.w3.org/2000/svg"><path d="M7.95976 40.5035V33.4262H9.41799V40.5942C9.41799 41.1991 9.67075 41.5015 10.1763 41.5015C10.6775 41.5015 10.9281 41.1991 10.9281 40.5942V33.4262H12.3085V40.5035C12.3085 41.2509 12.1227 41.8277 11.7512 42.2339C11.3839 42.6357 10.846 42.8366 10.1374 42.8366C9.42879 42.8366 8.88871 42.6357 8.51713 42.2339C8.14555 41.8277 7.95976 41.2509 7.95976 40.5035ZM12.9307 42.72L14.4149 33.4262H16.5536L18.0378 42.72H16.5666L16.3138 41.0349H14.5186L14.2658 42.72H12.9307ZM14.7065 39.7711H16.1129L15.413 35.0723L14.7065 39.7711ZM18.5951 40.4905V35.6556C18.5951 34.9082 18.7809 34.3335 19.1525 33.9317C19.5241 33.5255 20.0642 33.3225 20.7728 33.3225C21.4814 33.3225 22.0215 33.5255 22.393 33.9317C22.7646 34.3335 22.9504 34.9082 22.9504 35.6556V36.563H21.5699V35.5649C21.5699 34.9557 21.3193 34.6511 20.8181 34.6511C20.3126 34.6511 20.0599 34.9557 20.0599 35.5649V40.5812C20.0599 41.1861 20.3126 41.4886 20.8181 41.4886C21.3193 41.4886 21.5699 41.1861 21.5699 40.5812V39.2526H22.9504V40.4905C22.9504 41.238 22.7646 41.8148 22.393 42.2209C22.0215 42.6228 21.4814 42.8237 20.7728 42.8237C20.0642 42.8237 19.5241 42.6228 19.1525 42.2209C18.7809 41.8148 18.5951 41.238 18.5951 40.4905Z" fill="#5C4A04"/><path d="M29.6288 12.5173C24.9528 12.515 20.2768 12.5161 15.6009 12.5167C15.6015 14.4561 15.5986 16.3956 15.602 18.3344C18.31 18.3338 21.018 18.3333 23.7255 18.3344C23.4117 20.1929 22.3072 21.8925 20.7409 22.9388C19.7563 23.6008 18.625 24.0306 17.4588 24.2349C16.285 24.4352 15.0722 24.4608 13.9013 24.2238C12.7106 23.9862 11.574 23.4901 10.5825 22.7909C8.99711 21.677 7.78716 20.0473 7.16592 18.2133C6.53068 16.3478 6.52602 14.272 7.16883 12.4083C7.61484 11.0948 8.3572 9.88136 9.33242 8.89391C10.5353 7.66245 12.0993 6.78212 13.7842 6.42112C15.227 6.11313 16.7484 6.17191 18.161 6.59926C19.3616 6.96377 20.4684 7.62167 21.375 8.48746C22.2914 7.57623 23.2032 6.65979 24.1179 5.74686C24.5977 5.25547 25.1019 4.78558 25.5666 4.2808C24.1773 2.99517 22.5488 1.96173 20.7694 1.30844C17.5659 0.129453 13.9531 0.104429 10.7281 1.22064C7.09369 2.46488 3.99906 5.18276 2.28324 8.61803C1.68587 9.80174 1.24974 11.0652 0.987739 12.3647C0.328629 15.6026 0.788031 19.0547 2.28148 22.0038C3.25209 23.9286 4.64363 25.6399 6.33158 26.9813C7.92404 28.2512 9.78019 29.1892 11.7482 29.7127C14.2315 30.3787 16.8748 30.3636 19.3744 29.7948C21.6335 29.2748 23.7709 28.1953 25.4775 26.6198C27.2813 24.9621 28.568 22.7781 29.2492 20.4311C29.9922 17.871 30.0947 15.1379 29.6288 12.5173Z" fill="#5C4A04"/></svg>