<svg width="42" height="41" viewBox="0 0 42 41" fill="none" xmlns="http://www.w3.org/2000/svg"><path d="M30.9811 5.06453C31.3152 4.90145 31.7269 5.01097 31.9747 5.27557C33.2698 6.5674 34.5608 7.86243 35.8558 9.15426C36.0173 9.31574 36.1612 9.51399 36.182 9.74981C36.2491 10.323 35.6744 10.869 35.1044 10.7603C34.8118 10.7115 34.604 10.4813 34.4057 10.2814C33.1826 9.05433 31.9563 7.83125 30.7317 6.60657C30.5846 6.45948 30.4519 6.28601 30.4151 6.07737C30.3296 5.65928 30.603 5.2324 30.9811 5.06453Z" fill="#5C4A04"/><path d="M28.1085 6.67206C28.4146 6.58573 28.7408 6.71123 28.9558 6.93427C30.6937 8.66417 32.4236 10.4021 34.1599 12.1336C34.3366 12.3054 34.5013 12.5165 34.522 12.7723C34.5796 13.3167 34.0656 13.8339 33.5212 13.7875C33.2806 13.7699 33.0743 13.6284 32.9113 13.4614C31.2333 11.781 29.5538 10.1039 27.875 8.42435C27.6784 8.2285 27.4514 8.02785 27.3986 7.74086C27.3011 7.26922 27.6552 6.78798 28.1085 6.67206Z" fill="#5C4A04"/><path d="M15.4351 19.0988C18.9124 15.6222 22.3858 12.1416 25.8664 8.66898C28.0784 10.8849 30.2951 13.0961 32.507 15.312C29.0313 18.7894 25.5539 22.2652 22.0781 25.7418C21.7559 25.4204 21.4362 25.0975 21.1124 24.7801C21.0508 24.7113 20.9517 24.6474 20.9773 24.5403C21.0269 23.35 20.5696 22.1357 19.6959 21.3171C18.8645 20.5201 17.687 20.1228 16.543 20.2019C16.1705 19.8374 15.806 19.4649 15.4351 19.0988Z" fill="#5C4A04"/><path d="M16.2584 22.1509C16.9675 21.9998 17.7597 22.1429 18.3144 22.6274C18.882 23.103 19.1434 23.8768 19.0683 24.6043C18.9372 26.0216 17.7325 27.2527 16.3207 27.4246C15.6053 27.5213 14.8323 27.2959 14.3342 26.7603C13.853 26.2614 13.6603 25.5332 13.7483 24.8545C13.9089 23.5475 14.9737 22.4179 16.2584 22.1509Z" fill="#5C4A04"/><path d="M6.62476 28.419C7.7695 26.6923 9.27237 25.2518 10.7345 23.7993C11.0806 24.147 11.4284 24.494 11.7753 24.8417C11.8712 24.9224 11.8169 25.0615 11.832 25.1694C11.8105 26.4781 12.4452 27.7867 13.5116 28.5525C14.2926 29.1337 15.2799 29.3887 16.2463 29.3463C16.6516 29.6677 16.997 30.0826 17.3751 30.4439C15.7491 32.0787 14.1263 33.7678 12.123 34.9469C11.0462 35.5776 9.84074 36.0845 8.57289 36.0797C7.66398 36.0789 6.73667 35.7335 6.12513 35.0452C5.33373 34.3434 5.01237 33.2354 5.1075 32.2034C5.22661 30.8244 5.87092 29.5558 6.62476 28.419Z" fill="#5C4A04"/></svg>