<svg width="34" height="44" viewBox="0 0 34 44" fill="none" xmlns="http://www.w3.org/2000/svg"><path d="M11 43.3975L12.4842 34.1037H14.6229L16.1071 43.3975H14.6359L14.3831 41.7124H12.5879L12.3351 43.3975H11ZM12.7758 40.4486H14.1822L13.4822 35.7499L12.7758 40.4486Z" fill="#5C4A04"/><path d="M16.7876 43.3975V34.1037H19.0948C19.8164 34.1037 20.3586 34.3003 20.7216 34.6935C21.0888 35.0867 21.2725 35.657 21.2725 36.4045V41.1032C21.2725 41.8507 21.0888 42.421 20.7216 42.8142C20.3586 43.2031 19.8164 43.3975 19.0948 43.3975H16.7876ZM18.2458 42.0689H19.0689C19.3109 42.0689 19.4945 41.9998 19.6198 41.8615C19.7494 41.7189 19.8142 41.4878 19.8142 41.168V36.3332C19.8142 36.0134 19.7494 35.7844 19.6198 35.6462C19.4945 35.5036 19.3109 35.4323 19.0689 35.4323H18.2458V42.0689Z" fill="#5C4A04"/><path d="M21.9789 41.168V40.5977H23.3593V41.2588C23.3593 41.8637 23.6121 42.1661 24.1176 42.1661C24.6232 42.1661 24.8759 41.8637 24.8759 41.2588C24.8759 40.9995 24.8219 40.7554 24.7139 40.5264C24.6102 40.2974 24.4741 40.0922 24.3056 39.9107C24.1414 39.7249 23.9578 39.5413 23.7547 39.3598C23.5516 39.174 23.3464 38.9818 23.139 38.783C22.9359 38.5799 22.7501 38.3661 22.5816 38.1414C22.4174 37.9167 22.2813 37.6488 22.1733 37.3377C22.0696 37.0266 22.0178 36.6918 22.0178 36.3332C22.0178 35.5857 22.1992 35.011 22.5622 34.6092C22.9294 34.2031 23.4652 34 24.1695 34C24.8738 34 25.4074 34.2031 25.7703 34.6092C26.1376 35.011 26.3212 35.5857 26.3212 36.3332V36.6313H24.9407V36.2424C24.9407 35.6332 24.6966 35.3286 24.2084 35.3286C23.9664 35.3286 23.7849 35.4021 23.664 35.549C23.543 35.6916 23.4825 35.9227 23.4825 36.2424C23.4825 36.5017 23.5343 36.7458 23.638 36.9748C23.746 37.2038 23.8822 37.4112 24.0463 37.597C24.2148 37.7784 24.4006 37.9621 24.6037 38.1479C24.8068 38.3293 25.0099 38.5216 25.2129 38.7247C25.416 38.9234 25.5996 39.1351 25.7638 39.3598C25.9323 39.5845 26.0684 39.8524 26.1721 40.1635C26.2801 40.4746 26.3341 40.8094 26.3341 41.168C26.3341 41.9155 26.1484 42.4923 25.7768 42.8985C25.4052 43.3003 24.8651 43.5012 24.1565 43.5012C23.4479 43.5012 22.9078 43.3003 22.5363 42.8985C22.1647 42.4923 21.9789 41.9155 21.9789 41.168Z" fill="#5C4A04"/><path d="M32.1864 6.52306L27.5766 28.2625C27.2289 29.7968 26.3219 30.1786 25.033 29.4559L18.0094 24.2801L14.6204 27.5397C14.2455 27.9147 13.9317 28.2285 13.2089 28.2285L13.7134 21.0751L26.7311 9.31206C27.2971 8.8075 26.6084 8.52786 25.8514 9.03249L9.75839 19.1657L2.83016 16.9973C1.32314 16.5267 1.29591 15.4902 3.1438 14.7674L30.2429 4.32734C31.4975 3.85685 32.5955 4.60684 32.1864 6.52306Z" fill="#5C4A04"/></svg>