<svg width="34" height="34" viewBox="0 0 34 34" fill="none" xmlns="http://www.w3.org/2000/svg"><g clip-path="url(#clip0_191_14877)"><path d="M25.168 17.6574L12.5441 9.21719C12.1789 8.97149 11.6809 9.0711 11.4418 9.43633L6.61406 16.6613C6.36836 17.0266 6.46797 17.5246 6.8332 17.7637L19.457 26.2039C19.8223 26.4496 20.3203 26.35 20.5594 25.9848L25.3871 18.7598C25.6328 18.3945 25.5332 17.8965 25.168 17.6574Z" fill="#5C4A04"/><path d="M26.7152 1.68672C23.209 -0.657419 18.4676 0.28555 16.1301 3.7918C15.1539 5.25274 14.7488 6.91953 14.8617 8.54649L24.909 15.2602C26.4496 14.7422 27.8441 13.7262 28.8203 12.2719C31.1578 8.76563 30.2148 4.03086 26.7152 1.68672Z" fill="#5C4A04"/><path d="M4.05078 29.2387C3.75196 29.7434 3.90469 30.3941 4.38946 30.7195L8.42032 33.4156C8.90508 33.741 9.5625 33.6281 9.91446 33.1633L15.5059 25.7855L8.72578 21.25L4.05078 29.2387Z" fill="#5C4A04"/></g><defs><clipPath id="clip0_191_14877"><rect width="34" height="34" fill="white"/></clipPath></defs></svg>