<svg width="32" height="44" viewBox="0 0 32 44" fill="none" xmlns="http://www.w3.org/2000/svg"><path d="M31.5947 15.5947C31.5947 6.98199 24.6127 0 16 0C7.38728 0 0.405289 6.98199 0.405289 15.5947C0.405289 23.3785 6.10808 29.8301 13.5633 31V20.1026H9.60374V15.5947H13.5633V12.159C13.5633 8.25058 15.8915 6.09169 19.4537 6.09169C21.1599 6.09169 22.9445 6.39627 22.9445 6.39627V10.234H20.9781C19.0409 10.234 18.4367 11.4361 18.4367 12.6694V15.5947H22.7618L22.0704 20.1026H18.4367V31C25.892 29.8301 31.5947 23.3785 31.5947 15.5947Z" fill="#5C4A04"/><path d="M7.96087 43.3975L9.44503 34.1037H11.5838L13.0679 43.3975H11.5967L11.344 41.7124H9.54872L9.29596 43.3975H7.96087ZM9.73667 40.4486H11.1431L10.4431 35.7499L9.73667 40.4486Z" fill="#5C4A04"/><path d="M13.7484 43.3975V34.1037H16.0557C16.7772 34.1037 17.3195 34.3003 17.6824 34.6935C18.0497 35.0867 18.2333 35.657 18.2333 36.4045V41.1032C18.2333 41.8507 18.0497 42.421 17.6824 42.8142C17.3195 43.2031 16.7772 43.3975 16.0557 43.3975H13.7484ZM15.2067 42.0689H16.0298C16.2717 42.0689 16.4554 41.9998 16.5807 41.8615C16.7103 41.7189 16.7751 41.4878 16.7751 41.168V36.3332C16.7751 36.0134 16.7103 35.7844 16.5807 35.6462C16.4554 35.5036 16.2717 35.4323 16.0298 35.4323H15.2067V42.0689Z" fill="#5C4A04"/><path d="M18.9398 41.168V40.5977H20.3202V41.2588C20.3202 41.8637 20.573 42.1661 21.0785 42.1661C21.584 42.1661 21.8368 41.8637 21.8368 41.2588C21.8368 40.9995 21.7828 40.7554 21.6748 40.5264C21.5711 40.2974 21.435 40.0922 21.2664 39.9107C21.1023 39.7249 20.9186 39.5413 20.7156 39.3598C20.5125 39.174 20.3073 38.9818 20.0999 38.783C19.8968 38.5799 19.711 38.3661 19.5425 38.1414C19.3783 37.9167 19.2422 37.6488 19.1342 37.3377C19.0305 37.0266 18.9786 36.6918 18.9786 36.3332C18.9786 35.5857 19.1601 35.011 19.523 34.6092C19.8903 34.2031 20.4261 34 21.1303 34C21.8346 34 22.3682 34.2031 22.7312 34.6092C23.0984 35.011 23.2821 35.5857 23.2821 36.3332V36.6313H21.9016V36.2424C21.9016 35.6332 21.6575 35.3286 21.1692 35.3286C20.9273 35.3286 20.7458 35.4021 20.6248 35.549C20.5038 35.6916 20.4434 35.9227 20.4434 36.2424C20.4434 36.5017 20.4952 36.7458 20.5989 36.9748C20.7069 37.2038 20.843 37.4112 21.0072 37.597C21.1757 37.7784 21.3615 37.9621 21.5646 38.1479C21.7676 38.3293 21.9707 38.5216 22.1738 38.7247C22.3769 38.9234 22.5605 39.1351 22.7247 39.3598C22.8932 39.5845 23.0293 39.8524 23.133 40.1635C23.241 40.4746 23.295 40.8094 23.295 41.168C23.295 41.9155 23.1092 42.4923 22.7376 42.8985C22.3661 43.3003 21.826 43.5012 21.1174 43.5012C20.4088 43.5012 19.8687 43.3003 19.4971 42.8985C19.1255 42.4923 18.9398 41.9155 18.9398 41.168Z" fill="#5C4A04"/></svg>