<svg width="19" height="46" viewBox="0 0 19 46" fill="none" xmlns="http://www.w3.org/2000/svg"><path d="M3.1492 0.24659C3.70762 0.0957811 4.28951 0.146999 4.86144 0.133483C6.70174 0.130638 8.54274 0.117833 10.383 0.141308C9.92634 0.351871 9.44261 0.622189 9.23347 1.10591C9.01224 1.64868 9.00868 2.24907 8.99019 2.82599C8.81306 2.86582 8.52993 2.84235 8.49223 3.07781C8.43106 3.41997 8.46947 3.78419 8.59467 4.10857C8.63095 4.22381 8.74405 4.2793 8.8344 4.34617C8.78603 4.77298 8.7405 5.20051 8.66367 5.62306C8.62383 5.84358 8.50717 6.06766 8.29021 6.15729C7.89682 6.32873 7.4572 6.30383 7.03963 6.33798C6.95854 6.3892 6.89452 6.48523 6.78995 6.48523C6.06507 6.56419 5.27048 6.54 4.65373 6.99101C3.99358 7.48967 3.58526 8.23304 3.19401 8.94441C2.8241 9.60882 2.55521 10.3216 2.29699 11.0344C1.65107 12.4784 0.847232 13.8756 0.516449 15.4377C0.496531 15.7543 0.682907 16.0345 0.746929 16.3376C0.800993 16.5624 0.841541 16.8597 1.11186 16.9216C1.57353 17.0297 2.05584 16.9657 2.52676 16.9842C2.52676 17.1428 2.52818 17.3022 2.53031 17.4615C2.34749 17.6536 2.14973 17.8329 1.9847 18.0406C1.75635 18.333 1.71794 18.7178 1.63115 19.0671C1.48817 19.8033 1.31957 20.5631 1.46896 21.3128C1.80117 22.9511 2.96069 24.2643 3.37612 25.8755C3.69766 25.9445 4.02559 25.9829 4.35069 26.0363C4.98024 27.2484 5.75349 28.3795 6.53243 29.4999C6.99268 30.1665 7.5006 30.7988 8.01064 31.4284C8.3151 31.7435 8.66083 32.0167 8.97098 32.3276C10.1924 33.5604 11.4835 34.7519 12.9916 35.629C13.1709 36.0259 13.348 36.4243 13.4846 36.8383C13.2911 37.0453 13.2498 37.3384 13.3814 37.5916C13.7442 38.3784 14.2756 39.0947 14.4947 39.9448C14.5587 40.1483 14.4093 40.3389 14.4207 40.5424C14.4549 40.7501 14.6149 40.9016 14.7458 41.056C14.7373 41.9622 14.5978 42.86 14.5082 43.7599C14.4798 44.1881 14.4506 44.6555 14.6825 45.0375C14.8056 45.258 15.0133 45.4095 15.211 45.5589C11.7851 45.5717 8.35921 45.5681 4.93329 45.5582C4.27173 45.5461 3.59095 45.6009 2.95144 45.3917C1.45189 44.9443 0.288102 43.4924 0.280989 41.9103C0.247555 38.234 0.264626 34.5577 0.259646 30.8814C0.262492 21.8691 0.256091 12.8576 0.288103 3.84608C0.247555 2.17367 1.53725 0.621477 3.1492 0.24659ZM2.64555 36.3197C2.64555 38.6053 2.64555 40.8909 2.64555 43.1765C2.91018 43.1772 3.17481 43.178 3.43943 43.1708C3.46504 42.1102 3.4245 41.0489 3.43161 39.9882C3.43801 39.2648 3.37114 38.5427 3.39817 37.82C3.67774 39.6119 4.05476 41.3882 4.36278 43.1758C4.7519 43.178 5.14101 43.1751 5.53013 43.1794C5.53084 40.8916 5.53084 38.6046 5.53013 36.3176C5.25625 36.319 4.98166 36.319 4.70779 36.319C4.72059 37.7069 4.74691 39.0962 4.83299 40.4819C4.86856 40.9052 4.9027 41.3291 4.89488 41.7538C4.57477 39.9406 4.24256 38.1301 3.91605 36.3176C3.49207 36.3197 3.06881 36.3183 2.64555 36.3197ZM6.16821 36.3176C6.1675 38.6053 6.1675 40.8938 6.16821 43.1822C6.68324 43.1701 7.19827 43.1801 7.71258 43.158C8.24895 43.1324 8.68928 42.6494 8.71418 42.1223C8.7341 41.6229 8.72627 41.1236 8.72058 40.6249C8.72342 40.3026 8.54132 40.0217 8.31653 39.8075C8.54416 39.5963 8.72271 39.3153 8.71844 38.9952C8.72698 38.4481 8.74903 37.9004 8.71347 37.3548C8.67932 36.8518 8.28665 36.3916 7.77447 36.3411C7.24095 36.2991 6.70387 36.3283 6.16821 36.3176ZM9.84453 36.3204C9.5735 38.606 9.2918 40.8909 9.02362 43.1772C9.32808 43.1765 9.63326 43.1758 9.93843 43.1787C9.99818 42.7177 10.0039 42.2511 10.0665 41.7908C10.3389 41.7844 10.6107 41.7851 10.8831 41.7851C10.9215 42.2496 10.9528 42.7156 11.0048 43.1794C11.3213 43.1765 11.6379 43.1765 11.9544 43.1701C11.6998 40.8852 11.4287 38.6011 11.1613 36.3176C10.7224 36.3204 10.2834 36.3169 9.84453 36.3204Z" fill="#5C4A04"/><path d="M10.314 38.6509C10.373 38.1203 10.3624 37.5817 10.4662 37.0568C10.5914 38.3699 10.7159 39.6838 10.8176 40.9998C10.5886 41.0034 10.3595 41.0027 10.1305 40.9977C10.1788 40.2145 10.2585 39.4334 10.314 38.6509Z" fill="#5C4A04"/><path d="M7.08157 37.1855C7.31988 37.214 7.71611 37.1059 7.79222 37.421C7.82281 38.0171 7.81214 38.6161 7.80147 39.2129C7.72536 39.5231 7.32486 39.4192 7.08869 39.4477C7.07944 38.6936 7.08655 37.9396 7.08157 37.1855Z" fill="#5C4A04"/><path d="M7.08371 40.1838C7.31775 40.2173 7.69975 40.1291 7.79151 40.4172C7.82139 40.9621 7.81854 41.512 7.79364 42.0569C7.72464 42.377 7.32344 42.293 7.08157 42.3087C7.08584 41.6002 7.08228 40.8924 7.08371 40.1838Z" fill="#5C4A04"/><path d="M11.6514 0.139301C12.8984 0.130764 14.1461 0.132898 15.3938 0.143569C16.8948 0.189807 18.3033 1.23053 18.787 2.65396C19.0538 3.30628 18.9634 4.02191 18.9898 4.70837C19.0026 10.5216 18.9898 16.3349 18.9826 22.1481C18.8446 21.8451 18.6412 21.5762 18.5281 21.2625C18.4498 20.9772 18.1297 20.9054 17.9071 20.7688C17.8302 20.655 17.7911 20.4921 17.6488 20.4437C17.4489 20.342 17.1943 20.3391 17.0207 20.2011C16.7618 19.5452 16.8215 18.8132 16.6067 18.1439C16.4104 17.4247 16.0042 16.7901 15.736 16.1001C15.5461 15.3923 15.4842 14.6582 15.3099 13.9468C15.1484 13.4169 15.2516 12.857 15.206 12.3128C15.1384 11.2465 14.93 10.1211 14.24 9.26891C13.7613 8.67919 13.0741 8.32422 12.4673 7.88887C12.4609 7.84548 12.4481 7.75869 12.4417 7.7153C12.091 7.4272 11.6755 7.24224 11.2786 7.03097C11.0531 6.92853 11.0986 6.55364 11.295 6.44267C11.7602 6.12327 11.9729 5.57552 12.2396 5.10105C12.3734 5.03347 12.5263 4.97371 12.5953 4.82931C12.7412 4.57393 12.9162 4.33064 13.0207 4.05463C13.0904 3.88106 12.9894 3.72029 12.8856 3.59011C13.1303 3.09501 13.3458 2.56077 13.3081 1.99738C13.3124 1.62178 13.1708 1.20777 12.8287 1.01356C12.6366 0.899035 12.5398 0.687049 12.3727 0.546199C12.1578 0.36907 11.8982 0.260943 11.6514 0.139301Z" fill="#5C4A04"/><path d="M11.4792 13.451C11.869 13.1764 12.271 12.9146 12.7035 12.714C12.9076 13.7383 13.0791 14.7698 13.2967 15.792C13.4084 16.29 13.4838 16.805 13.71 17.2681C14.1724 18.2242 14.6654 19.1682 15.0687 20.152C14.378 20.354 13.7285 20.7296 13.2733 21.2944C12.5242 22.1794 12.3001 23.4669 12.6956 24.5553C12.9119 25.2083 13.3636 25.7611 13.9078 26.1722C14.8077 26.8253 16.0369 26.9803 17.0719 26.5763C17.9434 26.2519 18.6419 25.5469 18.9983 24.6926C18.9983 30.3828 19.0068 36.073 18.9855 41.7631C19.0346 42.9895 18.3844 44.2024 17.375 44.8882C16.909 45.2189 16.3627 45.4195 15.8014 45.5149C16.2041 45.2239 16.5747 44.8341 16.6622 44.3269C16.8343 43.3986 16.4175 42.5151 16.155 41.6479C16.0447 41.4025 16.2546 41.1357 16.1109 40.896C15.8477 40.4094 15.8335 39.846 15.7196 39.3161C15.5532 38.5521 15.864 37.8051 15.9971 37.0625C16.0725 36.6207 15.8235 36.216 15.6108 35.851C15.4351 35.5444 15.1392 35.299 15.0609 34.9433C14.8283 33.6856 14.6668 32.4137 14.3851 31.1646C14.1511 30.0449 13.348 29.172 12.9567 28.1143C12.6729 27.4662 12.6693 26.7477 12.5825 26.057C12.4509 24.6549 12.1685 23.2706 11.7702 21.9211C11.8484 21.8457 11.9267 21.771 12.0063 21.6971C11.6229 20.3633 11.2829 19.0159 10.8532 17.6957C10.743 17.3072 10.4577 17.017 10.1205 16.8143C10.1106 16.6201 10.1347 16.4237 10.208 16.2431C10.5167 15.4385 10.8226 14.6318 11.1577 13.8379C11.2181 13.6758 11.3376 13.547 11.4792 13.451Z" fill="#5C4A04"/></svg>