<svg width="34" height="34" viewBox="0 0 34 34" fill="none" xmlns="http://www.w3.org/2000/svg"><path fill-rule="evenodd" clip-rule="evenodd" d="M32.4674 9.90301C32.4334 9.97622 32.3919 10.0465 32.332 10.1071L11.6812 30.7436C11.6006 30.8827 11.4888 31.0039 11.3297 31.0646L1.07905 33.9339C1.05759 33.9443 1.03317 33.9458 1.00949 33.9532L0.974709 33.9635C0.968789 33.9657 0.962129 33.9643 0.956949 33.9665C0.887388 33.985 0.818566 34.0005 0.745305 33.9998C0.672784 34.002 0.605443 33.9887 0.536622 33.9694C0.521081 33.965 0.507021 33.968 0.491481 33.9628C0.485561 33.9606 0.481861 33.9554 0.47594 33.9532C0.410819 33.9288 0.354578 33.8918 0.298337 33.8489C0.269477 33.8282 0.239136 33.8097 0.214716 33.7853C0.190296 33.7609 0.171795 33.7306 0.151075 33.7017C0.108154 33.6463 0.0718935 33.5893 0.0467331 33.5242C0.043773 33.5183 0.039333 33.5146 0.0371129 33.5087C0.0319328 33.4939 0.0348928 33.4791 0.0304528 33.4636C0.0119524 33.3956 -0.00136779 33.3275 0.000112235 33.2558C0.000112235 33.1818 0.0149125 33.1131 0.0334129 33.0435C0.0363729 33.0376 0.0341528 33.0317 0.0363729 33.0265L0.0467331 32.9903C0.0548732 32.9681 0.0563533 32.9437 0.0659734 32.9215L2.93722 22.6776C2.9979 22.5179 3.11927 22.4084 3.25839 22.3263L23.5932 2.00412C23.6228 1.97084 23.6576 1.94274 23.6879 1.9102L23.9092 1.68908C23.9203 1.67799 23.9343 1.67429 23.9462 1.66394C25.0148 0.643389 26.4489 0 28.0451 0C31.3337 0 34 2.66452 34 5.95097C34 7.47514 33.4117 8.8514 32.4674 9.90301ZM29.6709 10.7231L26.9928 8.04679L9.49892 25.53C9.50188 25.5359 9.50928 25.5381 9.51224 25.544L11.2683 29.1137L29.6709 10.7231ZM1.8531 32.1495L3.91404 31.5734L2.42957 30.0906L1.8531 32.1495ZM2.87728 28.494L5.51025 31.126L10.0391 29.8577C10.0391 29.8577 8.12545 25.8849 8.12249 25.8834L4.14566 23.9681L2.87728 28.494ZM8.46216 24.4961C8.46808 24.4991 8.4703 24.5057 8.47622 24.5094L25.9709 7.02551L23.2928 4.34916L4.89012 22.7397L8.46216 24.4961ZM28.0222 1.47905C26.7035 1.47905 25.5269 2.05293 24.7003 2.95367L24.6951 2.94849L24.3147 3.32787L30.6929 9.70186L31.0829 9.31139L31.0784 9.30695C31.9731 8.48164 32.5429 7.30949 32.5429 5.99683C32.5429 3.50166 30.519 1.47905 28.0222 1.47905Z" fill="#5C4A04"/></svg>