<svg width="44" height="44" viewBox="0 0 44 44" fill="none" xmlns="http://www.w3.org/2000/svg"><g clip-path="url(#clip0_119_8864)"><mask id="mask0_119_8864" style="mask-type:luminance" maskUnits="userSpaceOnUse" x="0" y="0" width="44" height="44"><path d="M43.26 0H1.52588e-05V43.26H43.26V0Z" fill="white"/></mask><g mask="url(#mask0_119_8864)"><path fill-rule="evenodd" clip-rule="evenodd" d="M21.63 39.8807C25.2397 39.8807 28.7682 38.8103 31.7696 36.8049C34.7709 34.7995 37.1101 31.9491 38.4915 28.6143C39.8728 25.2794 40.2342 21.6098 39.53 18.0695C38.8258 14.5292 37.0876 11.2772 34.5352 8.72481C31.9828 6.1724 28.7308 4.43419 25.1905 3.72998C21.6503 3.02578 17.9807 3.3872 14.6458 4.76855C11.3109 6.14991 8.46052 8.48915 6.45511 11.4905C4.44969 14.4918 3.37931 18.0204 3.37931 21.63C3.37979 26.4702 5.30278 31.1121 8.72534 34.5347C12.1479 37.9572 16.7898 39.8802 21.63 39.8807ZM21.63 43.26C25.908 43.26 30.09 41.9914 33.647 39.6147C37.204 37.238 39.9764 33.8598 41.6135 29.9074C43.2506 25.9551 43.679 21.606 42.8444 17.4102C42.0098 13.2144 39.9497 9.3603 36.9247 6.33529C33.8997 3.31028 30.0456 1.25022 25.8498 0.415624C21.654 -0.418974 17.3049 0.00937199 13.3526 1.6465C9.40021 3.28362 6.02206 6.05599 3.64533 9.61302C1.26859 13.1701 1.52588e-05 17.352 1.52588e-05 21.63C1.52588e-05 27.3666 2.27888 32.8683 6.33529 36.9247C10.3917 40.9811 15.8934 43.26 21.63 43.26Z" fill="#5C4A04"/><path fill-rule="evenodd" clip-rule="evenodd" d="M18.0211 42.9599C14.5904 42.381 11.3512 40.9789 8.58116 38.8736V22.0151C8.58116 14.602 14.4231 8.58112 21.63 8.58112C28.837 8.58112 34.6789 14.5948 34.6789 22.0151C34.6789 29.4354 28.837 35.4509 21.63 35.4509C21.3498 35.4509 21.0731 35.4509 20.7965 35.4238V25.6331C21.0696 25.6985 21.3493 25.7318 21.63 25.7325C23.6189 25.7325 25.2462 24.0673 25.2462 22.0151C25.2462 19.9629 23.6298 18.2995 21.63 18.2995C19.6303 18.2995 18.0139 19.9629 18.0139 22.0151V42.9599H18.0211Z" fill="#5C4A04"/></g></g><defs><clipPath id="clip0_119_8864"><rect width="43.26" height="43.26" fill="white"/></clipPath></defs></svg>