<svg width="44" height="44" viewBox="0 0 44 44" fill="none" xmlns="http://www.w3.org/2000/svg"><path d="M10 32V9H15.3765C17.1795 9 18.5344 9.48652 19.4413 10.4596C20.359 11.4326 20.8178 12.844 20.8178 14.6939V17.6771C20.8178 19.527 20.359 20.9384 19.4413 21.9114C18.5344 22.8738 17.1795 23.355 15.3765 23.355H13.6437V32H10ZM13.6437 20.083H15.3765C15.9811 20.083 16.4291 19.9172 16.7206 19.5858C17.0121 19.2543 17.1579 18.6929 17.1579 17.9017V14.4533C17.1579 13.662 17.0121 13.106 16.7206 12.7852C16.4291 12.4537 15.9811 12.288 15.3765 12.288H13.6437V20.083Z" fill="#5C4A04"/><path d="M22.664 32V9H28.17C30.0378 9 31.4035 9.43305 32.2672 10.2992C33.1417 11.1653 33.5789 12.4965 33.5789 14.2929V16.1053C33.5789 18.4684 32.78 20.0242 31.1822 20.7727C32.0567 21.1362 32.6775 21.7243 33.0445 22.537C33.4224 23.3496 33.6113 24.3921 33.6113 25.6646V29.2092C33.6113 30.4816 33.7409 31.4119 34 32H30.2915C30.2051 31.7327 30.1458 31.5349 30.1134 31.4066C30.081 31.2675 30.0432 31.0109 30 30.6367C29.9676 30.2517 29.9514 29.7652 29.9514 29.1771V25.5683C29.9514 24.5098 29.7625 23.7559 29.3846 23.3068C29.0067 22.8577 28.4022 22.6332 27.5709 22.6332H26.3077V32H22.664ZM26.3077 19.3612H27.7328C28.4561 19.3612 29.0013 19.1795 29.3684 18.8159C29.7355 18.4417 29.919 17.8108 29.919 16.9233V14.6618C29.919 13.8384 29.7733 13.2397 29.4818 12.8654C29.1903 12.4805 28.7206 12.288 28.0729 12.288H26.3077V19.3612Z" fill="#5C4A04"/></svg>