<svg width="41" height="22" viewBox="0 0 41 22" fill="none" xmlns="http://www.w3.org/2000/svg"><path d="M39.5177 15.2323C40.4518 16.5256 40.2362 18.3219 39.0148 19.256C37.1467 20.693 34.8475 21.4833 32.4764 21.4833C30.1053 21.4833 27.8061 20.693 25.938 19.256C24.6447 18.3219 24.4291 16.4538 25.435 15.2323C26.441 14.0109 28.2372 13.7235 29.4587 14.7294C30.3209 15.376 31.3986 15.7353 32.5482 15.7353C33.6978 15.7353 34.7037 15.376 35.6378 14.7294C36.7156 13.7235 38.5118 13.939 39.5177 15.2323ZM28.5965 7.40061C29.5305 6.32285 30.8957 5.6762 32.4045 5.6762C33.5541 5.6762 34.56 6.03545 35.4941 6.75396C36.7156 7.68801 38.5837 7.47246 39.5177 6.251C40.4518 5.02954 40.2362 3.16143 39.0148 2.22737C37.1467 0.790356 34.8474 0 32.4045 0C29.315 0 26.3691 1.29331 24.3573 3.59253L14.6575 14.0109L14.5856 14.0827C13.6516 15.1605 12.2864 15.8071 10.7776 15.8071C7.9754 15.8071 5.74804 13.5798 5.74804 10.7776C5.74804 7.97542 7.9754 5.74805 10.7776 5.74805C11.9272 5.74805 12.9331 6.1073 13.8671 6.82581C15.1604 7.75986 16.9567 7.54431 17.8908 6.32285C18.8248 5.02954 18.6093 3.23328 17.3878 2.29922C15.5197 0.862207 13.2205 0.0718502 10.7776 0.0718502C9.3617 0.0699586 7.95939 0.347438 6.65094 0.888393C5.34249 1.42935 4.15363 2.22315 3.15246 3.22431C2.1513 4.22548 1.3575 5.41435 0.816549 6.7228C0.275596 8.03125 -0.00188199 9.43358 9.60657e-06 10.8494C9.60657e-06 16.813 4.81398 21.627 10.7776 21.627C13.8671 21.627 16.813 20.3337 18.8248 18.0345L28.5965 7.40061Z" fill="#5C4A04"/></svg>