<svg width="40" height="40" viewBox="0 0 40 40" fill="none" xmlns="http://www.w3.org/2000/svg"><path fill-rule="evenodd" clip-rule="evenodd" d="M11.6481 8.15082C17.2077 7.71587 22.7925 7.71587 28.352 8.15082L32.0865 8.44298C34.1667 8.60572 35.8683 10.1647 36.2122 12.2227C37.0725 17.3718 37.0725 22.6281 36.2122 27.7773C35.8683 29.8351 34.1667 31.3941 32.0865 31.5569L28.352 31.8491C22.7925 32.284 17.2077 32.284 11.6481 31.8491L7.91363 31.5569C5.83351 31.3941 4.13181 29.8351 3.78796 27.7773C2.92761 22.6281 2.92761 17.3718 3.78796 12.2227C4.13181 10.1647 5.83351 8.60572 7.91363 8.44298L11.6481 8.15082ZM16.6667 24.1168V15.883C16.6667 15.4944 17.0907 15.2543 17.4238 15.4543L24.2855 19.5713C24.6092 19.7654 24.6092 20.2344 24.2855 20.4286L17.4238 24.5456C17.0907 24.7456 16.6667 24.5054 16.6667 24.1168Z" fill="#5C4A04"/></svg>