<svg width="38" height="37" viewBox="0 0 38 37" fill="none" xmlns="http://www.w3.org/2000/svg"><g clip-path="url(#clip0_119_8895)"><path d="M4.47805 0H32.8279C34.3599 0.118516 35.6534 1.50023 35.6216 3.04383C35.626 7.47371 35.6318 11.9036 35.6173 16.332C35.5985 17.8771 34.2327 19.2458 32.6862 19.2631C30.5847 19.2819 28.4818 19.266 26.3789 19.2703C26.3745 18.7573 26.3745 18.2442 26.376 17.7311C28.4355 17.7239 30.4937 17.7354 32.5532 17.7268C33.3829 17.7614 34.1214 17.0142 34.0809 16.1861C34.0838 11.8039 34.0867 7.42168 34.0795 3.04094C34.0997 2.22 33.3583 1.50168 32.5388 1.54359C23.5302 1.53637 14.5215 1.54504 5.51289 1.53926C4.99258 1.54937 4.42168 1.47277 3.95918 1.76762C3.47211 2.05234 3.22496 2.62613 3.24953 3.17824C3.25387 7.51852 3.24664 11.8588 3.25242 16.1976C3.22641 16.9261 3.79586 17.6198 4.5243 17.7051C5.24985 17.7629 5.97973 17.7123 6.70817 17.7296C8.12891 19.5478 9.53953 21.3776 10.9588 23.1987C10.9588 21.3762 10.9574 19.5522 10.9588 17.7296C11.9864 17.7282 13.0155 17.7296 14.0431 17.7296C14.0431 18.2427 14.0417 18.7558 14.0402 19.2703C13.5272 19.2703 13.0141 19.2718 12.501 19.2732C12.4851 20.6029 12.5255 21.9355 12.4836 23.2652C12.4677 23.985 11.8752 24.6223 11.1655 24.7148C10.6235 24.8001 10.0497 24.5631 9.72453 24.1208C8.45555 22.5078 7.21836 20.8718 5.94215 19.2646C5.14145 19.2631 4.30027 19.3542 3.54727 19.0189C2.43871 18.5491 1.68281 17.39 1.71027 16.1846C1.70594 11.8501 1.70883 7.51562 1.70883 3.18258C1.70016 2.53652 1.86059 1.8818 2.2277 1.34414C2.72344 0.578125 3.58485 0.115625 4.47805 0Z" fill="#5C4A04"/><path d="M13.2728 8.4811C14.0402 8.47821 14.8092 8.47821 15.5781 8.47821C15.5867 8.99274 15.5853 9.50727 15.581 10.0204C14.8106 10.0204 14.0402 10.0204 13.2699 10.0218C13.2713 9.50872 13.2699 8.99419 13.2728 8.4811Z" fill="#5C4A04"/><path d="M17.1289 10.0218C17.1216 9.50724 17.1202 8.99271 17.1289 8.47818C17.8978 8.47673 18.6667 8.47962 19.4356 8.48107C19.4385 8.99415 19.4399 9.50724 19.437 10.0203C18.6681 10.0232 17.8978 10.0189 17.1289 10.0218Z" fill="#5C4A04"/><path d="M20.9806 8.47965C21.751 8.4782 22.5228 8.47965 23.2946 8.47965C23.2917 8.99273 23.2917 9.50582 23.2902 10.0203C22.5199 10.0203 21.751 10.0232 20.9806 10.0203C20.9792 9.50582 20.9792 8.99273 20.9806 8.47965Z" fill="#5C4A04"/><path d="M19.32 13.9603C21.3752 13.5281 23.6357 14.6714 24.4422 16.6225C24.948 17.7123 24.8223 18.935 24.8281 20.0985C24.8266 21.6016 24.0404 23.0802 22.7772 23.9011C21.196 24.9634 18.963 24.9071 17.4411 23.7609C16.2877 22.9183 15.5839 21.512 15.5868 20.0855C15.5969 18.9726 15.4711 17.8091 15.9177 16.7569C16.4698 15.3203 17.8082 14.2349 19.32 13.9603ZM19.3055 15.5458C18.1175 15.8739 17.22 16.994 17.139 18.221C17.1116 18.8469 17.1246 19.4741 17.1289 20.1014C17.1318 21.051 17.6044 21.989 18.3805 22.5411C19.5064 23.3736 21.2018 23.3042 22.2496 22.3705C22.9448 21.7765 23.3134 20.8558 23.2903 19.9482C23.2657 18.9972 23.4247 17.9811 22.9665 17.1024C22.3421 15.7756 20.6916 15.1064 19.3055 15.5458Z" fill="#5C4A04"/><path d="M15.9307 26.1602C17.7374 25.6037 19.6524 25.2829 21.5414 25.5242C22.9015 25.6875 24.2413 26.0214 25.5146 26.5287C26.6145 26.9811 27.6869 27.5795 28.4963 28.4683C29.0701 29.097 29.4444 29.9238 29.4531 30.7837C29.4646 32.3418 29.4531 33.8998 29.4589 35.4579C29.9734 35.4579 30.4879 35.4593 31.0025 35.4607C30.9996 35.9738 30.9996 36.4869 30.9996 37H9.41382C9.41526 36.4855 9.41671 35.9724 9.4196 35.4579C9.93124 35.4593 10.4429 35.4593 10.9545 35.4593C10.969 33.9013 10.9473 32.3432 10.9632 30.7866C10.9675 29.9021 11.3664 29.0551 11.9648 28.4163C13.0285 27.289 14.4796 26.6357 15.9307 26.1602ZM14.2744 28.5449C13.4838 29.0262 12.6051 29.6896 12.5111 30.6869C12.4866 32.2767 12.5053 33.8695 12.5025 35.4593C13.2728 35.4579 14.0417 35.4593 14.8121 35.4579C14.8135 34.4317 14.8135 33.4041 14.8121 32.3764C15.3266 32.3736 15.8397 32.375 16.3542 32.375C16.3585 33.4026 16.3513 34.4302 16.3542 35.4579C18.924 35.4593 21.4923 35.4593 24.0621 35.4579C24.0635 34.4317 24.0635 33.4041 24.0621 32.3779C24.5766 32.3736 25.0911 32.375 25.6057 32.3736C25.6028 33.4012 25.6013 34.4302 25.6085 35.4593C26.3775 35.4593 27.1464 35.4593 27.9167 35.4579C27.9167 33.9504 27.9153 32.4415 27.9167 30.9326C27.9456 30.3559 27.6652 29.8125 27.2707 29.4092C26.535 28.6678 25.5767 28.1966 24.6113 27.8309C23.0821 27.2846 21.4562 26.9392 19.8273 26.9898C17.8992 27.1141 15.9669 27.5968 14.2744 28.5449Z" fill="#5C4A04"/><path d="M3.25102 35.4608C3.76555 35.4579 4.27864 35.4579 4.79317 35.4593C4.79317 35.9724 4.79317 36.4869 4.79173 37H3.25102C3.24958 36.4869 3.24958 35.9739 3.25102 35.4608Z" fill="#5C4A04"/><path d="M6.33529 35.4593C6.84982 35.4579 7.36291 35.4579 7.87744 35.4608C7.87455 35.9739 7.87455 36.4869 7.87455 37H6.3324C6.3324 36.4869 6.33384 35.9724 6.33529 35.4593Z" fill="#5C4A04"/><path d="M32.5446 35.4578C33.0562 35.4578 33.5708 35.4578 34.0839 35.4593C34.0839 35.9724 34.0839 36.4854 34.0839 37H32.5388C32.5403 36.4854 32.5417 35.9724 32.5446 35.4578Z" fill="#5C4A04"/></g><defs><clipPath id="clip0_119_8895"><rect width="37" height="37" fill="white" transform="translate(0.166687)"/></clipPath></defs></svg>