<svg width="35" height="42" viewBox="0 0 35 42" fill="none" xmlns="http://www.w3.org/2000/svg"><path d="M3.89278 36.6982C4.17199 36.6982 4.45119 36.6982 4.73039 36.6982C4.73039 36.9521 4.73039 37.2039 4.73039 37.4577C4.45119 37.4577 4.17199 37.4577 3.89278 37.4577C3.89278 37.2039 3.89278 36.9501 3.89278 36.6982Z" fill="#5C4A04"/><path d="M10.9783 36.6982C11.2575 36.6982 11.5367 36.6982 11.8159 36.6982C11.8159 36.9521 11.8159 37.2039 11.8178 37.4577C11.5367 37.4577 11.2575 37.4577 10.9783 37.4577C10.9783 37.2039 10.9783 36.9521 10.9783 36.6982Z" fill="#5C4A04"/><path d="M29.4622 36.6943C29.8976 36.6963 30.335 36.6982 30.7704 36.7217C30.866 37.7643 30.7684 38.8128 30.8328 39.8573C30.9149 39.9022 31.0789 39.9959 31.1609 40.0428C31.1589 40.2322 31.1531 40.6129 31.1511 40.8023C30.7157 40.7926 30.2823 40.7867 29.8508 40.7262C29.7649 39.6816 29.8547 38.6331 29.7961 37.5886C29.7102 37.5417 29.5364 37.448 29.4486 37.3992C29.4525 37.1649 29.4583 36.9286 29.4622 36.6943Z" fill="#5C4A04"/><path d="M0.13429 36.6963C0.600928 36.6963 1.06757 36.6982 1.53225 36.7217C1.59083 37.7897 1.54397 38.8596 1.56544 39.9276C1.91103 39.9061 2.36791 40.0252 2.45772 39.5625C2.73692 39.5645 3.01612 39.5664 3.29533 39.5684C3.1977 39.9589 3.51595 40.7516 2.91655 40.7769C2.14728 40.7262 1.27648 40.9605 0.567736 40.6422C0.48378 39.6386 0.536497 38.6253 0.538449 37.6179C0.00737947 37.5768 0.161624 37.0673 0.13429 36.6963Z" fill="#5C4A04"/><path d="M21.7559 36.6904C22.2127 36.6963 22.6696 36.7021 23.1284 36.7256C23.1714 37.2508 23.1655 37.778 23.1655 38.3032C23.6322 38.3032 24.0969 38.3032 24.5635 38.3032C24.5694 37.7858 24.5362 37.2664 24.6123 36.7529C25.0614 36.6709 25.5202 36.7002 25.9751 36.6943C25.9771 36.9325 25.981 37.1688 25.9849 37.407C25.8912 37.4597 25.7057 37.5651 25.612 37.6159C25.5749 38.6741 25.61 39.7324 25.5983 40.7886C25.2527 40.7886 24.9091 40.7886 24.5654 40.7886C24.5654 40.2478 24.5654 39.705 24.5654 39.1622C24.0969 39.1622 23.6302 39.1622 23.1636 39.1622C23.1636 39.705 23.1636 40.2478 23.1636 40.7886C22.8199 40.7886 22.4744 40.7886 22.1307 40.7886C22.119 39.7304 22.1522 38.6722 22.1171 37.6139C22.0233 37.5632 21.8359 37.4597 21.7422 37.4089C21.7461 37.1688 21.7519 36.9306 21.7559 36.6904Z" fill="#5C4A04"/><path d="M8.62359 37.001C8.94575 37.001 9.2679 37.001 9.58811 37.001C9.58811 37.2704 9.58811 37.5399 9.58811 37.8093C9.74626 37.8093 10.0626 37.8093 10.2207 37.8093C10.2207 38.0045 10.2207 38.3931 10.2207 38.5883C10.0606 38.5903 9.7404 38.5903 9.58225 38.5922C9.59006 38.9847 9.57054 39.383 9.62911 39.7735C9.83802 39.8613 10.0508 39.9394 10.2676 40.0078C10.2559 40.287 10.2461 40.5662 10.2344 40.8454C9.6994 40.7946 9.02385 40.7985 8.72512 40.2616C8.48497 39.7422 8.62555 39.1428 8.58845 38.5903C8.49278 38.5903 8.30534 38.5883 8.20967 38.5883C8.20967 38.3287 8.20967 38.069 8.20967 37.8093C8.31315 37.8093 8.52011 37.8073 8.62359 37.8073C8.62359 37.5379 8.62359 37.2704 8.62359 37.001Z" fill="#5C4A04"/><path d="M3.46909 37.8034C3.89667 37.8522 4.39455 37.6902 4.77138 37.944C4.88072 38.5785 4.77528 39.2248 4.84948 39.8633C4.92757 39.9082 5.08768 39.9999 5.16773 40.0468C5.16577 40.2967 5.16577 40.5466 5.16382 40.7965C4.75576 40.7868 4.34379 40.8122 3.93963 40.7419C3.67995 40.0917 3.86544 39.3595 3.81077 38.6762C3.72486 38.6645 3.55304 38.6391 3.46713 38.6274C3.46713 38.3521 3.46713 38.0787 3.46909 37.8034Z" fill="#5C4A04"/><path d="M5.4645 38.6839C5.47817 37.3699 8.07689 37.3738 7.90117 38.7815C7.31543 38.9299 6.87613 38.4164 6.30796 38.5238C6.73165 38.8889 7.31934 38.9709 7.74107 39.3379C8.15109 39.7597 7.93241 40.5309 7.39158 40.7281C6.71993 41.0366 5.96433 40.771 5.39616 40.3688C5.53869 40.1424 5.68318 39.9198 5.82961 39.6972C6.20058 39.9471 6.63012 40.2068 7.08309 39.9998C6.52273 39.6132 5.52893 39.5156 5.4645 38.6839Z" fill="#5C4A04"/><path d="M10.5585 37.8033C10.9841 37.8423 11.4566 37.7135 11.8491 37.9204C11.9818 38.555 11.8549 39.2071 11.9311 39.8456C12.0131 39.8963 12.1732 39.994 12.2532 40.0428C12.2532 40.2927 12.2513 40.5446 12.2493 40.7945C11.8315 40.7808 11.4039 40.8296 10.9958 40.7203C10.8025 40.0838 10.9822 39.4024 10.8826 38.7522C10.7986 38.7014 10.6307 38.5999 10.5468 38.5511C10.5507 38.3012 10.5546 38.0513 10.5585 37.8033Z" fill="#5C4A04"/><path d="M12.4992 37.8015C12.9698 37.8328 13.5262 37.6844 13.8855 38.0807C14.4419 37.5399 15.6427 37.6121 15.7794 38.4986C15.9609 38.9964 15.5002 39.8301 16.164 40.0469C16.1679 40.2968 16.1699 40.5447 16.1718 40.7947C15.752 40.7849 15.3264 40.8181 14.9144 40.7322C14.6899 40.084 14.9125 39.3752 14.7504 38.7114C14.4185 38.5376 13.9831 38.727 13.8913 39.0882C13.7898 39.6486 13.8523 40.2226 13.8386 40.7888C13.5048 40.7888 13.1709 40.7888 12.839 40.7888C12.8272 40.1093 12.8682 39.4279 12.8194 38.7504C12.7355 38.7016 12.5715 38.602 12.4875 38.5532C12.4914 38.3014 12.4953 38.0514 12.4992 37.8015Z" fill="#5C4A04"/><path d="M17.2086 37.8385C17.6537 37.6354 18.1438 37.7721 18.5636 37.9673C18.9521 37.7525 19.4031 37.817 19.8288 37.7994C19.8307 38.0493 19.8346 38.2992 19.8385 38.5511C19.7585 38.6019 19.6003 38.7053 19.5203 38.7581C19.4031 39.5898 19.6784 40.4899 19.3211 41.2767C18.7744 42.171 17.5541 42.0987 16.6873 41.7883C16.7771 41.5227 16.8669 41.2572 16.9567 40.9936C17.5541 41.1947 18.464 41.3197 18.5792 40.486C18.175 40.6129 17.7416 40.8062 17.3179 40.6402C16.1562 40.2497 16.0839 38.3168 17.2086 37.8385ZM17.8158 38.5823C17.1227 38.7444 17.3726 40.0428 18.1067 39.8612C18.8154 39.6972 18.5987 38.3461 17.8158 38.5823Z" fill="#5C4A04"/><path d="M26.4691 38.4634C26.9299 37.6121 28.3161 37.4618 28.9077 38.2486C29.1713 38.5923 29.1615 39.0433 29.2064 39.4533C28.5348 39.4884 27.8612 39.4592 27.1896 39.5002C27.5215 40.1523 28.2693 40.0898 28.8042 39.7442C28.9272 39.9766 29.0522 40.2089 29.1772 40.4412C28.5543 40.82 27.746 41.0387 27.0665 40.6716C26.2856 40.2753 26.0356 39.2014 26.4691 38.4634ZM27.2032 38.8441C27.5527 38.8656 27.9022 38.8715 28.2517 38.8617C28.1326 38.727 28.0076 38.6001 27.8768 38.4771C27.5937 38.4478 27.418 38.7114 27.2032 38.8441Z" fill="#5C4A04"/><path d="M32.6916 38.0043C33.2715 37.6236 34.1306 37.6353 34.562 38.2347C35.0677 39.004 34.976 40.3356 34.0466 40.7456C33.621 40.9584 33.1465 40.8178 32.7267 40.6734C32.7306 41.099 32.7306 41.5227 32.7326 41.9464C32.3987 41.9464 32.0648 41.9483 31.731 41.9483C31.7154 40.8862 31.7622 39.824 31.7134 38.7639C31.6314 38.7111 31.4693 38.6077 31.3873 38.5549C31.3873 38.3031 31.3873 38.0512 31.3873 37.8013C31.8266 37.8208 32.3089 37.729 32.6916 38.0043ZM32.9786 38.6819C32.4085 39.045 32.7502 40.3024 33.5058 39.9841C34.2438 39.6717 33.783 38.1664 32.9786 38.6819Z" fill="#5C4A04"/><path d="M20.3735 39.8398C20.6761 39.8398 20.9768 39.8398 21.2814 39.8398C21.2794 40.1561 21.2794 40.4724 21.2814 40.7887C20.9768 40.7887 20.6742 40.7887 20.3735 40.7887C20.3735 40.4724 20.3735 40.1561 20.3735 39.8398Z" fill="#5C4A04"/><path d="M16.4426 0H18.1891C22.8624 0.197846 27.4129 2.38097 30.3942 5.99678C34.5012 10.7655 35.4359 17.9426 32.7888 23.6392C30.3464 29.1652 24.7181 32.9789 18.7213 33.4291H16.6268C8.44693 33.0539 1.37223 26.0611 0.867386 17.8948V15.8959C1.14028 7.63413 8.2218 0.498026 16.4426 0ZM25.2229 7.37488C25.2297 11.3113 25.2297 15.2478 25.2229 19.1842C26.4032 19.3821 27.5902 19.4298 28.7637 19.1638C28.7568 15.1386 28.7568 11.1135 28.7568 7.08834C28.3884 7.09517 27.6585 7.10199 27.2901 7.10199C27.2969 6.7063 27.3173 5.91491 27.331 5.51922C26.8398 6.372 26.2735 7.1975 25.2229 7.37488ZM17.9299 8.3914C17.6502 9.30558 17.043 9.85819 16.1015 10.056C16.1356 14.0334 16.1083 18.004 16.1152 21.9814C16.4563 21.9745 17.1385 21.9541 17.4796 21.9404C17.5888 22.343 17.8071 23.1412 17.9162 23.5437C18.0049 23.1412 18.1823 22.3293 18.2778 21.9268C18.6189 21.9404 19.308 21.9745 19.6491 21.9882C19.6559 18.0108 19.6286 14.0266 19.6628 10.0492C18.7076 9.8923 18.1073 9.33287 17.9299 8.3914ZM22.3166 12.4848C22.303 13.3512 22.2962 14.2108 22.2893 15.0772C21.9005 15.0909 21.1159 15.1318 20.7202 15.1523C20.7407 15.5411 20.7884 16.3257 20.8089 16.7146C21.15 16.7009 21.8391 16.6805 22.1802 16.6668C22.2689 17.39 22.4394 18.8431 22.5281 19.5663C22.7055 18.5975 22.8556 17.6288 23.0261 16.66C23.3536 16.6668 24.0154 16.6805 24.3497 16.6873C24.3497 16.2916 24.3428 15.5002 24.3428 15.1045L22.8488 15.0977C22.8556 14.6133 22.876 13.6514 22.8829 13.167C22.7396 12.9964 22.4531 12.6553 22.3166 12.4848ZM7.95573 12.628L7.77835 14.1085C7.43724 14.1085 6.74819 14.1016 6.40707 14.0948C6.40707 18.1473 6.40707 22.1997 6.40707 26.2521C6.76183 26.2453 7.46452 26.2385 7.81928 26.2316C7.86704 26.6819 7.96255 27.5893 8.01713 28.0395C8.25591 27.3914 8.48787 26.7433 8.71982 26.0952C9.03365 26.1566 9.65448 26.2794 9.96148 26.3408C9.99559 22.2543 9.97512 18.1677 9.97512 14.0744C9.65448 14.0948 9.00636 14.1358 8.67889 14.1562C8.50151 13.7742 8.13993 13.0101 7.95573 12.628ZM13.1475 21.1218C12.9087 22.1246 12.2606 22.6841 11.2168 22.8137C11.2441 23.8984 11.2645 24.9832 11.2714 26.0679C11.6125 26.0611 12.2879 26.0474 12.629 26.0406C12.7518 26.4431 13.0042 27.255 13.127 27.6575C13.2089 27.255 13.3726 26.4363 13.4545 26.027C13.7956 26.0406 14.4846 26.0611 14.8258 26.0747C14.8326 24.99 14.8462 23.9121 14.8667 22.8273C13.8229 22.7114 13.1952 22.1587 13.1475 21.1218Z" fill="#5C4A04"/></svg>