<svg width="30" height="35" viewBox="0 0 30 35" fill="none" xmlns="http://www.w3.org/2000/svg"><g clip-path="url(#clip0_284_8569)"><path d="M27.7098 30.5634L17.1429 30.6249V32.8117C17.1429 34.0224 16.192 34.9999 15.0067 34.9999C13.8234 34.9999 12.8571 34.021 12.8571 32.8131V30.6263L2.21652 30.6256C0.30804 30.6256 -0.709147 28.2679 0.563174 26.7701L5.18237 21.3294H4.16652C2.46496 21.3294 1.54487 19.2923 2.64844 17.9709L6.69376 13.1277H5.97389C4.54889 13.1277 3.77277 11.5896 4.68282 10.5772L13.7096 0.562528C14.406 -0.209933 15.5993 -0.209933 16.2958 0.562303L25.3292 10.577C26.2413 11.5894 25.4632 13.1274 24.0382 13.1274H23.317L27.3583 17.9714C28.4605 19.2935 27.5401 21.3292 25.8395 21.3292H24.8217L29.4409 26.7699C30.7165 28.2802 29.6719 30.5634 27.7098 30.5634Z" fill="#5C4A04"/></g><defs><clipPath id="clip0_284_8569"><rect width="30" height="35" fill="white"/></clipPath></defs></svg>