<svg width="30" height="42" viewBox="0 0 30 42" fill="none" xmlns="http://www.w3.org/2000/svg"><path fill-rule="evenodd" clip-rule="evenodd" d="M19.1896 34.8649L4.39961 20.0854L0.808746 23.6763L19.0289 41.898L29.5717 31.3551L26.1355 27.919L19.1896 34.8649Z" fill="#5C4A04"/><path fill-rule="evenodd" clip-rule="evenodd" d="M6.86408 2.49312L0.0713196 9.28888L18.293 27.509L21.8838 23.9182L15.9036 17.9304L19.1055 14.7285C20.7093 13.1015 21.6047 10.9063 21.5963 8.62173C21.5879 6.33715 20.6764 4.14859 19.0607 2.53343C17.4449 0.918276 15.256 0.00759809 12.9714 4.73294e-05C10.6868 -0.00750343 8.49047 0.888685 6.86408 2.49312ZM15.7414 11.3704L12.541 14.5723L7.01876 9.0501L10.2192 5.84971C10.9551 5.13634 11.9421 4.74096 12.967 4.74888C13.9919 4.75681 14.9727 5.16741 15.6975 5.89206C16.4224 6.61672 16.8332 7.59733 16.8414 8.62226C16.8496 9.64719 16.4545 10.6342 15.7414 11.3704Z" fill="#5C4A04"/></svg>