<svg width="44" height="42" viewBox="0 0 44 42" fill="none" xmlns="http://www.w3.org/2000/svg"><path d="M16.1356 9.625H18.1356V11.625H16.1356V9.625Z" fill="#5C4A04"/><path d="M18.1356 14.375H16.1356V16.375H18.1356V14.375Z" fill="#5C4A04"/><path d="M20.8856 9.625H22.8856V11.625H20.8856V9.625Z" fill="#5C4A04"/><path d="M22.8856 14.375H20.8856V16.375H22.8856V14.375Z" fill="#5C4A04"/><path d="M25.6356 9.625H27.6356V11.625H25.6356V9.625Z" fill="#5C4A04"/><path d="M27.6356 14.375H25.6356V16.375H27.6356V14.375Z" fill="#5C4A04"/><path fill-rule="evenodd" clip-rule="evenodd" d="M15.1356 5.25H12.1356V20.75H31.6356V5.25H28.6356V2H27.1356V5.25H16.6356V2H15.1356V5.25ZM13.6356 6.75V19.25H30.1356V6.75H13.6356Z" fill="#5C4A04"/><path d="M6.46931 41V39.2559C6.46931 38.6944 6.54858 38.1658 6.70714 37.6704C6.8723 37.1683 7.08371 36.7322 7.34136 36.3623C7.60561 35.9857 7.893 35.6224 8.2035 35.2722C8.52061 34.9155 8.83441 34.562 9.14492 34.2119C9.46203 33.8617 9.74941 33.5017 10.0071 33.1317C10.2713 32.7618 10.4827 32.3356 10.6413 31.8534C10.8064 31.3645 10.889 30.8426 10.889 30.2876C10.889 29.6799 10.7932 29.257 10.6016 29.0192C10.4101 28.7814 10.1227 28.6625 9.7395 28.6625C8.96654 28.6625 8.58007 29.1282 8.58007 30.0597V31.5858H6.46931V30.1985C6.46931 29.0555 6.75338 28.1769 7.32154 27.5625C7.88969 26.9415 8.7155 26.631 9.79895 26.631C10.8824 26.631 11.7082 26.9415 12.2764 27.5625C12.8445 28.1769 13.1286 29.0555 13.1286 30.1985C13.1286 30.8063 13.046 31.3909 12.8809 31.9525C12.7157 32.5074 12.501 32.9996 12.2367 33.429C11.9791 33.8584 11.6917 34.2713 11.3746 34.6677C11.0641 35.0575 10.7503 35.4242 10.4332 35.7677C10.1161 36.1046 9.82538 36.4283 9.56112 36.7388C9.30347 37.0493 9.09206 37.3698 8.9269 37.7001C8.76174 38.0304 8.67916 38.3508 8.67916 38.6613C8.67916 38.8001 8.68577 38.9025 8.69898 38.9685H12.9205V41H6.46931ZM14.3277 37.5911V30.1985C14.3277 29.0622 14.6217 28.1835 15.2096 27.5625C15.7976 26.9415 16.6366 26.631 17.7267 26.631C18.8168 26.631 19.6525 26.9415 20.2338 27.5625C20.8218 28.1835 21.1158 29.0622 21.1158 30.1985V37.5911C21.1158 38.7274 20.8218 39.606 20.2338 40.227C19.6525 40.8481 18.8168 41.1586 17.7267 41.1586C16.6366 41.1586 15.7976 40.8481 15.2096 40.227C14.6217 39.606 14.3277 38.7274 14.3277 37.5911ZM16.5673 37.7298C16.5673 38.6679 16.9537 39.137 17.7267 39.137C18.493 39.137 18.8762 38.6679 18.8762 37.7298V30.0597C18.8762 29.1282 18.493 28.6625 17.7267 28.6625C16.9537 28.6625 16.5673 29.1282 16.5673 30.0597V37.7298ZM22.3743 37.5911V30.1985C22.3743 29.0622 22.6683 28.1835 23.2563 27.5625C23.8443 26.9415 24.6833 26.631 25.7733 26.631C26.8634 26.631 27.6991 26.9415 28.2805 27.5625C28.8685 28.1835 29.1624 29.0622 29.1624 30.1985V37.5911C29.1624 38.7274 28.8685 39.606 28.2805 40.227C27.6991 40.8481 26.8634 41.1586 25.7733 41.1586C24.6833 41.1586 23.8443 40.8481 23.2563 40.227C22.6683 39.606 22.3743 38.7274 22.3743 37.5911ZM24.6139 37.7298C24.6139 38.6679 25.0004 39.137 25.7733 39.137C26.5397 39.137 26.9229 38.6679 26.9229 37.7298V30.0597C26.9229 29.1282 26.5397 28.6625 25.7733 28.6625C25.0004 28.6625 24.6139 29.1282 24.6139 30.0597V37.7298ZM30.5102 37.5911V36.4118H32.6209V37.7298C32.6209 38.6547 33.0041 39.1172 33.7704 39.1172C34.5434 39.1172 34.9299 38.6547 34.9299 37.7298V34.6083C34.9299 33.6768 34.5434 33.211 33.7704 33.211C33.0041 33.211 32.6209 33.6768 32.6209 34.6083V35.0344H30.5102L30.9165 26.7895H36.8028V28.821H32.9182L32.7398 32.2101C33.156 31.5231 33.8068 31.1795 34.692 31.1795C35.5112 31.1795 36.1256 31.457 36.5352 32.0119C36.9514 32.5603 37.1595 33.3629 37.1595 34.42V37.5911C37.1595 38.734 36.8755 39.6159 36.3073 40.237C35.7458 40.8514 34.9233 41.1586 33.8398 41.1586C32.7564 41.1586 31.9305 40.8514 31.3624 40.237C30.7942 39.6159 30.5102 38.734 30.5102 37.5911Z" fill="#5C4A04"/></svg>