<svg width="48" height="39" viewBox="0 0 48 39" fill="none" xmlns="http://www.w3.org/2000/svg"><g clip-path="url(#clip0_283_7636)"><path d="M15.7639 0H15.7731C15.0153 1.64439 14.7049 3.5242 15.0329 5.31423C15.3016 6.79036 16.0934 8.14207 17.1871 9.16009C19.355 7.09338 22.2353 5.94046 25.2305 5.94046C28.2257 5.94046 31.106 7.09338 33.274 9.16009C34.5465 7.98371 35.3885 6.34003 35.5242 4.60514C35.6472 3.24 35.4132 1.85719 34.9325 0.575466C34.8643 0.376246 34.7782 0.183632 34.6752 0L34.6879 0C36.4737 1.33404 37.9547 3.21455 38.4015 5.43653C38.7239 6.95791 38.5783 8.55352 38.1265 10.0318C37.7118 11.3809 37.0826 12.6544 36.263 13.8034C37.2273 16.5973 37.0901 19.761 35.8459 22.446C28.7664 22.4427 21.6871 22.4427 14.6081 22.446C13.3722 19.7232 13.2245 16.6309 14.1952 13.8027C13.267 12.5102 12.5859 11.0573 12.186 9.51711C11.7795 7.91301 11.7519 6.18661 12.2765 4.60514C12.8803 2.73099 14.2178 1.18062 15.7639 0ZM15.8495 15.4824C15.8431 16.5994 16.1089 17.7447 16.7502 18.6723C17.6332 19.9639 19.1411 20.6949 20.6519 20.9508C21.8495 21.1233 23.0308 20.5535 23.8926 19.7546C22.1188 19.3594 20.3861 18.7345 18.8145 17.8154C17.7293 17.1792 16.6985 16.422 15.8516 15.4824M31.3072 18.0035C29.8261 18.8271 28.21 19.3863 26.5592 19.7574C27.4076 20.528 28.5387 21.095 29.7151 20.9593C31.1389 20.7394 32.5543 20.1024 33.4811 18.9692C34.2828 18.0006 34.6158 16.7189 34.608 15.4789C33.6706 16.509 32.5217 17.3276 31.3072 17.9999M9.73993 29.1699C10.432 28.7882 11.1807 28.4552 11.9824 28.4241C12.7466 28.3675 13.4925 28.6468 14.0948 29.1049L14.1408 29.1204C14.3529 29.394 14.6222 29.6252 14.7968 29.9306C13.8749 29.9306 12.9535 29.9306 12.0326 29.9306C12.0326 30.1236 12.0326 30.3159 12.0326 30.5089C11.3136 30.7132 10.625 31.1261 10.2256 31.7729C9.76538 32.516 9.61409 33.4336 9.73074 34.294C9.83184 35.0667 10.4617 35.6634 11.1687 35.9235C12.3465 36.3611 13.6551 36.277 14.859 35.9942C16.4356 35.5771 18.0029 35.0801 19.6324 34.9154C20.3437 34.8414 21.0609 34.8466 21.771 34.9309C22.5486 35.0568 23.31 35.336 23.9498 35.8062C24.0063 35.5185 24.0446 35.2276 24.0644 34.9352C24.0861 34.5184 24.0646 34.1004 24 33.6881C23.9767 33.5538 23.9484 33.4216 23.9216 33.2887C24.0516 33.4223 24.1846 33.5531 24.3125 33.6888C24.6349 34.0308 24.9381 34.3902 25.221 34.7655C26.183 36.0515 26.9694 37.4599 27.5596 38.9535C25.9025 38.9062 24.2432 38.7125 22.6398 38.2833C22.0564 38.1278 21.4868 37.9244 20.9368 37.6754C21.5589 37.6181 22.1832 37.488 22.7452 37.2074C22.9198 37.1162 23.1064 37.0278 23.2273 36.8659C22.2001 36.2699 20.9651 36.1222 19.7986 36.2706C18.1577 36.4827 16.6236 37.1352 15.0669 37.6598C13.6466 38.1547 12.0814 38.1936 10.6258 37.833C9.49462 37.5594 8.45892 36.8214 7.9697 35.7496C7.44643 34.58 7.3302 33.2688 7.63955 32.0253C7.93859 30.8532 8.68656 29.7829 9.73993 29.172V29.1699Z" fill="#5C4A04"/><path d="M35.7278 24.8966C36.3867 24.2342 37.3651 24.0482 38.2637 24.0115C39.3432 23.9818 40.4941 23.979 41.4655 24.5169C42.0445 24.8259 42.4552 25.448 42.4298 26.1154C41.7699 26.1154 41.1101 26.1154 40.4503 26.1154C40.3089 25.6629 39.8352 25.4473 39.3983 25.39C38.8193 25.3095 38.1908 25.3031 37.6571 25.5696C36.9339 25.9365 36.9431 27.0924 37.5864 27.5364C38.0855 27.8842 38.7338 27.875 39.3135 27.8142C39.7907 27.7661 40.3124 27.5222 40.4574 27.0274C41.1141 27.0274 41.7709 27.0274 42.4284 27.0274C42.4552 27.699 42.0523 28.3268 41.4796 28.6534C40.5966 29.1652 39.5397 29.2147 38.5436 29.202C37.7045 29.1779 36.8215 29.0606 36.1081 28.5862C35.8514 28.4135 35.6347 28.1878 35.4726 27.9243C35.3106 27.6607 35.2069 27.3655 35.1686 27.0585C35.0696 26.3063 35.1686 25.4551 35.7278 24.8923M0.791199 24.0984C2.84421 24.0984 4.89699 24.0984 6.94953 24.0984V25.4586H4.78906C4.78906 26.6725 4.78906 27.8863 4.78906 29.1002C4.1528 29.1002 3.51653 29.1002 2.8838 29.1002C2.8838 27.887 2.8838 26.6732 2.8838 25.4593H0.791199V24.0984ZM7.23303 24.0984C8.78834 24.0984 10.3373 24.0984 11.8891 24.0984C12.432 24.1218 13.0202 24.1691 13.4698 24.5078C13.8601 24.7955 13.9605 25.3512 13.8233 25.7965C13.6883 26.2094 13.286 26.4625 12.8852 26.5707C13.3299 26.6704 13.7562 26.9758 13.8601 27.4402C13.94 27.9132 13.8523 28.3975 13.9166 28.8732C14.0517 28.6767 14.1393 28.4533 14.2475 28.2426C14.9325 26.8669 15.607 25.4855 16.2941 24.1112C17.146 24.0758 18.0036 24.1112 18.8569 24.0935C19.6564 25.6014 20.4412 27.1179 21.2323 28.63C21.3065 28.7453 21.3348 28.9058 21.462 28.9765C21.433 29.0196 21.4041 29.0634 21.3758 29.1072C20.7141 29.0924 20.0516 29.1072 19.3899 29.1002C19.2605 28.8337 19.1255 28.57 19.0068 28.2985C18.0509 28.2985 17.098 28.2928 16.1386 28.2985C16.0213 28.5685 15.8841 28.8301 15.7639 29.0988C15.2231 29.1094 14.6809 29.0754 14.1414 29.1207L14.0955 29.1051C13.4932 28.647 12.7473 28.3678 11.9831 28.4243C11.976 28.1486 11.9916 27.8213 11.771 27.6177C11.5639 27.4056 11.2514 27.3929 10.9743 27.3851C10.3642 27.3851 9.75405 27.3851 9.14394 27.3851C9.14394 27.9556 9.14394 28.5254 9.14394 29.0952C8.50768 29.1072 7.87141 29.0952 7.23515 29.1016C7.23515 27.4332 7.23515 25.7647 7.23515 24.0963M9.14394 25.3144C9.14394 25.6014 9.14394 25.8885 9.14394 26.1755C9.89473 26.1755 10.6455 26.1797 11.3963 26.1755C11.6438 26.1861 11.9371 26.0136 11.9124 25.7357C11.9265 25.4657 11.6409 25.3158 11.4034 25.3201C10.6505 25.3109 9.89756 25.3201 9.14111 25.3165M16.724 27.0443C17.2789 27.0514 17.8339 27.05 18.3882 27.0443C18.1054 26.4738 17.8226 25.8991 17.5483 25.3229C17.274 25.8969 17.0053 26.4731 16.724 27.0436M21.4776 24.0984C23.2865 24.0984 25.0953 24.0984 26.9042 24.0984V25.3229H23.3652V25.9535C24.5194 25.9535 25.6741 25.9535 26.8293 25.9535V27.1829C25.6755 27.1829 24.522 27.1829 23.3687 27.1829C23.3687 27.8192 23.3687 28.4618 23.3687 29.1009C22.7395 29.108 22.1103 29.0867 21.4825 29.1129C21.4825 27.4407 21.4825 25.769 21.4825 24.0977M27.2443 24.0977C29.0508 24.0977 30.8568 24.0977 32.6624 24.0977C32.6624 24.5054 32.6624 24.9133 32.6624 25.3215H29.1276C29.1276 25.5312 29.1276 25.7414 29.1276 25.9521H32.5917C32.5917 26.3621 32.5917 26.7722 32.5917 27.1829C31.4365 27.1829 30.2818 27.1829 29.1276 27.1829C29.1276 27.822 29.1276 28.4611 29.1276 29.1002C28.4998 29.1002 27.8716 29.1002 27.2428 29.1002C27.2428 27.4317 27.2428 25.7633 27.2428 24.0949M32.9982 24.0949H34.8964C34.8964 25.7619 34.8964 27.4292 34.8964 29.0966H32.9954C32.9954 27.4296 32.9954 25.7624 32.9954 24.0949M42.1597 30.1387C43.0081 29.8114 43.9413 29.8637 44.837 29.8595C45.6394 29.8792 46.4976 29.921 47.1961 30.3614C47.5807 30.5989 47.7794 31.0422 47.7786 31.4855C47.0915 31.4897 46.405 31.4855 45.7179 31.4855C45.6387 31.2069 45.3771 31.0457 45.1042 31.0076C44.6434 30.9458 44.1765 30.9434 43.715 31.0005C43.5439 31.0238 43.3064 31.1016 43.3142 31.3137C43.3057 31.5965 43.6521 31.6375 43.8642 31.6763C44.9049 31.7654 45.9851 31.6375 46.9911 31.9697C47.3771 32.1012 47.7603 32.3607 47.8748 32.7743V33.8213C47.7334 34.3267 47.2562 34.6463 46.779 34.7947C45.8557 35.0881 44.8702 35.0422 43.9158 35.0337C43.1424 34.9948 42.3032 34.9086 41.6804 34.4031C41.3163 34.1146 41.17 33.6438 41.1763 33.1935C41.8713 33.1885 42.5655 33.1935 43.2598 33.1935C43.317 33.3695 43.3637 33.5738 43.5348 33.6763C43.8882 33.9231 44.3492 33.9019 44.7635 33.9004C45.0696 33.8799 45.4047 33.892 45.6719 33.7159C45.8635 33.5901 45.8656 33.2437 45.6514 33.1398C45.3333 32.9892 44.972 32.9927 44.6284 32.9793C43.8904 32.9538 43.1367 32.9793 42.4192 32.7764C42.0657 32.6724 41.7073 32.5028 41.4839 32.1981C41.2315 31.8545 41.2011 31.3886 41.3085 30.9871C41.416 30.5855 41.7765 30.29 42.1569 30.1458M12.0298 29.9337C12.9512 29.9337 13.8726 29.9337 14.794 29.9337C15.8636 29.928 16.9856 29.904 17.9753 30.3734C18.5409 30.6392 19.006 31.1511 19.1213 31.7796C19.2627 32.5615 19.1835 33.4763 18.5868 34.0602C17.918 34.7057 16.9453 34.8753 16.0509 34.9277C14.7077 34.946 13.3687 34.9312 12.0276 34.9361C12.0276 33.4614 12.0276 31.9867 12.0276 30.512C12.0276 30.319 12.0276 30.1267 12.0276 29.9337M13.9258 31.2536C13.9258 32.0404 13.9258 32.8273 13.9258 33.6141C14.6151 33.5979 15.3093 33.658 15.9944 33.5668C16.4087 33.5067 16.8618 33.3455 17.0746 32.9574C17.2867 32.524 17.2323 31.9266 16.8378 31.6141C16.4553 31.3214 15.952 31.2677 15.4868 31.2472C14.9658 31.2472 14.4447 31.2359 13.9244 31.2536M19.6253 29.9316C21.4686 29.9316 23.3119 29.9316 25.1552 29.9316C25.1552 30.3423 25.1552 30.753 25.1552 31.1638C23.9402 31.1638 22.7254 31.1638 21.5108 31.1638V31.7796C22.7027 31.7796 23.8944 31.7796 25.0859 31.7796C25.0859 32.1846 25.0859 32.5911 25.0859 32.9969C23.894 32.9969 22.702 32.9969 21.5108 32.9969C21.5108 33.2281 21.5108 33.4593 21.5108 33.6912C22.3365 33.6862 23.1623 33.6912 23.9852 33.6912C24.0497 34.1035 24.0713 34.5215 24.0495 34.9383C23.2846 34.9333 22.5203 34.9432 21.7561 34.934C21.046 34.8497 20.3288 34.8445 19.6176 34.9185C19.6176 33.2571 19.6176 31.5957 19.6176 29.9344M25.3439 29.9344H27.5143C28.0693 31.0995 28.6334 32.2603 29.1941 33.4225C29.7165 32.2589 30.2496 31.1002 30.7692 29.9351C31.4318 29.9351 32.0942 29.9351 32.7564 29.9351C31.9764 31.6031 31.1955 33.2701 30.4136 34.9361C29.5652 34.9361 28.7169 34.9361 27.8685 34.9361C27.0315 33.2668 26.1902 31.6 25.3447 29.9358M32.9798 29.9358H34.8794C34.8794 31.6028 34.8794 33.2701 34.8794 34.9376H32.9954C32.9954 33.2701 32.9954 31.6028 32.9954 29.9358M35.5468 29.9358H37.4556C37.4556 31.127 37.4556 32.3176 37.4556 33.5081C38.6108 33.5081 39.7652 33.5045 40.9197 33.5081C40.9197 33.9839 40.9197 34.4604 40.9197 34.9361H35.5468C35.5468 33.2687 35.5468 31.6009 35.5468 29.933M24.3111 33.6876C24.6137 33.6876 24.9155 33.6876 25.2181 33.6876C25.2181 34.0468 25.2181 34.4059 25.2181 34.7651C24.9353 34.3898 24.632 34.0303 24.3097 33.6884L24.3111 33.6876Z" fill="#5C4A04"/></g><defs><clipPath id="clip0_283_7636"><rect width="47.0836" height="38.95" fill="white" transform="translate(0.791168)"/></clipPath></defs></svg>