<svg width="44" height="44" viewBox="0 0 44 44" fill="none" xmlns="http://www.w3.org/2000/svg"><path d="M35.0322 2.5072C35.8724 1.83129 36.5775 0.925566 37.6215 0.548096C37.6423 1.2968 37.3459 1.9935 37.2087 2.71725C37.1161 3.18623 36.9237 3.64689 36.9539 4.13146C37.01 4.38831 37.3449 4.40598 37.531 4.2812C39.1792 3.389 40.8315 2.44688 42.2094 1.16057C42.1698 1.52661 42.122 1.8916 42.0378 2.25035C41.7757 3.07912 41.2797 3.81222 41.0281 4.64515C40.8107 5.17444 40.6631 5.72973 40.5591 6.29229C40.4437 7.15746 40.5892 8.02887 40.7681 8.87531C41.3754 10.4268 42.487 11.7069 43.2045 13.2032C43.5477 14.0112 43.8024 14.8836 43.7286 15.7717C43.1983 15.7301 42.6638 15.7082 42.1407 15.6043C42.1334 15.6583 42.1179 15.7675 42.1095 15.8216L42.0991 15.5564C41.9681 15.6583 41.8381 15.7613 41.7092 15.8642C41.7695 15.9661 41.8225 16.0764 41.9057 16.1647C42.5847 16.7866 43.3678 17.2899 44 17.9637C43.1556 18.1145 42.2967 18.0739 41.4492 18.1831C40.5737 18.1509 39.7116 18.3474 38.8371 18.2975C38.6697 18.7488 38.8298 19.2199 38.9057 19.6712C38.9754 20.0102 38.9629 20.3585 38.9629 20.7027C38.0884 20.0507 37.0714 19.5297 35.9733 19.4164C35.7757 19.6732 35.6 19.9457 35.4253 20.2181C35.4274 20.2649 35.4295 20.3606 35.4315 20.4084C36.8364 23.0996 37.5206 26.1838 37.2492 29.215C36.9591 32.6278 35.5386 35.9377 33.2593 38.4958C30.6762 41.3876 26.9951 43.2719 23.1372 43.6691C20.6301 44.0008 18.0814 43.5589 15.7105 42.7301C14.8547 42.3308 13.9906 41.9492 13.1795 41.4625C11.3878 40.3727 9.79892 38.9367 8.58021 37.2251C6.71157 34.6369 5.64675 31.4798 5.55837 28.2906C5.15386 27.9817 4.65577 27.8434 4.18263 27.6771C2.97327 27.2861 1.74103 26.9689 0.506714 26.6663C2.2412 25.9592 3.90706 25.0961 5.53133 24.1665C5.62388 24.0958 5.70291 24.0116 5.76634 23.9128C5.62492 23.4739 5.12058 23.4323 4.75559 23.2836C4.08696 23.0674 3.48904 22.667 2.80065 22.5089C4.16703 21.9006 5.56772 21.3578 7.01105 20.9616C7.19719 20.7703 7.36877 20.5634 7.49043 20.3252C8.24329 18.8933 9.24156 17.5956 10.3958 16.4642C10.6714 16.1845 11.0655 15.9713 11.157 15.5585C11.366 14.9606 11.2599 14.3242 11.2173 13.7096C11.2204 12.9609 11.7497 12.3412 12.3851 12.0074C12.8748 11.633 13.5403 11.4521 13.8773 10.9062C14.2246 10.068 14.6811 9.2507 15.3539 8.63095C15.8312 8.19524 16.5352 8.56543 17.0655 8.27843C17.8059 7.67323 18.044 6.62609 18.8572 6.09264C19.5081 5.77548 20.2516 5.76612 20.9608 5.80148C21.3497 5.82332 21.7074 6.03337 22.1036 6.00529C22.5788 5.98658 23.0655 6.04689 23.5313 5.92314C24.4007 5.71621 25.2502 5.28155 26.1664 5.39281C27.0398 5.53528 27.774 6.06665 28.5643 6.42644C28.7317 6.51067 28.921 6.52107 29.104 6.54186C30.1324 5.83892 31.1535 5.12349 32.2184 4.4767C33.1761 3.8507 34.1941 3.29645 35.0322 2.5072ZM33.9227 3.80286C32.4596 4.67739 31.0267 5.60495 29.6707 6.63753C29.8444 6.61985 30.0575 6.67601 30.2031 6.54394C31.0579 5.87115 32.0166 5.34082 32.9879 4.85521C33.9373 4.43926 34.8409 3.90997 35.5958 3.19247C35.6593 3.22886 35.7882 3.30165 35.8527 3.33805C35.8558 3.92349 35.573 4.44862 35.3972 4.99143C35.7851 4.82297 36.1646 4.63579 36.5483 4.45694C36.5931 3.89541 36.7262 3.34636 36.8395 2.79628C36.9383 2.24099 37.2191 1.72522 37.1941 1.14914C36.0243 1.93319 35.1269 3.06248 33.9227 3.80286ZM40.2711 3.08328C38.236 4.40183 36.0191 5.40009 33.8208 6.40668C33.1771 6.6916 32.5719 7.05451 31.9251 7.33424C32.0343 7.44966 32.1435 7.56613 32.2527 7.68259C32.3005 7.67635 32.3962 7.66387 32.444 7.65763C32.8142 7.37791 33.2395 7.19074 33.643 6.96613C35.679 5.86075 37.8045 4.93528 39.8967 3.94221C39.9487 3.97132 40.0548 4.02747 40.1078 4.05555C40.1265 4.6046 39.9955 5.14117 39.8437 5.66422C39.6627 6.56266 39.382 7.4975 39.6451 8.4105C39.9081 9.61674 40.6371 10.6431 41.0728 11.7817C41.2288 12.2091 41.3702 12.6521 41.3535 13.1138C41.339 13.6566 41.4076 14.2025 41.3255 14.7422C40.5851 14.5384 39.8104 14.6455 39.0544 14.6403C38.0957 14.6434 37.166 14.9211 36.2135 14.9783C36.3539 15.1446 36.4943 15.3121 36.6263 15.4868C37.9938 15.4129 39.3435 15.1072 40.7182 15.155C41.6302 15.0999 42.514 15.3953 43.4239 15.3921C43.349 14.815 43.295 14.2254 43.0371 13.694C42.3945 12.0043 41.0499 10.6836 40.4634 8.9689C40.3147 8.3429 40.2055 7.70131 40.1941 7.05659C40.1535 6.22262 40.3906 5.40425 40.6766 4.62956C40.9147 3.74983 41.4638 2.99489 41.7081 2.11725C41.1965 2.38969 40.7691 2.79004 40.2711 3.08328ZM31.3678 6.26422C31.6756 6.14775 31.9875 6.04481 32.3036 5.9533C32.3587 6.08224 32.4159 6.21223 32.4721 6.34221C33.2489 5.93354 34.0579 5.59247 34.8544 5.2254C34.9875 4.83961 35.1279 4.45694 35.2756 4.07635C34.0485 4.93839 32.6073 5.42297 31.3678 6.26422ZM34.7879 6.85382C34.27 7.13042 33.7137 7.34464 33.2395 7.69819C33.9591 7.48502 34.6475 7.18658 35.3265 6.87462C35.8038 6.78831 35.6811 7.52557 35.9764 7.72315C36.4433 7.84169 36.9029 7.60148 37.3168 7.41015C37.8003 7.19282 38.2111 6.74984 38.7757 6.76751C38.8152 7.53493 38.7258 8.33562 39.0367 9.06145C39.4485 10.0836 40.0932 11.0413 40.2014 12.1634C40.1515 12.3079 40.0766 12.44 40.008 12.5751C39.3965 12.6053 38.784 12.6708 38.1913 12.8216C37.8357 12.9141 37.4707 13.0545 37.2232 13.3353C37.1754 13.6306 37.2024 13.9311 37.1983 14.2285C36.6763 14.3284 36.1428 14.371 35.626 14.4968C36.1615 14.501 36.6918 14.4126 37.2263 14.3939C38.4596 14.2108 39.7106 14.1162 40.9574 14.1942C40.9709 13.2095 40.8783 12.1852 40.3979 11.3065C39.8437 10.3062 39.3726 9.24654 39.121 8.12765C38.9463 6.89958 39.4017 5.70893 39.697 4.53701C38.0655 5.31794 36.3913 6.01153 34.7879 6.85382ZM25.2409 5.8254C24.5629 6.00529 23.8974 6.22782 23.2132 6.3838C23.7383 6.75919 24.2218 7.19698 24.7958 7.50062C25.7442 8.09334 26.7965 8.56335 27.5743 9.39108C27.8801 9.69888 28.0766 10.0961 28.2128 10.5037C28.2929 10.7211 28.3553 10.9925 28.608 11.0705C29.1695 11.3169 29.8142 11.2337 30.4111 11.2119C29.8288 11.5727 29.1279 11.6185 28.4624 11.6517C28.4717 12.2434 28.4385 12.8372 28.2721 13.4081C28.245 13.6774 28.2003 13.9446 28.1712 14.214C29.1924 13.5568 30.4069 13.1835 31.6277 13.3259C31.8409 12.3214 32.2267 11.3481 32.2849 10.3145C32.0353 10.563 31.7702 10.8105 31.4333 10.9332C31.6256 10.5869 31.9833 10.2895 31.9719 9.86422C31.9771 9.48051 31.9792 9.0968 31.9657 8.71414C31.9605 8.29091 31.6111 7.96127 31.2586 7.77826C30.7511 7.47358 30.1386 7.52661 29.5761 7.42783C29.182 7.36231 28.8211 7.55573 28.4676 7.69611C28.6329 7.45174 28.8471 7.24689 29.0977 7.09299C28.4728 6.79247 27.8572 6.47323 27.2364 6.16751C26.6322 5.8306 25.9251 5.6611 25.2409 5.8254ZM19.4468 6.05625L19.453 6.13216C19.2617 6.21847 19.0641 6.30789 18.9185 6.46491C18.3518 7.04827 17.9691 7.77202 17.4856 8.41985C17.9743 8.88779 18.539 9.27878 18.9664 9.80911C18.2405 9.47011 17.5875 8.97098 16.8128 8.74325C16.3937 8.70894 15.905 8.64238 15.5483 8.91795C14.9182 9.54706 14.4388 10.3249 14.1559 11.1703C14.6873 11.5675 15.3092 11.9159 15.5858 12.5533C15.0752 12.0396 14.3691 11.7932 13.6787 11.6372C13.2502 11.8514 12.853 12.127 12.4475 12.3817C11.9972 12.6719 11.5501 13.1304 11.5854 13.7065C11.5989 14.423 11.6696 15.1582 11.4471 15.8538C11.2048 16.6129 10.9241 17.3689 10.8076 18.1613C10.7379 18.623 10.8377 19.0868 11.0093 19.5152C11.2724 19.433 11.5355 19.3519 11.7996 19.276C11.6967 19.1762 11.5948 19.0764 11.4939 18.9765C12.28 19.2188 12.9528 19.8698 13.8253 19.7492C13.6069 19.2334 13.3625 18.6989 13.5019 18.1249C13.5986 18.3641 13.6641 18.6136 13.7119 18.8674C13.9345 19.197 14.1861 19.5318 14.5584 19.7013C14.9244 19.8667 15.2582 20.0913 15.5816 20.3284C15.9154 20.1724 16.2669 20.0362 16.6371 20.0112C16.3885 20.2389 16.1379 20.4646 15.8977 20.6996C16.115 21.1218 16.3542 21.5315 16.5424 21.9672C16.8294 22.615 17.3754 23.2691 18.148 23.2566C18.9851 23.1661 19.793 22.8573 20.5137 22.4258C20.8017 22.2438 21.1303 22.0441 21.2572 21.7145C21.2353 20.7266 20.6135 19.8823 20.4346 18.9277C20.3806 18.4712 20.3577 18.0032 20.1809 17.5727C20.1736 18.2122 20.0967 18.8975 19.6173 19.3717C19.662 18.8143 19.7712 18.2476 19.6693 17.6923C19.2731 16.6639 18.1833 16.2147 17.4741 15.4462C17.0177 15.05 16.6953 14.5238 16.5206 13.9478C16.6807 14.0861 17.001 14.3637 17.1611 14.502C16.6755 13.9686 16.348 13.328 16.0839 12.6646C16.3677 13.1055 16.6204 13.5724 16.9719 13.9654C17.8755 14.9845 19.0995 15.6396 20.0551 16.6025C20.3722 16.9311 20.5823 17.3502 20.7123 17.7849C20.8495 18.4732 20.9587 19.1845 21.2925 19.8115C21.5618 20.345 21.7927 20.9013 21.9123 21.4899C22.1452 21.5648 22.3823 21.6438 22.6298 21.6552C22.9688 21.6511 23.2683 21.4753 23.5761 21.3547C23.4305 21.0386 23.2963 20.7141 23.2558 20.3668C23.1268 19.3904 23.2475 18.3058 23.9151 17.5353C23.9535 16.7897 24.2884 16.1065 24.3362 15.3641C24.408 14.737 24.6263 14.0621 24.2769 13.4757L24.4142 13.5277C24.1334 13.3831 23.9369 13.1304 23.7289 12.9017L23.7362 12.9568C22.6131 11.9076 21.1397 11.3273 20.0177 10.2739C21.1157 10.902 22.2284 11.503 23.313 12.153C23.2048 11.8504 23.0613 11.5467 23.0624 11.2181C23.0936 10.8937 23.2433 10.5984 23.3993 10.3186L23.3431 10.3197C23.5553 10.1283 23.7955 9.96717 24.0856 9.92661C23.9712 10.2115 23.8443 10.4933 23.7757 10.7939C23.6447 11.2982 23.6894 11.8264 23.5615 12.3308C24.1573 12.727 24.6835 13.2427 24.9466 13.9218C25.2596 14.0684 25.5924 14.1578 25.9199 14.2649C25.6547 14.5197 25.2866 14.5644 24.9383 14.607C24.9144 15.3505 24.7199 16.0753 24.7022 16.8178C25.5653 16.2417 26.4294 15.6604 27.2218 14.9876C27.4111 14.8649 27.4215 14.633 27.4589 14.4334C27.5525 13.8459 27.6731 13.2646 27.7844 12.6812C27.6794 12.7103 27.4693 12.7675 27.3632 12.7966C27.5067 12.6511 27.6575 12.5138 27.8156 12.3859C27.8769 11.6102 27.8041 10.7928 27.3736 10.1242C26.9504 9.56578 26.3785 9.13632 25.7691 8.7994C24.5577 8.09958 23.3327 7.40391 22.2783 6.47531C22.0329 6.45971 21.7917 6.40876 21.565 6.31413C20.8911 6.04065 20.1518 6.15815 19.4468 6.05625ZM35.9411 8.17133C35.5355 8.13805 35.4097 7.71483 35.262 7.40495C34.7619 7.62436 34.243 7.79594 33.7324 7.98623C33.3175 8.15157 32.8724 8.3897 32.6925 8.82332C32.679 9.49299 33.018 10.1325 32.9109 10.8074C32.7528 11.7474 32.4742 12.6604 32.2381 13.5817C33.0284 13.7211 33.8073 13.9145 34.5882 14.0954C35.3151 14.0465 36.0222 13.8615 36.747 13.8074C36.747 13.4684 36.7449 13.067 37.0652 12.858C37.8555 12.2944 38.8693 12.2351 39.8021 12.1207C39.6211 11.1703 39.0825 10.3509 38.7404 9.45764C38.4211 8.7994 38.3338 8.06006 38.3172 7.33736C37.5872 7.73562 36.8177 8.31275 35.9411 8.17133ZM29.8932 14.1277C29.3348 14.2566 28.8554 14.5862 28.3979 14.918C27.7802 15.3235 27.2593 15.8549 26.6634 16.2875C25.9095 16.8438 25.0256 17.2524 24.4121 17.9783C23.8381 18.6396 23.7799 19.5817 23.9213 20.4084C24.2977 21.8466 26.132 22.6202 27.4599 22.0025C28.036 21.6979 28.5227 21.2632 28.9792 20.8036C29.8028 20.0133 31.0516 20.1807 32.0104 19.6566C32.5584 19.4861 32.8589 18.9651 33.0139 18.4472C33.0159 18.6729 33.0326 18.8996 33.0055 19.1252C32.9379 19.432 32.7154 19.6701 32.5553 19.9322C33.0648 19.9395 33.6003 20.0424 34.0943 19.8812C34.4957 19.642 34.8596 19.3218 35.3307 19.2209C34.9646 19.5152 34.6319 19.85 34.2586 20.1339C34.0277 20.3304 33.6274 20.2899 33.5057 20.6008C33.5078 20.5457 33.5119 20.4344 33.514 20.3783C33.0409 20.4698 32.5626 20.4261 32.0863 20.4032C31.4717 20.5291 30.8738 20.737 30.253 20.8389C30.6398 20.867 31.0412 21.0074 31.1733 21.4077C30.6898 21.1228 30.1033 21.1498 29.6229 21.4285C28.8721 21.6323 28.4177 22.3197 27.7074 22.6015C27.1334 22.9093 26.4627 22.8823 25.8336 22.8251C25.1275 22.7148 24.5192 22.3051 23.9785 21.8601C23.7175 22.041 23.4367 22.1908 23.1341 22.2895C22.3272 24.0937 21.6658 25.9603 21.1449 27.8663C20.9722 28.8043 20.6166 29.711 20.5438 30.6635C21.2125 30.5325 21.8863 30.3838 22.5008 30.0802C22.3033 29.8483 22.0589 29.6268 22.0007 29.3128C21.8395 28.7554 21.6627 28.1221 21.9497 27.5752C22.0027 27.9984 22.0152 28.4268 22.1151 28.8438C22.3303 29.292 22.6818 29.7422 23.2287 29.7433C23.5594 29.5031 23.8932 29.2649 24.1948 28.9894C22.9282 28.0441 22.2513 26.449 22.2669 24.8902C22.5487 25.5942 22.6048 26.3856 23.027 27.0324C23.4034 27.6126 23.9119 28.1117 24.5078 28.4663L24.4038 28.4996C25.0495 28.5817 25.7109 28.6306 26.3556 28.5131C27.6866 28.3176 28.8565 27.5273 29.7622 26.5644C30.4308 25.8334 30.9851 25.0109 31.5612 24.2091C32.105 23.3367 32.8859 22.6576 33.5535 21.8871C32.9182 21.8258 32.0749 21.6708 31.9116 20.9325C32.1009 21.0927 32.2859 21.2601 32.4773 21.4181C33.0139 21.442 33.5369 21.2778 34.0724 21.3235C34.2035 21.181 34.3293 21.0344 34.4561 20.8888C34.1286 20.8982 33.7958 20.8961 33.4839 20.7869C34.035 20.6278 34.5154 20.318 35.0405 20.0996C35.5459 19.4216 36.0679 18.7187 36.2457 17.8732C36.4475 17.2057 36.3331 16.484 36.0762 15.8497C35.6593 15.0937 34.7785 14.8077 33.9986 14.5956C33.4225 14.503 32.8631 14.3169 32.2776 14.2951C32.6416 14.9949 32.9369 15.7623 32.9494 16.5599C32.9057 16.5713 32.8173 16.5932 32.7736 16.6036C32.6977 15.5689 32.0343 14.7256 31.3054 14.0434C30.8343 14.0414 30.3539 14.005 29.8932 14.1277ZM37.8648 16.0504C37.8534 16.1325 37.8315 16.2968 37.8201 16.379L37.9844 16.3436C37.9761 16.3852 37.9605 16.4684 37.9522 16.51C38.6717 16.4871 39.3955 16.5516 40.1109 16.4497C39.9414 16.2396 39.7678 16.0316 39.6139 15.8102C39.0305 15.8861 38.4409 15.9297 37.8648 16.0504ZM40.1317 15.7654C40.3584 16.0556 40.5737 16.354 40.7712 16.6649C40.2232 16.9904 39.5598 16.9353 38.9473 16.9384C38.2943 16.9186 37.6464 16.9998 36.9955 17.0414C36.9778 17.345 36.9393 17.6466 36.8915 17.946C38.991 18.0843 41.0832 17.8067 43.1795 17.7277C42.8333 17.3304 42.3747 17.0611 41.9899 16.7065C41.6239 16.3987 41.2922 16.0524 40.9345 15.7353C40.6662 15.7561 40.399 15.7602 40.1317 15.7654ZM7.95629 20.3876C8.75386 20.1505 9.54936 19.9103 10.3573 19.7065C10.2128 19.0046 10.2242 18.2923 10.2128 17.581C10.2388 17.5998 10.2918 17.6372 10.3189 17.657C10.3355 17.5238 10.3698 17.2576 10.3875 17.1245C9.41833 18.0781 8.58852 19.1835 7.95629 20.3876ZM36.4589 19.1086C37.1983 19.3623 37.9324 19.6379 38.6156 20.0216C38.5522 19.5391 38.4648 19.0587 38.312 18.5949C37.7712 18.6022 37.2284 18.6469 36.6898 18.5772C36.6107 18.753 36.5348 18.9308 36.4589 19.1086ZM11.4648 20.8545C11.1986 20.9908 10.8544 21.0427 10.6922 21.3204C11.1882 21.2819 11.6218 21.0188 12.0741 20.8368C12.4818 20.6466 12.9071 20.4885 13.2887 20.2483C12.6461 20.3211 12.0617 20.6237 11.4648 20.8545ZM9.27275 20.6278C7.38956 21.179 5.49181 21.7093 3.68973 22.4923C4.427 22.8687 5.23393 23.0809 6.00967 23.3627C6.3185 23.5135 6.59303 23.2722 6.85403 23.136C6.43185 22.8979 5.97327 22.7003 5.63427 22.3415C6.29875 21.9932 7.02353 21.78 7.71088 21.4816C8.60724 21.0999 9.55456 20.8306 10.4072 20.3512C10.0152 20.3793 9.64711 20.5228 9.27275 20.6278ZM11.0114 20.5686C11.1788 20.5696 11.4315 20.4802 11.4845 20.3128C11.3161 20.3138 11.0748 20.4105 11.0114 20.5686ZM9.15109 22.6909C7.34693 23.4459 5.70187 24.5138 3.96634 25.406C3.17292 25.8105 2.36807 26.1942 1.56425 26.58C2.601 26.8826 3.65126 27.1415 4.68176 27.4691C5.69459 27.8538 6.6523 28.433 7.36565 29.2587C7.74832 29.6861 7.95213 30.231 8.1705 30.753C8.49702 31.5849 8.81106 32.422 9.15629 33.2476C9.65542 34.3197 10.1442 35.423 10.9417 36.3162C11.1913 35.2556 11.8381 34.3592 12.4599 33.4868C12.8197 32.9928 13.0724 32.4355 13.3657 31.902C13.7847 31.0691 14.3015 30.2913 14.8131 29.5135C16.1743 27.6105 17.6509 25.7876 18.9081 23.8109C18.7355 23.8462 18.5639 23.8816 18.3923 23.918C18.175 24.2258 17.9556 24.5325 17.7435 24.8445L17.7248 24.8029C16.6901 26.3294 15.5837 27.8081 14.5365 29.3263C13.6329 30.7384 12.9248 32.3045 11.731 33.5097C11.5812 33.7083 11.3098 33.6511 11.1247 33.5398C10.4769 33.1582 9.92579 32.58 9.66998 31.8636C9.33826 30.9589 9.14381 30.0074 8.7705 29.1173C8.61764 28.745 8.32544 28.4518 7.98228 28.2511C6.73965 27.4774 5.25785 27.2632 3.93514 26.6736C3.71261 26.5779 3.86443 26.3648 3.9133 26.2088C4.85126 25.8074 5.52613 24.9838 6.45889 24.571C7.40932 24.1696 8.39095 23.8421 9.31851 23.3887C10.3854 22.8677 11.4377 22.3187 12.5036 21.7966C13.2877 21.4348 14.0083 20.9585 14.7851 20.5831C14.7019 20.5124 14.6114 20.4833 14.5126 20.4937C12.7272 21.2258 10.9365 21.9547 9.15109 22.6909ZM8.94728 21.4566C8.12579 21.781 7.31469 22.1294 6.48384 22.431C6.75317 22.5786 7.02561 22.72 7.30117 22.8573C8.2984 22.3613 9.32579 21.9266 10.3594 21.5107C10.1847 21.336 10.0568 21.1374 10.2461 20.9065C9.8322 21.1332 9.3913 21.3006 8.94728 21.4566ZM34.061 22.2334C33.5411 22.8594 32.9171 23.3928 32.4294 24.0469C31.5133 25.3405 30.6253 26.6934 29.4045 27.7239C29.4035 28.2563 29.2963 28.7804 29.2849 29.3117C29.2766 30.492 29.287 31.6722 29.2766 32.8525C29.1903 33.8861 29.0572 34.9187 29.0759 35.9575C29.0832 37.7201 29.0447 39.4847 29.1372 41.2452C30.6076 40.4622 31.8794 39.3454 32.992 38.1152C34.1359 36.8601 35.0062 35.3835 35.6915 33.8362C36.6981 31.4341 37.06 28.7772 36.7813 26.1901C36.5993 24.362 36.0315 22.588 35.2329 20.9377C34.8263 21.3547 34.4759 21.8226 34.061 22.2334ZM13.3792 21.8466C11.8859 22.5568 10.4239 23.3294 8.93584 24.0511C8.18402 24.388 7.3958 24.6396 6.64502 24.9797C5.84745 25.3478 5.22249 25.98 4.48523 26.4427C5.31088 26.7433 6.16565 26.9575 6.98298 27.2809C7.76911 27.5876 8.61244 27.9703 9.06894 28.719C9.51088 29.6382 9.68038 30.6573 10.0277 31.6088C10.271 32.292 10.7629 32.866 11.4003 33.2123C12.4059 32.2088 13.0631 30.9308 13.7691 29.7142C14.1975 28.9831 14.7352 28.3259 15.2114 27.6272C15.9071 26.6154 16.6443 25.6327 17.34 24.622L16.9761 24.9495C15.9975 26.1516 14.9837 27.3308 14.1268 28.6254C13.9417 28.8947 13.8107 29.1963 13.6797 29.4958C13.3989 29.3772 13.2066 29.0247 12.8624 29.1287C12.1449 29.2774 11.7715 29.9783 11.3213 30.4847C11.0665 30.779 10.8471 31.144 10.4468 31.2532C9.64398 30.4982 9.63463 29.3148 9.06894 28.4226C8.57189 27.7363 7.7296 27.4618 7.00585 27.0885C7.00481 27.024 7.00065 26.8951 6.99962 26.8306C7.76287 26.2483 8.69667 25.9384 9.45577 25.3436C9.15941 25.092 8.80378 24.9318 8.46582 24.7447C8.76634 24.3433 9.25716 24.1904 9.68662 23.9762C11.4003 23.1297 13.114 22.275 14.7653 21.3131C14.2381 21.2694 13.8294 21.6417 13.3792 21.8466ZM13.8585 22.3166C12.3601 23.1401 10.8221 23.8868 9.29563 24.6563C9.56704 24.8767 9.8686 25.1315 9.86028 25.5162C9.227 26.1443 8.39303 26.4875 7.62249 26.9096C8.2984 27.2403 9.03774 27.5627 9.47033 28.2116C9.93307 28.9987 9.99546 29.9627 10.5279 30.7166C11.0312 30.2518 11.3982 29.6622 11.8745 29.1713C12.2863 28.7408 12.9559 28.5402 13.5164 28.7928C14.0145 27.883 14.7019 27.101 15.3435 26.292C15.6294 25.9041 15.9248 25.5225 16.2617 25.1752L16.2076 25.1949C16.6194 24.7519 16.9657 24.2538 17.3639 23.7984C16.3709 23.4053 16.0152 22.327 15.5837 21.4473C15.0128 21.7457 14.4253 22.0098 13.8585 22.3166ZM21.1989 24.779C20.2974 27.2382 19.661 29.7838 19.1223 32.344C18.9892 33.0407 18.8197 33.7311 18.7979 34.4435C17.8298 34.3384 17.2433 33.467 16.4572 33.0043C16.3927 33.1301 16.3282 33.2559 16.2637 33.3818C17.0686 34.1772 17.7445 35.1027 18.6336 35.8119C18.9352 34.8802 19.0724 33.9027 19.3573 32.9637C19.8773 30.4982 20.3733 28.0202 21.1324 25.6129C21.4703 24.7103 21.7844 23.7984 22.1411 22.9031C22.245 22.667 22.4 22.4393 22.374 22.1668C21.8561 22.9727 21.5577 23.8961 21.1989 24.779ZM20.3494 25.0639C20.0936 25.694 20.1279 26.3918 19.9729 27.0459C20.2475 26.3689 20.4076 25.6545 20.6717 24.9755C20.8506 24.4431 21.1105 23.9325 21.1521 23.3627C20.784 23.8795 20.575 24.4785 20.3494 25.0639ZM18.8374 25.12C18.8821 25.1814 18.9268 25.2427 18.9736 25.3031C19.0849 24.9578 19.2565 24.6365 19.3917 24.3006C19.1837 24.5575 19.0038 24.8351 18.8374 25.12ZM19.2253 25.6119C17.6644 28.6837 15.9435 31.6712 14.2807 34.6878C14.2163 34.8365 14.08 34.9228 13.9334 34.9759C13.7098 34.5162 13.478 34.0608 13.218 33.622C12.7989 34.4372 12.8759 35.4469 13.2752 36.2549C13.5788 36.911 13.949 37.5402 14.4055 38.1038C14.4128 37.5963 14.3535 37.0837 14.4336 36.5793C14.7892 35.1537 15.4371 33.8289 16.0329 32.4927C17.0904 30.2455 18.2426 28.0431 19.3334 25.8116C19.5216 25.3873 19.7535 24.9755 19.8544 24.519C19.5819 24.8434 19.4312 25.2448 19.2253 25.6119ZM18.6357 25.5745C18.0721 26.554 17.5469 27.5554 16.9449 28.5121C16.5882 29.0663 16.3074 29.6788 15.8624 30.1707C15.6627 30.1363 15.4974 30.0074 15.3216 29.9169C14.5677 30.9204 14.0072 32.0486 13.4083 33.1467C13.6443 33.4889 13.8502 33.8507 14.0478 34.2178C14.5709 33.206 15.1646 32.2327 15.7033 31.2282C16.7722 29.3346 17.7913 27.4119 18.827 25.4996C18.7532 25.4986 18.6721 25.4965 18.6357 25.5745ZM18.6741 28.4798C18.4204 29.0102 18.1324 29.5239 17.8932 30.0615C18.149 29.8753 18.4319 29.7256 18.749 29.683C18.8592 29.1672 19.0287 28.667 19.1733 28.1606C19.2887 27.7374 19.5175 27.3433 19.5196 26.893C19.1681 27.3817 18.9528 27.9485 18.6741 28.4798ZM19.5601 28.275C19.556 28.3655 19.3969 28.6379 19.5643 28.6545C19.635 28.4424 19.7431 28.2074 19.7431 27.9755C19.6412 28.0285 19.5809 28.1284 19.5601 28.275ZM15.5483 29.5769C15.5889 29.5873 15.67 29.6081 15.7105 29.6185C16.0641 29.135 16.3917 28.6254 16.6516 28.0837C16.2253 28.5298 15.8322 29.0278 15.5483 29.5769ZM25.5404 29.2587C25.1993 30.8195 25.6007 32.4157 25.531 33.9921C25.4873 34.6181 25.3303 35.2317 25.3168 35.8608C25.2991 36.3194 25.1723 36.7623 25.0225 37.1949C25.0236 36.7488 25.0381 36.3079 25.0745 35.866C25.1806 34.4331 25.0028 32.996 24.7012 31.5963C24.6253 30.9568 24.4194 30.3339 24.4319 29.685C24.1927 29.8649 23.9515 30.0396 23.7029 30.2071C23.6946 30.6698 23.68 31.1336 23.5885 31.589C23.3359 33.6989 23.522 35.8306 23.3982 37.9478C23.3722 38.2774 23.3962 38.6081 23.4159 38.9377C23.3411 38.6455 23.262 38.3513 23.2485 38.0487C23.2163 37.4549 23.0769 36.8726 23.0437 36.2778C23.0343 35.0923 22.8118 33.9214 22.7265 32.7412C22.7442 32.0798 22.6402 31.4247 22.6381 30.7655C21.8998 31.0857 21.1085 31.25 20.3255 31.4227C20.1539 31.9675 20.1206 32.5426 19.9573 33.0885C19.8814 33.4192 19.792 33.7488 19.7587 34.0868C19.8721 35.1911 19.9927 36.3079 19.8326 37.4143C19.8742 38.1329 19.6402 38.8462 19.8086 39.5575C19.4936 39.0344 19.6391 38.4105 19.5591 37.8365C19.4572 37.0681 19.5476 36.2861 19.3771 35.5239C19.2742 35.9617 19.165 36.3994 18.9726 36.8081C18.9705 36.7696 18.9653 36.6916 18.9622 36.6521C18.7688 36.6095 18.5587 36.5845 18.4038 36.4483C17.5033 35.7714 16.7868 34.8916 16.0339 34.0629C15.6357 34.9041 15.3227 35.7818 15.0762 36.6781C14.9629 37.1575 15.0596 37.6504 15.0637 38.136C15.0804 38.5291 15.0606 38.9221 15.0658 39.3152C15.1407 40.2168 15.2832 41.1173 15.2364 42.0251C18.5234 43.5256 22.3625 43.7253 25.818 42.7031C26.9369 42.4057 27.9747 41.8816 29.0135 41.3835C28.9844 40.7513 28.8398 40.1294 28.8544 39.4951C28.7078 37.6618 28.5092 35.8275 28.5487 33.9859C28.5716 32.7381 28.452 31.4954 28.4499 30.2476C28.4603 29.6788 28.3054 29.1246 28.3012 28.5568C27.4381 28.9696 26.5054 29.267 25.5404 29.2587ZM19.426 28.8334C19.2648 29.2161 19.1962 29.6289 19.0537 30.0178C18.7875 30.2008 18.3591 30.1311 18.174 30.4452C17.7851 30.9651 18.0024 31.6961 17.6291 32.2202C17.4138 32.3762 17.1445 32.2046 16.923 32.1464C16.8409 32.2889 16.7577 32.4303 16.6724 32.5717C17.2537 33.0074 17.7612 33.544 18.3996 33.9017C18.4807 33.3474 18.5598 32.7921 18.7053 32.2493C18.8884 31.2261 19.113 30.2071 19.4197 29.2119C19.4499 29.0902 19.5071 28.9644 19.4696 28.8396C19.4582 28.8376 19.4374 28.8355 19.426 28.8334ZM6.00967 28.8334C6.20308 32.0736 7.45715 35.241 9.53792 37.7315C11.0135 39.4878 12.853 40.9613 14.9546 41.8961C14.9514 41.475 14.9015 41.057 14.784 40.6525C14.6343 40.1221 14.6343 39.5305 14.3182 39.0604C13.5861 38.0934 12.9164 37.0618 12.4838 35.9232C12.383 35.5457 12.3559 35.1537 12.2904 34.771C12.0461 35.1693 11.8131 35.58 11.6686 36.0272C11.5345 36.4244 11.5074 36.8455 11.3972 37.249C11.1955 37.2147 10.9812 37.1918 10.8305 37.0389C10.3407 36.624 9.95074 36.102 9.63151 35.5478C8.60828 33.883 8.07483 31.9863 7.2783 30.2143C6.98402 29.6538 6.51816 29.2015 6.00967 28.8334ZM17.1112 31.6733C17.1663 31.7149 17.2755 31.798 17.3296 31.8396C17.418 31.4965 17.5033 31.1512 17.5397 30.7977C17.3639 31.0722 17.2402 31.3738 17.1112 31.6733Z" fill="#5C4A04"/><path d="M34.3563 10.5827C34.7712 9.90156 35.5522 9.45754 36.3497 9.44922C36.826 9.45546 37.3792 9.60832 37.6017 10.0742C37.8482 10.4891 37.6766 10.9789 37.453 11.3605C36.9736 11.9189 36.2728 12.3182 35.5178 12.2745C35.0322 12.312 34.479 12.0977 34.2991 11.6111C34.1327 11.2835 34.2045 10.8998 34.3563 10.5827ZM37.0256 9.75078C37.2087 10.0752 37.6683 10.5868 37.2409 10.9321C37.3314 10.9747 37.4249 11.0121 37.5196 11.0506C37.4967 10.7782 37.4946 10.5036 37.4665 10.2322C37.3563 10.1116 37.1359 9.8714 37.0256 9.75078ZM35.1362 10.9539C35.0665 11.0995 35.1643 11.2596 35.1851 11.4083C35.7508 11.4915 36.3778 11.3397 36.7366 10.8666C36.852 10.7147 36.9684 10.4121 36.7386 10.3092C36.1428 10.1334 35.4378 10.4059 35.1362 10.9539ZM34.3865 11.3064C34.5081 11.7088 34.8783 12.0364 35.3088 12.0478C36.044 12.1425 36.8166 11.8347 37.2523 11.2284L37.3054 11.2835C37.2586 11.2211 37.2128 11.1577 37.1691 11.0943C36.9705 11.5425 36.4984 11.7796 36.0523 11.9116C35.5948 12.026 35.0249 12.0229 34.7005 11.6288C34.4052 11.3179 34.6392 10.8468 34.6496 10.487C34.5622 10.7542 34.3625 11.0111 34.3865 11.3064ZM34.6943 11.1473C34.7733 11.3054 34.8554 11.4624 34.9334 11.6215C35.5386 11.8659 36.2686 11.7671 36.7626 11.3189C36.1969 11.5809 35.4388 11.8586 34.8856 11.4146C34.8908 11.1681 34.9012 10.9217 34.9147 10.6763C34.8388 10.8322 34.7671 10.9903 34.6943 11.1473Z" fill="#5C4A04"/><path d="M23.2548 15.8952C23.5532 15.1766 23.4825 14.3177 23.9567 13.6709C24.0076 14.2335 24.0347 14.8002 24.0087 15.3648C23.9983 16.2789 23.1768 17.1149 22.2471 17.0712C22.6152 16.7094 23.0437 16.3829 23.2548 15.8952Z" fill="#5C4A04"/><path d="M29.0062 15.5095C29.6301 15.9951 30.1542 16.7366 30.1189 17.5591C30.1345 17.9334 30.1137 18.3161 29.9504 18.6593C29.8069 17.922 29.7372 17.1702 29.4471 16.4693C29.2828 16.1854 29.1237 15.8953 29.0104 15.5865L28.9324 15.7393C28.9511 15.6821 28.9875 15.5667 29.0062 15.5095Z" fill="#5C4A04"/><path d="M26.0728 17.1597C26.3546 17.0193 26.6468 16.7698 26.9816 16.8644C27.2499 16.933 27.1896 17.2585 27.2624 17.4654L27.4215 17.3729L27.2915 17.4498C27.8728 18.3348 28.4749 19.229 28.7951 20.2471C28.661 20.3459 28.5279 20.4457 28.3969 20.5476C27.6763 20.7722 27.0315 21.2505 26.2631 21.3036C25.7296 21.29 25.1587 21.211 24.7251 20.872C24.1251 20.4218 23.8797 19.5441 24.2208 18.863C24.5286 18.0311 25.3459 17.5767 26.0728 17.1597ZM25.2118 18.4741C24.8156 18.8183 24.6014 19.3746 24.723 19.8935C24.8863 20.3698 25.3875 20.6058 25.8575 20.6588C26.6603 20.8044 27.3321 20.2377 28.0558 19.9996C27.7574 19.5088 27.5868 18.9452 27.2218 18.4949C26.9889 18.21 26.8256 17.8783 26.6489 17.5569C26.1487 17.8263 25.6392 18.0945 25.2118 18.4741Z" fill="#5C4A04"/><path d="M17.3317 18.2858C17.6561 17.8563 18.0024 17.3988 18.513 17.1804C18.1927 17.7482 17.8391 18.2983 17.4492 18.8213C17.2568 19.0678 17.1445 19.361 17.0187 19.6428C16.7515 19.1759 17.0769 18.6778 17.3317 18.2858Z" fill="#5C4A04"/><path d="M11.7445 25.8282C12.07 25.7336 12.4183 25.7367 12.7532 25.772C13.2648 25.8303 13.6267 26.3263 13.6828 26.8119C13.5164 27.9235 12.3851 28.7398 11.288 28.6753C10.6953 28.6431 10.1483 28.1377 10.1483 27.5346C10.296 26.7246 10.9656 26.059 11.7445 25.8282ZM10.7379 27.4421C10.9844 27.076 11.2682 26.7412 11.5844 26.4344C11.1674 26.6164 10.792 26.9679 10.7379 27.4421ZM11.6384 26.762C11.2755 26.9564 11.0083 27.3131 11.0904 27.7426C11.627 27.9194 12.2072 27.675 12.5764 27.2757C12.7438 27.0895 12.8634 26.7786 12.6752 26.5665C12.3227 26.4282 11.9421 26.5779 11.6384 26.762ZM13.0464 26.084C13.3251 26.4032 13.4291 26.9065 13.193 27.2726C12.9778 27.7301 12.5171 27.9849 12.1334 28.2802C12.6741 28.144 13.113 27.7197 13.3438 27.2226C13.4457 26.8327 13.4592 26.3148 13.0464 26.084ZM10.7171 27.6396C10.8409 28.119 11.3691 28.145 11.7715 28.172C11.3774 28.0868 11.026 27.8975 10.7171 27.6396ZM10.583 28.0982C11.028 28.5984 11.8121 28.5339 12.3279 28.1939C11.7528 28.3166 11.1164 28.51 10.583 28.0982Z" fill="#5C4A04"/></svg>