<svg width="42" height="40" viewBox="0 0 42 40" fill="none" xmlns="http://www.w3.org/2000/svg"><path d="M15.9184 15.8958C15.5256 15.8962 15.1489 16.0525 14.8711 16.3303C14.5933 16.6081 14.437 16.9848 14.4366 17.3776V18.421C14.4366 18.814 14.5927 19.1909 14.8706 19.4688C15.1485 19.7467 15.5254 19.9029 15.9184 19.9029C16.3115 19.9029 16.6884 19.7467 16.9663 19.4688C17.2442 19.1909 17.4003 18.814 17.4003 18.421V17.3776C17.3999 16.9848 17.2436 16.6081 16.9658 16.3303C16.688 16.0525 16.3113 15.8962 15.9184 15.8958Z" fill="#5C4A04"/><path d="M25.9875 15.8958C25.5946 15.8962 25.218 16.0525 24.9402 16.3303C24.6624 16.6081 24.5061 16.9848 24.5056 17.3776V18.421C24.5051 18.6159 24.5431 18.809 24.6173 18.9893C24.6916 19.1695 24.8006 19.3333 24.9383 19.4713C25.076 19.6093 25.2395 19.7188 25.4195 19.7935C25.5996 19.8683 25.7926 19.9067 25.9875 19.9067C26.1824 19.9067 26.3754 19.8683 26.5555 19.7935C26.7355 19.7188 26.8991 19.6093 27.0367 19.4713C27.1744 19.3333 27.2835 19.1695 27.3577 18.9893C27.4319 18.809 27.4699 18.6159 27.4694 18.421V17.3776C27.4689 16.9848 27.3127 16.6081 27.0349 16.3303C26.7571 16.0525 26.3804 15.8962 25.9875 15.8958Z" fill="#5C4A04"/><path d="M26.1765 23.6251C25.4368 23.6251 25.594 24.4592 25.4224 24.9328C25.2764 25.3369 25.0026 25.6824 24.6425 25.9169C24.2824 26.1513 23.8557 26.262 23.4271 26.232C22.9984 26.202 22.5912 26.033 22.2673 25.7507C21.9433 25.4684 21.7203 25.0882 21.632 24.6676C21.7068 24.6112 21.7741 24.5455 21.8324 24.4722L23.324 22.5652C23.4521 22.4013 23.5316 22.2047 23.5534 21.9978C23.5752 21.7909 23.5384 21.5821 23.4472 21.3951C23.3561 21.2081 23.2142 21.0505 23.0378 20.9402C22.8614 20.83 22.6575 20.7715 22.4495 20.7715H19.4669C19.2589 20.7715 19.055 20.8299 18.8786 20.9402C18.7022 21.0505 18.5603 21.2081 18.4692 21.3951C18.378 21.5821 18.3412 21.7909 18.3631 21.9978C18.3849 22.2047 18.4644 22.4013 18.5926 22.5652L20.0838 24.4722C20.1398 24.5429 20.2041 24.6067 20.2754 24.6619C19.9139 26.4114 17.5015 26.7819 16.6226 25.2339C16.5263 25.0641 16.4557 24.8809 16.4132 24.6904C16.3696 24.494 16.3965 24.2844 16.3436 24.0924C16.3164 23.9992 16.2685 23.9133 16.2035 23.8412C16.1384 23.7691 16.0579 23.7126 15.968 23.676C15.878 23.6394 15.781 23.6236 15.684 23.6299C15.5871 23.6361 15.4929 23.6641 15.4083 23.7119C14.7175 24.1161 15.247 25.4134 15.5497 25.9206C15.784 26.3112 16.0971 26.6486 16.469 26.9115C16.8409 27.1743 17.2635 27.3568 17.7099 27.4473V29.2523C17.7099 30.1138 18.0521 30.94 18.6613 31.5492C19.2705 32.1584 20.0967 32.5006 20.9582 32.5006C21.8197 32.5006 22.6459 32.1584 23.2551 31.5492C23.8643 30.94 24.2065 30.1138 24.2065 29.2523V27.4458C24.6532 27.3537 25.0757 27.1695 25.4471 26.9048C25.8185 26.6402 26.1305 26.3009 26.3633 25.9088C26.6674 25.3943 27.3048 23.6251 26.1765 23.6251ZM22.9332 29.2524C22.9332 29.7762 22.7251 30.2785 22.3547 30.6489C21.9843 31.0193 21.482 31.2274 20.9582 31.2274C20.4344 31.2274 19.932 31.0193 19.5616 30.6489C19.1913 30.2785 18.9832 29.7762 18.9832 29.2524V27.4459C19.7735 27.2846 20.4755 26.8352 20.953 26.1852C21.4327 26.838 22.1389 27.2882 22.9332 27.4474V29.2524Z" fill="#5C4A04"/><path d="M40.21 0.619329C39.8574 0.320775 39.4314 0.121949 38.9761 0.0434575C38.5208 -0.0350337 38.0528 0.00966611 37.6206 0.172924C31.9706 2.25558 27.6126 5.7177 25.3637 7.76157C24.4459 7.45971 23.486 7.3058 22.5199 7.3056H19.3911C18.425 7.3058 17.4651 7.45971 16.5473 7.76157C14.2984 5.71774 9.94044 2.25558 4.29044 0.172924C2.41738 -0.51711 0.457583 1.12876 0.811841 3.09165C1.78517 8.48161 4.04564 13.0086 5.77047 15.8569C6.74462 17.47 8.17485 18.7582 9.8806 19.559L9.39946 23.9374L9.39879 23.9434L8.5361 31.7942C8.53482 31.8058 8.53641 31.817 8.53577 31.8286C8.44342 33.5018 9.5377 35.0511 10.76 36.077C12.4152 37.4662 14.5283 38.2631 16.6208 38.7064C19.1852 39.241 21.8262 39.2969 24.4108 38.8713C26.5945 38.5137 28.8008 37.7997 30.6114 36.4961C32.0747 35.4426 33.4813 33.7469 33.3754 31.8286C33.3748 31.817 33.3764 31.8059 33.3751 31.7942L32.5123 23.943C32.5121 23.9413 32.5119 23.9398 32.5117 23.9381L32.0305 19.559C33.7362 18.7582 35.1664 17.4701 36.1407 15.8572C37.8656 13.0084 40.126 8.48139 41.0992 3.09175C41.1849 2.63778 41.1477 2.16915 40.9913 1.73443C40.835 1.29971 40.5652 0.914706 40.21 0.619329ZM32.1046 31.8873C32.0938 33.3144 31.1053 34.4959 30.0187 35.3134C28.4878 36.465 26.6033 37.1259 24.7412 37.5014C22.5154 37.9456 20.2289 37.9948 17.9861 37.6466C16.0409 37.3456 14.0768 36.7504 12.4126 35.6755C11.1133 34.8364 9.81916 33.5387 9.80669 31.8873L10.62 24.4862L15.3094 23.0227C16.3938 22.6885 17.3626 22.0569 18.106 21.1996C18.8493 20.3423 19.3374 19.2938 19.5147 18.1731L20.4361 12.4777C20.5302 11.8946 21.3831 11.893 21.4775 12.4778L22.3966 18.1731C22.5738 19.2938 23.0618 20.3423 23.8052 21.1996C24.5485 22.0569 25.5173 22.6885 26.6017 23.0227L31.2912 24.4862L32.1046 31.8873ZM39.8461 2.86534C39.3549 5.51124 38.5556 8.09052 37.4644 10.5505C37.0117 11.5839 36.5152 12.5966 35.975 13.5887C35.4786 14.5014 34.9763 15.4395 34.3076 16.2392C33.4444 17.2677 32.3454 18.0723 31.1043 18.5846C31.0933 18.5892 31.0841 18.5961 31.0735 18.6012C31.0531 18.6108 31.0332 18.6214 31.0139 18.6332C30.9964 18.6439 30.9801 18.6556 30.964 18.6678C30.9476 18.6802 30.9319 18.693 30.9169 18.7069C30.9014 18.7212 30.8867 18.7364 30.8728 18.7522C30.8597 18.767 30.8473 18.7821 30.8356 18.798C30.8234 18.8147 30.812 18.8321 30.8015 18.85C30.7912 18.8675 30.7816 18.8852 30.773 18.9036C30.7643 18.922 30.7569 18.9405 30.7501 18.9596C30.7431 18.979 30.7371 18.9984 30.732 19.0186C30.727 19.039 30.723 19.0597 30.72 19.0805C30.7172 19.0998 30.7149 19.119 30.7139 19.1388C30.7128 19.1622 30.713 19.1857 30.7145 19.209C30.7152 19.2202 30.7136 19.2311 30.7148 19.2424L31.1393 23.105L26.9809 21.8072C26.1229 21.5427 25.3563 21.043 24.7682 20.3647C24.18 19.6864 23.7938 18.8568 23.6535 17.97L22.7346 12.2749C22.672 11.85 22.4573 11.4623 22.1303 11.1838C21.8033 10.9053 21.3862 10.7551 20.9568 10.761C20.5287 10.76 20.1144 10.9119 19.7885 11.1894C19.4625 11.4668 19.2464 11.8516 19.1791 12.2743L18.2579 17.9697C18.1175 18.8565 17.7313 19.6862 17.143 20.3645C16.5548 21.0429 15.7882 21.5427 14.9302 21.8072L10.7717 23.1049L11.1962 19.2424C11.1974 19.2311 11.1959 19.2202 11.1965 19.209C11.198 19.1857 11.1982 19.1622 11.1972 19.1388C11.1962 19.119 11.1938 19.0998 11.191 19.0805C11.1879 19.0596 11.1841 19.039 11.179 19.0186C11.1739 18.9984 11.1679 18.979 11.1609 18.9596C11.1541 18.9405 11.1466 18.922 11.138 18.9036C11.1294 18.8852 11.1199 18.8675 11.1095 18.85C11.099 18.8321 11.0876 18.8147 11.0754 18.798C11.0637 18.7821 11.0513 18.767 11.0383 18.7522C11.0243 18.7364 11.0096 18.7212 10.9941 18.7069C10.9791 18.6929 10.9634 18.6802 10.9471 18.6678C10.9309 18.6556 10.9146 18.6439 10.8971 18.6332C10.8778 18.6214 10.8579 18.6108 10.8375 18.6012C10.8269 18.5961 10.8177 18.5892 10.8067 18.5846C9.16148 17.9086 7.77758 16.721 6.85977 15.1974C5.19042 12.441 3.00363 8.06381 2.06497 2.86534C2.02125 2.63225 2.04032 2.39173 2.12022 2.16844C2.20013 1.94515 2.33798 1.74714 2.51965 1.5947C2.70132 1.44226 2.92027 1.34089 3.15404 1.30098C3.38781 1.26108 3.62799 1.28407 3.84995 1.3676C8.94967 3.24737 12.966 6.29996 15.245 8.30548C14.1885 8.84501 13.2476 9.58551 12.4748 10.4855C12.3648 10.6136 12.3103 10.7802 12.3231 10.9485C12.3359 11.1169 12.4151 11.2732 12.5432 11.3832C12.6721 11.4915 12.8382 11.5449 13.006 11.5321C13.1738 11.5193 13.3299 11.4413 13.4409 11.3149C14.1766 10.4565 15.0893 9.76754 16.1164 9.29527C17.1435 8.82301 18.2606 8.57863 19.3911 8.57892H22.52C23.6504 8.57863 24.7676 8.823 25.7946 9.29527C26.8217 9.76754 27.7344 10.4565 28.4701 11.3149C28.5811 11.4414 28.7372 11.5194 28.905 11.5322C29.0729 11.545 29.239 11.4915 29.3679 11.3832C29.496 11.2732 29.5751 11.1169 29.588 10.9485C29.6008 10.7802 29.5462 10.6136 29.4363 10.4855C28.6635 9.58551 27.7225 8.84501 26.6661 8.30548C28.945 6.29996 32.9614 3.24737 38.0611 1.3676C38.2831 1.28407 38.5232 1.26108 38.757 1.30099C38.9908 1.34091 39.2097 1.44228 39.3914 1.59471C39.573 1.74715 39.7109 1.94516 39.7908 2.16845C39.8707 2.39173 39.8898 2.63225 39.8461 2.86534Z" fill="#5C4A04"/></svg>