<svg width="22" height="44" viewBox="0 0 22 44" fill="none" xmlns="http://www.w3.org/2000/svg"><path d="M1 0C0.447716 0 0 0.447715 0 1V43C0 43.5523 0.447715 44 1 44H21C21.5523 44 22 43.5523 22 43V0.999999C22 0.447714 21.5523 0 21 0H1ZM6.875 40.25C6.875 40.8023 6.42728 41.25 5.875 41.25H5.125C4.57272 41.25 4.125 40.8023 4.125 40.25V39.4986C4.125 38.9463 4.57272 38.4986 5.125 38.4986H5.875C6.42728 38.4986 6.875 38.9463 6.875 39.4986V40.25ZM6.875 34.75C6.875 35.3023 6.42728 35.75 5.875 35.75H5.125C4.57272 35.75 4.125 35.3023 4.125 34.75V34C4.125 33.4477 4.57272 33 5.125 33H5.875C6.42728 33 6.875 33.4477 6.875 34V34.75ZM6.875 29.25C6.875 29.8023 6.42728 30.25 5.875 30.25H5.125C4.57272 30.25 4.125 29.8023 4.125 29.25V28.5C4.125 27.9477 4.57272 27.5 5.125 27.5H5.875C6.42728 27.5 6.875 27.9477 6.875 28.5V29.25ZM12.375 40.25C12.375 40.8023 11.9273 41.25 11.375 41.25H10.625C10.0727 41.25 9.625 40.8023 9.625 40.25V39.5C9.625 38.9477 10.0727 38.5 10.625 38.5H11.375C11.9273 38.5 12.375 38.9477 12.375 39.5V40.25ZM12.375 34.75C12.375 35.3023 11.9273 35.75 11.375 35.75H10.625C10.0727 35.75 9.625 35.3023 9.625 34.75V34C9.625 33.4477 10.0727 33 10.625 33H11.375C11.9273 33 12.375 33.4477 12.375 34V34.75ZM12.375 29.25C12.375 29.8023 11.9273 30.25 11.375 30.25H10.625C10.0727 30.25 9.625 29.8023 9.625 29.25V28.5C9.625 27.9477 10.0727 27.5 10.625 27.5H11.375C11.9273 27.5 12.375 27.9477 12.375 28.5V29.25ZM17.875 40.25C17.875 40.8023 17.4273 41.25 16.875 41.25H16.125C15.5727 41.25 15.125 40.8023 15.125 40.25V39.5C15.125 38.9477 15.5727 38.5 16.125 38.5H16.875C17.4273 38.5 17.875 38.9477 17.875 39.5V40.25ZM17.875 34.75C17.875 35.3023 17.4273 35.75 16.875 35.75H16.125C15.5727 35.75 15.125 35.3023 15.125 34.75V34C15.125 33.4477 15.5727 33 16.125 33H16.875C17.4273 33 17.875 33.4477 17.875 34V34.75ZM17.875 29.25C17.875 29.8023 17.4273 30.25 16.875 30.25H16.125C15.5727 30.25 15.125 29.8023 15.125 29.25V28.5C15.125 27.9477 15.5727 27.5 16.125 27.5H16.875C17.4273 27.5 17.875 27.9477 17.875 28.5V29.25ZM17.875 23.75C17.875 24.3023 17.4273 24.75 16.875 24.75H5.125C4.57272 24.75 4.125 24.3023 4.125 23.75V6.5C4.125 5.94772 4.57272 5.5 5.125 5.5H16.875C17.4273 5.5 17.875 5.94772 17.875 6.5V23.75Z" fill="#5C4A04"/></svg>