<svg width="41" height="40" viewBox="0 0 41 40" fill="none" xmlns="http://www.w3.org/2000/svg"><path d="M18.8269 0.081994C21.9426 -0.208383 25.1281 0.274755 28.0103 1.49557C32.6062 3.41886 36.417 7.12518 38.491 11.6526C39.6148 14.0843 40.2326 16.7533 40.2629 19.4341C40.3012 22.2377 39.7217 25.0464 38.5831 27.6079C37.3956 30.2812 35.599 32.6808 33.3742 34.5794C33.2593 34.6733 33.1499 34.7969 32.9942 34.8148C32.8503 34.8321 32.6964 34.774 32.605 34.6616C30.8312 32.3354 29.0544 30.0112 27.2806 27.6845C27.2052 27.5825 27.1181 27.488 27.0576 27.3768C26.9822 27.2131 27.0508 27.0129 27.1855 26.9017C28.9135 25.3479 30.0861 23.1713 30.3666 20.8582C30.6644 18.5283 30.0861 16.0991 28.7634 14.1572C27.5358 12.3285 25.6749 10.9347 23.5718 10.2773C21.816 9.71942 19.9075 9.68606 18.1232 10.1309C15.4524 10.7938 13.1275 12.6751 11.8764 15.1204C10.4214 17.9142 10.4208 21.4253 11.9283 24.1987C12.4788 25.228 13.2146 26.1578 14.0839 26.9357C14.234 27.0741 14.2396 27.3255 14.1049 27.4775C12.2792 29.874 10.4499 32.2675 8.62358 34.6634C8.48828 34.8284 8.22447 34.8698 8.05148 34.7382C4.36554 31.7016 1.85904 27.2681 1.17819 22.5386C0.552958 18.3621 1.31164 13.9886 3.33934 10.2816C4.82706 7.5385 6.98017 5.16112 9.55958 3.40588C12.2978 1.53141 15.521 0.374842 18.8269 0.081994Z" fill="#5C4A04"/><path d="M20.4883 24.8468C20.6532 24.7999 20.8485 24.8511 20.9479 24.9982C24.5943 29.7147 28.2413 34.4317 31.8877 39.1488C31.9847 39.2767 32.1169 39.4046 32.1151 39.5782C32.1219 39.7938 31.9378 40.0181 31.711 39.9977C24.3132 40.0008 16.9148 40.0008 9.51697 39.9977C9.18396 40.0144 8.98564 39.5615 9.213 39.3206C12.9008 34.546 16.5917 29.774 20.2801 24.9994C20.3338 24.9308 20.403 24.8715 20.4883 24.8468Z" fill="#5C4A04"/></svg>