<svg width="37" height="37" viewBox="0 0 37 37" fill="none" xmlns="http://www.w3.org/2000/svg"><path d="M17.4192 24.9043V24.4604H18.4936V24.9749C18.4936 25.4457 18.6903 25.6811 19.0838 25.6811C19.4772 25.6811 19.6739 25.4457 19.6739 24.9749C19.6739 24.7731 19.6319 24.5831 19.5478 24.4049C19.4671 24.2267 19.3612 24.067 19.23 23.9257C19.1023 23.7811 18.9593 23.6382 18.8013 23.497C18.6432 23.3524 18.4835 23.2028 18.3221 23.0481C18.1641 22.89 18.0195 22.7236 17.8883 22.5487C17.7605 22.3739 17.6546 22.1654 17.5706 21.9233C17.4899 21.6812 17.4495 21.4205 17.4495 21.1414C17.4495 20.5597 17.5907 20.1125 17.8732 19.7997C18.159 19.4837 18.576 19.3256 19.1241 19.3256C19.6722 19.3256 20.0875 19.4837 20.37 19.7997C20.6558 20.1125 20.7987 20.5597 20.7987 21.1414V21.3735H19.7243V21.0708C19.7243 20.5967 19.5344 20.3596 19.1544 20.3596C18.9661 20.3596 18.8248 20.4168 18.7307 20.5311C18.6365 20.6421 18.5894 20.822 18.5894 21.0708C18.5894 21.2726 18.6298 21.4626 18.7105 21.6408C18.7946 21.819 18.9005 21.9804 19.0283 22.125C19.1594 22.2663 19.304 22.4092 19.4621 22.5538C19.6201 22.695 19.7782 22.8446 19.9362 23.0027C20.0942 23.1574 20.2372 23.3221 20.3649 23.497C20.4961 23.6719 20.602 23.8803 20.6827 24.1225C20.7668 24.3646 20.8088 24.6252 20.8088 24.9043C20.8088 25.486 20.6642 25.9349 20.375 26.251C20.0858 26.5638 19.6655 26.7201 19.114 26.7201C18.5625 26.7201 18.1422 26.5638 17.853 26.251C17.5638 25.9349 17.4192 25.486 17.4192 24.9043ZM21.4595 26.6394V19.4063H24.5565V20.4403H22.5944V22.4579H24.153V23.4869H22.5944V25.6054H24.5565V26.6394H21.4595ZM25.1668 24.9043V21.1414C25.1668 20.5631 25.3165 20.1158 25.6157 19.7997C25.915 19.4837 26.3421 19.3256 26.8969 19.3256C27.4518 19.3256 27.8771 19.4837 28.1731 19.7997C28.4723 20.1158 28.622 20.5631 28.622 21.1414V24.9043C28.622 25.4827 28.4723 25.9299 28.1731 26.246C27.8771 26.5621 27.4518 26.7201 26.8969 26.7201C26.3421 26.7201 25.915 26.5621 25.6157 26.246C25.3165 25.9299 25.1668 25.4827 25.1668 24.9043ZM26.3068 24.9749C26.3068 25.4524 26.5035 25.6911 26.8969 25.6911C27.287 25.6911 27.482 25.4524 27.482 24.9749V21.0708C27.482 20.5967 27.287 20.3596 26.8969 20.3596C26.5035 20.3596 26.3068 20.5967 26.3068 21.0708V24.9749Z" fill="#5C4A04"/><path d="M23.3407 31.4092C28.0787 31.4092 31.9196 27.5683 31.9196 22.8303C31.9196 18.0923 28.0787 14.2514 23.3407 14.2514C18.6027 14.2514 14.7618 18.0923 14.7618 22.8303C14.7618 27.5683 18.6027 31.4092 23.3407 31.4092Z" stroke="#5C4A04" stroke-width="1.49198" stroke-miterlimit="10"/><path d="M29.2519 29.1146L35.4731 35.3358" stroke="#5C4A04" stroke-width="1.49198" stroke-linecap="round" stroke-linejoin="round"/><path d="M16.427 31.5856C13.4023 31.5856 10.4456 30.6887 7.93076 29.0083C5.41587 27.3279 3.45576 24.9395 2.29829 22.1451C1.14081 19.3508 0.837964 16.2759 1.42804 13.3094C2.01811 10.3429 3.47461 7.61797 5.61334 5.47923C7.75207 3.3405 10.477 1.88401 13.4435 1.29393C16.41 0.703856 19.4849 1.0067 22.2793 2.16418C25.0736 3.32165 27.462 5.28176 29.1424 7.79665C30.8228 10.3115 31.7197 13.2682 31.7197 16.2929" stroke="#5C4A04" stroke-width="1.49198" stroke-linecap="round" stroke-linejoin="round"/><path d="M16.427 1.00008V13.9616" stroke="#5C4A04" stroke-width="1.49198" stroke-miterlimit="10" stroke-linecap="round"/><path d="M12.8755 24.064C9.98411 24.2112 7.12761 24.7631 4.38947 25.7037" stroke="#5C4A04" stroke-width="1.49198" stroke-linecap="round" stroke-linejoin="round"/><path d="M4.3895 6.88186C7.18875 7.95447 11.5341 8.6464 16.4269 8.6464C21.3198 8.6464 25.6651 7.95447 28.4644 6.88186" stroke="#5C4A04" stroke-width="1.49198" stroke-miterlimit="10"/><path d="M25.2383 12.0122C24.1275 5.64969 20.603 1.00008 16.427 1.00008C11.3594 1.00008 7.25131 7.84688 7.25131 16.2928C7.25131 24.7388 11.3594 31.5856 16.427 31.5856" stroke="#5C4A04" stroke-width="1.49198" stroke-linecap="round" stroke-linejoin="round"/><path d="M14.3788 16.2929H1.00006" stroke="#5C4A04" stroke-width="1.49198" stroke-linecap="round" stroke-linejoin="round"/></svg>