<svg width="42" height="41" viewBox="0 0 42 41" fill="none" xmlns="http://www.w3.org/2000/svg"><path fill-rule="evenodd" clip-rule="evenodd" d="M27.4726 33.7388H28.9494C35.821 33.1873 39.2 29.831 40.0964 28.8376L40.4537 28.5071L41.125 27.6231C41.7963 26.3839 42.1329 24.5105 41.9512 23.2754L40.1377 15.592C39.8011 17.7112 38.9067 20.4933 36.8702 23.3849C34.5198 26.7185 31.4754 28.9491 29.3273 30.1842C26.9521 31.5061 25.2791 32.0638 25.1634 32.0638C24.0129 32.5038 22.7911 32.7279 21.5593 32.7247C23.5504 33.5199 25.4753 33.7409 27.4912 33.7409L27.4726 33.7388Z" fill="#5C4A04"/><path fill-rule="evenodd" clip-rule="evenodd" d="M32.328 38.5263L37.2974 32.3878C35.3724 33.404 32.6647 34.507 29.0357 34.728C28.4781 34.728 28.0278 34.8395 27.4454 34.8395C20.3506 34.8395 14.7988 31.287 14.7988 31.1754H14.71C13.7021 30.5145 12.785 29.74 12.0043 28.8353C13.0122 31.3076 14.3547 33.4061 16.0525 35.1968C20.7968 40.2075 25.5204 40.761 26.8856 40.761H28.2488C29.612 40.54 31.4296 39.6354 32.3218 38.5304L32.328 38.5263ZM12.6115 12.9378C13.6194 12.0538 14.5117 11.2607 15.5444 10.7071C13.3964 11.0583 10.9344 11.8328 8.4497 13.1794C2.47238 16.6266 0.886138 21.0611 0.547409 22.2983L0.324344 23.1823C-0.0123197 24.6404 0.547409 26.8463 1.46652 28.0835L6.43592 34.1971C5.68009 31.444 5.51955 28.5614 5.965 25.7413C6.52267 21.7447 8.34023 18.4091 9.81494 16.4056C11.1368 14.2865 12.5 12.9398 12.6136 12.9398L12.6115 12.9378ZM12.4793 4.01931C14.9976 4.02471 17.4907 4.51997 19.8198 5.47749C23.6698 6.91296 26.4664 9.36048 28.2798 11.1512C30.18 13.0307 31.0784 14.7037 31.0784 14.7037L31.19 14.7925C31.8612 15.8087 32.3321 16.9117 32.644 18.0146C32.7556 15.8955 32.644 13.2228 31.7497 10.5729C29.7132 3.99245 25.6629 1.54287 24.4092 0.881934L23.5149 0.439934C22.8415 0.109467 21.9224 0 21.0281 0C20.173 0.000825451 19.3245 0.150388 18.5207 0.442L11.426 3.79624C11.6945 4.01724 12.1654 4.01931 12.4793 4.01931ZM3.23452 10.3808L1.42315 17.9278C3.01352 15.7178 5.1409 13.8218 7.86725 12.2541C12.4773 9.6042 17.3351 9.25308 19.8178 9.25308L22.1682 9.36254C23.4219 9.47408 24.5434 9.80454 25.6794 10.2465C23.7753 8.58329 21.5933 7.26821 19.2333 6.36149C17.0852 5.5663 14.7348 5.01484 12.4731 5.01484C9.87691 5.01484 8.06347 5.67577 7.28067 6.00624L6.83248 6.22724L6.00631 6.5577C4.79804 7.37561 3.54433 9.05273 3.20767 10.3787L3.23452 10.3808ZM35.9342 22.9427C39.8957 17.269 39.336 12.5887 39.0902 11.24L38.9787 10.798L38.7556 10.0255C38.3074 8.59008 36.9422 7.02242 35.7112 6.36149L28.6165 3.0279C30.5252 5.14502 31.9466 7.65492 32.7803 10.3808C34.034 14.2886 33.7883 17.932 33.4516 20.4043C33.1149 23.0749 32.4437 24.7313 32.4437 24.8449V24.9544C31.9955 26.08 31.4357 27.185 30.7418 28.067C32.3321 26.962 34.3666 25.1754 35.9342 22.9447V22.9427ZM14.2701 40.7342H22.2632C20.2267 39.9617 17.7647 38.5242 15.2821 35.8557C12.4628 32.8526 10.986 29.3868 10.2012 27.0694C9.41632 24.5083 9.19325 22.7196 9.19325 22.6081V22.5193C9.08172 22.0566 9.08172 21.6146 9.08172 21.1726C9.08172 20.4001 9.19325 19.7371 9.30479 18.9626C8.05108 21.28 7.26828 23.6201 6.82009 25.9644C5.81216 32.7637 8.27414 36.7603 9.059 37.7538L9.41632 38.0843L9.86451 38.549C10.7816 39.7407 12.7974 40.7342 14.2742 40.7342H14.2701ZM21.0281 12.5206C25.9975 12.5206 30.0251 16.4738 30.0251 21.3957C30.0251 26.2969 26.0182 30.2708 21.0281 30.2708C16.0587 30.2708 12.0311 26.3176 12.0311 21.3957C12.0311 16.4924 16.0587 12.5206 21.0281 12.5206ZM25.5514 21.3957C25.5514 18.9234 23.5149 16.9344 21.0529 16.9344C18.5455 16.9344 16.5296 18.944 16.5296 21.3957C16.5296 23.868 18.5661 25.8322 21.0529 25.8322C23.5149 25.8322 25.5514 23.8453 25.5514 21.3957Z" fill="#5C4A04"/></svg>