<svg width="39" height="39" viewBox="0 0 39 39" fill="none" xmlns="http://www.w3.org/2000/svg"><path fill-rule="evenodd" clip-rule="evenodd" d="M17.9103 25.5337C19.5817 29.0325 18.9684 33.3499 16.0704 36.2479C12.3946 39.9238 6.43481 39.9238 2.75894 36.2479C-0.916922 32.572 -0.916922 26.6123 2.75894 22.9364C5.65524 20.0401 9.96942 19.4259 13.4671 21.0937L21.7068 12.854C20.1657 9.78188 20.4025 6.19803 22.3226 3.53475C24.2427 0.87148 27.533 -0.436851 30.8784 0.132635C31.4538 0.229564 31.942 0.640807 32.1395 1.19491C32.337 1.74901 32.2099 2.35086 31.8113 2.74954L29.0746 5.48617C28.8241 5.73791 28.6766 6.07578 28.6589 6.43878L28.5347 8.86591C28.5119 9.31808 28.6922 9.76753 29.0268 10.0924C29.3614 10.4172 29.8155 10.5837 30.266 10.5467L32.5943 10.3616C32.9392 10.3327 33.2578 10.1864 33.4973 9.94672L36.2508 7.19325C36.6494 6.79457 37.2513 6.6675 37.8054 6.86502C38.3595 7.06253 38.7707 7.55073 38.8677 8.12607C39.4394 11.4722 38.1317 14.7641 35.4677 16.6847C32.8037 18.6054 29.2184 18.8412 26.1463 17.2977L17.9103 25.5337ZM12.6475 26.3594L8.10152 25.1413L4.77365 28.4692L5.99173 33.0151L10.5377 34.2332L13.8656 30.9053L12.6475 26.3594Z" fill="#5C4A04"/></svg>