<svg width="40" height="39" viewBox="0 0 40 39" fill="none" xmlns="http://www.w3.org/2000/svg"><path d="M39.5 13C39.5 7.6375 35.1125 3.25 29.75 3.25C28.9375 3.25 28.2875 3.4125 27.475 3.575C25.6875 1.3 23.0875 0 20 0C16.9125 0 14.3125 1.3 12.525 3.575C11.7125 3.4125 11.0625 3.25 10.25 3.25C4.8875 3.25 0.5 7.6375 0.5 13C0.5 17.225 3.2625 20.8 7 22.2625V37.375C7 38.35 7.65 39 8.625 39H31.375C32.35 39 33 38.35 33 37.375V22.2625C36.7375 20.8 39.5 17.225 39.5 13ZM29.75 35.75H10.25V32.5H29.75V35.75ZM29.75 19.5V30.875H10.25V19.5C6.675 19.5 3.75 16.575 3.75 13C3.75 9.425 6.675 6.5 10.25 6.5C10.4125 6.5 10.575 6.5 10.7375 6.5C11.875 6.6625 13.0125 6.9875 13.825 7.6375C14.3125 6.5 14.8 5.6875 15.775 4.875C16.9125 3.9 18.375 3.25 20 3.25C21.625 3.25 23.0875 3.9 24.225 4.875C25.0375 5.525 25.6875 6.5 26.0125 7.6375C26.9875 6.9875 28.125 6.6625 29.2625 6.5C29.425 6.5 29.5875 6.5 29.75 6.5C33.325 6.5 36.25 9.425 36.25 13C36.25 16.575 33.325 19.5 29.75 19.5Z" fill="#5C4A04"/></svg>