<svg width="39" height="39" viewBox="0 0 39 39" fill="none" xmlns="http://www.w3.org/2000/svg"><path d="M8.53125 22.75V31.2244C8.52751 32.1351 8.70317 33.0376 9.04822 33.8803C9.39327 34.7231 9.90094 35.4897 10.5422 36.1363C11.1836 36.7829 11.9459 37.2968 12.7859 37.6488C13.6258 38.0007 14.5268 38.1838 15.4375 38.1875C16.3482 38.1838 17.2492 38.0007 18.0891 37.6488C18.9291 37.2968 19.6914 36.7829 20.3328 36.1363C20.9741 35.4897 21.4817 34.7231 21.8268 33.8803C22.1718 33.0376 22.3475 32.1351 22.3437 31.2244V21.9375" stroke="#5C4A04" stroke-width="1.625" stroke-linecap="round" stroke-linejoin="round"/><path d="M8.53125 22.75C10.3262 22.75 11.7812 21.2949 11.7812 19.5C11.7812 17.7051 10.3262 16.25 8.53125 16.25C6.73632 16.25 5.28125 17.7051 5.28125 19.5C5.28125 21.2949 6.73632 22.75 8.53125 22.75Z" stroke="#5C4A04" stroke-width="1.625" stroke-linecap="round" stroke-linejoin="round"/><path d="M8.53125 22.75C10.3262 22.75 11.7812 21.2949 11.7812 19.5C11.7812 17.7051 10.3262 16.25 8.53125 16.25C6.73632 16.25 5.28125 17.7051 5.28125 19.5C5.28125 21.2949 6.73632 22.75 8.53125 22.75Z" stroke="#5C4A04" stroke-width="1.625" stroke-linecap="round" stroke-linejoin="round"/><path d="M29.0469 2.4375L31.0781 1.625L29.0469 0.8125V2.4375Z" stroke="#5C4A04" stroke-width="1.625" stroke-linecap="round" stroke-linejoin="round"/><path d="M14.625 1.625H12.9635C11.7813 1.625 10.8347 2.84375 10.9688 4.20469C11.8828 12.4069 15.7178 21.9375 22.3438 21.9375C28.9697 21.9375 32.8047 12.4069 33.7188 4.20469C33.8528 2.84375 32.9063 1.625 31.7241 1.625H30.0625" stroke="#5C4A04" stroke-width="1.625" stroke-linecap="round" stroke-linejoin="round"/><path d="M15.6406 2.4375L13.6094 1.625L15.6406 0.8125V2.4375Z" stroke="#5C4A04" stroke-width="1.625" stroke-linecap="round" stroke-linejoin="round"/><path d="M8.53125 20.3125C8.97998 20.3125 9.34375 19.9487 9.34375 19.5C9.34375 19.0513 8.97998 18.6875 8.53125 18.6875C8.08252 18.6875 7.71875 19.0513 7.71875 19.5C7.71875 19.9487 8.08252 20.3125 8.53125 20.3125Z" stroke="#5C4A04" stroke-width="1.625" stroke-linecap="round" stroke-linejoin="round"/></svg>