<svg width="44" height="44" viewBox="0 0 44 44" fill="none" xmlns="http://www.w3.org/2000/svg"><path fill-rule="evenodd" clip-rule="evenodd" d="M41.6539 11.3438C41.9598 10.3744 41.6539 9.66969 40.3004 9.66969H35.7998C34.6646 9.66969 34.1404 10.2867 33.8345 10.9467C33.8345 10.9467 31.5193 16.5842 28.2863 20.2391C27.2379 21.2962 26.7575 21.6485 26.1895 21.6485C25.8835 21.6485 25.4899 21.2962 25.4899 20.3277V11.2982C25.4899 10.1535 25.141 9.625 24.1794 9.625H17.1016C16.402 9.625 15.9655 10.1535 15.9655 10.682C15.9655 11.7829 17.582 12.0476 17.7564 15.1302V21.8281C17.7564 23.2813 17.4986 23.5469 16.9263 23.5469C15.3974 23.5469 11.6841 17.8655 9.45656 11.3919C9.02344 10.1097 8.58344 9.625 7.44734 9.625H2.90383C1.59328 9.625 1.375 10.2412 1.375 10.902C1.375 12.0914 2.90383 18.0804 8.49578 26.0073C12.2091 31.4213 17.4952 34.3312 22.257 34.3312C25.141 34.3312 25.4899 33.6703 25.4899 32.5695V28.4737C25.4899 27.1528 25.752 26.9328 26.6698 26.9328C27.3247 26.9328 28.5046 27.2843 31.1695 29.883C34.2272 32.9656 34.7514 34.375 36.4555 34.375H40.9552C42.2658 34.375 42.8777 33.7141 42.5279 32.4371C42.1352 31.1601 40.6493 29.3107 38.7269 27.109C37.6784 25.8766 36.1058 24.5111 35.6254 23.8502C34.9705 22.9694 35.145 22.617 35.6254 21.8247C35.5816 21.8247 41.0867 13.9855 41.6539 11.3403" fill="#5C4A04"/></svg>