<svg width="42" height="42" viewBox="0 0 42 42" fill="none" xmlns="http://www.w3.org/2000/svg"><path d="M29.8594 0H12.1406C11.1834 0 10.2653 0.380272 9.58841 1.05716C8.91152 1.73405 8.53125 2.65211 8.53125 3.60938V38.3906C8.53125 39.3479 8.91152 40.2659 9.58841 40.9428C10.2653 41.6197 11.1834 42 12.1406 42H29.8594C30.8166 42 31.7347 41.6197 32.4116 40.9428C33.0885 40.2659 33.4688 39.3479 33.4688 38.3906V3.60938C33.4688 2.65211 33.0885 1.73405 32.4116 1.05716C31.7347 0.380272 30.8166 0 29.8594 0ZM10.5 7.44516H31.5V32.6747H10.5V7.44516ZM12.1406 1.96875H29.8594C30.0748 1.96875 30.2882 2.01119 30.4872 2.09364C30.6863 2.17608 30.8671 2.29693 31.0195 2.44928C31.1718 2.60162 31.2927 2.78249 31.3751 2.98154C31.4576 3.18058 31.5 3.39392 31.5 3.60938V5.47641H10.5V3.60938C10.5 3.17425 10.6729 2.75695 10.9805 2.44928C11.2882 2.1416 11.7055 1.96875 12.1406 1.96875ZM29.8594 40.0312H12.1406C11.7055 40.0312 11.2882 39.8584 10.9805 39.5507C10.6729 39.243 10.5 38.8257 10.5 38.3906V34.6434H31.5V38.3906C31.5 38.6061 31.4576 38.8194 31.3751 39.0185C31.2927 39.2175 31.1718 39.3984 31.0195 39.5507C30.8671 39.7031 30.6863 39.8239 30.4872 39.9064C30.2882 39.9888 30.0748 40.0312 29.8594 40.0312Z" fill="#5C4A04"/><path d="M21 39.3455C22.0873 39.3455 22.9688 38.464 22.9688 37.3767C22.9688 36.2894 22.0873 35.408 21 35.408C19.9127 35.408 19.0312 36.2894 19.0312 37.3767C19.0312 38.464 19.9127 39.3455 21 39.3455Z" fill="#5C4A04"/><path d="M18.4177 4.66592H23.5856C23.8467 4.66592 24.0971 4.56221 24.2817 4.37761C24.4663 4.193 24.57 3.94262 24.57 3.68155C24.57 3.42048 24.4663 3.1701 24.2817 2.98549C24.0971 2.80088 23.8467 2.69717 23.5856 2.69717H18.4177C18.1566 2.69717 17.9062 2.80088 17.7216 2.98549C17.537 3.1701 17.4333 3.42048 17.4333 3.68155C17.4333 3.94262 17.537 4.193 17.7216 4.37761C17.9062 4.56221 18.1566 4.66592 18.4177 4.66592Z" fill="#5C4A04"/></svg>