<svg width="43" height="33" viewBox="0 0 43 33" fill="none" xmlns="http://www.w3.org/2000/svg"><path fill-rule="evenodd" clip-rule="evenodd" d="M32.2647 7.9674C31.7975 8.42267 27.1108 10.978 27.0279 10.9634C26.9676 10.956 26.8772 10.9193 26.6662 10.8606C25.5435 10.5448 24.338 10.1777 23.2153 9.89127C22.7632 9.78113 22.1528 9.56084 21.7384 9.66364C21.4219 9.74441 21.1281 9.89862 20.8342 9.98673C20.9171 10.1262 24.014 12.4026 24.4585 12.7697L21.4069 14.444C20.9322 14.0401 20.2088 14.0988 19.8019 14.5688L15.168 12.8138C15.0097 12.4026 14.6028 12.1162 14.1432 12.1015C13.3747 12.0722 12.8095 12.7844 13.0205 13.4967L9.43389 19.2316C9.01947 19.0994 8.55984 19.2169 8.25844 19.5253L5.19927 18.1302C4.79992 17.2563 3.51898 17.2563 3.12716 18.1375L1.60511 19.2683C0.80641 15.0975 1.83869 10.7945 4.44578 7.39464C6.84188 4.2812 10.4511 2.05626 14.7083 1.46147C18.9731 0.866687 23.0796 2.00486 26.2744 4.3326C27.691 5.36797 28.9267 6.63831 29.9213 8.09223L31.0666 7.40933C29.9816 5.81589 28.6253 4.42806 27.0731 3.28989C23.6071 0.763885 19.1464 -0.477087 14.52 0.169099C9.89352 0.822629 5.97536 3.23849 3.38335 6.61628C0.783805 9.99407 -0.489596 14.3411 0.173477 18.8498C0.844085 23.3584 3.32307 27.1768 6.78913 29.7101C10.2627 32.2361 14.7234 33.4771 19.3423 32.8309C23.9687 32.1774 27.8869 29.7615 30.4865 26.3837C33.3648 22.6388 34.4649 17.9099 33.5456 13.3205L32.4003 14.5761C32.9353 18.6442 31.7599 22.5507 29.4165 25.6054C27.0279 28.7188 23.4187 30.9437 19.1539 31.5385C14.8967 32.1333 10.7826 30.9951 7.59537 28.6674C4.8602 26.6701 2.78809 23.8063 1.86883 20.4138L3.32307 19.3124C3.77517 19.797 4.55126 19.797 5.00336 19.3124L8.03993 20.6929C8.2057 21.0967 8.59752 21.3611 9.04208 21.3758C9.73529 21.4051 10.2853 20.8104 10.21 20.1495L13.887 14.2824C14.2638 14.3485 14.6481 14.231 14.9118 13.9667L19.6588 15.773C20.1109 16.6395 21.4295 16.5514 21.7384 15.6188C25.9655 13.3131 27.4348 13.695 31.9784 11.8665C29.5898 14.6569 28.5048 16.1696 27.2088 17.8217C26.4251 16.9259 25.5586 16.1328 26.1463 17.2784C26.7341 18.5267 26.8622 18.7249 27.9924 17.8878C29.8083 16.5367 32.7921 12.711 34.5628 10.7724C36.0774 9.8619 41.834 6.44005 42.7533 5.39734C42.8437 5.30188 42.9266 5.18439 42.9643 5.0669C43.0321 4.89067 43.017 4.70709 42.7985 4.58226C42.5122 4.42071 42.2409 4.41337 41.8566 4.37666C41.3744 4.33994 40.2517 4.19308 39.8524 4.2298C38.2549 4.384 37.0795 5.24313 35.7383 5.99212C35.4369 6.16101 35.1204 6.34459 34.8115 6.51348C34.5553 6.66034 34.1107 6.95406 33.8621 7.04952C33.2442 6.79251 32.9428 6.63831 31.9784 6.37396C30.72 5.13299 30.7728 5.76449 31.4434 6.71908L32.2647 7.9674Z" fill="#5C4A04"/></svg>