<svg width="57" height="57" viewBox="0 0 57 57" fill="none" xmlns="http://www.w3.org/2000/svg"><path d="M29.7605 36.668L26.2255 33.133L44.1065 15.2505L47.643 18.7855L50 16.4285L40.5715 7L38.2145 9.357L41.7495 12.8935L23.8685 30.776L20.332 27.2395C19.681 26.5885 18.6265 26.5885 17.975 27.2395L13.9515 31.263C11.3185 33.8945 10.0035 37.35 10 40.8035C9.99854 42.5645 10.345 44.3155 11.027 45.9745C12.6795 46.6545 14.4335 47.0015 16.1965 47C19.647 46.9985 23.1025 45.68 25.7375 43.0485L29.761 39.025C30.41 38.3755 30.4135 37.319 29.7605 36.668Z" fill="#5C4A04"/></svg>