<svg width="37" height="24" viewBox="0 0 37 24" fill="none" xmlns="http://www.w3.org/2000/svg"><path d="M0.675751 23.0002L4.17449 1.09113H9.21633L12.7151 23.0002H9.24689L8.65103 19.0279H4.41894L3.82308 23.0002H0.675751ZM4.86201 16.0486H8.17741L6.52735 4.97183L4.86201 16.0486Z" fill="#5C4A04"/><path d="M13.7846 17.7445V16.4H17.0388V17.9584C17.0388 19.3844 17.6347 20.0974 18.8264 20.0974C20.0181 20.0974 20.614 19.3844 20.614 17.9584C20.614 17.3473 20.4866 16.7718 20.232 16.2319C19.9875 15.6921 19.6667 15.2083 19.2695 14.7805C18.8824 14.3425 18.4495 13.9096 17.9708 13.4819C17.4921 13.0439 17.0083 12.5906 16.5194 12.1221C16.0407 11.6434 15.6027 11.1392 15.2054 10.6095C14.8184 10.0799 14.4975 9.44837 14.2429 8.71501C13.9984 7.98166 13.8762 7.19228 13.8762 6.34688C13.8762 4.58478 14.304 3.2301 15.1596 2.28284C16.0254 1.3254 17.2884 0.84668 18.9486 0.84668C20.6089 0.84668 21.8668 1.3254 22.7224 2.28284C23.5881 3.2301 24.021 4.58478 24.021 6.34688V7.04968H20.7667V6.13298C20.7667 4.69682 20.1913 3.97874 19.0403 3.97874C18.4699 3.97874 18.0421 4.15189 17.7569 4.4982C17.4717 4.83432 17.3291 5.37925 17.3291 6.13298C17.3291 6.74411 17.4513 7.31959 17.6958 7.85943C17.9504 8.39926 18.2713 8.88817 18.6583 9.32615C19.0556 9.75394 19.4935 10.1868 19.9723 10.6248C20.451 11.0526 20.9297 11.5059 21.4084 11.9846C21.8872 12.4531 22.32 12.9522 22.7071 13.4819C23.1043 14.0115 23.4252 14.643 23.6696 15.3764C23.9243 16.1097 24.0516 16.8991 24.0516 17.7445C24.0516 19.5066 23.6136 20.8664 22.7376 21.8238C21.8617 22.7711 20.5885 23.2447 18.9181 23.2447C17.2476 23.2447 15.9744 22.7711 15.0985 21.8238C14.2225 20.8664 13.7846 19.5066 13.7846 17.7445Z" fill="#5C4A04"/><path d="M25.7322 17.7445V6.34688C25.7322 4.59496 26.1855 3.24028 27.092 2.28284C27.9985 1.3254 29.292 0.84668 30.9727 0.84668C32.6533 0.84668 33.9417 1.3254 34.8381 2.28284C35.7446 3.24028 36.1978 4.59496 36.1978 6.34688V17.7445C36.1978 19.4964 35.7446 20.8511 34.8381 21.8085C33.9417 22.766 32.6533 23.2447 30.9727 23.2447C29.292 23.2447 27.9985 22.766 27.092 21.8085C26.1855 20.8511 25.7322 19.4964 25.7322 17.7445ZM29.1851 17.9584C29.1851 19.4047 29.781 20.1279 30.9727 20.1279C32.1542 20.1279 32.7449 19.4047 32.7449 17.9584V6.13298C32.7449 4.69682 32.1542 3.97874 30.9727 3.97874C29.781 3.97874 29.1851 4.69682 29.1851 6.13298V17.9584Z" fill="#5C4A04"/></svg>