<svg width="51" height="13" viewBox="0 0 51 13" fill="none" xmlns="http://www.w3.org/2000/svg"><path fill-rule="evenodd" clip-rule="evenodd" d="M30.6977 3.54161C29.9004 3.54161 29.2605 3.75422 28.5961 4.07312C28.601 2.22257 28.6256 0.608772 28.6699 0L24.7964 0.734401V1.07747L25.1754 1.1258C25.7168 1.1983 25.9235 1.50751 25.9875 2.21778C26.1105 3.57546 26.0908 10.8521 25.9875 12.0165C27.0309 12.2484 28.1581 12.4223 29.2901 12.4223C32.3613 12.4223 34.2119 10.5573 34.2119 7.60511C34.2119 5.24236 32.7108 3.54161 30.6977 3.54161ZM29.3491 11.8232C29.1276 11.8232 28.8471 11.7894 28.6896 11.7604C28.6306 10.9438 28.5912 7.57608 28.5961 4.63356C28.9504 4.51758 29.1916 4.48862 29.5017 4.48862C30.7716 4.48862 31.4902 5.92846 31.4902 7.75005C31.4902 10.0645 30.6091 11.8232 29.3491 11.8232ZM10.2375 3.63342L9.63206 3.7977C9.10545 2.06792 8.26379 1.09195 6.69862 1.09195H4.69055C4.59703 2.19361 4.56258 4.02961 4.57244 5.93815L5.92596 5.89467C6.82666 5.86568 7.20071 5.20857 7.41728 4.2374H7.92423V8.28149H7.41728C7.20071 7.31031 6.82174 6.65804 5.92596 6.62421L4.57736 6.58074C4.59211 8.03027 4.63148 9.26718 4.69547 10.0016C4.78899 11.0791 5.0843 11.5526 5.86194 11.6637L6.55101 11.7362V12.2194H0V11.7362L0.541426 11.6637C1.3191 11.5525 1.61441 11.079 1.7079 10.0016C1.85554 8.22833 1.88016 4.53689 1.7079 2.4786C1.61438 1.4011 1.31906 0.927608 0.541426 0.816492L0 0.744023V0.260849H10.1834L10.2375 3.63342ZM13.4958 3.44498C16.3898 3.44498 17.827 5.37282 17.827 7.90946C17.827 10.3881 16.2028 12.4223 13.3087 12.4223C10.4146 12.4223 8.97253 10.4944 8.97253 7.9578C8.97253 5.47914 10.5968 3.44498 13.4958 3.44498ZM13.3432 3.99582C12.0635 3.99582 11.7042 5.69657 11.7042 7.93366C11.7042 10.1128 12.2703 11.8715 13.4564 11.8715C14.7361 11.8715 15.0954 10.1707 15.0954 7.93366C15.0954 5.75453 14.5294 3.99582 13.3432 3.99582ZM34.9207 8.01578C34.9157 5.66272 36.4317 3.45463 39.4144 3.45463C41.8409 3.45463 43.0024 5.22305 43.0123 7.53261H37.5982C37.5391 9.62955 38.6219 11.1709 40.6891 11.1709C41.5996 11.1709 42.0918 10.9487 42.6431 10.5379L42.8991 10.8375C42.2986 11.6541 41.0435 12.432 39.3799 12.432C36.7664 12.4271 34.9256 10.6104 34.9207 8.01578ZM37.6179 6.93349L40.3347 6.87553C40.3495 5.69658 40.1575 4.01031 39.1781 4.01031C38.1937 4.01031 37.6425 5.60477 37.6179 6.93349ZM49.9718 6.09277L49.5288 6.20874C49.0563 4.70609 48.3378 4.06829 47.2894 4.06829C46.5905 4.06829 46.0835 4.58526 46.0835 5.3342C46.0835 6.07832 46.6496 6.46966 48.2886 7.09294C49.7995 7.66792 50.4 8.32985 50.4 9.53295C50.4 11.3303 48.9973 12.432 46.6938 12.432C45.5864 12.432 44.3559 12.1904 43.6373 11.9053L43.5586 9.4218L44.0016 9.30586C44.6365 11.0453 45.4634 11.6782 46.5511 11.6782C47.4764 11.6782 47.9932 11.0308 47.9932 10.3399C47.9932 9.66823 47.6044 9.26721 46.1278 8.74539C44.7546 8.26221 43.7604 7.67275 43.7604 6.16527C43.7604 4.70126 45.0794 3.44983 47.2598 3.44983C48.2737 3.44983 49.2335 3.6238 49.8783 3.91367L49.9718 6.09277ZM24.4371 6.02513C23.2657 5.25205 22.0007 5.59029 21.7399 6.01065C21.6513 7.40218 21.671 9.53295 21.7694 10.6056C21.8334 11.3159 22.0401 11.6251 22.5815 11.6976L23.2804 11.7459V12.2291H17.9058V11.7459L18.2848 11.6976C18.8262 11.6251 19.0329 11.3159 19.0969 10.6056C19.2002 9.44111 19.2199 7.01561 19.0969 5.65793C19.0329 4.94766 18.8262 4.63845 18.2848 4.56595L17.9058 4.51762V4.17455L21.7645 3.44012L21.7203 5.42115C22.621 3.38216 24.4027 3.11642 25.3821 3.68658L24.4371 6.02513Z" fill="#5C4A04"/></svg>