<svg width="46" height="15" viewBox="0 0 46 15" fill="none" xmlns="http://www.w3.org/2000/svg"><path d="M12.6117 10.2829C12.503 10.7537 12.258 11.182 11.9073 11.5144C11.7725 11.638 11.6147 11.7338 11.4429 11.7963C11.271 11.8587 11.0885 11.8867 10.9058 11.8785C10.5492 11.8581 10.1996 11.7703 9.87562 11.6198C9.53714 11.4638 9.22254 11.2605 8.94126 11.016C9.35717 10.0332 9.68899 9.01697 9.93313 7.97811C10.834 7.8104 11.5623 7.93978 12.1277 8.36624C12.6883 8.79749 12.8465 9.43478 12.6117 10.2829ZM4.23584 12.1085C3.93396 12.1756 3.68 12.1612 3.48354 12.0702C3.19604 11.9264 3.09542 11.7108 3.18646 11.4329C3.29188 11.0783 3.6225 10.9106 4.17834 10.9394C4.62875 10.9489 5.03125 11.0639 5.39063 11.2748C5.27189 11.4896 5.1073 11.6757 4.90855 11.8198C4.7098 11.9639 4.48176 12.0625 4.24063 12.1085H4.23584ZM13.9006 0.637279C12.8104 0.321703 11.6814 0.160414 10.5465 0.158113C7.62355 0.134154 5.34272 0.781028 3.70397 2.08436C2.73605 2.85103 2.23291 3.78061 2.19458 4.86353C2.15625 5.95124 2.70251 6.81853 3.64167 7.02936C4.58084 7.2354 5.52958 6.6029 5.94167 5.69728C6.36333 4.79165 5.84583 3.71832 6.68917 3.09061C7.52771 2.4629 8.74479 2.17061 10.3308 2.22811C11.2413 2.26645 11.9887 2.43895 12.5733 2.7552C12.8421 2.88068 13.0617 3.0917 13.1979 3.35526C13.334 3.61882 13.3789 3.92005 13.3256 4.21186C13.3021 4.52761 13.1988 4.8322 13.0253 5.09705C12.8518 5.36191 12.6138 5.57833 12.3337 5.72603C11.7664 6.05678 11.1218 6.23199 10.465 6.23395C10.731 5.42035 11.0777 4.6354 11.5 3.89082C11.4233 3.64165 11.0208 3.46436 10.2925 3.36374C9.56418 3.2679 8.99875 3.31582 8.60583 3.51707C8.23208 3.9004 7.89188 4.46582 7.58042 5.2229C7.23762 6.07122 6.94326 6.9383 6.69876 7.81999C6.52804 8.45548 6.33626 9.08514 6.12375 9.7079C5.26825 9.29126 4.33405 9.06097 3.38292 9.03228C2.56073 8.99993 1.75025 9.23534 1.07333 9.70311C0.763876 9.90689 0.506467 10.1803 0.321739 10.5015C0.13701 10.8227 0.0301009 11.1827 0.00958134 11.5527C-0.0670853 12.4919 0.287499 13.1819 1.07333 13.6131C1.85917 14.0539 2.8798 14.2456 4.14001 14.1881C5.45677 14.1589 6.72959 13.7089 7.77209 12.9039C8.36625 13.3639 9.05146 13.7042 9.8325 13.9246C10.6135 14.1402 11.3754 14.2312 12.1181 14.1929C13.239 14.1646 14.3135 13.7402 15.1513 12.995C15.5467 12.6428 15.8656 12.2131 16.0881 11.7325C16.3107 11.252 16.4321 10.7309 16.445 10.2014C16.4757 9.45287 16.2224 8.72035 15.7358 8.15061C15.1908 7.52188 14.4466 7.09906 13.6275 6.9527C14.4358 6.98174 15.23 6.73504 15.8796 6.25311C16.204 6.03047 16.4783 5.74234 16.6846 5.40727C16.8909 5.07221 17.0248 4.69764 17.0775 4.3077C17.1418 3.90109 17.1089 3.48503 16.9815 3.09358C16.8541 2.70214 16.6357 2.34644 16.3444 2.05561C15.6695 1.37506 14.8263 0.885652 13.9006 0.637279Z" fill="#5C4A04"/><path d="M32.2192 10.4027C31.8742 10.4123 31.625 10.6135 31.4669 10.9969C31.3088 11.3802 31.3375 11.6581 31.5627 11.8306C31.3902 11.9983 31.1794 12.0894 30.9302 12.0894C30.5852 12.0894 30.3744 11.7875 30.2977 11.1885C30.2146 10.598 30.2687 9.99622 30.4558 9.42998C30.614 8.83581 30.8392 8.37581 31.1267 8.04998C31.4142 7.72414 31.6825 7.56602 31.9221 7.56602C32.2383 7.5756 32.4204 7.86789 32.4588 8.4381C32.4971 9.00352 32.4204 9.65998 32.2192 10.4027ZM38.3717 10.2637C38.0842 10.0673 37.8925 10.0241 37.8158 10.1439C36.9917 11.4137 36.1292 11.9935 35.2188 11.8929C35.66 11.1965 35.9475 10.414 36.0621 9.59768C36.1579 8.82623 36.0813 8.13623 35.8321 7.53727C35.5701 6.9201 35.1231 6.39942 34.5527 6.04706C33.8995 5.64143 33.1462 5.42573 32.3773 5.42414C31.0308 5.38102 29.8377 5.70206 28.8171 6.38248C27.7917 7.06289 27.1065 8.12185 26.7615 9.54498C26.704 9.79893 26.6608 10.0337 26.6273 10.2637C26.2464 10.9388 25.707 11.5111 25.0556 11.9312C24.4231 12.3146 23.8769 12.4296 23.4265 12.2858C23.1102 12.1804 23.0288 11.8114 23.1821 11.1789C23.3739 10.4526 23.6935 9.76627 24.126 9.15206C24.3081 8.87414 24.4135 8.59623 24.4327 8.31831C24.4544 8.07476 24.4301 7.82929 24.3608 7.59477C24.2562 7.33042 24.0979 7.0906 23.896 6.89039C23.7002 6.67434 23.4922 6.46957 23.2731 6.27706C23.0958 6.12852 22.8275 5.91768 22.4681 5.63977C22.0992 5.36185 21.85 5.1606 21.7206 5.0456C21.7637 4.66227 21.7446 4.32685 21.6631 4.05373C21.4715 3.44039 21.0594 3.14331 20.4173 3.14331C19.804 3.14331 19.3008 3.40206 18.9031 3.93393C18.3569 4.67185 18.4144 5.52956 19.0661 6.51185C18.6062 7.94181 17.9722 9.30973 17.1781 10.5848C17.111 10.6998 17.1494 10.8244 17.2883 10.9585C17.4273 11.0879 17.5758 11.1646 17.7435 11.1981C17.9065 11.2221 18.0358 11.1837 18.1269 11.0783C18.911 9.86718 19.5343 8.55928 19.9813 7.18748C20.5467 7.47498 20.6808 7.88706 20.379 8.41893C19.3967 10.1344 19.0565 11.5239 19.3583 12.5877C19.6554 13.6418 20.5227 14.1833 21.965 14.2169C23.0813 14.2482 24.1863 13.9872 25.1706 13.4598C25.5689 13.219 25.9304 12.9221 26.244 12.5781L26.7423 12.0175C26.8573 12.4008 27.0442 12.7314 27.3029 13.0141C28.0217 13.7952 29.0279 14.1929 30.3408 14.1929C31.8167 14.1929 33.0625 13.8191 34.0688 13.0812C34.3994 13.1291 34.7683 13.1435 35.1804 13.11C35.5877 13.0764 35.9854 13.0141 36.3736 12.9135C36.7569 12.8177 37.1546 12.5781 37.5858 12.1948C38.0075 11.821 38.386 11.3227 38.7358 10.6998C38.7838 10.6039 38.664 10.4602 38.3765 10.2637H38.3717Z" fill="#5C4A04"/><path d="M45.909 0.776212C45.631 0.498295 45.0321 0.335379 44.1025 0.282671C43.1106 0.229963 42.5692 0.378505 42.4781 0.73788C42.0948 2.19455 41.3904 5.08871 40.3698 9.42996C40.3362 9.60246 40.5375 9.74621 40.9783 9.866C41.4409 9.98679 41.9224 10.0177 42.3967 9.95704C42.8998 9.89475 43.1969 9.73184 43.2927 9.4683C43.6377 8.45246 44.1169 6.95267 44.7398 4.97371L45.9856 1.0158C46.0144 0.934337 45.9856 0.85767 45.909 0.776212Z" fill="#5C4A04"/><path d="M41.17 11.0974C40.6978 11.0798 40.2351 11.2329 39.8667 11.5287C39.7013 11.6569 39.5653 11.819 39.4677 12.0041C39.3702 12.1893 39.3134 12.3931 39.3012 12.602C39.2826 12.803 39.3095 13.0057 39.38 13.1948C39.4505 13.384 39.5628 13.5548 39.7085 13.6945C40.0056 13.9868 40.4129 14.1306 40.9304 14.1306C41.385 14.1475 41.8294 13.9936 42.1762 13.6993C42.5009 13.4203 42.7066 13.0278 42.7512 12.602C42.7752 12.408 42.7549 12.211 42.6919 12.0259C42.6288 11.8409 42.5246 11.6725 42.3871 11.5335C42.0996 11.246 41.6971 11.0974 41.17 11.0974Z" fill="#5C4A04"/></svg>