<svg width="34" height="45" viewBox="0 0 34 45" fill="none" xmlns="http://www.w3.org/2000/svg"><path d="M17.1085 0C18.0964 0.53627 17.2933 2.91485 18.9252 3.21249C20.1773 3.23558 20.5853 1.60368 21.2627 0.759502C22.3532 1.50617 20.3236 3.37927 21.7476 4.23884C22.8689 5.04966 23.9004 3.50243 24.9986 3.24328C24.5137 4.11825 23.9312 4.93933 23.4616 5.82199C25.3168 5.77581 27.1437 6.12477 28.8911 6.71749C28.4215 7.02796 27.8673 7.11777 27.3233 7.21014C27.2258 7.92859 28.2983 7.99017 28.5729 8.45716C31.5288 10.1917 33.212 13.4144 33.992 16.6577C33.2556 16.5089 32.7168 15.8803 31.9573 15.811C34.8131 20.5322 33.9202 26.2978 31.5211 31.0062C31.38 30.5392 31.226 30.0773 31.0207 29.636C30.9258 32.2763 29.5351 34.6497 27.8929 36.6434C27.8237 36.102 27.7338 35.5529 27.4439 35.0808C26.9743 36.5228 26.0737 37.9212 24.7523 38.709C24.8139 38.1727 24.9396 37.6441 24.9883 37.1078C24.08 38.4447 23.3924 40.1843 21.9657 41.0388C21.9657 40.4332 22.1864 39.6866 21.7656 39.1785C21.4372 40.6975 20.7162 42.5552 19.133 43.0889C19.5743 40.9644 17.7987 44.3334 17.3985 44.6798C15.8743 45.3905 15.551 42.7631 14.5093 41.9779C14.5375 42.3602 14.5965 42.7425 14.6504 43.1223C13.4598 42.2499 12.3437 41.0054 12.0999 39.5146C11.0094 38.8937 12.1153 41.6674 11.3609 40.7771C10.2704 39.725 9.56738 38.4087 8.86432 37.0924C8.85919 37.6467 8.97466 38.1906 9.05933 38.7372C7.58651 38.011 7.00662 36.2944 6.10087 35.0243C6.07007 35.44 6.00593 36.2739 5.97514 36.6896C4.34323 34.9243 3.07569 32.6612 2.93713 30.2159C2.74212 29.5282 2.23151 30.3519 2.33671 30.7778C-0.377995 26.3209 -0.74235 20.4193 1.93643 15.8289C1.30266 16.0394 0.776653 16.4986 0.122352 16.6577C0.738165 12.9167 3.20655 9.45016 6.53963 7.6489C7.294 6.97408 5.63644 7.0177 5.2182 6.78677C6.93221 5.72192 8.99775 5.88614 10.935 5.81686C10.5014 4.83669 9.79061 4.00278 9.32618 3.03544C10.4321 3.505 11.4892 4.89314 12.767 4.13364C14.0269 3.2792 12.0922 1.35479 13.1006 0.47982C13.7703 1.55236 14.3066 3.59994 15.9359 2.9482C17.147 2.59154 16.6646 0.967339 17.1085 0ZM7.90468 9.51174C5.67749 10.4662 5.69289 14.0457 7.02202 15.675C7.06307 14.5999 6.93221 13.535 6.86037 12.4676C7.42743 13.3452 7.76613 14.3407 8.07403 15.3312C7.2863 16.3396 6.59095 17.4608 6.27535 18.713C7.87389 16.3986 12.4566 13.5941 10.1473 10.4149C11.0171 10.7793 12.0717 11.5234 11.792 12.6062C11.6098 14.4177 10.2961 15.7802 9.57507 17.3659C12.2256 17.1991 14.8069 17.7149 17.3677 18.2999C19.6949 17.6225 22.0966 17.2299 24.5368 17.3582C24.0287 15.7699 22.6944 14.4973 22.3788 12.8063C22.1017 11.9057 22.8202 10.8229 23.7388 10.7023C22.2762 13.902 26.2148 16.4909 27.8493 18.7079C27.0642 16.5961 24.8139 14.7154 27.0128 12.4599C27.3721 13.3862 26.3123 14.936 27.272 15.6237C27.952 13.7198 28.442 10.5663 26.22 9.5143C24.0184 9.22436 22.0992 10.8178 20.6648 12.3137C21.3679 13.2323 22.3327 13.9866 22.697 15.131C22.0119 14.9488 21.6835 14.2227 21.0754 13.8943C19.3768 12.7704 17.2727 13.8917 15.4176 13.4298C13.7985 13.0219 12.6003 14.3151 11.3661 15.0823C11.7022 13.9841 12.4797 13.0475 13.447 12.4394C11.946 11.0102 10.1652 9.15251 7.90468 9.51174ZM28.8988 10.4201C29.5043 11.4977 29.8892 12.7396 29.861 13.9841C28.8988 13.689 29.1271 15.2439 29.8456 15.0592C30.5409 13.4555 31.1465 11.1231 28.8988 10.4201ZM4.82306 10.8255C4.03276 11.4105 3.31431 12.2547 3.42721 13.2964C4.5639 11.9211 3.51702 14.9591 4.67423 15.3722C4.68193 14.9155 5.34906 13.9969 4.51258 14.0405C3.94039 13.4068 5.13866 11.1667 4.82306 10.8255ZM16.3849 19.493C16.1155 22.8954 11.9306 25.1098 9.27487 22.6131C8.31009 22.3976 8.71807 18.6643 7.84567 20.2397C6.44726 22.7491 7.59678 26.1438 10.2935 27.242C10.9299 28.9894 10.8195 31.2089 12.4976 32.4892C14.1808 32.7997 17.0906 31.7939 16.4773 29.5949C14.9994 28.838 12.8671 27.9245 13.4624 25.8487C15.1892 26.1669 16.9186 26.7288 18.6917 26.2157C19.1176 26.3773 20.5699 25.3638 20.6443 26.3953C20.6931 28.1991 18.5428 28.9021 17.3215 29.772C17.265 30.9882 18.1528 32.071 19.3306 32.3353C22.4122 33.6003 23.2923 29.5128 23.7028 27.3652C26.5612 25.9437 27.7852 22.4797 25.9711 19.6829C25.3681 20.0909 25.5272 20.894 25.2629 21.5047C24.3597 24.1399 20.1978 24.2861 18.648 22.2206C17.6704 21.3713 18.2503 18.8798 16.3849 19.493ZM28.0623 21.7356C28.3958 22.8236 29.3401 23.6857 29.394 24.8609C29.045 24.5837 28.7807 24.1963 28.3574 24.0244C29.2246 26.5467 29.3529 29.1998 29.1374 31.8375C30.1483 31.1781 29.6326 29.6411 29.8815 28.6789C29.2734 24.4683 31.049 31.1216 30.3767 26.9007C30.251 25.0456 29.6454 22.8595 28.0623 21.7356ZM8.61543 29.3101C7.24268 30.4417 7.49671 32.3481 7.63013 33.9159C8.05094 32.9614 8.09456 31.894 8.49227 30.9343C8.67958 32.8664 9.24921 29.872 9.63922 29.2254C9.1748 29.6668 8.84123 29.5462 8.61543 29.3101ZM24.2288 29.2845C24.5445 30.1286 24.8678 30.9702 25.1808 31.817C25.4374 28.7969 26.4098 36.6049 26.2867 32.284C26.5227 31.0139 25.8479 28.9329 24.2288 29.2845ZM17.6243 32.656C16.1874 32.7997 12.7106 32.7433 13.2366 35.032C15.5048 36.8718 19.0612 36.5151 21.4166 35.0705C21.6809 33.1923 19.0381 32.5919 17.6243 32.656ZM11.7484 33.6644C10.9607 34.4214 10.2525 35.2912 10.1165 36.4048C11.0812 34.7293 11.792 36.9565 12.0075 37.9417C13.0903 37.1823 11.8074 35.8326 11.7766 34.8499C11.7458 34.5291 12.0948 33.3642 11.7484 33.6644ZM17.8449 37.3542C17.8706 38.206 18.081 39.0348 18.0168 39.8944C17.6653 40.7694 16.4901 41.2363 16.8083 42.3371C18.158 41.0773 19.3383 38.927 17.8449 37.3542Z" fill="#5C4A04"/></svg>