<svg width="54" height="37" viewBox="0 0 54 37" fill="none" xmlns="http://www.w3.org/2000/svg"><g clip-path="url(#clip0_283_2648)"><path d="M26.0045 2.03628L24.0285 1.8402L23.1989 0L22.3995 1.82511L20.4085 2.0212L21.8867 3.34855L21.4794 5.30942L23.1989 4.29882L24.9335 5.30942L24.5112 3.34855L26.0045 2.03628Z" fill="#5C4A04"/><path d="M41.1786 2.03628L39.2026 1.8402L38.373 0L37.5736 1.82511L35.5826 2.0212L37.0758 3.34855L36.6535 5.30942L38.373 4.29882L40.1076 5.30942L39.6853 3.34855L41.1786 2.03628Z" fill="#5C4A04"/><path d="M33.5915 2.03628L31.6005 1.8402L30.8011 0L29.9866 1.82511L28.0106 2.0212L29.4888 3.34855L29.0665 5.30942L30.8011 4.29882L32.5206 5.30942L32.0983 3.34855L33.5915 2.03628Z" fill="#5C4A04"/><path d="M18.4174 2.03628L16.4264 1.8402L15.627 0L14.8125 1.82511L12.8214 2.03628L14.2996 3.36364L13.8773 5.3245L15.6119 4.3139L17.3314 5.3245L16.9091 3.36364L18.4174 2.03628Z" fill="#5C4A04"/><path fill-rule="evenodd" clip-rule="evenodd" d="M0.60376 21.7505L27 6.50098L53.3963 21.7505L27 37L0.60376 21.7505ZM27 28.9302C29.4134 28.9302 32.053 27.814 33.6971 25.6269L32.2189 24.7823C31.5883 25.5623 30.7907 26.1908 29.8848 26.6215C28.9789 27.0523 27.988 27.2742 26.9849 27.271C26.0398 27.2711 25.1105 27.0279 24.2865 26.5648C23.4625 26.1018 22.7716 25.4344 22.2802 24.627C21.7889 23.8196 21.5136 22.8993 21.4808 21.9547C21.4481 21.0101 21.659 20.073 22.0934 19.2335C22.5277 18.394 23.1707 17.6805 23.9607 17.1615C24.7506 16.6425 25.6608 16.3356 26.6037 16.2702C27.5467 16.2048 28.4905 16.3833 29.3445 16.7883C30.1985 17.1934 30.9339 17.8114 31.4798 18.5829L32.5809 17.9494V14.7215L31.1631 15.536C30.2731 15.1439 28.6592 14.6159 27 14.6159C21.8414 14.6159 18.689 18.0097 18.689 21.5996C18.689 26.4414 22.852 28.9302 27 28.9302ZM27 35.0843L50.108 21.7505L27 8.41658L3.90706 21.7505L27 35.0843ZM46.7897 21.7505L27 33.1838L20.4085 29.3677L21.7358 28.5984C20.7372 28.0383 19.872 27.2682 19.2001 26.341C18.5283 25.4139 18.0656 24.352 17.8443 23.2286L13.817 25.5515L7.21037 21.7505L27 10.3171L33.6066 14.1333V18.5226L31.9761 19.4571L31.9776 19.4578C31.9776 19.4578 32.1435 19.5784 32.415 20.7549C32.5303 21.8354 32.4666 22.3655 32.4607 22.4109L40.1831 17.9494L46.7897 21.7505ZM30.2882 23.6661L31.9932 22.681L31.2988 23.0778C31.2988 23.0778 31.7363 22.1728 31.2988 20.4231C30.5447 19.9706 30.3033 19.8499 30.3033 19.8499V18.7036L30.3313 18.7162C30.1884 18.5603 30.0342 18.4141 29.8699 18.279C29.3251 17.8312 28.6833 17.5169 27.9955 17.3611L27 17.9343L26.0045 17.3611C25.3692 17.5013 24.7724 17.7792 24.2563 18.1754C23.7402 18.5716 23.3175 19.0763 23.018 19.6538L23.8174 19.3069L24.3755 21.0717L23.1386 22.4443L22.49 21.7203C22.4872 22.5232 22.6981 23.3124 23.101 24.0068C23.5039 24.7013 24.0843 25.2761 24.7827 25.6722L24.4811 24.7521L26.276 24.3599L27.5129 25.7325L26.8039 26.2454C27.4538 26.2728 28.1019 26.1589 28.7035 25.9116C29.305 25.6642 29.8457 25.2891 30.2882 24.8124V23.6661ZM27.2413 19.5935L25.7782 21.2075L26.8793 23.0627L28.991 22.6253L29.2022 20.4533L27.2413 19.5935Z" fill="#5C4A04"/></g><defs><clipPath id="clip0_283_2648"><rect width="52.7925" height="37" fill="white" transform="translate(0.60376)"/></clipPath></defs></svg>