<svg width="44" height="44" viewBox="0 0 44 44" fill="none" xmlns="http://www.w3.org/2000/svg"><path d="M34.236 22.2422H10.457C6.67728 22.2422 3.61333 25.3092 3.61333 29.0881V34.5889C3.61333 38.3678 6.67728 41.4341 10.457 41.4341H34.236C38.0149 41.4341 41.0797 38.3678 41.0797 34.5889V29.0881C41.0797 25.3092 38.0149 22.2422 34.236 22.2422ZM15.4528 26.5245H13.2421V37.5092H11.1063V26.5245H8.89714V24.6561H15.4528V26.5245ZM21.6976 37.5092H19.8031V36.4703C19.451 36.8546 19.0881 37.1479 18.7093 37.3457C18.3304 37.552 17.9645 37.6482 17.6085 37.6482C17.1685 37.6482 16.8416 37.5085 16.6177 37.2243C16.3977 36.9409 16.2854 36.5207 16.2854 35.9532V28.0263H18.1799V35.3008C18.1799 35.5254 18.2219 35.6866 18.2975 35.7867C18.3793 35.8898 18.5091 35.9371 18.6871 35.9371C18.8246 35.9371 19.0018 35.8714 19.2149 35.7385C19.4296 35.6041 19.6252 35.436 19.8031 35.2283V28.0256H21.6976V37.5092ZM28.5756 35.5514C28.5756 36.2213 28.4267 36.7362 28.1295 37.0952C27.8339 37.4542 27.4015 37.6307 26.8416 37.6307C26.4688 37.6307 26.1373 37.5635 25.8493 37.4244C25.5598 37.2869 25.2871 37.0753 25.0388 36.782V37.5085H23.1215V24.6561H25.0388V28.7956C25.2955 28.5091 25.5667 28.2868 25.8501 28.1379C26.1396 27.9858 26.4306 27.9125 26.7255 27.9125C27.3251 27.9125 27.7819 28.1127 28.0982 28.5167C28.416 28.9208 28.5741 29.5129 28.5741 30.289V35.5514H28.5756ZM35.1473 32.9962H31.5219V34.7829C31.5219 35.281 31.583 35.6278 31.7068 35.821C31.8336 36.0151 32.0467 36.1098 32.35 36.1098C32.6647 36.1098 32.8824 36.028 33.0092 35.8646C33.1314 35.6996 33.1971 35.3405 33.1971 34.7829V34.3513H35.1473V34.8379C35.1473 35.8096 34.9113 36.5421 34.4323 37.0364C33.961 37.526 33.2506 37.7689 32.3064 37.7689C31.4562 37.7689 30.7863 37.51 30.2997 36.989C29.8146 36.4711 29.5671 35.7523 29.5671 34.8387V30.5792C29.5671 29.7596 29.8375 29.0851 30.3746 28.5679C30.91 28.0508 31.5998 27.7926 32.4485 27.7926C33.3171 27.7926 33.9839 28.0317 34.4491 28.5114C34.9143 28.9919 35.1473 29.6794 35.1473 30.5785V32.9962Z" fill="#5C4A04"/><path d="M32.3683 29.4502C32.0658 29.4502 31.8504 29.535 31.719 29.7122C31.5846 29.8787 31.5219 30.1637 31.5219 30.5617V31.5203H33.1971V30.5617C33.1971 30.1637 33.1299 29.878 32.997 29.7122C32.8694 29.5357 32.6563 29.4502 32.3683 29.4502Z" fill="#5C4A04"/><path d="M25.8317 29.4182C25.6973 29.4182 25.5613 29.448 25.4307 29.5099C25.2978 29.5702 25.1679 29.6703 25.0396 29.8002V35.7073C25.1916 35.8601 25.3421 35.9777 25.4887 36.0449C25.6346 36.1099 25.7859 36.1465 25.9471 36.1465C26.1801 36.1465 26.3496 36.0793 26.4589 35.9433C26.5666 35.8089 26.6216 35.5942 26.6216 35.291V30.3937C26.6216 30.0713 26.5574 29.8299 26.423 29.6642C26.284 29.5007 26.0869 29.4182 25.8317 29.4182Z" fill="#5C4A04"/><path d="M13.5706 18.9485H15.9723V13.0742L18.7688 4.7876H16.3275L14.8409 10.448H14.6897L13.1291 4.7876H10.7098L13.5706 13.3385V18.9485Z" fill="#5C4A04"/><path d="M22.023 19.2122C22.9931 19.2122 23.754 18.9579 24.3085 18.4491C24.8593 17.9381 25.1351 17.2406 25.1351 16.3469V10.9508C25.1351 10.1556 24.8532 9.50095 24.2917 8.99602C23.7265 8.49262 23.0023 8.23901 22.1192 8.23901C21.1491 8.23901 20.3768 8.47887 19.8024 8.95783C19.2295 9.43679 18.9415 10.0792 18.9415 10.8912V16.3057C18.9415 17.1941 19.2218 17.8968 19.7818 18.4239C20.3417 18.9487 21.0903 19.2122 22.023 19.2122ZM21.1384 10.8118C21.1384 10.5849 21.2202 10.4016 21.3798 10.258C21.5456 10.1174 21.7556 10.0494 22.0169 10.0494C22.2988 10.0494 22.5272 10.1174 22.7013 10.258C22.8747 10.4016 22.9611 10.5849 22.9611 10.8118V16.5035C22.9611 16.7823 22.8763 17.0038 22.7044 17.1635C22.534 17.3239 22.3049 17.4026 22.0169 17.4026C21.735 17.4026 21.5173 17.3262 21.3645 17.1658C21.214 17.0092 21.1377 16.7892 21.1377 16.5027L21.1384 10.8118Z" fill="#5C4A04"/><path d="M28.3564 19.1013C28.7574 19.1013 29.1692 18.9867 29.5931 18.7667C30.0216 18.5437 30.4319 18.2175 30.8222 17.792V18.9493H32.9557V8.50317H30.8222V16.4323C30.6236 16.6592 30.4028 16.8456 30.166 16.9938C29.9246 17.1404 29.726 17.2138 29.5694 17.2138C29.3693 17.2138 29.2219 17.1588 29.1355 17.0449C29.0477 16.9357 28.998 16.757 28.998 16.5118V8.50317H26.8676V17.2336C26.8676 17.8562 26.9928 18.3214 27.2403 18.63C27.4924 18.9432 27.8606 19.1013 28.3564 19.1013Z" fill="#5C4A04"/></svg>