<svg width="83" height="83" viewBox="0 0 83 83" fill="none" xmlns="http://www.w3.org/2000/svg"><g clip-path="url(#clip0_182_3193)"><path d="M42.7381 -0.508545H44.9397C46.482 -0.160639 48.102 0.223615 49.3379 1.28291C50.9736 2.53433 52.1004 4.36733 53.8555 5.46816C55.9066 6.30937 57.9732 7.14538 59.7906 8.44353C62.5375 10.1156 65.4454 12.3276 68.8362 11.9953C70.7367 11.8655 71.3235 9.82996 72.0245 8.41238C73.7328 10.8062 72.7566 13.9217 70.9755 15.9676C71.9933 17.3956 73.2603 18.8859 73.063 20.7708C73.3382 23.6995 71.635 26.1919 70.5186 28.7467C70.072 29.5463 70.0928 30.6783 71.0275 31.1093C73.0526 31.4417 74.7194 29.8994 76.4174 29.0582C76.1214 31.0782 75.4308 32.9891 74.5584 34.8272C75.5139 36.951 76.8536 38.9554 77.2327 41.3024C77.9908 44.5998 76.9003 48.1255 74.7142 50.6595C73.6186 51.9785 72.1075 53.6297 73.0526 55.4523C73.3693 56.5739 74.7142 56.4026 75.5866 56.6934C74.6363 57.815 73.3797 58.7756 72.9747 60.2555C72.1283 63.2205 69.371 64.8925 67.3874 67.0371C67.3199 68.0289 67.2472 69.0259 67.1382 70.0176C66.2191 69.5192 65.3104 68.9999 64.4225 68.4547C61.8261 68.7039 59.692 70.4227 57.1268 70.7861C55.2056 72.5724 53.5906 74.6391 51.9705 76.685C48.4396 81.1506 42.2292 83.5963 36.6627 81.9347C30.5925 80.2783 26.0334 75.553 22.2376 70.7758C20.6071 71.7987 19.0182 72.9255 17.154 73.4811C18.151 71.347 19.3557 69.1037 18.5353 66.684C17.5746 66.8813 16.505 66.8709 15.6793 67.4784C15.5391 68.9428 15.7728 70.4123 15.8351 71.8766C14.0852 71.617 12.0601 71.2483 11.0267 69.6386C10.0349 68.3664 10.5854 66.684 10.9333 65.2924C10.2323 64.2123 9.60915 63.0907 9.13662 61.8912C9.75455 62.0158 10.3725 62.1249 11.0008 62.2079C12.6468 61.2213 12.003 59.1131 11.7485 57.5813C10.0609 57.3425 8.3058 57.4567 6.68051 56.8959C6.18202 55.7224 5.92759 54.4709 5.61603 53.2403C6.2703 53.3545 6.92457 53.4688 7.57884 53.5778C6.16125 49.9534 4.95137 45.6642 6.90899 41.9931C8.311 39.5785 6.49358 36.8887 6.94014 34.3339C7.26209 33.5602 7.82808 32.9371 8.31619 32.2673C8.36812 33.607 8.45639 34.9571 8.94969 36.2189C9.50011 35.5854 10.1336 35.0038 10.5282 34.2509C11.006 31.504 9.27163 28.9804 9.50011 26.2231C13.2024 19.7011 18.6807 14.4462 23.8421 9.09261C25.2649 7.58156 26.6773 6.02377 28.3649 4.79831C29.7046 3.79614 31.5532 4.51272 32.9188 3.54689C36.0032 1.79179 39.1655 -0.00486064 42.7381 -0.508545ZM27.0512 17.2139C26.1736 18.8184 24.5276 19.7479 23.4683 21.207C21.9157 23.2944 20.3994 25.4701 19.5011 27.9314C17.9952 32.7606 18.5508 37.9065 19.3142 42.8187C20.7629 40.1705 20.8304 36.8887 22.9386 34.578C22.9282 34.9571 22.9075 35.7204 22.9023 36.0994C27.2381 36.4525 31.4649 37.6728 35.5255 39.189C31.5532 38.6957 27.6899 36.7381 23.6292 37.5066C22.3051 37.9272 22.1441 39.4071 22.0299 40.5807C23.3021 40.8766 24.621 40.8974 25.8932 41.2038C28.3441 42.0761 30.3225 43.8572 32.6488 44.9788C33.5316 45.3319 34.6532 45.9602 35.4113 45.0256C35.8267 44.283 35.78 43.4106 35.889 42.5954C36.0656 42.7512 36.4135 43.0627 36.5848 43.2185C36.6316 44.553 36.5744 45.8823 36.5537 47.2168C36.9743 47.2843 37.8155 47.4194 38.2361 47.4869C37.7843 47.9282 37.3274 48.3644 36.8808 48.811C37.4364 49.081 37.9972 49.3458 38.558 49.6054C38.0647 49.9482 37.5714 50.2961 37.0833 50.644C37.4156 51.724 37.7168 52.8145 38.0076 53.9049C37.5195 53.0482 36.9639 52.2225 36.2109 51.5734C34.056 52.4406 31.9063 53.3026 29.6682 53.9361C27.6431 54.4294 26.7811 56.5064 25.4311 57.8617C25.4778 57.3684 25.5713 56.3766 25.6232 55.8781C24.9066 56.143 24.2004 56.4182 23.489 56.6934C23.1619 58.0694 22.6011 59.6272 23.4215 60.9461C24.3095 62.3793 25.2078 64.015 26.7604 64.8094C29.419 65.6455 30.7899 62.7272 32.0569 60.9825C33.1888 59.3468 34.9284 56.7661 37.2027 58.0642C35.2192 58.059 34.6168 60.027 35.0426 61.6783C34.6116 61.3148 34.1806 60.9565 33.7496 60.6034C32.2334 62.1924 30.8989 63.9838 30.2862 66.1284C33.6977 68.0912 37.2391 64.6692 40.7181 66.1336C43.6624 64.4719 46.9597 67.1046 49.9662 65.6299C49.6079 62.8466 47.022 61.59 44.867 60.3542C44.7061 60.7177 44.3789 61.4342 44.218 61.7925C42.5927 62.0677 40.9882 62.4572 39.3525 62.6805C40.1573 61.7146 41.2426 61.0552 42.2552 60.3386C42.0942 56.9011 41.2997 53.5259 40.4066 50.2234C40.1366 50.0987 39.5965 49.8495 39.3265 49.7249C40.0327 49.2627 40.7181 48.7642 41.388 48.2398C41.0089 48.1048 40.2456 47.8296 39.8665 47.6946C41.2634 45.5812 39.9912 42.585 41.98 40.7728C41.7203 41.8425 41.2738 42.8498 40.8739 43.8676C41.6788 44.2986 42.5044 44.6932 43.3352 45.0723C47.6555 44.148 50.6049 40.4249 52.7598 36.8316C49.8364 37.5378 47.2401 39.215 44.2595 39.7083C47.2141 37.8545 50.4283 36.4785 53.6322 35.1284C54.1359 34.8584 54.8576 34.7286 55.0238 34.0951C55.6989 31.9973 55.6469 29.5412 54.1515 27.8016C54.0424 25.8752 52.7443 23.4242 50.6205 23.4242C46.1237 25.2209 41.1699 24.9041 36.5121 26.0102C35.3334 24.8107 34.4351 22.7596 32.3996 23.336C31.6207 22.4013 31.0235 21.3368 30.6081 20.1996C30.1304 20.3346 29.6475 20.4696 29.1698 20.6047C28.7959 19.4675 28.4895 18.3043 28.1468 17.1568C27.8716 17.1723 27.3264 17.1983 27.0512 17.2139ZM25.1559 45.3371C25.6076 46.9676 26.7656 48.1827 28.4532 48.541C28.3182 47.7724 28.1935 47.0039 28.0741 46.2354C27.1135 45.9031 26.1373 45.6071 25.1559 45.3371ZM49.3067 45.6331C49.2392 46.547 49.1665 47.4609 49.1198 48.3748C50.5062 47.7517 51.2747 46.4899 51.6746 45.0671C50.8801 45.2384 50.0908 45.4306 49.3067 45.6331ZM19.2311 46.007C19.4596 47.4765 19.6517 48.9564 19.6309 50.4518C20.3942 49.8703 21.1472 49.2887 21.8897 48.6863C21.1212 48.2554 20.3319 47.8659 19.5322 47.492C20.0255 47.2947 21.0121 46.9053 21.5054 46.708C20.7525 46.4587 19.9944 46.225 19.2311 46.007ZM32.6488 46.9987C32.5813 47.3311 32.4411 47.9957 32.3736 48.3281C33.22 48.2242 34.0612 48.1048 34.9076 47.975C34.2741 47.3986 33.4485 47.2116 32.6488 46.9987ZM42.9562 47.4453C42.8419 47.6219 42.6135 47.9802 42.4992 48.1567C43.7091 48.3281 44.9242 48.4838 46.1444 48.5877C45.7134 47.9698 45.2825 47.357 44.8619 46.7391C44.2232 46.978 43.5897 47.2168 42.9562 47.4453ZM19.6257 51.2619C19.74 53.4168 19.5998 55.5873 19.958 57.7215C20.3163 58.111 20.6746 58.5004 21.0381 58.8899C20.955 57.249 20.3475 55.3744 21.3756 53.9049C22.3415 52.5029 23.5773 51.2775 24.2887 49.7093C22.6842 50.078 21.1731 50.7322 19.6257 51.2619ZM42.5459 50.1714C42.0423 51.7136 41.497 53.3961 42.0942 55.0006C43.1223 58.7185 46.7624 60.7125 49.852 62.5507C50.9476 63.0959 52.1367 64.2331 53.4245 63.5217C56.1246 62.2183 56.7737 58.9781 57.3293 56.3195C56.1662 56.0287 54.9979 55.7691 53.8347 55.4887C54.2345 55.146 55.0394 54.4657 55.4392 54.123C54.4111 53.3597 53.2947 52.721 52.0796 52.3056C52.7962 53.6453 52.8014 55.1615 53.0922 56.6103C51.5499 53.9049 48.0138 54.2684 45.6771 52.7002C44.6126 51.8746 43.8908 50.6024 42.5459 50.1714ZM59.1519 50.322C59.5985 53.0689 58.56 55.7743 59.0066 58.5212C60.9746 56.8959 60.5124 54.0347 61.0888 51.8019C60.4449 51.3086 59.7958 50.8153 59.1519 50.322ZM16.6763 53.1105C16.9619 54.3619 17.7668 55.4212 18.0316 56.6726C18.3743 57.628 18.1043 59.0197 19.3349 59.4299C19.1116 56.6882 18.8261 53.9413 18.2756 51.2463C17.72 51.8435 16.9307 52.29 16.6763 53.1105ZM21.7028 64.1552C23.2761 70.3188 29.6579 72.8632 33.7652 77.0484C36.0811 79.4734 39.69 79.6603 42.8212 79.4059C45.9419 78.9905 48.0138 76.3838 50.0181 74.2289C52.4171 71.5443 54.759 68.7506 56.3116 65.4741C55.0186 66.5801 53.8243 67.8315 52.3392 68.6935C49.9299 70.2253 47.0843 70.8017 44.3011 71.1704C44.5399 71.4093 45.0176 71.887 45.2565 72.1258C42.6446 70.9523 39.7367 71.2327 37.0781 72.0843C37.5766 71.7779 38.5788 71.1652 39.0773 70.864C32.8513 70.3032 26.2515 68.7454 21.7028 64.1552Z" fill="#5C4A04"/></g><defs><clipPath id="clip0_182_3193"><rect width="82.3355" height="82.3355" fill="white" transform="translate(0.655151)"/></clipPath></defs></svg>