<svg width="49" height="50" viewBox="0 0 49 50" fill="none" xmlns="http://www.w3.org/2000/svg"><path d="M23.9832 5.48464C26.3107 5.11905 28.487 7.33171 28.3339 9.63241C28.4583 11.6958 26.7835 13.6634 24.7182 13.828C22.8176 13.9257 21.0413 12.4021 20.7331 10.5435C20.5972 9.60179 20.6355 8.59882 21.0566 7.72983C21.6002 6.56991 22.7219 5.70859 23.9832 5.48464ZM23.9966 7.05226C21.7744 7.61499 21.5409 11.1426 23.6023 12.0671C25.147 12.9074 26.9806 11.2613 26.8045 9.64198C26.9424 8.17007 25.4992 6.64456 23.9966 7.05226Z" fill="#5C4A04"/><path d="M8.82384 10.6161C9.55884 8.98914 11.2336 7.83305 13.0195 7.73352C13.3142 7.69715 13.632 7.85219 13.7583 8.1259C14.6445 10.2199 13.7793 12.8441 11.8595 14.048C11.2432 14.4691 10.5178 14.6892 9.79236 14.8404C9.17603 15.6309 8.67454 16.4999 8.17497 17.367C9.5665 16.8483 11.1858 16.8885 12.4816 17.6445C12.7534 17.7919 12.9352 18.1211 12.8549 18.4312C12.4529 20.3548 10.7762 21.932 8.82958 22.2172C8.0563 22.3627 7.27154 22.2402 6.51357 22.0756C6.23794 23.4901 6.16521 24.9371 6.11544 26.3765C7.1433 25.1591 8.72431 24.4107 10.3302 24.5447C10.803 24.5868 11.4729 24.6136 11.6279 25.1725C11.8327 26.8186 11.0461 28.526 9.71771 29.5079C8.86404 30.1606 7.79408 30.4496 6.73177 30.4994C7.05908 31.8009 7.61607 33.0202 8.14626 34.2471C8.52908 32.936 9.46697 31.7684 10.7417 31.2401C11.002 31.1234 11.3351 31.1904 11.5265 31.4047C12.6922 32.6316 13.0597 34.5304 12.472 36.1114C12.1849 36.9555 11.5973 37.6503 10.9446 38.2398C11.9725 39.2849 13.052 40.2936 14.2904 41.088C14.6177 41.3291 15.0273 41.5052 15.2455 41.8632C15.5231 42.4048 14.9565 43.0997 14.3708 42.9159C13.6645 42.6039 13.0692 42.0929 12.4338 41.6622C11.6452 42.2058 10.7513 42.6307 9.78662 42.7034C7.73665 42.9389 5.61013 41.7483 4.76029 39.8668C4.6263 39.6065 4.69904 39.2677 4.90767 39.0686C5.86087 38.1288 7.21794 37.723 8.53482 37.7116C8.15775 37.1852 7.79982 36.6435 7.44954 36.0999C6.26857 36.3755 4.99763 36.322 3.88556 35.8128C2.04615 35.0147 0.756069 33.0776 0.790522 31.0659C0.79435 30.7386 1.05466 30.4668 1.36091 30.3941C2.62611 30.0055 4.01572 30.1548 5.21009 30.7023C4.8847 29.4198 4.70478 28.103 4.62056 26.7823C3.45298 26.4741 2.3524 25.8291 1.65759 24.8242C0.635483 23.4212 0.482358 21.4439 1.27478 19.9012C1.40876 19.5892 1.76669 19.3997 2.10165 19.4782C3.28646 19.6486 4.36216 20.3032 5.1297 21.2123C5.2522 20.6305 5.4283 20.0639 5.62927 19.5069C4.80814 18.925 4.08845 18.1652 3.71138 17.2196C2.96872 15.497 3.36685 13.3589 4.6799 12.021C4.87896 11.8086 5.21009 11.6918 5.48572 11.822C6.6954 12.356 7.57587 13.4604 8.01228 14.6911C8.17497 14.4595 8.33958 14.2298 8.50419 14.0021C8.30704 12.8728 8.30896 11.6669 8.82384 10.6161ZM9.92251 13.2709C11.6413 12.8345 12.8434 11.0831 12.5543 9.31645C10.8298 9.7452 9.6354 11.508 9.92251 13.2709ZM5.39576 13.5082C4.48275 14.9495 4.81005 16.9459 6.14607 18.0082C6.47146 17.3689 6.77771 16.6779 6.69349 15.941C6.64947 14.9802 6.1097 14.1227 5.39576 13.5082ZM6.91552 20.6018C8.57884 21.1339 10.491 20.3032 11.1935 18.6973C9.53587 18.169 7.59501 18.9786 6.91552 20.6018ZM2.4079 21.0956C2.25861 21.888 2.24138 22.7398 2.62419 23.4729C3.00318 24.2863 3.74966 24.8471 4.56122 25.184C4.62247 24.4088 4.72966 23.5781 4.3679 22.8565C3.99658 22.0182 3.23478 21.4401 2.4079 21.0956ZM6.6265 28.97C8.33767 29.0275 9.89954 27.7316 10.1407 26.0358C8.43337 25.986 6.86576 27.2704 6.6265 28.97ZM2.34857 31.7148C2.56486 32.5072 2.92853 33.2882 3.57357 33.8222C4.3813 34.5514 5.49912 34.8118 6.56525 34.7333C6.31642 33.9523 5.98529 33.1561 5.33642 32.6202C4.5306 31.8928 3.41279 31.6306 2.34857 31.7148ZM9.97036 37.0608C11.2107 36.0942 11.582 34.2911 10.8068 32.9168C9.54927 33.8528 9.10904 35.7152 9.97036 37.0608ZM6.43892 39.7692C7.50697 41.2181 9.61626 41.6162 11.159 40.7013C10.6192 40.108 9.98185 39.5491 9.17603 39.373C8.24962 39.1127 7.27345 39.3366 6.43892 39.7692Z" fill="#5C4A04"/><path d="M35.1939 8.22344C35.2838 7.9593 35.5193 7.76406 35.7968 7.73535C38.0535 7.74109 40.1456 9.5116 40.5341 11.7357C40.7198 12.4822 40.5399 13.2421 40.5303 13.9962C40.6624 14.2393 40.8212 14.4671 40.9743 14.6968C41.4261 13.4699 42.2989 12.3521 43.5181 11.82C43.788 11.6936 44.1134 11.8066 44.3106 12.0133C45.6351 13.3512 46.0313 15.5026 45.2848 17.2291C44.9039 18.1689 44.19 18.925 43.3708 19.503C43.5679 20.0619 43.744 20.6304 43.8703 21.2104C44.6704 20.2744 45.8016 19.5777 47.0438 19.4686C47.4592 19.4322 47.7272 19.815 47.8497 20.1614C48.5674 21.8324 48.244 23.9015 47.0036 25.2414C46.3222 26.0261 45.371 26.5123 44.3795 26.7803C44.2895 28.101 44.1211 29.4217 43.7861 30.706C44.9786 30.1567 46.3701 30.0016 47.6334 30.3921C47.9454 30.4706 48.2133 30.7481 48.2114 31.0831C48.2267 33.0852 46.9558 35.0261 45.1126 35.8127C44.0024 36.3238 42.7315 36.3678 41.5505 36.1018C41.2002 36.6454 40.8442 37.1851 40.4633 37.7096C41.7783 37.723 43.1315 38.1287 44.0866 39.0628C44.2972 39.26 44.3737 39.5988 44.2417 39.8591C43.4205 41.6793 41.4069 42.8603 39.4201 42.7206C38.3808 42.6861 37.4065 42.2478 36.5663 41.6602C35.9289 42.0889 35.3374 42.6057 34.6292 42.9158C34.0378 43.1015 33.4674 42.3895 33.7622 41.8497C33.988 41.5013 34.3919 41.3271 34.7173 41.0879C35.9557 40.2974 37.0256 39.281 38.0554 38.2398C37.3644 37.6215 36.7519 36.8789 36.4801 35.9773C35.9576 34.4231 36.3366 32.5895 37.4774 31.4027C37.6707 31.1941 37.9999 31.1233 38.2602 31.2381C39.5273 31.7741 40.4709 32.9321 40.8518 34.2432C41.3859 33.0201 41.9333 31.7989 42.2644 30.5012C40.9724 30.4553 39.6766 29.9921 38.7617 29.058C37.7549 28.0589 37.1902 26.5889 37.3721 25.1744C37.5176 24.6116 38.2009 24.5906 38.6698 24.5446C40.2757 24.4087 41.8567 25.1572 42.8808 26.3783C42.8367 24.9389 42.7544 23.4919 42.4845 22.0755C41.4969 22.3148 40.4422 22.3798 39.4661 22.0525C37.8238 21.5434 36.4954 20.1155 36.1452 18.4292C36.0609 18.1191 36.2447 17.7899 36.5165 17.6425C37.8123 16.8884 39.4354 16.8482 40.8251 17.3688C40.3236 16.5037 39.824 15.6347 39.2115 14.8442C38.0286 14.6298 36.8859 14.0747 36.1031 13.1464C34.9393 11.8314 34.568 9.8657 35.1939 8.22344ZM36.4418 9.31637C36.3902 10.1069 36.4572 10.9376 36.8859 11.6266C37.3472 12.4573 38.1875 12.9875 39.0737 13.2708C39.3627 11.5061 38.1683 9.7432 36.4418 9.31637ZM42.854 18.01C44.1861 16.9439 44.5154 14.9514 43.6043 13.5082C42.2376 14.5494 41.9008 16.5821 42.854 18.01ZM37.8047 18.6991C38.5129 20.3012 40.4154 21.1319 42.0826 20.6036C41.4088 18.9747 39.4603 18.1689 37.8047 18.6991ZM44.7584 22.6114C44.2646 23.3771 44.3527 24.3207 44.4407 25.182C45.2925 24.8279 46.0734 24.2193 46.4294 23.3445C46.7625 22.6402 46.728 21.8401 46.5902 21.0917C45.8533 21.4132 45.1527 21.8898 44.7584 22.6114ZM38.8555 26.0376C39.0411 26.8377 39.3818 27.6397 40.0441 28.1603C40.6834 28.723 41.539 28.9355 42.3716 28.9738C42.1324 27.276 40.5667 25.9821 38.8555 26.0376ZM44.1019 32.2928C43.2119 32.8172 42.7123 33.7704 42.4348 34.7332C44.3622 34.9859 46.2878 33.6326 46.6476 31.7147C45.7652 31.665 44.8484 31.7913 44.1019 32.2928ZM38.1913 32.9168C37.4161 34.2911 37.7874 36.096 39.0258 37.0645C39.891 35.7189 39.4488 33.8546 38.1913 32.9168ZM37.8391 40.6974C39.3799 41.6181 41.495 41.218 42.5611 39.7672C41.7266 39.3384 40.7523 39.1145 39.8278 39.3729C39.0201 39.5452 38.3827 40.106 37.8391 40.6974Z" fill="#5C4A04"/><path d="M22.2146 15.5967C23.7765 15.3057 25.4111 15.3019 26.9653 15.6388C29.3062 16.2149 30.9179 18.1424 32.5888 19.7368C33.699 20.8852 35.1518 22.0528 35.2073 23.785C35.324 25.701 33.9134 27.2552 32.497 28.3501C31.4749 29.0736 30.4125 29.9617 29.0938 29.9694C28.9502 34.3928 29.9704 38.7358 30.2288 43.1343C30.292 43.7908 30.0986 44.5316 29.511 44.9029C28.7301 45.3814 27.6218 45.3737 26.9213 44.7459C26.1844 44.0875 25.9088 43.0903 25.6676 42.1677C25.1872 40.1273 24.9115 38.0467 24.4981 35.9929C24.1038 37.9931 23.8167 40.0144 23.3707 42.0031C23.1353 42.9391 22.8769 43.9382 22.184 44.6483C21.4318 45.4235 20.067 45.4331 19.2689 44.7287C18.7731 44.277 18.7272 43.5592 18.777 42.9352C19.066 38.6056 20.0402 34.3258 19.9063 29.9694C18.8727 29.9847 17.9922 29.3913 17.1711 28.8382C16.0188 28.0419 14.9163 27.0906 14.2502 25.8369C13.5994 24.6464 13.6109 23.0807 14.4052 21.959C15.213 20.8048 16.2963 19.888 17.2725 18.885C18.6947 17.5107 20.1972 16.0025 22.2146 15.5967ZM20.8327 17.8208C19.3416 18.864 18.1185 20.2287 16.8208 21.4901C16.1145 22.2423 15.1728 23.0577 15.3221 24.2042C15.4924 25.5383 16.6045 26.4839 17.6017 27.2648C18.3252 27.7433 19.0315 28.3941 19.9407 28.4381C19.889 28.1682 19.9063 27.8677 19.7455 27.6304C18.9913 26.4819 17.9195 25.5996 16.9605 24.6311C16.6351 24.3535 16.6485 23.8271 16.9624 23.5458C17.8659 22.5907 18.8325 21.691 19.7455 20.7436C20.046 20.4622 20.379 20.0277 20.8499 20.1617C21.2786 20.2478 21.4758 20.7015 21.4394 21.1034C21.4375 24.4932 21.4413 27.883 21.4356 31.2728C21.426 35.4398 20.4365 39.5282 20.2929 43.6855C20.5992 43.6473 21.0202 43.8119 21.1983 43.4654C21.6595 42.7859 21.8031 41.9533 21.9907 41.1705C22.5917 38.1309 23.0262 35.0569 23.7746 32.0519C23.9009 31.3073 25.0972 31.3054 25.2235 32.05C26.0121 35.1928 26.4313 38.4161 27.0993 41.5839C27.2984 42.3055 27.4304 43.1209 27.9855 43.6645C28.2229 43.6855 28.4621 43.6951 28.7033 43.6913C28.5655 39.4669 27.5434 35.3115 27.5606 31.0757C27.5663 27.751 27.5568 24.4262 27.5644 21.1034C27.5242 20.7053 27.7156 20.2536 28.1425 20.1655C28.6191 20.0201 28.9579 20.468 29.266 20.7512C30.1771 21.6949 31.138 22.5926 32.0395 23.5458C32.3515 23.8291 32.3649 24.3535 32.0376 24.6311C31.1074 25.5594 30.0948 26.4226 29.3311 27.5021C29.1129 27.7663 29.1033 28.1185 29.0593 28.4419C29.9666 28.3884 30.669 27.7452 31.3906 27.2667C32.3974 26.4896 33.5018 25.5326 33.6779 24.1966C33.8234 23.1036 32.9468 22.2997 32.2673 21.58C31.0461 20.3818 29.8804 19.1147 28.5195 18.0677C27.6506 17.3882 26.5729 17.0073 25.4743 16.9537C23.8971 16.8561 22.1802 16.8868 20.8327 17.8208ZM18.5894 24.0702C19.0315 24.5066 19.4737 24.943 19.9082 25.3871C19.9063 24.5105 19.9063 23.6338 19.9005 22.7572C19.466 23.1955 19.0277 23.6338 18.5894 24.0702ZM29.0938 22.7553C29.0918 23.63 29.0957 24.5066 29.0938 25.3833C29.5244 24.9373 29.9666 24.5028 30.4106 24.0702C29.9742 23.63 29.5359 23.1898 29.0938 22.7553Z" fill="#5C4A04"/></svg>