<svg width="38" height="36" viewBox="0 0 38 36" fill="none" xmlns="http://www.w3.org/2000/svg"><path d="M27.3122 0.837287C28.1046 0.395322 28.9686 -0.0247437 29.8983 0.00113709C30.4578 0.00710959 31.0371 0.313698 31.2501 0.851223C31.495 1.42458 31.3238 2.0716 31.0729 2.61112C30.5852 3.62246 29.7948 4.44667 28.9925 5.21314C29.3031 5.8522 29.8685 6.43153 29.8386 7.18406C29.8406 8.31884 29.8326 9.4556 29.8366 10.5904C31.927 10.3495 34.087 10.3594 36.1177 10.9607C36.8722 11.2135 37.7442 11.6196 37.9672 12.4578C38.1424 13.1705 37.5869 13.8016 36.9976 14.1161C35.7494 14.791 34.2961 14.9125 32.9065 15.026C32.9184 20.0946 32.9045 25.1653 32.9144 30.2339C33.9616 31.295 35.0207 32.3462 36.0759 33.4013C35.8848 33.5865 35.6956 33.7756 35.5085 33.9647C34.3598 32.8559 33.2927 31.6554 32.0843 30.6102C30.9515 31.7151 29.8466 32.8459 28.7237 33.9588C28.5346 33.7716 28.3475 33.5845 28.1583 33.3993C29.1896 32.3462 30.2646 31.3349 31.27 30.2618C31.3716 28.4263 31.3138 26.5708 31.2999 24.7313C30.6708 23.8812 29.8147 23.1904 29.0682 22.4319C28.0429 23.274 27.1968 24.3092 26.2073 25.1911C26.0301 25.002 25.853 24.8149 25.6758 24.6277C26.5099 23.7597 27.4098 22.9495 28.2121 22.0496C28.2897 19.5651 28.2221 17.0705 28.244 14.582C27.3998 14.2714 26.2949 13.8255 26.2312 12.7803C26.2491 11.7092 27.3859 11.2314 28.244 10.9189C28.2459 9.74825 28.244 8.57764 28.2479 7.40703C28.2698 6.94914 27.9274 6.59478 27.7323 6.21253C26.7011 6.84761 25.5922 7.55237 24.332 7.50857C23.6212 7.50857 22.9543 6.94118 22.9125 6.2205C22.8667 5.40625 23.2848 4.66168 23.7367 4.01864C24.6843 2.72061 25.9326 1.65552 27.3122 0.837287ZM29.8366 14.9045C29.8506 17.2497 29.8107 19.5989 29.8545 21.9441C30.195 22.5732 30.8539 22.9873 31.3178 23.5328C31.3178 20.6978 31.3198 17.8649 31.3178 15.0299C30.8241 14.9901 30.3303 14.9483 29.8366 14.9045Z" fill="#5C4A04"/><path d="M2.23172 4.23149C3.30876 3.82935 4.46743 4.29719 5.43696 4.77698C7.40988 5.82814 9.18371 7.32326 10.416 9.19862C10.9058 9.98301 11.3517 11.0063 10.9118 11.9081C10.5554 12.601 9.68739 12.7961 8.97268 12.6846C7.68063 12.4954 6.54387 11.7907 5.47081 11.0879C5.21001 11.6334 4.69837 12.1172 4.75013 12.7642C4.75411 18.3445 4.75809 23.9228 4.74814 29.5011C4.778 29.7898 4.67248 30.1561 4.91537 30.3791C5.90879 31.3884 6.92213 32.3799 7.91754 33.3892C7.7304 33.5764 7.54127 33.7635 7.35414 33.9526C6.23529 32.8338 5.12839 31.705 3.99361 30.6021C2.7792 31.6393 1.71809 32.8457 0.565397 33.9526C0.378258 33.7595 0.189129 33.5684 0 33.3793C1.05514 32.3341 2.11227 31.2869 3.15149 30.2238C3.1714 24.3409 3.15746 18.458 3.15746 12.5751C3.0838 11.6135 3.83235 10.8968 4.21658 10.0826C3.07584 9.04334 1.93907 7.86277 1.45132 6.36567C1.16663 5.58725 1.40752 4.56197 2.23172 4.23149Z" fill="#5C4A04"/><path d="M17.9255 12.7583C18.0768 12.3163 18.5347 12.1053 18.9667 12.0515C20.207 11.9141 21.4134 12.3462 22.5601 12.7602C24.0154 13.3376 25.4946 13.9627 26.6971 14.988C27.1629 15.42 27.7303 16.0471 27.4675 16.7339C26.7986 18.3764 26.0799 19.9969 25.3891 21.6294C25.1004 22.4357 24.1289 22.8159 23.3425 22.5591C22.6238 22.3242 21.943 21.9878 21.2581 21.6752C23.9338 23.7337 24.8396 27.6995 23.3565 30.7275C22.4168 32.7562 20.5335 34.3249 18.3575 34.8485C16.3965 35.3423 14.2424 35.0058 12.5363 33.9188C10.5932 32.7263 9.26136 30.6041 9.03839 28.3365C8.7537 25.8699 9.78893 23.2977 11.722 21.7369C10.651 22.0395 9.57989 22.3421 8.49688 22.6029C7.67267 22.8219 6.66133 22.3819 6.44433 21.5159C5.96255 19.7839 5.49669 18.0439 5.04079 16.3059C4.86361 15.6768 5.39914 15.1592 5.85106 14.8128C6.96593 14.0065 8.31173 13.6183 9.61971 13.248C10.9197 12.9255 12.2615 12.587 13.6113 12.7364C14.1747 12.81 14.8795 13.021 15.0328 13.6482C15.3672 14.8586 15.6977 16.069 16.0003 17.2874C16.6334 15.7744 17.2784 14.2653 17.9255 12.7583ZM16.0262 22.4218C14.2902 22.577 12.6856 23.6959 11.9251 25.2607C11.2263 26.6503 11.2203 28.3624 11.9032 29.76C12.6697 31.3865 14.3499 32.5432 16.1476 32.6526C17.8697 32.802 19.6236 31.9937 20.6449 30.6061C21.943 28.9218 22.0047 26.4194 20.7943 24.6734C19.7769 23.1205 17.8717 22.2227 16.0262 22.4218Z" fill="#5C4A04"/><path d="M16.0381 23.222C17.3302 23.0687 18.676 23.5325 19.5918 24.4583C20.6867 25.5274 21.1327 27.2017 20.7186 28.6749C20.3742 29.945 19.4226 31.036 18.2022 31.5377C16.713 32.1807 14.8735 31.8761 13.6651 30.7911C12.4188 29.7181 11.8853 27.9064 12.3631 26.3297C12.813 24.6773 14.336 23.3952 16.0381 23.222Z" fill="#5C4A04"/></svg>