<svg width="35" height="35" viewBox="0 0 35 35" fill="none" xmlns="http://www.w3.org/2000/svg"><path d="M4.97701 4.97715C11.249 4.78815 17.5245 4.95615 23.8 4.90015C25.956 4.90015 28.1225 4.79165 30.2715 5.05415C30.45 11.1827 30.289 17.3182 30.3415 23.4502C30.2855 25.5012 30.513 27.5662 30.2505 29.6067C29.631 30.3697 28.5425 30.2437 27.6675 30.2997C22.4105 30.2577 17.1535 30.2822 11.9 30.2752C9.60051 30.2542 7.29401 30.4047 5.00501 30.1247C4.76701 25.2212 4.98401 20.3072 4.91051 15.4002C4.96301 11.9247 4.79851 8.44915 4.97701 4.97715ZM6.83201 6.83215C6.50301 10.0277 6.77601 13.2442 6.69551 16.4502C6.77601 20.3527 6.51001 24.2622 6.83201 28.1577C9.33101 28.3747 11.844 28.2312 14.35 28.2592C18.949 28.1857 23.5585 28.4097 28.154 28.1577C28.406 24.7277 28.196 21.2837 28.259 17.8502C28.189 14.1752 28.4095 10.4932 28.161 6.82165C24.731 6.51715 21.2835 6.77265 17.85 6.69215C14.1785 6.79015 10.493 6.48915 6.83201 6.83215Z" fill="#5C4A04"/><path d="M8.70101 9.21915C9.06501 9.08615 9.42901 8.95315 9.79301 8.81665C10.6155 9.40115 11.431 10.0032 12.2535 10.5877C13.0795 10.0102 13.8915 9.41165 14.714 8.82715C15.0745 8.95665 15.4385 9.08615 15.799 9.21565C15.4315 10.3707 14.7035 11.3402 13.979 12.2887C14.5355 13.1077 15.204 13.8602 15.6205 14.7632C15.8725 15.2987 15.309 15.9042 14.7595 15.6487C13.8495 15.2462 13.0865 14.5812 12.264 14.0282C11.1405 14.6617 10.0555 16.2507 8.65551 15.3582C9.10001 14.2277 9.82451 13.2512 10.549 12.2887C9.82101 11.3402 9.09651 10.3637 8.70101 9.21915Z" fill="#5C4A04"/><path d="M19.222 9.71251C19.5475 9.37651 19.8765 9.04401 20.209 8.71851C21.07 9.33451 21.917 9.97851 22.7885 10.5805C23.73 9.87701 24.6995 9.20851 25.7635 8.70801C25.963 9.06851 26.159 9.42901 26.3585 9.78601C25.76 10.6295 25.144 11.452 24.542 12.2885C25.151 13.419 26.775 14.483 25.8825 15.883C24.7555 15.4455 23.772 14.735 22.8025 14.0245C21.8575 14.7455 20.916 15.5435 19.7155 15.792C19.5895 15.435 19.4635 15.078 19.334 14.7245C19.9325 13.909 20.538 13.097 21.119 12.271C20.496 11.41 19.8485 10.57 19.222 9.71251Z" fill="#5C4A04"/><path d="M8.48052 18.9666C11.942 18.5956 15.428 18.8896 18.9 18.8056C21.525 18.8791 24.1745 18.5571 26.7715 19.0471C27.132 21.4166 27.083 23.8281 26.803 26.2081C26.2815 26.2361 25.76 26.2746 25.2385 26.3061C25.0005 24.6331 25.2035 22.9251 24.9305 21.2556C24.563 20.6221 23.716 20.7936 23.1 20.7271C22.484 20.7936 21.6335 20.6186 21.2625 21.2556C20.986 22.9216 21.1855 24.6296 20.951 26.3061C20.426 26.2816 19.901 26.2361 19.376 26.2081C19.166 24.5596 19.3235 22.8796 19.0435 21.2416C18.9665 21.1471 18.8125 20.9616 18.7355 20.8671C15.7605 20.5696 12.761 20.9546 9.77552 20.7691C9.16652 20.7166 8.59252 20.4961 8.01852 20.3001C8.17252 19.8556 8.32652 19.4111 8.48052 18.9666Z" fill="#5C4A04"/></svg>