<svg width="46" height="32" viewBox="0 0 46 32" fill="none" xmlns="http://www.w3.org/2000/svg"><path d="M27.9814 21.7432L27.2077 19.738L27.6835 19.1214L28.1305 19.0676L29.0977 19.185L29.4112 19.2607L30.1617 20.0285L29.9393 20.3766L29.1035 21.8347L30.3669 31.99H46C45.9149 31.6101 45.822 31.2322 45.7447 30.8502C45.5918 30.0763 45.4467 29.3005 45.2803 28.5286C45.114 27.7569 44.8295 27.0028 44.7716 26.227C44.6865 25.1052 44.0325 24.2576 43.6533 23.281C43.3928 22.5727 43.1708 21.8501 42.9879 21.1167C42.8831 20.6528 42.6051 20.2499 42.2141 19.9946C41.061 19.2762 39.7927 18.7744 38.4687 18.5126C37.2559 18.262 36.0816 17.8243 34.8879 17.4762C34.5339 17.3727 34.172 17.2932 33.8142 17.2017C33.4563 17.1102 33.2957 16.8197 33.2028 16.4855C33.0849 16.0638 33.0327 15.6122 32.8547 15.2204C32.6553 14.7391 32.5673 14.2168 32.5974 13.6946L32.3284 14.3172C32.2976 14.3885 32.2781 14.4644 32.2705 14.542C32.2585 14.6682 32.2143 14.7889 32.1428 14.8921L31.9242 15.2064L31.6205 15.6659C31.5656 15.7516 31.4928 15.8236 31.4075 15.8768L30.7499 16.2906L30.6918 16.3324L29.6162 17.1798L29.0358 17.6075C28.9702 17.6559 28.8969 17.6922 28.8192 17.7149H28.8056C28.7594 17.7279 28.7122 17.7358 28.6643 17.7388L28.3974 17.7607C28.2362 17.7729 28.076 17.7264 27.9447 17.6294L27.9061 17.6015L27.7978 17.52C27.7266 17.467 27.6465 17.4279 27.5616 17.4046L27.0335 17.2653C26.956 17.244 26.8827 17.209 26.8169 17.1619L26.0624 16.6348C26.03 16.6115 25.9996 16.5856 25.9715 16.5571L25.1977 15.7913L25.1647 15.7555L24.8862 15.4391C24.8793 15.4302 24.8728 15.4209 24.8668 15.4113C24.8668 15.463 24.8668 15.5128 24.8668 15.5625C24.834 15.9603 24.714 16.3304 24.6502 16.7163C24.5863 17.1022 24.3833 17.2494 24.0698 17.1022C23.476 16.8277 22.9575 17.0147 22.41 17.2633C22.0291 17.4487 21.6202 17.5651 21.2009 17.6075C20.0401 17.689 18.891 17.697 17.7361 17.7527C16.8055 17.7985 16.0046 18.1148 15.5074 18.9939C15.4429 19.1314 15.3588 19.2581 15.2579 19.37C15.107 19.5072 14.929 19.6904 14.7549 19.7022C13.8824 19.764 13.1434 20.1896 12.3676 20.5277C11.9567 20.6764 11.5366 20.7966 11.1102 20.8879L10.9961 20.6888C11.5377 20.0921 11.9942 19.3661 12.6443 18.9641C13.2943 18.5624 13.7315 18.1267 13.9656 17.4225C14.0097 17.2765 14.0714 17.1369 14.1494 17.0067C14.5537 16.3781 14.8826 15.7236 15.8286 15.7575C16.6759 15.7873 17.9566 14.9618 18.1713 13.8935C18.2642 13.4141 18.5777 13.0759 18.9587 12.7695C19.4155 12.406 19.8349 11.9954 20.2103 11.5442C20.3652 11.3591 20.3438 11.0249 20.4155 10.7603C20.4541 10.6191 20.483 10.4142 20.5818 10.3625C21.3752 9.90743 22.0604 9.27695 22.588 8.51648C22.6353 8.47424 22.6923 8.44525 22.7537 8.43238C22.8149 8.41947 22.8785 8.42311 22.9381 8.44287C23.2592 8.66166 23.2767 9.16299 23.0677 9.49515C22.9335 9.69981 22.866 9.94283 22.8743 10.1894C22.9361 10.9155 23.0504 11.6376 23.1625 12.3597C23.1883 12.5574 23.2671 12.7437 23.3896 12.8982C23.5122 13.0527 23.6741 13.1693 23.857 13.235C23.9935 13.2803 24.1123 13.3696 24.1957 13.4897C24.4168 13.9035 24.6107 14.3322 24.7759 14.7728C24.7875 14.8026 24.7953 14.8364 24.8049 14.8662L24.9076 15.0095C24.9231 15.0309 24.94 15.0515 24.9577 15.0711L25.306 15.4551C25.3237 15.474 25.3424 15.4919 25.3621 15.5088L25.8013 15.9066C25.8232 15.9257 25.844 15.9463 25.8631 15.9683L26.1881 16.3324C26.2577 16.4101 26.3428 16.4712 26.4377 16.5114L27.1166 16.7998C27.1502 16.8132 27.1846 16.8245 27.2193 16.8336L28.1478 17.0624C28.2112 17.0774 28.2763 17.0841 28.3413 17.0823L28.8849 17.0604C28.9735 17.0567 29.0606 17.0365 29.1423 17.0008L29.7748 16.7123C29.8533 16.6759 29.9246 16.6254 29.9857 16.5631L31.4367 15.0711L31.4734 15.0314L32.1176 14.2576C32.1348 14.2365 32.1509 14.2146 32.166 14.1919L32.6205 13.4956C32.6205 13.3544 32.6303 13.2131 32.6341 13.0719C32.6528 12.9845 32.6912 12.903 32.7464 12.8339C32.8014 12.7647 32.8717 12.71 32.9514 12.674C33.2752 12.5853 33.5663 12.3994 33.787 12.1401C34.0078 11.8808 34.1487 11.5598 34.1914 11.2179C34.2921 10.5853 34.441 9.94477 34.1914 9.32608C34.0935 9.08379 33.9217 8.88064 33.7021 8.74721C33.377 8.57013 33.3287 8.37717 33.5241 8.1007C33.6633 7.90177 33.6343 5.60017 33.7698 4.97353L33.8278 4.94769C33.889 4.91953 33.9389 4.87054 33.9694 4.80897C33.9996 4.74737 34.0083 4.67694 33.9942 4.6095L33.9554 4.41058C33.9419 4.36047 33.9419 4.30751 33.9554 4.25738L34.0368 3.98884C34.0442 3.96979 34.0487 3.94965 34.0501 3.92915L34.1217 3.18119C34.1275 3.14763 34.1275 3.11329 34.1217 3.07973C34.0831 2.92258 33.9708 2.4372 33.9612 2.38546C33.8308 2.15715 33.6887 1.93603 33.5357 1.72304C33.5041 1.67822 33.4614 1.64313 33.4118 1.62159L33.2493 1.54798C33.2203 1.53532 33.1935 1.51785 33.17 1.49626L32.6497 1.01684C32.6102 0.980911 32.562 0.956827 32.5102 0.947218L30.8814 0.618978L30.1075 0.459851C30.0943 0.457067 30.0815 0.45306 30.0688 0.447904L29.6162 0.284792C29.6019 0.27901 29.5869 0.274991 29.5717 0.272845L28.4845 0.073917H28.4477L27.2211 0.00230555C27.1936 -0.000768517 27.1657 -0.000768517 27.138 0.00230555L26.0179 0.270855C25.9918 0.277839 25.9665 0.287854 25.9424 0.300698L24.7933 0.961129C24.7562 0.983188 24.7239 1.01302 24.6986 1.04867L24.3465 1.54998C24.338 1.56279 24.3302 1.57606 24.3233 1.58975L24.064 2.11692L24.033 2.16466L23.4913 2.88479C23.485 2.89291 23.4792 2.90157 23.474 2.91065L22.6248 4.33896C22.6154 4.35646 22.6036 4.37253 22.5898 4.3867C22.4388 4.54451 22.2997 4.7141 22.174 4.89394C22.174 4.95561 21.8683 5.34152 21.8373 5.41712C21.8063 5.49272 21.6341 6.27057 21.6245 6.33025C21.5744 6.50655 21.5349 6.68596 21.5065 6.86736C21.4581 7.20948 21.404 7.44623 21.524 7.44424C21.7796 7.36835 22.0277 7.26779 22.2649 7.14388C22.3694 7.34276 22.3268 7.4641 22.1023 7.6372C20.9088 8.55226 19.5603 9.1391 18.1675 9.62649C17.8293 9.74244 17.477 9.8094 17.1208 9.82542C16.9281 9.83557 16.7408 9.89447 16.5755 9.99682C16.4101 10.0992 16.2719 10.2418 16.1729 10.4123C16.1478 10.45 16.1342 10.4998 16.0994 10.5276C14.7568 11.6177 13.9133 13.3325 12.1258 13.8696C11.8937 13.9705 11.6681 14.0867 11.4507 14.2177C11.3395 14.29 11.2083 14.3229 11.0773 14.3113C10.6304 14.1581 10.4718 14.4943 10.2029 14.7389C9.68081 15.1756 9.13505 15.5815 8.56819 15.9544C8.51402 15.9922 8.39792 15.9544 8.31472 15.9245C7.92781 15.8132 7.7073 15.9644 7.57768 16.3602C7.54716 16.456 7.49825 16.5444 7.43373 16.6203C7.36925 16.6962 7.29054 16.7579 7.20238 16.8018C5.99714 17.1997 5.14204 18.1744 4.05677 18.7671C4.00407 18.7945 3.95751 18.8328 3.92018 18.8798C3.88285 18.9268 3.85554 18.9812 3.84008 19.0398C3.78785 19.7638 3.24427 20.106 2.76449 20.4541C1.88156 21.0804 1.20642 21.9697 0.829934 23.0024C0.615198 23.5753 0.249532 24.0965 0.0715519 24.6773C-0.0403619 25.1239 -0.0206268 25.5946 0.128181 26.0295C0.276989 26.4645 0.548166 26.8441 0.907297 27.1203C2.18209 28.0153 3.62549 28.6254 5.144 28.9106C7.01086 29.2726 8.87963 29.5571 10.7813 29.4616C12.2032 29.388 13.5787 29.6745 14.96 29.9213C15.1855 29.9843 15.3834 30.1248 15.521 30.319C15.9079 30.8641 16.2948 31.4251 16.6276 32H27.2773L27.9814 21.7432ZM23.6772 11.0011L24.0853 10.649V10.5455L23.8474 10.086L23.7235 9.46534L23.5689 8.79693V8.43292L23.6384 8.16237L23.8474 7.93159L24.1395 7.8202L24.449 7.84409L25.1763 8.0032L26.2675 8.09672L27.0819 8.12454L27.9932 7.26522L28.8985 6.61667L29.4092 6.15914L29.8832 6.09946L29.829 6.15914L29.3105 6.70023L28.1053 7.74858L27.316 8.5443L27.3314 8.78897L27.2773 9.00382L27.1612 9.38576L26.9078 9.82343L26.5596 10.1477L26.134 10.4421L25.7857 10.641L25.3698 10.8161L24.8978 10.9195L24.7044 10.9434L24.5264 10.9275L24.1937 10.7524L23.8977 11.2L23.6094 11.6317C23.5718 11.555 23.5297 11.4806 23.4836 11.4088C23.4739 11.395 23.4623 11.383 23.4546 11.3691C23.447 11.3551 23.4276 11.3273 23.416 11.3054L23.6772 11.0011Z" fill="#5C4A04"/></svg>