<svg width="30" height="44" viewBox="0 0 30 44" fill="none" xmlns="http://www.w3.org/2000/svg"><path d="M6.96087 42.3168L8.44503 33.023H10.5838L12.0679 42.3168H10.5967L10.344 40.6317H8.54873L8.29597 42.3168H6.96087ZM8.73668 39.3679H10.1431L9.44311 34.6691L8.73668 39.3679ZM12.7484 42.3168V33.023H15.0557C15.7773 33.023 16.3195 33.2195 16.6824 33.6127C17.0497 34.0059 17.2333 34.5762 17.2333 35.3237V40.0225C17.2333 40.77 17.0497 41.3403 16.6824 41.7335C16.3195 42.1223 15.7773 42.3168 15.0557 42.3168H12.7484ZM14.2067 40.9882H15.0298C15.2717 40.9882 15.4554 40.919 15.5807 40.7808C15.7103 40.6382 15.7751 40.407 15.7751 40.0873V35.2524C15.7751 34.9327 15.7103 34.7037 15.5807 34.5654C15.4554 34.4229 15.2717 34.3516 15.0298 34.3516H14.2067V40.9882ZM17.9398 40.0873V39.517H19.3202V40.178C19.3202 40.7829 19.573 41.0854 20.0785 41.0854C20.584 41.0854 20.8368 40.7829 20.8368 40.178C20.8368 39.9188 20.7828 39.6747 20.6748 39.4457C20.5711 39.2167 20.435 39.0114 20.2665 38.83C20.1023 38.6442 19.9186 38.4606 19.7156 38.2791C19.5125 38.0933 19.3073 37.901 19.0999 37.7023C18.8968 37.4992 18.711 37.2853 18.5425 37.0606C18.3783 36.836 18.2422 36.5681 18.1342 36.257C18.0305 35.9459 17.9786 35.6111 17.9786 35.2524C17.9786 34.505 18.1601 33.9303 18.5231 33.5285C18.8903 33.1223 19.4261 32.9193 20.1304 32.9193C20.8346 32.9193 21.3682 33.1223 21.7312 33.5285C22.0984 33.9303 22.2821 34.505 22.2821 35.2524V35.5506H20.9016V35.1617C20.9016 34.5525 20.6575 34.2479 20.1692 34.2479C19.9273 34.2479 19.7458 34.3213 19.6248 34.4682C19.5039 34.6108 19.4434 34.842 19.4434 35.1617C19.4434 35.4209 19.4952 35.6651 19.5989 35.8941C19.7069 36.1231 19.843 36.3304 20.0072 36.5162C20.1757 36.6977 20.3615 36.8813 20.5646 37.0671C20.7677 37.2486 20.9707 37.4409 21.1738 37.6439C21.3769 37.8427 21.5605 38.0544 21.7247 38.2791C21.8932 38.5038 22.0293 38.7716 22.133 39.0827C22.241 39.3938 22.295 39.7287 22.295 40.0873C22.295 40.8348 22.1092 41.4116 21.7377 41.8177C21.3661 42.2196 20.826 42.4205 20.1174 42.4205C19.4088 42.4205 18.8687 42.2196 18.4971 41.8177C18.1255 41.4116 17.9398 40.8348 17.9398 40.0873Z" fill="#5C4A04"/><path d="M28.9346 12.1139C24.2586 12.1116 19.5826 12.1128 14.9066 12.1133C14.9072 14.0528 14.9043 15.9923 14.9078 17.9311C17.6158 17.9305 20.3238 17.93 23.0312 17.9311C22.7174 19.7896 21.6129 21.4892 20.0466 22.5355C19.062 23.1975 17.9308 23.6272 16.7645 23.8315C15.5908 24.0319 14.3779 24.0575 13.2071 23.8205C12.0164 23.5829 10.8798 23.0868 9.88829 22.3875C8.30286 21.2737 7.09292 19.644 6.47167 17.8099C5.83644 15.9445 5.83177 13.8687 6.47458 12.005C6.92059 10.6914 7.66296 9.47804 8.63817 8.49059C9.84109 7.25913 11.405 6.3788 13.09 6.0178C14.5328 5.70981 16.0542 5.76859 17.4667 6.19594C18.6673 6.56045 19.7742 7.21835 20.6807 8.08414C21.5972 7.17291 22.5089 6.25647 23.4237 5.34354C23.9035 4.85215 24.4077 4.38226 24.8723 3.87748C23.4831 2.59185 21.8546 1.55841 20.0752 0.905116C16.8717 -0.273867 13.2589 -0.298891 10.0338 0.817319C6.39945 2.06156 3.30482 4.77944 1.589 8.21471C0.991627 9.39842 0.555491 10.6619 0.293495 11.9614C-0.365616 15.1992 0.0937866 18.6514 1.58724 21.6005C2.55785 23.5253 3.94939 25.2365 5.63733 26.578C7.22979 27.8479 9.08594 28.7859 11.0539 29.3093C13.5372 29.9754 16.1806 29.9603 18.6802 29.3915C20.9393 28.8715 23.0767 27.792 24.7832 26.2165C26.587 24.5588 27.8738 22.3748 28.555 20.0278C29.2979 17.4677 29.4004 14.7346 28.9346 12.1139Z" fill="#5C4A04"/></svg>