<svg width="42" height="42" viewBox="0 0 42 42" fill="none" xmlns="http://www.w3.org/2000/svg"><path d="M37.5745 13.7001L20.5328 2.33896C20.3236 2.19951 20.0513 2.19951 19.8422 2.33896L2.80042 13.7001C2.62736 13.8155 2.52319 14.0101 2.52319 14.2181C2.52319 14.426 2.62694 14.6206 2.80042 14.736L5.3888 16.4616V25.5556C5.3888 25.7677 5.4967 25.9652 5.67516 26.0797L19.9509 35.2318C20.0534 35.2974 20.17 35.3302 20.2871 35.3302C20.4095 35.3302 20.5323 35.2941 20.6378 35.2219L28.0858 30.1406V33.6839L25.3111 39.2333C25.2148 39.4263 25.2252 39.6558 25.3381 39.8392C25.4514 40.0222 25.6523 40.1343 25.8676 40.1343H31.5486C31.7645 40.1343 31.9649 40.0222 32.0782 39.8392C32.1911 39.6558 32.2019 39.4263 32.1052 39.2333L29.3304 33.6839V29.291L34.052 26.0698C34.2217 25.954 34.3234 25.7614 34.3234 25.5556V16.9031L37.5741 14.736C37.7472 14.6206 37.8513 14.426 37.8513 14.2181C37.8513 14.0101 37.7476 13.8155 37.5745 13.7001ZM26.8753 38.8893L28.7084 35.2231L30.5414 38.8893H26.8753ZM20.2763 33.9615L6.63382 25.2153V17.2916L19.8422 26.0976C19.9468 26.1673 20.0671 26.2022 20.1875 26.2022C20.3078 26.2022 20.4282 26.1673 20.5328 26.0976L28.0858 21.0619V28.6333L20.2763 33.9615ZM33.0788 25.2269L29.3309 27.7842V20.2319L33.0788 17.7332V25.2269ZM33.4851 15.9661C33.3933 16.0001 33.3124 16.0545 33.2468 16.125L28.7084 19.1508L20.5328 13.7001C20.246 13.5092 19.86 13.5868 19.6695 13.8728C19.4791 14.1587 19.5562 14.5455 19.8422 14.736L27.5862 19.8987L20.1875 24.8314L4.26787 14.2181L20.1875 3.60514L36.1071 14.2181L33.4851 15.9661Z" fill="#5C4A04" stroke="#5C4A04"/></svg>