<svg width="40" height="42" viewBox="0 0 40 42" fill="none" xmlns="http://www.w3.org/2000/svg"><path d="M0.211151 2.31329C0.475735 1.25043 1.30341 0.284812 2.40697 0.0654562C3.76155 -0.203651 5.13197 0.406928 6.14734 1.27757C8.30019 3.04599 9.32009 5.77776 11.3395 7.66377C12.2577 8.5231 13.524 9.09298 14.0509 10.3028C14.4512 11.3227 14.6593 12.4105 15.1161 13.41C18.0898 13.0979 21.1043 13.0957 24.078 13.4077C24.5348 12.4127 24.7451 11.3318 25.1409 10.3164C25.6949 9.03644 27.0585 8.46657 28.0038 7.53261C29.883 5.67826 30.9097 3.12061 32.9224 1.38385C33.9626 0.461202 35.376 -0.214957 36.7916 0.0631952C38.049 0.316472 38.9128 1.51502 39.0756 2.7407C39.3108 4.36665 38.6708 5.93832 38.508 7.54166C38.1666 9.78949 38.5239 12.0486 38.8043 14.2806C39.2588 18.3399 37.1806 22.4941 33.7184 24.6379C33.3249 26.404 33.2503 28.4031 31.9907 29.8233C30.8645 31.1801 29.7406 32.5415 28.6641 33.939C30.2516 34.4388 31.8482 34.8979 33.438 35.3841C33.3136 35.7979 33.1892 36.214 33.0648 36.6301C31.3937 36.1281 29.718 35.6373 28.0536 35.1195C27.884 35.712 27.6827 36.2931 27.4498 36.863C28.6053 37.5166 29.7564 38.1769 30.9074 38.835C30.6949 39.2126 30.48 39.588 30.2652 39.9657C28.9875 39.2465 27.7257 38.5003 26.4412 37.7947C25.6225 38.1588 24.7474 38.3668 23.8587 38.4528C23.5918 39.6468 22.9247 40.8431 21.7216 41.2954C20.1432 41.8924 18.1825 41.872 16.7782 40.8544C15.9844 40.2936 15.6226 39.3551 15.3852 38.4505C14.4738 38.3827 13.5806 38.1746 12.7439 37.8015C11.4684 38.5116 10.2043 39.2465 8.93338 39.9657C8.71629 39.588 8.50146 39.2126 8.28889 38.835C9.43542 38.1814 10.5774 37.5256 11.7262 36.8743C11.4933 36.3022 11.2898 35.721 11.1179 35.1308C9.46029 35.6464 7.79364 36.1281 6.13377 36.6324C6.00713 36.2163 5.88049 35.8002 5.75611 35.3841C7.36849 34.9069 8.97635 34.4139 10.591 33.9458C9.50552 32.5415 8.37482 31.1756 7.21924 29.83C5.93703 28.4212 5.87597 26.404 5.4757 24.6356C2.68287 22.883 0.731273 19.8482 0.40337 16.5556C0.134263 14.5045 0.74258 12.4851 0.810422 10.443C0.869219 8.95729 0.738058 7.46703 0.432768 6.01295C0.188537 4.8031 -0.12806 3.53897 0.211151 2.31329ZM2.01801 1.68462C1.16094 2.54169 1.3215 3.88723 1.54538 4.96818C1.96374 6.83384 2.21475 8.74698 2.10168 10.6624C2.03384 12.6276 1.43231 14.5746 1.71272 16.5488C1.95695 18.6813 2.97911 20.6759 4.46937 22.2069C4.85607 21.6686 5.24278 21.1304 5.62948 20.5922C4.98724 20.0517 4.34274 19.5135 3.7005 18.9731C3.98091 18.6384 4.26133 18.3059 4.544 17.9735C5.15232 18.4869 5.76064 19.0002 6.36895 19.5135C6.7941 18.9911 7.1921 18.4032 7.81399 18.0956C8.3816 17.7858 9.05098 17.8401 9.67739 17.822C9.62537 16.8202 9.6299 15.8161 9.69548 14.8166C9.14143 14.9523 8.4404 14.9003 8.06048 15.4023C7.84565 15.7325 7.70318 16.0988 7.53358 16.4538C7.13105 16.3046 6.72852 16.1576 6.32599 16.0129C6.6064 15.3412 6.84837 14.5814 7.48609 14.1563C8.20069 13.6067 9.13691 13.5909 9.99851 13.5502C10.2473 13.1499 10.496 12.7497 10.7448 12.3494C9.96232 11.2752 8.76604 10.6556 7.61725 10.0541C7.81173 9.66511 8.00395 9.27615 8.20069 8.88945C9.57336 9.62215 11.1292 10.3729 11.8732 11.818C12.3413 12.7112 11.4775 13.4326 11.1925 14.2105C10.7945 15.4814 10.9754 16.8292 10.9867 18.1363C11.0388 18.6022 10.738 19.059 10.2948 19.206C9.77689 19.2512 9.26129 19.1427 8.74569 19.1585C8.25723 19.2037 7.94968 19.6402 7.67152 19.9929C6.93657 21.0128 6.19709 22.0305 5.46665 23.0549C5.86918 23.324 6.26945 23.5886 6.67424 23.8509C6.90717 25.2484 7.15592 26.6483 7.54714 28.0119C8.52407 28.5637 9.64799 28.7265 10.7561 28.6134C10.7945 29.0453 10.833 29.4773 10.8737 29.9092C10.2427 29.925 9.61181 29.9318 8.98314 29.9228C9.81081 30.8612 10.6 31.8337 11.3644 32.8287C11.5679 32.2317 11.7873 31.6392 12.0179 31.0535C12.4137 31.2208 12.8117 31.3927 13.2052 31.5645C12.9858 32.148 12.7755 32.736 12.5765 33.3284C12.8908 33.238 13.2052 33.1498 13.5195 33.0616C13.6439 33.4754 13.7683 33.887 13.8926 34.3031C13.3861 34.4546 12.8818 34.6107 12.3798 34.7735C12.5358 35.2529 12.6873 35.7323 12.832 36.2163C13.2165 36.0082 13.5987 35.8002 13.9808 35.5898C14.1912 35.9585 14.4015 36.3271 14.6118 36.6957C14.5123 36.7771 14.3155 36.9376 14.216 37.0191C14.9193 37.0643 15.6565 37.2316 16.3395 36.9783C17.2667 36.6324 17.9654 35.9064 18.6665 35.2393C17.6805 34.2511 16.2716 33.2516 16.3553 31.6912C16.3531 30.2461 16.3621 28.7989 16.3621 27.3516C16.794 27.3516 17.2282 27.3516 17.6647 27.3516C17.6647 28.5908 17.6647 29.8278 17.6579 31.067C18.9152 30.5175 20.3263 30.5175 21.5814 31.067C21.5746 29.83 21.5746 28.5908 21.5792 27.3538C22.0133 27.3516 22.4475 27.3493 22.8817 27.347C22.8501 29.0092 22.9315 30.6736 22.8523 32.3312C22.5063 33.5772 21.4141 34.4071 20.5321 35.2778C21.197 35.8997 21.8551 36.5758 22.7121 36.9309C23.3566 37.209 24.0735 37.0801 24.7519 37.0688C24.727 36.9399 24.6728 36.6866 24.6456 36.5577C24.8378 36.2343 25.0278 35.9132 25.22 35.5898C25.5909 35.7956 25.964 35.9992 26.3372 36.2004C26.4819 35.7187 26.6311 35.2371 26.7849 34.7599C26.2897 34.5993 25.7944 34.4478 25.2969 34.2986C25.4213 33.8847 25.5479 33.4709 25.6746 33.0593C25.9798 33.143 26.2851 33.2289 26.5904 33.3149C26.3892 32.7292 26.1789 32.148 25.955 31.5691C26.353 31.3972 26.751 31.2231 27.149 31.0489C27.391 31.6595 27.6148 32.2791 27.8229 32.901C28.6053 31.8879 29.4036 30.8861 30.2426 29.9182C29.6026 29.9296 28.9604 29.925 28.3204 29.9069C28.3588 29.4727 28.3996 29.0408 28.438 28.6089C29.5461 28.7197 30.6723 28.5637 31.6447 28.0028C32.0359 26.6415 32.2892 25.2462 32.5198 23.8464C32.9224 23.5863 33.3249 23.3195 33.7252 23.0526C32.8568 21.8722 32.0517 20.6374 31.1178 19.509C30.6655 18.9595 29.917 19.206 29.3132 19.2128C28.784 19.3304 28.239 18.8781 28.2164 18.3489C28.1779 16.9762 28.4244 15.5606 28.0038 14.2241C27.7211 13.4417 26.8528 12.7135 27.3186 11.8202C28.0626 10.3707 29.6162 9.61763 30.9934 8.88945C31.1879 9.27615 31.3846 9.66285 31.5791 10.0518C30.4303 10.6556 29.225 11.2707 28.4493 12.3539C28.6981 12.7542 28.9468 13.1545 29.1956 13.5547C30.0572 13.5909 30.9934 13.6067 31.7102 14.154C32.3457 14.5837 32.5899 15.348 32.8703 16.0219C32.4656 16.1667 32.0608 16.3069 31.656 16.4448C31.4072 15.9812 31.2851 15.3661 30.7785 15.1015C30.3738 14.9297 29.926 14.9003 29.4986 14.8166C29.5664 15.8161 29.571 16.8202 29.5144 17.822C30.1363 17.8378 30.8034 17.7813 31.3733 18.0888C31.9952 18.3941 32.3932 18.9798 32.8183 19.5022C33.4221 18.9911 34.0282 18.4823 34.6342 17.9735C34.9147 18.3059 35.1951 18.6384 35.4755 18.9708C34.8378 19.5067 34.1978 20.0382 33.5601 20.5741C33.9468 21.1191 34.3335 21.6619 34.7247 22.2046C36.8233 20.097 37.8861 17.0192 37.4746 14.0658C37.1919 12.0486 36.916 10.0066 37.1467 7.9668C37.2552 6.5082 37.7165 5.1016 37.8251 3.64526C37.8726 2.74748 37.5424 1.60547 36.5655 1.34767C35.5772 1.17128 34.5754 1.64844 33.8518 2.29972C31.8075 4.08623 30.7853 6.72529 28.8021 8.56833C28.1802 9.16534 27.4294 9.60632 26.803 10.1965C26.2241 10.7212 26.1088 11.5308 25.8917 12.2409C25.6519 13.1726 25.2065 14.0274 24.7474 14.8641C24.1255 14.7578 23.5059 14.6583 22.884 14.5656C22.8795 15.3299 22.8795 16.0943 22.8795 16.8586C22.4453 16.8586 22.0133 16.8586 21.5792 16.8586C21.5769 16.0762 21.5746 15.2937 21.5746 14.5136C21.1404 14.5068 20.7063 14.4977 20.2721 14.491C20.2721 17.4511 20.2721 20.4113 20.2721 23.3715C19.8379 23.3715 19.4037 23.3715 18.9695 23.3715C18.9695 20.409 18.9695 17.4489 18.9695 14.4887C18.5353 14.5 18.1011 14.509 17.6669 14.5203C17.6624 15.2983 17.6624 16.0785 17.6624 16.8586C17.226 16.8564 16.7918 16.8586 16.3598 16.8586C16.3576 16.0943 16.3598 15.3299 16.3553 14.5656C15.7176 14.6583 15.0821 14.7601 14.449 14.8686C14.017 14.0884 13.5919 13.2947 13.3567 12.4308C13.1192 11.7072 13.0333 10.884 12.4951 10.3028C11.9705 9.76009 11.3169 9.36887 10.7425 8.88267C8.36577 6.90168 7.3391 3.72441 4.81537 1.88589C4.01031 1.3929 2.82759 0.981325 2.01801 1.68462ZM17.789 32.4465C18.3499 33.1272 18.9695 33.7536 19.623 34.3416C20.2789 33.7491 20.9007 33.1204 21.4593 32.4374C20.8578 32.2204 20.2562 31.9445 19.6072 31.9286C18.9672 31.949 18.3793 32.2271 17.789 32.4465ZM16.6719 38.2945C16.9071 38.9571 17.1672 39.7056 17.8659 40.0131C18.9469 40.5107 20.2698 40.4994 21.3575 40.0267C22.0541 39.7237 22.3299 38.9842 22.5787 38.3284C21.4299 37.8399 20.4394 37.0688 19.5846 36.1688C18.7479 37.0462 17.7845 37.7992 16.6719 38.2945Z" fill="#5C4A04"/><path d="M16.7549 18.0297C17.1393 18.2241 17.5238 18.4186 17.9082 18.6131C17.2863 20.0084 16.1556 21.0984 14.7807 21.7451C14.5839 21.3584 14.3872 20.9695 14.1927 20.5828C15.3234 20.0536 16.2348 19.1649 16.7549 18.0297Z" fill="#5C4A04"/><path d="M21.3365 18.6131C21.7209 18.4164 22.1054 18.2219 22.4921 18.0297C23.0077 19.1694 23.919 20.0581 25.0497 20.5828C24.853 20.9717 24.6562 21.3584 24.455 21.7451C23.0891 21.0893 21.9539 20.0084 21.3365 18.6131Z" fill="#5C4A04"/><path d="M10.2081 21.6908C11.4089 21.4285 12.8042 21.3109 13.8648 22.0572C14.8757 22.7537 15.6468 23.898 15.6988 25.1463C15.7486 25.9807 15.1289 26.7021 14.3736 26.978C13.4148 27.3398 12.3361 27.4642 11.332 27.2403C9.76941 26.7587 8.54147 25.1938 8.54147 23.5475C8.52337 22.5999 9.33296 21.8785 10.2081 21.6908ZM10.1312 23.1268C9.72644 23.3213 9.83047 23.8324 9.92997 24.1807C10.2669 25.1938 11.2144 26.13 12.3474 26.0463C13.0507 25.9807 13.9688 25.9898 14.3985 25.3294C14.4437 24.2485 13.607 23.4344 12.7861 22.8713C12.7726 23.6063 12.7703 24.3412 12.7703 25.0762C12.3361 25.0762 11.9019 25.0784 11.4677 25.0784C11.4677 24.3096 11.4677 23.5429 11.4655 22.7741C11.0177 22.8781 10.5473 22.9188 10.1312 23.1268Z" fill="#5C4A04"/><path d="M26.237 21.6389C27.3473 21.3811 28.5685 21.4602 29.6223 21.9125C30.4274 22.2563 30.8389 23.1857 30.6784 24.0269C30.4296 25.4968 29.308 26.8311 27.8675 27.254C26.8498 27.462 25.7621 27.3331 24.801 26.9487C24.0683 26.6637 23.4962 25.9514 23.5414 25.1395C23.6318 23.586 24.7693 22.1409 26.237 21.6389ZM27.7815 22.7741C27.7702 23.5407 27.7702 24.3096 27.7702 25.0762C27.3383 25.0762 26.9041 25.0762 26.4722 25.0762C26.4722 24.339 26.4699 23.6018 26.4496 22.8646C25.8797 23.301 25.2668 23.7623 25.0068 24.4589C24.853 24.8478 24.6766 25.4313 25.156 25.6642C25.8616 26.0305 26.7028 26.1029 27.483 25.9989C28.5594 25.7162 29.3826 24.6352 29.4052 23.5272C29.1791 22.8623 28.331 22.9505 27.7815 22.7741Z" fill="#5C4A04"/><path d="M17.6436 24.7458C18.9462 24.7458 20.2488 24.7458 21.5513 24.7435C21.5513 25.18 21.5513 25.6164 21.5513 26.0551C20.2488 26.0597 18.9462 26.0597 17.6436 26.0551C17.6436 25.6187 17.6436 25.1822 17.6436 24.7458Z" fill="#5C4A04"/></svg>