<svg width="43" height="43" viewBox="0 0 43 43" fill="none" xmlns="http://www.w3.org/2000/svg"><path d="M29.1258 12.6104L41.5586 14.5292C41.7771 14.5578 41.983 14.6475 42.1527 14.788C42.3223 14.9286 42.4488 15.1142 42.5176 15.3235C42.5864 15.5328 42.5946 15.7573 42.5414 15.9711C42.4881 16.1848 42.3756 16.3792 42.2167 16.5318L33.6528 26.6277L36.2012 41.2115C36.2299 41.381 36.2083 41.5552 36.1391 41.7126C36.0699 41.8699 35.9561 42.0036 35.8118 42.097C35.6675 42.1905 35.499 42.2396 35.3271 42.2383C35.1552 42.2371 34.9875 42.1855 34.8446 42.0899C32.8119 40.7333 29.4751 38.7007 27.9761 35.896C25.9253 31.7307 24.6585 27.2236 24.2391 22.5998H27.4484C27.584 22.6 27.7166 22.5598 27.8291 22.4843C27.9417 22.4088 28.0293 22.3014 28.0806 22.176C28.1319 22.0505 28.1447 21.9126 28.1173 21.7798C28.0898 21.647 28.0235 21.5255 27.9266 21.4306L21.6713 15.3131C21.5437 15.1877 21.372 15.1174 21.1931 15.1174C21.0142 15.1174 20.8425 15.1877 20.7149 15.3131L14.5195 21.4276C14.4231 21.5226 14.3572 21.6442 14.3301 21.7769C14.303 21.9095 14.316 22.0472 14.3675 22.1724C14.4189 22.2977 14.5065 22.4047 14.6189 22.4801C14.7314 22.5554 14.8638 22.5955 14.9992 22.5953H18.2175C17.7824 27.2821 16.5064 31.8522 14.4505 36.0864C12.989 38.8326 9.70167 40.7963 7.6915 42.1139C7.54841 42.2074 7.38119 42.2571 7.21028 42.2571C7.03936 42.2571 6.87216 42.2073 6.72907 42.1138C6.58599 42.0204 6.47322 41.8872 6.40455 41.7307C6.33588 41.5742 6.31429 41.4011 6.3424 41.2325L8.86224 26.6232L0.358355 16.5198C0.199961 16.3674 0.0877811 16.1733 0.0346558 15.96C-0.0184694 15.7467 -0.0103865 15.5227 0.0580092 15.3137C0.126405 15.1048 0.252332 14.9194 0.421325 14.7787C0.590318 14.6381 0.795547 14.548 1.01344 14.5187L13.3398 12.6029L20.4076 0.495443C20.4797 0.346917 20.5922 0.221689 20.7322 0.134076C20.8722 0.0464624 21.0339 0 21.1991 0C21.3642 0 21.526 0.0464624 21.666 0.134076C21.8059 0.221689 21.9184 0.346917 21.9905 0.495443L29.1258 12.6104Z" fill="#5C4A04"/></svg>