<svg width="35" height="39" viewBox="0 0 35 39" fill="none" xmlns="http://www.w3.org/2000/svg"><path d="M0.850733 17.3701C0.573791 19.8474 0.663542 22.6233 2.03071 24.9276C2.8923 26.4386 4.62116 27.2844 6.30858 27.1995C8.23315 27.111 10.0968 26.6199 11.8777 26.067C14.9834 25.1271 18.321 24.9552 21.4993 25.6116L21.4993 25.6117L21.5065 25.6131C22.3136 25.7674 23.1035 25.9999 23.921 26.2406C23.9889 26.2606 24.057 26.2806 24.1253 26.3007C25.0033 26.5585 25.9133 26.8177 26.8578 26.9644C28.3822 27.266 30.2351 27.3896 31.7457 26.4125C33.4607 25.352 34.1731 23.29 34.13 21.4593L34.13 21.4574C34.0093 17.0268 33.1775 12.4663 30.9276 8.52147C29.5415 5.98812 27.5739 3.64525 24.9526 2.22588C21.9395 0.546051 18.3844 0.254365 15.0857 0.667117C11.6226 0.914735 8.5021 2.79247 6.27626 5.31685L6.27623 5.31688C3.31899 8.67133 1.42293 12.9382 0.851755 17.3616L0.851683 17.3616L0.850733 17.3701Z" stroke="#5C4A04"/><path d="M12.4966 9.97442C13.0702 9.73131 13.8017 9.87633 14.1792 10.3903C14.7806 11.1708 14.7699 12.2307 14.6505 13.1647C14.3732 14.8366 13.5671 16.5192 12.1341 17.4959C11.5071 17.9374 10.4941 18.0099 9.99937 17.336C9.23805 16.3635 9.3724 15.0094 9.63044 13.877C10.0676 12.3117 10.9462 10.6654 12.4966 9.97442Z" fill="#5C4A04"/><path d="M21.0716 10.0406C21.786 9.61411 22.6411 10.0172 23.2191 10.4927C24.3813 11.5035 25.068 12.975 25.3324 14.4742C25.4732 15.4872 25.486 16.6835 24.731 17.4747C24.0785 18.1059 23.025 17.818 22.4044 17.2849C21.0119 16.1312 20.2676 14.3206 20.1247 12.5464C20.0906 11.6507 20.2569 10.561 21.0716 10.0406Z" fill="#5C4A04"/><path d="M29.4823 31.6114C31.0967 31.605 32.711 31.605 34.3253 31.6114C34.3275 31.8097 34.3275 32.2042 34.3296 32.4004C32.9136 34.1043 31.568 35.8637 30.12 37.5399C31.5701 37.5526 33.0202 37.5292 34.4725 37.5526C34.4405 37.8192 34.4106 38.0879 34.3808 38.3545C32.6342 38.346 30.8855 38.3396 29.1368 38.3566C29.1432 37.9365 29.043 37.4524 29.4013 37.1432C30.6872 35.5758 31.9049 33.955 33.2271 32.4175C31.9817 32.3983 30.7363 32.4068 29.4909 32.4132C29.4887 32.2127 29.4845 31.8118 29.4823 31.6114Z" fill="#5C4A04"/><path d="M1 31.607C1.30069 31.607 1.60138 31.6092 1.90207 31.6092C1.89567 32.7181 1.89141 33.8292 1.89994 34.9381C3.01952 33.8441 4.11565 32.7266 5.22031 31.6198C5.62123 31.6092 6.02429 31.6049 6.42734 31.6028C5.49755 32.5155 4.57415 33.4325 3.62517 34.3239C4.58268 35.6823 5.63403 36.9725 6.54036 38.3672C6.13731 38.3395 5.73853 38.3097 5.33974 38.2798C4.57629 37.1517 3.79364 36.0406 2.99607 34.936C2.6378 35.2814 2.2774 35.6269 1.90633 35.9596C1.89141 36.7614 1.8978 37.5633 1.89354 38.3651C1.59925 38.3566 1.30709 38.3502 1.01279 38.3416C0.995734 36.0982 1.0128 33.8526 1 31.607Z" fill="#5C4A04"/><path d="M6.6555 31.605C7.10547 31.6071 7.55543 31.6092 8.0054 31.6114C8.63237 33.5285 9.28067 35.4372 9.92043 37.3501C10.5474 35.4329 11.2341 33.5349 11.8632 31.6156C12.2641 31.6114 12.6672 31.6071 13.0702 31.6071C13.0681 33.842 13.0659 36.0769 13.0723 38.3118C12.7866 38.3055 12.5008 38.3012 12.2151 38.2948C12.2151 36.4288 12.2449 34.5628 12.1937 32.699C11.5668 34.6119 10.9142 36.5205 10.2147 38.4099C10.0228 38.3673 9.64107 38.2863 9.44914 38.2457C8.77099 36.4181 8.21226 34.5436 7.53624 32.7139C7.47226 34.5948 7.54051 36.4757 7.49785 38.3566C7.2846 38.3545 6.85596 38.3524 6.6427 38.3502C6.66189 36.1025 6.63844 33.8527 6.6555 31.605Z" fill="#5C4A04"/><path d="M13.4285 38.3523C14.2688 36.0982 15.1452 33.8548 16.0089 31.6071C16.3309 31.6071 16.6529 31.6092 16.9771 31.6092C17.8685 33.8612 18.826 36.0854 19.711 38.3374C19.4722 38.3438 18.9923 38.3587 18.7535 38.3672C18.4443 37.6891 18.1862 36.9896 17.9175 36.2944C16.9814 36.3029 16.0452 36.3008 15.109 36.2944C14.8573 36.9875 14.6206 37.687 14.3178 38.3587C14.096 38.3587 13.6503 38.3544 13.4285 38.3523ZM16.4845 32.3151C16.2008 33.4346 15.7594 34.5031 15.3606 35.5864C16.1262 35.5843 16.8897 35.5843 17.6531 35.5885C17.2479 34.5031 16.8108 33.4283 16.4845 32.3151Z" fill="#5C4A04"/><path d="M21.6069 31.6071C22.8608 31.6817 24.1723 31.4173 25.3857 31.8182C26.6141 32.2874 26.6994 34.1662 25.4988 34.7377C25.8314 34.9445 26.2217 35.1151 26.4371 35.4627C27.0512 36.4011 26.5522 37.8555 25.4604 38.1711C24.2235 38.4739 22.9376 38.2905 21.6794 38.3651C21.5258 36.1153 21.6495 33.8591 21.6069 31.6071ZM22.5217 32.4153C22.5153 33.0849 22.5132 33.7567 22.526 34.4285C23.3044 34.4157 24.0934 34.4839 24.8654 34.3474C25.6843 34.1107 25.7184 32.8333 24.9507 32.5134C24.1552 32.33 23.3278 32.426 22.5217 32.4153ZM22.5196 35.226C22.5196 36.0001 22.5196 36.7721 22.5196 37.5462C23.3513 37.5057 24.2064 37.6337 25.0253 37.4524C26.0127 37.2178 26.0362 35.612 25.0637 35.3433C24.2363 35.1279 23.3662 35.2623 22.5196 35.226Z" fill="#5C4A04"/><path d="M27.8382 31.6071C28.1346 31.6071 28.431 31.6071 28.7274 31.6071C28.7232 33.8548 28.7296 36.1025 28.7189 38.3502C28.431 38.3544 28.1431 38.3587 27.8552 38.3651C27.8168 36.1131 27.851 33.8612 27.8382 31.6071Z" fill="#5C4A04"/><path d="M20.2271 37.3862C20.5448 37.3884 20.8626 37.3905 21.1803 37.3905C21.1696 37.7125 21.159 38.0367 21.1462 38.3587C20.8455 38.3523 20.5469 38.3501 20.2462 38.348C20.2377 38.026 20.2313 37.7061 20.2271 37.3862Z" fill="#5C4A04"/></svg>