<svg width="45" height="45" viewBox="0 0 45 45" fill="none" xmlns="http://www.w3.org/2000/svg"><path d="M36.5281 9.96078H8.8832C7.65137 9.96078 6.46998 10.4501 5.59894 11.3212C4.7279 12.1922 4.23856 13.3736 4.23856 14.6054V30.806C4.23856 32.0378 4.7279 33.2192 5.59894 34.0902C6.46998 34.9613 7.65137 35.4506 8.8832 35.4506H36.5281C37.1381 35.4506 37.7421 35.3305 38.3056 35.0971C38.8691 34.8636 39.3811 34.5215 39.8124 34.0902C40.2437 33.6589 40.5858 33.1469 40.8192 32.5834C41.0526 32.0199 41.1728 31.4159 41.1728 30.806V14.6054C41.1728 13.9955 41.0526 13.3915 40.8192 12.828C40.5858 12.2645 40.2437 11.7525 39.8124 11.3212C39.3811 10.8899 38.8691 10.5478 38.3056 10.3143C37.7421 10.0809 37.1381 9.96078 36.5281 9.96078ZM6.09641 14.6054C6.09641 13.8663 6.39002 13.1575 6.91265 12.6349C7.43527 12.1123 8.1441 11.8186 8.8832 11.8186H36.5281C37.2672 11.8186 37.9761 12.1123 38.4987 12.6349C39.0213 13.1575 39.3149 13.8663 39.3149 14.6054V15.5344H6.09641V14.6054ZM39.3149 30.806C39.3149 31.5451 39.0213 32.2539 38.4987 32.7765C37.9761 33.2991 37.2672 33.5928 36.5281 33.5928H8.8832C8.1441 33.5928 7.43527 33.2991 6.91265 32.7765C6.39002 32.2539 6.09641 31.5451 6.09641 30.806V18.3211H39.3149V30.806Z" fill="#5C4A04"/><path d="M15.3913 26.8803H9.81772C9.57136 26.8803 9.33508 26.7824 9.16087 26.6082C8.98666 26.434 8.88879 26.1977 8.88879 25.9514C8.88879 25.705 8.98666 25.4687 9.16087 25.2945C9.33508 25.1203 9.57136 25.0224 9.81772 25.0224H15.3913C15.6377 25.0224 15.8739 25.1203 16.0482 25.2945C16.2224 25.4687 16.3202 25.705 16.3202 25.9514C16.3202 26.1977 16.2224 26.434 16.0482 26.6082C15.8739 26.7824 15.6377 26.8803 15.3913 26.8803Z" fill="#5C4A04"/><path d="M35.5881 26.8859H23.512C23.2656 26.8859 23.0294 26.788 22.8551 26.6138C22.6809 26.4396 22.5831 26.2033 22.5831 25.957C22.5831 25.7106 22.6809 25.4743 22.8551 25.3001C23.0294 25.1259 23.2656 25.028 23.512 25.028H35.5881C35.8344 25.028 36.0707 25.1259 36.2449 25.3001C36.4191 25.4743 36.517 25.7106 36.517 25.957C36.517 26.2033 36.4191 26.4396 36.2449 26.6138C36.0707 26.788 35.8344 26.8859 35.5881 26.8859Z" fill="#5C4A04"/></svg>