<svg width="46" height="12" viewBox="0 0 46 12" fill="none" xmlns="http://www.w3.org/2000/svg"><path d="M9.24965 1.58848C9.31909 1.7021 9.60314 2.1629 9.88088 2.61739L10.3796 3.43799H10.9729H11.5663L11.5852 2.40908L11.5978 1.38648H10.3606H9.12341L9.24965 1.58848Z" fill="#5C4A04"/><path d="M35.0165 1.43032C35.0165 1.53763 37.0049 4.97785 37.0491 4.93366C37.0933 4.88947 38.6777 2.13099 38.6777 2.09943C38.6777 2.09311 38.7661 1.94793 38.8671 1.78381C38.9744 1.61969 39.0564 1.46188 39.0564 1.43663C39.0564 1.41138 38.1474 1.38613 37.0365 1.38613C35.9255 1.38613 35.0165 1.40507 35.0165 1.43032Z" fill="#5C4A04"/><path d="M39.6687 2.31414C39.9654 2.83175 40.4136 3.60186 40.6661 4.03741C40.9123 4.47296 41.4362 5.38193 41.8276 6.05735C42.2252 6.73277 42.7492 7.64174 42.9953 8.0773C43.2478 8.51285 43.494 8.92946 43.5382 9.00521C43.6329 9.15039 43.6581 9.15039 44.8133 9.15039H46V5.26831V1.38623H42.5598H39.1259L39.6687 2.31414Z" fill="#5C4A04"/><path d="M38.6587 6.29722C38.4252 6.70752 38.2358 7.06732 38.2358 7.09257C38.2358 7.11782 38.5009 7.59125 38.8229 8.14673L39.4036 9.15039H40.3063H41.2089L40.9627 8.68959C40.8239 8.44341 40.5777 8.00786 40.4136 7.73012C40.0033 7.03576 39.7571 6.61284 39.4288 6.04473C39.2773 5.7733 39.1385 5.55237 39.1195 5.55237C39.1006 5.55237 38.8923 5.88692 38.6587 6.29722Z" fill="#5C4A04"/><path d="M2.79211 1.35403C1.62433 1.61284 0.955224 2.11782 0.608046 3.02049C0.494424 3.29823 0.469175 3.50653 0.469175 4.00521C0.469175 4.73744 0.601734 5.1793 0.961536 5.59591C1.43496 6.1514 2.04094 6.4102 3.72633 6.78263C4.87518 7.03512 5.25392 7.19293 5.45591 7.50224C5.73365 7.91254 5.58847 8.51852 5.16554 8.73945C4.71106 8.97301 3.72633 8.96038 3.17716 8.72051C2.86155 8.57533 2.45124 8.13978 2.40075 7.88098C2.38181 7.77998 2.34394 7.67898 2.31869 7.66636C2.28712 7.64742 1.82001 7.75473 1.27715 7.89991L0.286118 8.16503L0.323991 8.38596C0.431301 9.05507 1.15091 9.94511 1.83264 10.2544C2.55855 10.589 3.08879 10.6836 4.21238 10.6836C5.00142 10.69 5.35491 10.6647 5.66422 10.5827C6.23864 10.4248 6.7815 10.1597 7.12236 9.85673C8.12602 8.96038 8.19546 7.073 7.25492 6.1009C6.72469 5.55173 6.17552 5.32448 4.51537 4.95206C3.33497 4.68694 3.03198 4.54807 2.86786 4.21351C2.77317 4.01783 2.76686 3.93577 2.82367 3.72747C2.90573 3.41816 3.11404 3.24773 3.57484 3.11517C4.00408 2.98892 4.62268 3.0268 5.03299 3.20354C5.32966 3.32979 5.69578 3.68959 5.79046 3.9484C5.82203 4.03046 5.88515 4.09989 5.92934 4.09989C6.15027 4.08727 7.77253 3.60753 7.79778 3.54441C7.84828 3.39291 7.43167 2.63543 7.10974 2.30088C6.71838 1.89058 6.12502 1.57496 5.38648 1.38559C4.79312 1.2341 3.40441 1.21516 2.79211 1.35403Z" fill="#5C4A04"/><path d="M17.1211 1.32277C15.3789 1.56264 13.9775 2.47161 13.2516 3.83507C12.5699 5.11648 12.5383 6.77662 13.1759 8.10852C13.8955 9.61716 15.4483 10.6145 17.2915 10.7597C18.4593 10.8544 20.1952 10.4125 21.2115 9.76235L21.5713 9.52879V7.72978V5.93077H20.5297H19.4882V7.1238V8.31682L19.0779 8.48094C17.7018 9.03012 16.3889 8.68925 15.6314 7.59091C15.3978 7.25004 15.2716 6.90286 15.1958 6.36632C14.9875 4.90186 15.9786 3.55102 17.4051 3.35534C18.2889 3.22909 19.2736 3.50683 19.9743 4.07494C20.1194 4.19488 20.2583 4.28956 20.2899 4.28325C20.3341 4.28325 21.5776 2.81248 21.6218 2.70517C21.647 2.63573 20.9085 2.13075 20.4666 1.90981C19.5071 1.43008 18.1121 1.1839 17.1211 1.32277Z" fill="#5C4A04"/><path d="M22.96 6.02548V10.665H24.0331H25.1062L25.1188 7.7235L25.1378 4.78195L26.2172 7.16801L27.3029 9.56038L28.0793 9.57932L28.862 9.59826L29.9351 7.23113L31.0082 4.86401L31.0272 7.76768L31.0398 10.665H32.1129H33.186V7.06701V3.46899H33.7541C34.0697 3.46899 34.3222 3.44374 34.3222 3.41218C34.3222 3.37431 34.0697 2.91351 33.7604 2.38327L33.2049 1.41749H31.9614H30.7179L29.4175 4.11916C28.6979 5.60256 28.0919 6.79558 28.0667 6.77034C28.0414 6.73877 27.4544 5.52681 26.7663 4.06866L25.5102 1.41749L24.2351 1.39855L22.96 1.38592V6.02548Z" fill="#5C4A04"/><path d="M38.7438 1.81146C38.7439 1.81163 38.7451 1.81356 38.7473 1.81677C38.7448 1.81289 38.7437 1.81129 38.7438 1.81146ZM36.6853 4.61257L36.6852 4.61249L36.6922 4.6022C36.7983 4.44582 37.2785 3.62835 37.7695 2.76746C38.0944 2.19342 38.3263 1.79885 38.4856 1.55196C38.5627 1.43244 38.6356 1.32732 38.7017 1.25145C38.7297 1.21938 38.7872 1.15583 38.8681 1.10645C38.9086 1.08172 38.994 1.03601 39.1115 1.02798C39.2524 1.01835 39.4002 1.06674 39.511 1.17755L39.5246 1.19113L39.537 1.20571C39.5608 1.23337 39.5789 1.26134 39.58 1.26309L39.5801 1.26318C39.5863 1.27254 39.5926 1.28243 39.5983 1.29144C39.6099 1.30988 39.6245 1.33354 39.6411 1.36097C39.6747 1.41629 39.7209 1.49372 39.7781 1.59005C39.8925 1.78307 40.0529 2.05618 40.2473 2.38926C40.6362 3.05558 41.1624 3.9641 41.7311 4.95621C42.2985 5.94604 42.8312 6.86483 43.2313 7.54927C43.4314 7.89157 43.598 8.17473 43.7191 8.37862C43.7797 8.48068 43.8285 8.56205 43.864 8.62071C43.8905 8.66437 43.9054 8.68822 43.9118 8.6984C43.9152 8.70389 43.9161 8.70541 43.9151 8.70393L43.9171 8.70674C44.0342 8.87508 44.6507 9.91105 44.9046 10.3743L44.9191 10.4008L44.9303 10.4288C44.9988 10.6 44.9629 10.7731 44.8817 10.8949C44.8179 10.9904 44.7388 11.0383 44.7087 11.0554C44.6436 11.0922 44.5834 11.107 44.5661 11.1112L44.5657 11.1114C44.5174 11.1232 44.4679 11.1293 44.4347 11.1329C44.3601 11.1409 44.2617 11.1468 44.1527 11.1512C43.931 11.1603 43.6269 11.165 43.292 11.165H42.0926H41.7998L41.6566 10.9097L41.2222 10.1353C41.222 10.135 41.2218 10.1346 41.2216 10.1343C41.1011 9.92178 40.9881 9.71969 40.9032 9.56516C40.8609 9.48801 40.8247 9.42119 40.7978 9.37025C40.7844 9.34503 40.7722 9.3215 40.7623 9.30155C40.7621 9.30117 40.7619 9.30066 40.7615 9.30002C40.7583 9.2936 40.7485 9.27417 40.7382 9.24986C40.7361 9.24563 40.7318 9.23732 40.7245 9.22381C40.709 9.19501 40.6866 9.15417 40.6573 9.10188C40.5992 8.99772 40.518 8.85471 40.421 8.68527C40.2272 8.34674 39.9729 7.90704 39.7188 7.47102C39.5039 7.10222 39.2898 6.7369 39.1131 6.43837C39.0965 6.46658 39.0797 6.49501 39.0629 6.52352C38.9481 6.71881 38.8353 6.91454 38.752 7.06397C38.71 7.13928 38.6774 7.19935 38.6562 7.2405C38.6518 7.24906 38.6483 7.25592 38.6457 7.26126C38.6403 7.27709 38.6352 7.2894 38.6327 7.29554C38.6265 7.31025 38.6205 7.32273 38.6173 7.3294C38.6101 7.34425 38.6018 7.36028 38.5942 7.37476C38.5783 7.40493 38.5563 7.44535 38.53 7.49317C38.4769 7.58959 38.4009 7.72527 38.3084 7.88938C38.1231 8.21805 37.8685 8.6656 37.5905 9.15197L37.5905 9.15197L37.5895 9.15381L36.5732 10.9149L36.4289 11.165H36.1401H34.9408H33.7478H32.8862L33.3136 10.417L33.3855 10.2913C33.6644 9.76761 36.5076 4.88898 36.6853 4.61257ZM40.7291 9.22708C40.7296 9.22863 40.7302 9.23013 40.7308 9.23158C40.7302 9.23009 40.7296 9.22859 40.7291 9.22708L40.7291 9.22708Z" fill="#5C4A04" stroke="#E2B54A"/><path d="M9.136 7.03545V10.665H10.3669H11.5978V8.05805V5.45737L11.0108 4.4474L10.43 3.43743L9.77986 3.41849L9.136 3.39956V7.03545Z" fill="#5C4A04"/></svg>