<svg width="36" height="38" viewBox="0 0 36 38" fill="none" xmlns="http://www.w3.org/2000/svg"><path d="M16.8759 0.828369H17.0576C18.2601 0.858892 19.4405 1.41185 20.2178 2.3332C20.9006 3.11259 21.2527 4.14823 21.2506 5.18031C21.6587 5.18031 22.0662 5.18173 22.4736 5.17889C22.7249 4.42932 23.4688 3.86501 24.2716 3.90902C25.1184 3.91895 25.8928 4.59897 26.005 5.4394C26.1427 6.23228 25.6678 7.07058 24.9246 7.37155C24.2971 7.64341 23.522 7.52274 23.0152 7.06206C22.7597 6.8477 22.6014 6.54815 22.4757 6.24576C22.0655 6.24434 21.6559 6.24505 21.2463 6.24576C21.2456 7.41911 21.2463 8.59316 21.2456 9.76721C22.661 9.76721 24.0757 9.76863 25.4911 9.76792C25.677 9.77715 25.8566 9.69978 25.9837 9.5642C26.5998 8.94736 27.2188 8.33407 27.8349 7.71723C27.512 7.19622 27.4332 6.52473 27.6958 5.96254C28.0081 5.24349 28.8237 4.79204 29.5996 4.91555C30.2973 5.00357 30.9113 5.54091 31.0909 6.22163C31.274 6.8626 31.0611 7.59301 30.5614 8.03453C30.0631 8.50372 29.3107 8.61091 28.6754 8.38731C28.0003 9.051 27.3359 9.72462 26.6616 10.3883C26.3705 10.6758 25.9667 10.8383 25.5578 10.8327C24.1204 10.8341 22.683 10.832 21.2463 10.8334C21.2456 11.5688 21.2456 12.3048 21.2463 13.0409C23.1572 13.0431 25.068 13.0402 26.9782 13.0424C27.4239 13.0345 27.8491 13.2425 28.1501 13.5655C28.483 13.9161 28.8528 14.232 29.1658 14.6004C29.4008 14.8765 29.2297 15.3464 28.8798 15.4217C28.6541 15.4905 28.4369 15.3621 28.2857 15.2052C27.957 14.8907 27.6518 14.5522 27.316 14.2455C27.1876 14.1241 27.0051 14.1021 26.8369 14.105C24.9729 14.1085 23.1096 14.105 21.2456 14.1071C21.2463 15.1307 21.2449 16.1549 21.2463 17.1785C21.6829 17.1785 22.1201 17.1792 22.5567 17.1778C22.7199 16.7519 23.0024 16.3615 23.4092 16.14C24.0444 15.7709 24.9012 15.8504 25.4591 16.3281C25.9631 16.737 26.2059 17.4305 26.0738 18.0651C25.917 18.9211 25.073 19.5763 24.2035 19.5117C23.4532 19.4897 22.7959 18.9424 22.5567 18.244C22.1194 18.2432 21.6829 18.244 21.2463 18.244C21.2456 19.5351 21.2463 20.827 21.2456 22.1182C23.0897 22.1182 24.9339 22.121 26.7773 22.1168C26.9391 21.6895 27.2238 21.2969 27.6326 21.0776C28.2367 20.7305 29.0395 20.783 29.5953 21.2025C30.1568 21.6071 30.44 22.3503 30.2888 23.0261C30.1248 23.8587 29.3114 24.4968 28.4631 24.4535C27.6993 24.4493 27.0186 23.8963 26.7766 23.1851C24.9332 23.1822 23.0897 23.1836 21.2463 23.1844C21.2456 24.3726 21.2456 25.5608 21.2463 26.7498C22.7866 26.7498 24.3263 26.7505 25.8666 26.7491C26.0249 26.3367 26.2903 25.9555 26.68 25.7319C27.3558 25.3124 28.3013 25.4253 28.8656 25.9853C29.4377 26.5177 29.5854 27.4362 29.2099 28.1212C28.8514 28.826 27.9989 29.2207 27.2287 29.0475C26.5913 28.9212 26.0795 28.4207 25.8673 27.816C24.327 27.8138 22.7866 27.8153 21.2456 27.8153C21.2463 28.7629 21.2456 29.7105 21.2463 30.6581C22.162 30.6602 23.0777 30.656 23.9941 30.6595C24.4746 30.6475 24.9204 30.8916 25.2334 31.2451C25.611 31.6235 25.9894 32.0011 26.3706 32.3759C26.6765 32.2772 26.9995 32.1963 27.3238 32.2432C28.0323 32.3148 28.664 32.8515 28.8521 33.5379C29.0452 34.1895 28.8273 34.9377 28.3119 35.382C27.7774 35.8675 26.9434 35.9747 26.3024 35.6439C25.7062 35.3522 25.3015 34.7112 25.3023 34.0461C25.2838 33.7033 25.4236 33.3846 25.5677 33.0829C25.1653 32.6861 24.7727 32.2801 24.3667 31.8882C24.2326 31.7491 24.0352 31.715 23.85 31.7214C22.9818 31.725 22.1137 31.7229 21.2456 31.7236C21.2321 32.4667 21.3038 33.2241 21.1114 33.951C20.8133 35.1456 19.9637 36.1834 18.8592 36.7243C18.3027 37.0018 17.6851 37.1473 17.0647 37.1715H16.8887C16.2782 37.1452 15.6685 37.0182 15.117 36.7513C14.219 36.3332 13.4986 35.5864 13.0663 34.6999C11.9419 34.7673 10.7927 34.4287 9.91606 33.7153C8.89533 32.9104 8.26501 31.649 8.21745 30.3508C7.86893 30.3763 7.51685 30.4154 7.16904 30.3642C6.94544 30.3401 6.75379 30.1563 6.72256 29.9334C6.66719 29.6686 6.85884 29.3818 7.12574 29.3378C7.37347 29.3045 7.62475 29.3314 7.87318 29.3038C8.50848 29.2569 9.11822 29.0099 9.63284 28.6387C9.82379 28.5088 10.0495 28.3483 10.293 28.4307C10.6408 28.5159 10.7892 29.0007 10.545 29.2633C10.1865 29.6154 9.73151 29.8475 9.28006 30.0576C9.26303 30.9179 9.55902 31.7874 10.1269 32.4376C10.672 33.0751 11.4592 33.4875 12.2862 33.6103C13.2345 33.7274 14.2382 33.4562 14.9629 32.8252C15.1312 32.6911 15.3065 32.5171 15.5386 32.5299C15.8367 32.5342 16.0894 32.8295 16.0397 33.1255C16.0156 33.3405 15.8346 33.4846 15.6834 33.6188C15.2369 34.0064 14.7088 34.2882 14.153 34.4862C14.7571 35.536 15.9744 36.1969 17.1861 36.0925C18.3481 36.0272 19.415 35.267 19.8984 34.2151C19.574 34.2009 19.2325 34.2626 18.9202 34.1519C18.5277 33.9766 18.5483 33.3327 18.9607 33.1957C19.3568 33.0992 19.7713 33.1695 20.1745 33.1496C20.1887 31.8449 20.1773 30.5396 20.1809 29.2349C19.5945 29.242 19.0082 29.22 18.4226 29.2448C17.7731 29.2782 17.1762 29.7375 16.9717 30.3529C16.8525 30.6546 16.9469 31.0471 16.6871 31.2828C16.4081 31.5426 15.8885 31.3736 15.8339 30.9917C15.7345 29.736 16.6828 28.5215 17.9037 28.2532C18.6526 28.102 19.4221 28.1957 20.1802 28.1695C20.1816 25.7326 20.1809 23.2958 20.1809 20.859C17.3089 20.8547 14.4362 20.8668 11.565 20.8533C11.2158 20.876 10.9261 20.5005 11.0447 20.1697C11.1157 19.9135 11.3868 19.7814 11.6388 19.7942C14.4859 19.7928 17.333 19.7949 20.1802 19.7935C20.1809 16.8066 20.1809 13.8196 20.1809 10.8334C18.7995 10.832 17.4189 10.8334 16.0376 10.8327C15.5421 10.8298 15.0368 10.7503 14.5945 10.5168C13.6441 10.0448 13.0003 8.99279 13.062 7.92734C13.0982 7.54688 13.6036 7.35238 13.8939 7.59372C14.1367 7.76337 14.0969 8.0906 14.1523 8.34614C14.2801 9.13689 15.0289 9.75089 15.8239 9.76153C17.2763 9.77573 18.7286 9.76366 20.1809 9.76721C20.1809 8.58606 20.1809 7.4042 20.1809 6.22305C19.8181 6.21595 19.454 6.24363 19.092 6.20814C18.8698 6.1904 18.6796 6.00939 18.6434 5.79077C18.5774 5.50612 18.7967 5.19309 19.092 5.17322C19.4554 5.13772 19.821 5.16612 20.1851 5.15831C20.178 4.20927 19.7699 3.26378 19.0302 2.65901C18.2068 1.95486 17.0136 1.71565 15.9822 2.04785C15.2078 2.28564 14.5505 2.83576 14.1431 3.53139C14.8664 3.79473 15.5464 4.20075 16.0653 4.77642C16.8319 5.60408 17.277 6.72987 17.2514 7.85991C17.2436 8.07073 17.0811 8.2567 16.8823 8.31491C16.6126 8.40293 16.2846 8.23044 16.2278 7.94651C16.1554 7.58663 16.1746 7.20971 16.0532 6.85834C15.699 5.59343 14.5569 4.60536 13.2586 4.4208C12.1456 4.23412 10.9631 4.66569 10.2035 5.49406C9.5718 6.18117 9.21476 7.13518 9.30206 8.07073C9.3191 8.3213 9.34394 8.63149 9.1097 8.79546C8.82932 9.00841 8.47512 8.82598 8.16847 8.78481C6.55859 8.46326 4.82306 9.49322 4.31837 11.052C4.04864 11.7618 4.07845 12.5519 4.30418 13.2688C5.01755 13.0196 5.77068 12.8557 6.52948 12.8791C6.91563 12.8748 7.16123 13.3561 6.95112 13.6727C6.7978 13.9502 6.44714 13.9339 6.17457 13.9516C4.41846 14.0503 2.75179 15.1271 1.96388 16.7043C1.29026 18.0069 1.23276 19.6068 1.80346 20.9569C2.20877 21.9443 2.95125 22.7712 3.85557 23.3306C4.28288 22.7492 4.82235 22.2311 5.47752 21.9166C5.83172 21.7434 6.26969 22.0976 6.19161 22.4795C6.16676 22.7251 5.93891 22.8585 5.75293 22.9799C4.81951 23.5421 4.19061 24.5806 4.13098 25.6687C4.08626 26.4758 4.32121 27.3049 4.82235 27.9437C4.95509 28.1318 5.13822 28.3299 5.10131 28.5797C5.07079 28.8985 4.71091 29.1242 4.40994 29.0113C4.15227 28.9013 4.00463 28.6443 3.84421 28.4293C3.00732 27.2339 2.832 25.6297 3.35372 24.2711C2.18748 23.5677 1.2505 22.483 0.764983 21.2068C0.225515 19.8326 0.214158 18.2617 0.725233 16.8783C1.19727 15.5672 2.15198 14.4599 3.33597 13.738C3.08683 13.0431 2.99597 12.2921 3.09889 11.5595C3.26783 10.2314 4.07987 9.01267 5.22411 8.32272C6.11069 7.77189 7.18536 7.5703 8.21603 7.70446C8.25436 6.46013 8.81725 5.23852 9.767 4.42719C10.66 3.63431 11.8723 3.24533 13.0599 3.31418C13.2941 2.85918 13.5752 2.42122 13.9472 2.0656C14.718 1.29614 15.7913 0.861731 16.8759 0.828369ZM23.9351 5.03196C23.6846 5.1356 23.4965 5.37978 23.4773 5.65377C23.4375 6.03779 23.7513 6.40831 24.1346 6.44168C24.5995 6.51266 25.0481 6.05198 24.9459 5.58776C24.8842 5.1356 24.3504 4.8467 23.9351 5.03196ZM29.0516 6.0243C28.5668 6.20956 28.4518 6.92436 28.8549 7.25088C29.2453 7.62283 29.9793 7.39213 30.0687 6.85479C30.2199 6.29545 29.5704 5.77302 29.0516 6.0243ZM24.0111 17.033C23.7179 17.1544 23.5206 17.4766 23.5646 17.7946C23.5994 18.1999 24.021 18.5172 24.4207 18.4342C24.8409 18.3845 25.1418 17.9153 25.0112 17.5128C24.909 17.0933 24.4022 16.8598 24.0111 17.033ZM28.4134 21.9251C27.8555 21.9755 27.5694 22.7251 27.9584 23.1311C28.3105 23.574 29.1112 23.3987 29.2326 22.8422C29.3923 22.3531 28.9117 21.8307 28.4134 21.9251ZM27.2805 26.6227C27.0711 26.7278 26.9079 26.9322 26.8795 27.1679C26.7986 27.5711 27.1294 27.9821 27.534 28.0112C27.9946 28.0758 28.4369 27.6222 28.3382 27.1622C28.2807 26.6873 27.6993 26.3984 27.2805 26.6227ZM26.7872 33.3711C26.4877 33.5116 26.3102 33.8651 26.3897 34.1888C26.4621 34.5742 26.8845 34.844 27.2656 34.7503C27.6717 34.6807 27.9535 34.2214 27.8229 33.8282C27.7164 33.3973 27.1783 33.1709 26.7872 33.3711Z" fill="#5C4A04"/><path d="M12.514 5.38774C12.7767 5.34941 13.0634 5.29972 13.3154 5.40904C13.6192 5.56094 13.6866 6.01736 13.4368 6.24876C13.2849 6.41202 13.0492 6.39357 12.8469 6.41628C12.3252 6.44183 11.8503 6.84927 11.7453 7.36035C11.6956 7.5591 11.6885 7.79831 11.5103 7.93318C11.2874 8.12909 10.907 8.07798 10.7451 7.82884C10.5968 7.6315 10.6585 7.36816 10.7011 7.14598C10.8843 6.26793 11.6324 5.54745 12.514 5.38774Z" fill="#5C4A04"/><path d="M7.19034 10.2267C8.59579 10.0613 10.0112 11.043 10.4548 12.3732C10.7572 13.2371 10.6742 14.2308 10.217 15.0251C9.72868 15.9018 8.81087 16.5229 7.81498 16.6485C7.57719 16.6634 7.30746 16.7379 7.0938 16.5967C6.81981 16.4299 6.77225 16.0082 7.00507 15.7868C7.15343 15.6235 7.38909 15.6292 7.59068 15.6022C8.30831 15.5476 8.97839 15.1004 9.31414 14.4651C9.60871 13.9249 9.65414 13.2577 9.43836 12.6827C9.1885 11.9913 8.56527 11.4519 7.8448 11.3056C7.55093 11.2361 7.17614 11.3092 6.96603 11.0423C6.7467 10.7811 6.86879 10.3396 7.19034 10.2267Z" fill="#5C4A04"/><path d="M31.9015 10.2387C32.7334 9.97888 33.7016 10.4197 34.0516 11.2161C34.3809 11.9061 34.202 12.7948 33.6264 13.2995C33.0557 13.8361 32.1265 13.9269 31.465 13.5067C30.8935 13.1653 30.5436 12.491 30.6054 11.8273C30.6515 11.0954 31.1966 10.4325 31.9015 10.2387ZM32.1152 11.2921C31.5934 11.4866 31.5118 12.278 31.986 12.5719C32.4112 12.8984 33.1096 12.5854 33.143 12.0487C33.2282 11.5093 32.6049 11.0592 32.1152 11.2921Z" fill="#5C4A04"/><path d="M13.8726 13.4392C14.1885 13.2887 14.5938 13.5364 14.6066 13.8843C14.6754 15.7263 13.1834 17.4412 11.3712 17.6989C11.0575 17.7273 10.6734 17.8337 10.4108 17.6002C10.1354 17.3589 10.2255 16.8506 10.5748 16.7307C10.8963 16.6384 11.2427 16.6746 11.5607 16.5617C12.6205 16.26 13.451 15.2705 13.5255 14.1654C13.5418 13.8914 13.5773 13.5549 13.8726 13.4392Z" fill="#5C4A04"/><path d="M16.5565 13.6162C17.4942 13.4515 18.4702 14.0577 18.8684 14.9031C19.1836 15.5469 19.1715 16.3369 18.8379 16.9708C18.4957 17.6508 17.7966 18.1321 17.0413 18.218C16.8355 18.2428 16.5955 18.2677 16.428 18.1193C16.1902 17.9397 16.1675 17.5557 16.3769 17.3463C16.5459 17.1603 16.8184 17.1916 17.042 17.1383C17.6695 17.0191 18.1302 16.3597 18.023 15.7279C17.9513 15.1664 17.4594 14.6916 16.893 14.6497C16.6651 14.6298 16.4003 14.578 16.2932 14.348C16.1462 14.0868 16.2761 13.7219 16.5565 13.6162Z" fill="#5C4A04"/><path d="M30.4421 16.5837C30.6331 16.3871 30.9738 16.3871 31.1676 16.5802C31.5289 16.9131 31.8646 17.2729 32.2188 17.6144C32.5311 17.4781 32.8697 17.3851 33.2126 17.4178C33.8259 17.4589 34.4001 17.8408 34.6784 18.3881C35.0134 19.0198 34.9183 19.8475 34.4448 20.3841C33.9849 20.9307 33.1877 21.1585 32.5105 20.9271C31.876 20.7291 31.3805 20.1527 31.2833 19.4947C31.2151 19.11 31.3074 18.7189 31.4636 18.3675C31.1228 18.0176 30.7644 17.6854 30.43 17.3297C30.2299 17.1303 30.2292 16.7732 30.4421 16.5837ZM32.8087 18.5244C32.5723 18.6103 32.3863 18.8246 32.3437 19.0738C32.2536 19.4599 32.5439 19.8773 32.9343 19.9348C33.3929 20.0406 33.8699 19.6132 33.8067 19.1448C33.779 18.6749 33.2424 18.3469 32.8087 18.5244Z" fill="#5C4A04"/><path d="M4.49016 17.5412C4.7386 17.4511 5.03672 17.5824 5.14036 17.8245C5.2085 18.0445 5.19927 18.2802 5.26103 18.5023C5.43636 19.171 6.04752 19.6991 6.73463 19.7729C7.33869 19.8283 7.9463 19.763 8.55036 19.807C8.94645 19.8333 9.15585 20.3628 8.89392 20.6574C8.70795 20.9086 8.36368 20.8526 8.09182 20.8604C7.38412 20.8384 6.64448 20.937 5.96873 20.6716C4.94729 20.3039 4.19842 19.3002 4.1395 18.2149C4.0884 17.9437 4.20836 17.6257 4.49016 17.5412Z" fill="#5C4A04"/><path d="M8.40484 23.7964C8.84068 23.7169 9.28503 23.7374 9.72583 23.736C10.9325 23.7353 12.1392 23.7367 13.3459 23.7353C13.5227 23.7353 13.72 23.7523 13.8506 23.8879C14.0764 24.0874 14.0643 24.4799 13.83 24.6673C13.6994 24.7858 13.5163 24.8008 13.3488 24.8015C11.8809 24.8022 10.4137 24.7965 8.94573 24.8036C8.16776 24.7887 7.42599 25.392 7.31384 26.1672C7.27267 26.4177 7.28829 26.7357 7.04056 26.8869C6.74101 27.1041 6.26259 26.8969 6.22923 26.5256C6.15682 25.243 7.14703 24.0242 8.40484 23.7964Z" fill="#5C4A04"/><path d="M15.4208 23.7793C15.6678 23.7069 15.929 23.7424 16.1831 23.7353C16.7496 23.7459 17.3182 23.7168 17.8846 23.748C18.2168 23.7679 18.4468 24.1533 18.3155 24.4579C18.236 24.69 17.9847 24.8085 17.7511 24.8C17.0619 24.8014 16.3734 24.8028 15.6841 24.7993C15.43 24.8128 15.161 24.6552 15.1078 24.3947C15.0389 24.1477 15.183 23.8701 15.4208 23.7793Z" fill="#5C4A04"/><path d="M33.6718 23.8666C34.6712 23.5344 35.8382 24.2655 35.9723 25.3097C36.1555 26.2736 35.4045 27.2759 34.4313 27.3795C33.4745 27.5385 32.4942 26.7897 32.3927 25.8271C32.2621 24.9739 32.8427 24.0952 33.6718 23.8666ZM33.884 24.9214C33.6895 25.0109 33.5313 25.1833 33.4745 25.3906C33.3424 25.7973 33.6434 26.2687 34.0672 26.3183C34.552 26.4227 35.0318 25.9308 34.9112 25.4495C34.8366 24.9988 34.2936 24.7248 33.884 24.9214Z" fill="#5C4A04"/><path d="M11.11 26.1502C11.4024 26.0657 11.714 26.1431 12.0037 26.2063C12.8249 26.422 13.522 27.0588 13.8038 27.8609C14.0728 28.5891 13.9912 29.4353 13.5901 30.1004C13.111 30.9145 12.1669 31.4441 11.2193 31.3859C10.8544 31.3426 10.6571 30.8705 10.8743 30.5774C11.017 30.3367 11.3201 30.3438 11.5629 30.3091C12.2968 30.2147 12.8924 29.5339 12.8987 28.7957C12.9314 28.0617 12.3792 27.3562 11.6573 27.2156C11.4039 27.1546 11.0873 27.2036 10.907 26.9757C10.6763 26.7209 10.7899 26.2709 11.11 26.1502Z" fill="#5C4A04"/><path d="M31.4039 29.4082C32.3671 29.1243 33.4631 29.7979 33.6413 30.7853C33.8727 31.7556 33.1394 32.8054 32.1527 32.9311C31.2257 33.1035 30.2554 32.4249 30.095 31.4986C29.8934 30.5971 30.5102 29.6247 31.4039 29.4082ZM31.6048 30.4644C31.2846 30.5822 31.0681 30.9421 31.142 31.2807C31.2002 31.6747 31.6225 31.9593 32.0101 31.8713C32.4054 31.8131 32.6915 31.3836 32.5928 30.9968C32.5162 30.5652 32.0079 30.299 31.6048 30.4644Z" fill="#5C4A04"/></svg>