<svg width="26" height="35" viewBox="0 0 26 35" fill="none" xmlns="http://www.w3.org/2000/svg"><path fill-rule="evenodd" clip-rule="evenodd" d="M19.3163 16.9438C16.6532 14.4386 14.4947 11.9348 12.938 9.4345C11.2065 12.1103 9.03429 14.5937 6.55976 16.9438C9.24091 19.2283 11.3691 21.7286 12.938 24.45C14.5348 21.5329 16.611 18.9903 19.3163 16.9438Z" fill="#5C4A04"/><path fill-rule="evenodd" clip-rule="evenodd" d="M23.8957 7.62939e-06H1.96131C1.05175 7.62939e-06 0.314392 0.737361 0.314392 1.64693V32.3729C0.314392 33.2826 1.05175 34.02 1.96131 34.02H23.8957C24.8053 34.02 25.5426 33.2826 25.5426 32.3729V1.64693C25.5426 0.737361 24.8053 7.62939e-06 23.8957 7.62939e-06ZM24.2138 32.3729C24.2138 32.5484 24.0711 32.6912 23.8957 32.6912H1.96131C1.78604 32.6912 1.64319 32.5485 1.64319 32.3729V1.64693C1.64319 1.47152 1.78591 1.32881 1.96131 1.32881H23.8957C24.071 1.32881 24.2138 1.47152 24.2138 1.64693V32.3729Z" fill="#5C4A04"/><path d="M3.23775 3.78164V2.79049H7.6228V3.78164H6.04966V7.83994H4.81343V3.78164H3.23775Z" fill="#5C4A04"/><path d="M22.2396 30.2357L22.2396 31.2269L17.8546 31.2269L17.8546 30.2357L19.4277 30.2357L19.4277 26.1774L20.664 26.1774L20.664 30.2357L22.2396 30.2357Z" fill="#5C4A04"/></svg>