<svg width="44" height="42" viewBox="0 0 44 42" fill="none" xmlns="http://www.w3.org/2000/svg"><path d="M16.1356 9.625H18.1356V11.625H16.1356V9.625Z" fill="#5C4A04"/><path d="M18.1356 14.375H16.1356V16.375H18.1356V14.375Z" fill="#5C4A04"/><path d="M20.8856 9.625H22.8856V11.625H20.8856V9.625Z" fill="#5C4A04"/><path d="M22.8856 14.375H20.8856V16.375H22.8856V14.375Z" fill="#5C4A04"/><path d="M25.6356 9.625H27.6356V11.625H25.6356V9.625Z" fill="#5C4A04"/><path d="M27.6356 14.375H25.6356V16.375H27.6356V14.375Z" fill="#5C4A04"/><path fill-rule="evenodd" clip-rule="evenodd" d="M15.1356 5.25H12.1356V20.75H31.6356V5.25H28.6356V2H27.1356V5.25H16.6356V2H15.1356V5.25ZM13.6356 6.75V19.25H30.1356V6.75H13.6356Z" fill="#5C4A04"/><path d="M8.29584 41V39.2559C8.29584 38.6944 8.37512 38.1658 8.53367 37.6704C8.69883 37.1683 8.91024 36.7322 9.16789 36.3623C9.43215 35.9857 9.71953 35.6224 10.03 35.2722C10.3471 34.9155 10.6609 34.562 10.9715 34.2119C11.2886 33.8617 11.5759 33.5017 11.8336 33.1317C12.0978 32.7618 12.3093 32.3356 12.4678 31.8534C12.633 31.3645 12.7156 30.8426 12.7156 30.2876C12.7156 29.6799 12.6198 29.257 12.4282 29.0192C12.2366 28.7814 11.9492 28.6625 11.566 28.6625C10.7931 28.6625 10.4066 29.1282 10.4066 30.0597V31.5858H8.29584V30.1985C8.29584 29.0555 8.57992 28.1769 9.14807 27.5625C9.71623 26.9415 10.542 26.631 11.6255 26.631C12.7089 26.631 13.5348 26.9415 14.1029 27.5625C14.6711 28.1769 14.9551 29.0555 14.9551 30.1985C14.9551 30.8063 14.8726 31.3909 14.7074 31.9525C14.5422 32.5074 14.3275 32.9996 14.0633 33.429C13.8056 33.8584 13.5182 34.2713 13.2011 34.6677C12.8906 35.0575 12.5768 35.4242 12.2597 35.7677C11.9426 36.1046 11.6519 36.4283 11.3877 36.7388C11.13 37.0493 10.9186 37.3698 10.7534 37.7001C10.5883 38.0304 10.5057 38.3508 10.5057 38.6613C10.5057 38.8001 10.5123 38.9025 10.5255 38.9685H14.747V41H8.29584ZM16.1542 37.5911V30.1985C16.1542 29.0622 16.4482 28.1835 17.0362 27.5625C17.6241 26.9415 18.4632 26.631 19.5532 26.631C20.6433 26.631 21.479 26.9415 22.0604 27.5625C22.6483 28.1835 22.9423 29.0622 22.9423 30.1985V37.5911C22.9423 38.7274 22.6483 39.606 22.0604 40.227C21.479 40.8481 20.6433 41.1586 19.5532 41.1586C18.4632 41.1586 17.6241 40.8481 17.0362 40.227C16.4482 39.606 16.1542 38.7274 16.1542 37.5911ZM18.3938 37.7298C18.3938 38.6679 18.7803 39.137 19.5532 39.137C20.3196 39.137 20.7027 38.6679 20.7027 37.7298V30.0597C20.7027 29.1282 20.3196 28.6625 19.5532 28.6625C18.7803 28.6625 18.3938 29.1282 18.3938 30.0597V37.7298ZM23.94 30.1588V28.5832C24.2704 28.5832 24.5643 28.5502 24.822 28.4841C25.0796 28.4114 25.2877 28.3288 25.4463 28.2363C25.6049 28.1373 25.7469 28.0018 25.8724 27.8301C26.0045 27.6517 26.1036 27.4931 26.1697 27.3544C26.2358 27.209 26.3117 27.0208 26.3976 26.7895H27.9039V41H25.6643V30.1588H23.94ZM30.1601 30.1588V28.5832C30.4905 28.5832 30.7844 28.5502 31.0421 28.4841C31.2997 28.4114 31.5078 28.3288 31.6664 28.2363C31.825 28.1373 31.967 28.0018 32.0925 27.8301C32.2246 27.6517 32.3237 27.4931 32.3898 27.3544C32.4559 27.209 32.5318 27.0208 32.6177 26.7895H34.124V41H31.8844V30.1588H30.1601Z" fill="#5C4A04"/></svg>