<svg width="35" height="28" viewBox="0 0 35 28" fill="none" xmlns="http://www.w3.org/2000/svg"><path d="M20.7485 1.24653C21.2247 0.799882 21.8022 0.358152 22.4869 0.359136C22.9621 0.341428 23.3783 0.601154 23.8023 0.778239C24.2588 1.05469 24.7005 1.39115 24.9927 1.84469C25.2819 2.16836 25.4413 2.57763 25.6558 2.94852C25.7748 3.43354 26.0719 3.85953 26.1388 4.35832C26.2156 4.73905 26.4438 5.07355 26.5068 5.4592C26.5638 5.89601 26.8364 6.26691 26.9052 6.70077C26.9583 7.12381 27.224 7.48192 27.2948 7.90102C27.3548 8.35062 27.6342 8.73332 27.7031 9.18194C27.7779 9.62268 28.0455 10.0054 28.1084 10.4511C28.1842 10.8652 28.436 11.2253 28.4931 11.6454C28.5511 11.9917 28.7449 12.2937 28.8414 12.6282C28.8935 12.8604 28.9328 13.0965 29.0253 13.3179C29.2024 13.6573 29.2811 14.0311 29.3579 14.404C29.4926 14.6824 29.6255 14.9687 29.6717 15.2776C29.7386 15.6889 29.9885 16.044 30.0554 16.4543C30.1085 16.8724 30.3672 17.2285 30.441 17.6417C30.4892 18.0707 30.7568 18.4317 30.8326 18.8538C30.8867 19.2945 31.1563 19.6693 31.233 20.1052C31.296 20.5479 31.5655 20.9276 31.6373 21.3684C31.6914 21.7019 31.8528 22.002 31.963 22.3187L31.9895 22.3246C32.0033 22.8923 32.3654 23.3626 32.4431 23.9145C32.507 24.2696 32.7146 24.5766 32.811 24.9229C32.8819 25.2584 33.1662 25.4945 33.2508 25.825C33.6384 26.2668 33.9818 26.7656 34.4973 27.0745C34.6793 27.1679 34.8396 27.2968 35 27.4257C32.5474 27.4227 30.0947 27.4346 27.6421 27.4198C27.769 27.2811 27.9077 27.1532 28.0563 27.0391C28.1596 26.7921 28.3298 26.5757 28.3849 26.3101C28.5088 25.765 28.2658 25.2397 28.1242 24.7251C28.071 24.2057 27.7513 23.764 27.6883 23.2465C27.6185 22.8333 27.3617 22.4781 27.3037 22.062C27.2505 21.6419 26.9751 21.2936 26.9111 20.8775C26.8413 20.4407 26.552 20.0766 26.495 19.6349C26.1998 18.8026 25.8053 18.0097 25.3085 17.2807C24.7615 16.4838 23.9863 15.7725 23.0202 15.5669C22.1544 15.2461 21.2286 15.498 20.3767 15.7331C19.7756 16.0322 19.1449 16.2909 18.6225 16.7238C17.5472 17.5119 16.6923 18.5537 15.9298 19.6369C15.6573 20.0471 15.4379 20.4938 15.1359 20.8843C15.1251 20.9444 15.1044 21.0634 15.0936 21.1234C14.9746 21.2976 14.8654 21.4776 14.7503 21.6537C14.6981 22.058 14.3823 22.3601 14.3105 22.7585C14.2328 23.1028 14.0026 23.3911 13.9366 23.7384C13.8511 24.2746 13.5343 24.7468 13.5087 25.2957C13.3975 25.7493 13.2381 26.1979 13.2804 26.6741C13.9819 26.7095 14.6893 26.7597 15.3878 26.6613C16.224 26.376 16.9825 25.8634 17.499 25.1403C17.6063 24.9839 17.7204 24.8334 17.8374 24.6848C17.8729 24.4566 17.9998 24.1988 18.2811 24.3149C18.2575 24.7812 17.928 25.1511 17.8542 25.6057C17.7774 25.9884 17.5108 26.3012 17.4518 26.6908C17.4056 26.985 17.2245 27.227 17.0297 27.4424C15.3425 27.5152 13.6513 27.4552 11.9631 27.4729C8.02001 27.4729 4.07592 27.4719 0.132813 27.4759C0.624718 27.1138 1.06153 26.6593 1.31043 26.0956C1.44325 25.5496 1.61246 25.0026 1.59279 24.4329C1.55934 17.9378 1.57606 11.4417 1.57213 4.94565C1.57213 3.83493 1.7138 2.66027 1.21599 1.62727C1.10383 1.47674 0.982826 1.33114 0.89625 1.16291C0.613897 0.916956 0.325641 0.694615 0 0.509659C5.59689 0.496869 11.1938 0.50474 16.7907 0.50474C17.0681 1.06945 17.1104 1.70794 17.3888 2.27363C17.4931 2.72618 17.6131 3.17677 17.8276 3.59292C17.7666 3.6913 17.7076 3.78968 17.6486 3.88806C17.5138 3.46305 17.2609 3.10495 17.0415 2.7252C16.7838 2.45367 16.5073 2.20083 16.2437 1.93422C15.9416 1.84174 15.7183 1.58693 15.4065 1.51806C15.0385 1.43641 14.6834 1.30064 14.3095 1.24456C13.1712 1.02419 12.0182 1.29179 10.8731 1.22686C9.32159 1.2239 7.77111 1.21899 6.21964 1.22981C6.21964 3.77689 6.18324 6.32397 6.20685 8.87007C6.2403 9.95915 6.18324 11.064 6.4715 12.1265C6.83354 13.187 7.69732 14.0321 8.71065 14.4866C9.16517 14.6352 9.601 14.8733 10.0929 14.8713C10.697 14.9343 11.2931 14.7975 11.8441 14.5565C12.1943 14.5053 12.4924 14.3155 12.7836 14.1266C12.945 14.0872 13.0935 14.0124 13.2175 13.9003C13.6297 13.6189 14.0606 13.3484 14.4 12.9775C14.5771 12.9027 14.705 12.7679 14.7748 12.5889C14.8683 12.5397 14.9628 12.4915 15.0572 12.4433C15.0828 12.3626 15.1084 12.2819 15.1349 12.2022C15.3946 12.093 15.5127 11.8304 15.6947 11.6356C15.8895 11.4024 16.0666 11.1545 16.2574 10.9174C16.3824 10.6606 16.6313 10.4865 16.7218 10.211C17.6358 9.06191 18.1375 7.6649 18.6206 6.29938C18.657 5.92356 18.8272 5.58513 18.9492 5.23194C19.0534 4.96041 19.0298 4.65248 19.1941 4.40062L19.1213 4.44096C19.4155 3.94906 19.4037 3.3509 19.7096 2.86883C19.929 2.25887 20.3078 1.71778 20.7485 1.24653ZM19.8956 4.71741C19.8503 5.31163 19.4902 5.81239 19.4125 6.39776C19.3299 6.74898 19.1203 7.05789 19.0593 7.416C19.0052 7.86265 18.7337 8.2424 18.6579 8.68413C18.5979 9.13176 18.3234 9.51447 18.2565 9.96112C18.1926 10.4087 17.9112 10.7905 17.8571 11.2401C17.7892 11.6818 17.5 12.0556 17.4557 12.5043C17.3987 12.8889 17.1635 13.2175 17.0937 13.5983C17.0347 14.0882 16.7464 14.5112 16.6716 14.9982C16.6028 15.3967 16.3667 15.7439 16.3007 16.1434C16.2299 16.6579 15.9003 17.0947 15.8541 17.6161C15.6888 18.0834 15.5147 18.5468 15.3966 19.0299C16.4572 17.7932 17.5807 16.5605 18.9974 15.7262C19.2738 15.6259 19.5021 15.4311 19.7746 15.3239C20.3225 15.1891 20.8204 14.8359 21.4057 14.8802C22.0914 14.9028 22.8224 14.7621 23.4668 15.0641C23.8761 15.2589 24.3621 15.3258 24.6739 15.6869C24.8068 15.6702 24.9524 15.6711 25.0625 15.5816C25.2239 15.3209 24.9976 15.0494 24.9661 14.7847C24.9032 14.3371 24.6297 13.9554 24.5569 13.5107C24.488 13.0955 24.2342 12.7404 24.1643 12.3252C24.0964 11.8795 23.8141 11.4998 23.756 11.0512C23.6852 10.638 23.4245 10.2858 23.3655 9.8706C23.2986 9.45544 23.0349 9.10225 22.9739 8.6861C22.909 8.27191 22.6453 7.92168 22.5833 7.5075C22.5194 7.09331 22.2577 6.74406 22.1928 6.33184C22.118 5.88126 21.8268 5.50052 21.7737 5.04502C21.6418 4.57181 21.3565 4.01792 20.8174 3.94217C20.3589 3.96873 20.1248 4.38292 19.8956 4.71741ZM16.6283 11.6631C16.2191 12.0438 15.8649 12.4846 15.4684 12.8811C15.3278 13.004 15.1959 13.1359 15.07 13.2736C14.2702 13.9849 13.3955 14.647 12.3783 15.0081C12.0025 15.2215 11.5824 15.2894 11.1593 15.3298C10.391 15.5255 9.60493 15.3573 8.84051 15.2432C8.60833 15.1763 8.40075 15.0484 8.17939 14.9549C7.56844 14.7385 7.09228 14.2751 6.53249 13.9652C6.41542 14.0174 6.29933 14.0705 6.18226 14.1246C6.1734 18.3205 6.17931 22.5165 6.17931 26.7124C8.08003 26.6918 9.98271 26.739 11.8824 26.6839C12.0212 26.5304 12.1638 26.3809 12.3094 26.2353C12.3675 25.9195 12.4855 25.6214 12.6095 25.3282C12.7472 25.0242 12.7502 24.6799 12.8879 24.3769C13.1525 23.8072 13.2076 23.1737 13.4821 22.607C13.5451 22.0384 13.8737 21.5484 13.9504 20.9847C14.0321 20.6099 14.2456 20.2773 14.3115 19.8986C14.3695 19.4145 14.6686 18.9984 14.7306 18.5153C14.8034 18.0746 15.067 17.6919 15.1221 17.2472C15.1871 16.8379 15.434 16.4838 15.494 16.0725C15.5511 15.6239 15.8128 15.2353 15.8875 14.7906C15.9466 14.3391 16.2151 13.9505 16.2879 13.5028C16.346 13.0572 16.6136 12.6735 16.6805 12.2308C16.7228 11.8618 16.9205 11.5411 17.0356 11.1938C16.8684 11.3207 16.7159 11.4693 16.6283 11.6631Z" fill="#5C4A04"/></svg>