<svg width="39" height="39" viewBox="0 0 39 39" fill="none" xmlns="http://www.w3.org/2000/svg"><g clip-path="url(#clip0_283_1038)"><path d="M17.3824 4.91155C18.2812 4.67694 19.2166 4.12545 20.152 4.53373C22.8394 5.35944 25.542 6.13029 28.2293 6.95904C28.1257 7.32162 28.0252 7.6842 27.9246 8.04678C25.5084 7.32162 23.0831 6.62084 20.67 5.8835C20.0515 5.71592 19.3934 5.41428 18.7566 5.67936C12.8913 7.48311 7.00781 9.22287 1.14258 11.0205C1.14258 16.6725 1.14258 22.3275 1.14258 27.9794C4.31133 28.9575 7.49227 29.8929 10.661 30.8648C10.5513 31.2304 10.4416 31.5991 10.332 31.9647C6.89203 30.9044 3.43687 29.8898 0 28.8265V10.1583C5.7982 8.42459 11.5873 6.6574 17.3824 4.91155Z" fill="#5C4A04"/><path d="M29.4876 7.32788C32.6564 8.27241 35.8404 9.18038 39 10.1645V28.8449C32.7234 30.7401 26.4316 32.5682 20.1551 34.4633C19.7224 34.5944 19.2562 34.7071 18.8175 34.5273C16.4044 33.7961 13.9943 33.0496 11.5751 32.3427C11.6878 31.9771 11.7975 31.6115 11.9041 31.2458C14.1893 31.9253 16.4714 32.6109 18.7474 33.3177C19.1923 33.4975 19.6676 33.4305 20.1063 33.2812C26.0203 31.5048 31.9434 29.7681 37.8574 27.9979C37.8574 22.3307 37.8574 16.6666 37.8574 11.0024C34.9598 10.1401 32.0623 9.27179 29.1586 8.41562C29.2713 8.05304 29.381 7.69046 29.4876 7.32788Z" fill="#5C4A04"/><path d="M8.34841 10.5179C9.51232 9.7958 11.1607 10.8348 11.0327 12.1906C11.0175 13.5008 9.39349 14.3783 8.29662 13.6531C7.12052 13.0163 7.1449 11.1151 8.34841 10.5179ZM8.84201 11.5325C8.54341 11.7824 8.42763 12.2729 8.7506 12.5563C9.04919 12.9645 9.89013 12.7452 9.85966 12.2028C10.0547 11.6392 9.29294 11.2278 8.84201 11.5325Z" fill="#5C4A04"/><path d="M15.3379 10.4479C16.5018 9.86293 18.0009 10.9019 17.879 12.1907C17.876 13.5466 16.1332 14.418 15.0515 13.5893C13.8968 12.8763 14.0735 10.9446 15.3379 10.4479ZM15.5969 11.6393C14.9632 12.206 15.9564 13.1932 16.5201 12.5868C17.2179 12.0414 16.1758 10.9446 15.5969 11.6393Z" fill="#5C4A04"/><path d="M22.0472 10.518C23.2172 9.79586 24.8747 10.847 24.7315 12.209C24.7041 13.51 23.0862 14.3753 21.9954 13.6502C20.8193 13.0164 20.8467 11.1121 22.0472 10.518ZM22.5377 11.5356C21.8126 12.0292 22.6352 13.1809 23.3208 12.6386C24.0185 12.1511 23.2416 11.0481 22.5377 11.5356Z" fill="#5C4A04"/><path d="M29.0032 10.463C30.1701 9.84452 31.7027 10.8896 31.5778 12.1937C31.5717 13.5404 29.8472 14.4118 28.7655 13.5983C27.6108 12.9005 27.7601 10.9841 29.0032 10.463ZM29.2865 11.6269C28.6589 12.2241 29.6705 13.1991 30.2311 12.5745C30.8892 12.02 29.8868 10.9627 29.2865 11.6269Z" fill="#5C4A04"/><path d="M5.60016 15.8802C7.00172 15.8741 8.40328 15.8772 9.80789 15.8802C9.81094 16.8796 9.81094 17.882 9.80789 18.8844C9.42703 18.8814 9.04617 18.8814 8.66836 18.8814C8.66836 18.2598 8.66531 17.6413 8.66226 17.0228C8.02242 17.0228 7.38258 17.0228 6.74273 17.0228C6.73969 18.6803 6.73969 20.3378 6.74273 21.9953C7.38258 21.9953 8.02242 21.9923 8.66226 21.9923C8.66531 21.4073 8.66836 20.8192 8.66836 20.2342C9.05226 20.2494 9.43922 20.2586 9.82312 20.2708C9.80789 21.2275 9.80484 22.1812 9.80789 23.1379C8.40633 23.1409 7.00172 23.1409 5.60016 23.1379C5.59711 20.7187 5.59711 18.2994 5.60016 15.8802Z" fill="#5C4A04"/><path d="M10.9687 15.8775C12.3733 15.8775 13.7749 15.8744 15.1795 15.8805C15.1795 18.2997 15.1795 20.719 15.1795 23.1382C14.7987 23.1382 14.4178 23.1412 14.0369 23.1412C14.0369 22.1479 14.0308 21.1577 14.0339 20.1675C13.391 20.1675 12.7512 20.1675 12.1113 20.1675C12.1113 21.1577 12.1083 22.1479 12.1113 23.1382C11.7305 23.1382 11.3496 23.1412 10.9718 23.1443C10.9657 20.722 10.9657 18.2997 10.9687 15.8775ZM12.1113 17.0231C12.1113 17.6904 12.1113 18.3546 12.1113 19.0218C12.7512 19.0218 13.3941 19.0218 14.0339 19.0218C14.0339 18.3546 14.0339 17.6873 14.0339 17.0231C13.3941 17.0231 12.7542 17.0231 12.1113 17.0231Z" fill="#5C4A04"/><path d="M16.3373 15.8774C17.7419 15.8774 19.1435 15.8774 20.5451 15.8774C20.5481 16.5691 20.5481 17.2607 20.5451 17.9554C20.2617 17.9554 19.698 17.9554 19.4147 17.9554C19.4086 17.7208 19.3994 17.2516 19.3964 17.017C18.7535 17.02 18.1137 17.0231 17.4738 17.0383C17.4799 17.6995 17.4799 18.3606 17.4769 19.0188C18.5006 19.0188 19.5244 19.0249 20.5481 19.0249C20.5481 20.396 20.5512 21.7671 20.5451 23.1381C19.1435 23.1412 17.7389 23.1412 16.3373 23.1381C16.3373 22.4831 16.3373 21.831 16.3373 21.176C16.6207 21.176 17.1813 21.1699 17.4647 21.1699C17.4708 21.3771 17.486 21.7884 17.4921 21.9956C18.1289 21.9956 18.7657 21.9925 19.4055 21.9925C19.4025 21.3831 19.4025 20.7738 19.4055 20.1674C18.3818 20.1674 17.3611 20.1644 16.3373 20.1644C16.3343 18.7354 16.3343 17.3064 16.3373 15.8774Z" fill="#5C4A04"/><path d="M21.7059 15.8622C22.0837 15.8591 22.4646 15.8591 22.8455 15.8591C22.8516 18.2844 22.8516 20.7128 22.8455 23.1412C22.4646 23.1412 22.0837 23.1381 21.7059 23.1381C21.7029 20.7128 21.7029 18.2875 21.7059 15.8622Z" fill="#5C4A04"/><path d="M23.8205 15.8866C24.2958 15.8866 24.7711 15.8835 25.2464 15.8805C25.8009 17.4527 26.3433 19.0248 26.8887 20.597C26.8917 19.0187 26.8887 17.4405 26.8887 15.8652C27.1751 15.8652 27.7479 15.8652 28.0312 15.8652C28.0312 18.2905 28.0343 20.7128 28.0312 23.1381C27.5407 23.1351 27.0502 23.1351 26.5627 23.1351C26.0294 21.5995 25.4932 20.0638 24.963 18.5282C24.963 20.0638 24.9661 21.5995 24.963 23.1381C24.5822 23.1351 24.2013 23.1351 23.8205 23.1351C23.8205 20.7189 23.8205 18.3027 23.8205 15.8866Z" fill="#5C4A04"/><path d="M29.1921 15.8775C30.5967 15.8775 31.9982 15.8744 33.4029 15.8805C33.4029 18.2997 33.4029 20.719 33.4029 23.1382C31.9982 23.1412 30.5936 23.1412 29.1921 23.1382C29.189 20.719 29.189 18.2997 29.1921 15.8775ZM30.3347 17.0231C30.3316 18.6806 30.3316 20.3381 30.3347 21.9925C30.9745 21.9925 31.6174 21.9956 32.2572 21.9956C32.2603 20.3381 32.2603 18.6806 32.2572 17.0231C31.6174 17.0231 30.9745 17.0231 30.3347 17.0231Z" fill="#5C4A04"/><path d="M2.62637 18.9303C2.91278 18.9303 3.48559 18.9272 3.772 18.9272C3.772 19.3081 3.76895 19.689 3.76895 20.0729C3.48559 20.0729 2.91887 20.0729 2.63247 20.0729C2.63247 19.692 2.62942 19.3112 2.62637 18.9303Z" fill="#5C4A04"/><path d="M35.3834 18.9272C35.7642 18.9272 36.1451 18.9272 36.5259 18.9303C36.5259 19.3112 36.5259 19.689 36.5259 20.0729C36.1451 20.0698 35.7642 20.0729 35.3834 20.0729C35.3834 19.689 35.3834 19.3081 35.3834 18.9272Z" fill="#5C4A04"/><path d="M8.68358 25.1734C9.98155 24.692 11.4166 26.0874 10.9596 27.4037C10.6519 28.6438 8.93343 29.1435 8.01632 28.2416C6.97429 27.3915 7.37952 25.5146 8.68358 25.1734ZM8.92124 26.3129C8.20827 26.645 8.6653 27.7876 9.42702 27.5621C10.3441 27.2757 9.72866 25.8437 8.92124 26.3129Z" fill="#5C4A04"/><path d="M15.6761 25.1337C16.9101 24.8016 18.1746 26.063 17.8364 27.3001C17.5896 28.6468 15.7097 29.1891 14.7926 28.1715C13.784 27.2483 14.3294 25.3714 15.6761 25.1337ZM15.929 26.258C15.1094 26.3799 15.3471 27.7144 16.1758 27.5743C17.0808 27.4524 16.7639 25.9991 15.929 26.258Z" fill="#5C4A04"/><path d="M22.3854 25.1702C23.6894 24.6918 25.1245 26.0995 24.6553 27.4158C24.3415 28.6406 22.6474 29.1372 21.7333 28.2567C20.67 27.4127 21.0722 25.5145 22.3854 25.1702ZM22.6383 26.2854C21.9009 26.6053 22.364 27.821 23.1288 27.5346C24.0337 27.2786 23.4457 25.8862 22.6383 26.2854Z" fill="#5C4A04"/><path d="M29.3688 25.1338C30.6059 24.7986 31.8703 26.057 31.5382 27.294C31.2975 28.6346 29.4298 29.1892 28.5035 28.1837C27.4798 27.2696 28.0191 25.3775 29.3688 25.1338ZM29.6217 26.2581C28.7991 26.3739 29.058 27.7693 29.8959 27.5591C30.7856 27.4281 30.4505 25.996 29.6217 26.2581Z" fill="#5C4A04"/></g><defs><clipPath id="clip0_283_1038"><rect width="39" height="39" fill="white"/></clipPath></defs></svg>