<svg width="40" height="40" viewBox="0 0 40 40" fill="none" xmlns="http://www.w3.org/2000/svg"><path d="M23.777 31.2626C16.8566 28.326 11.2903 22.909 8.16203 16.0958L8.16076 16.0931L7.31506 14.2328C6.15816 11.6881 7.0125 8.67989 9.33426 7.12312L11.5099 5.66429C12.2124 5.19324 13.1584 5.33684 13.6895 5.99513L17.6558 10.9117C18.2384 11.6338 18.1028 12.6957 17.3573 13.2481L15.305 14.769C17.2301 18.6716 20.3987 21.84 24.3013 23.7652L25.8221 21.7129C26.3745 20.9675 27.4364 20.8317 28.1585 21.4143L33.075 25.3806C33.7333 25.9118 33.8768 26.858 33.4056 27.5606L31.9559 29.7213C30.4079 32.0287 27.4243 32.8878 24.8863 31.7569L23.777 31.2626Z" fill="#5C4A04"/><path d="M22.4448 14.6911C22.4448 15.0158 22.5738 15.3272 22.8033 15.5568C23.033 15.7864 23.3444 15.9154 23.6691 15.9154H29.9184C30.5945 15.9154 31.1426 15.3673 31.1426 14.6911C31.1426 14.015 30.5945 13.4669 29.9184 13.4669H26.6246L31.7812 8.31028C32.2593 7.83218 32.2593 7.05701 31.7812 6.57891C31.3031 6.10081 30.5281 6.10081 30.0499 6.57891L24.8933 11.7355V8.44181C24.8933 7.76568 24.3452 7.21755 23.6691 7.21755C22.993 7.21755 22.4448 7.76568 22.4448 8.44181V14.6911Z" fill="#5C4A04"/></svg>