<svg width="39" height="31" viewBox="0 0 39 31" fill="none" xmlns="http://www.w3.org/2000/svg"><path d="M35.0728 11.1796L28.7262 2.11558L31.7475 0L38.0941 9.06403L35.0728 11.1796Z" fill="#5C4A04"/><path d="M31.5987 15.8634L28.4254 11.3315L13.3186 21.9094L16.4918 26.4413L13.4705 28.557L5.00824 16.4714L8.02958 14.356L11.203 18.8881L26.3097 8.31016L23.1364 3.77804L26.1578 1.66248L34.62 13.7479L31.5987 15.8634Z" fill="#5C4A04"/><path d="M35.9787 6.04256L39 3.927L36.8843 0.90564L33.863 3.0212L35.9787 6.04256Z" fill="#5C4A04"/><path d="M10.9021 28.104L4.5554 19.0398L1.53406 21.1555L7.88077 30.2195L10.9021 28.104Z" fill="#5C4A04"/><path d="M5.76522 27.1985L2.74386 29.3139L0.628296 26.2926L3.64963 24.1771L5.76522 27.1985Z" fill="#5C4A04"/></svg>