<svg width="41" height="28" viewBox="0 0 41 28" fill="none" xmlns="http://www.w3.org/2000/svg"><path d="M18.0783 9.27567C17.9284 8.71673 17.7078 8.22433 17.4166 7.79848C17.1255 7.36375 16.7681 6.99556 16.3446 6.69392C15.9211 6.39227 15.4359 6.16603 14.8888 6.01521C14.3418 5.85551 13.7418 5.77566 13.0889 5.77566C11.7743 5.77566 10.6361 6.09506 9.67443 6.73384C8.72154 7.37262 7.98482 8.30418 7.46427 9.52852C6.94371 10.744 6.68343 12.2212 6.68343 13.9601C6.68343 15.7079 6.93489 17.1984 7.4378 18.4316C7.94071 19.6648 8.66861 20.6052 9.62149 21.2528C10.5744 21.9005 11.7302 22.2243 13.0889 22.2243C14.2889 22.2243 15.3035 22.0292 16.1329 21.6388C16.9711 21.2395 17.6063 20.6762 18.0386 19.9487C18.471 19.2212 18.6871 18.365 18.6871 17.3802L19.9047 17.5266H13.3139V12.7224H25V16.3289C25 18.7687 24.4839 20.858 23.4516 22.597C22.4281 24.3359 21.0164 25.6711 19.2165 26.6027C17.4254 27.5342 15.3653 28 13.036 28C10.4509 28 8.17893 27.4366 6.22022 26.3099C4.26151 25.1831 2.73513 23.5773 1.64108 21.4924C0.547027 19.3986 0 16.9144 0 14.0399C0 11.8042 0.330863 9.82129 0.992589 8.09126C1.65431 6.35234 2.57632 4.87959 3.7586 3.673C4.94971 2.46641 6.3261 1.5526 7.88777 0.931558C9.45827 0.310519 11.1479 0 12.9566 0C14.5271 0 15.9873 0.226236 17.3372 0.678708C18.696 1.13118 19.8959 1.76996 20.937 2.59506C21.9869 3.42015 22.8384 4.40051 23.4913 5.53612C24.1442 6.67174 24.55 7.91825 24.7088 9.27567H18.0783Z" fill="#5C4A04"/><path d="M34.5 7L36.2925 11.7075L41 13.5L36.2925 15.2925L34.5 20L32.7075 15.2925L28 13.5L32.7075 11.7075L34.5 7Z" fill="#5C4A04"/></svg>