<svg width="46" height="43" viewBox="0 0 46 43" fill="none" xmlns="http://www.w3.org/2000/svg"><g clip-path="url(#clip0_249_5176)"><path d="M19.3498 4.60586L25.7861 0.825195L26.4461 4.3275C26.4894 4.55685 26.7159 4.71373 26.9608 4.68406L34.4733 3.77403L33.57 7.14913C33.5096 7.37461 33.6476 7.6052 33.8834 7.67329L41.1374 9.76563L38.8629 12.4582C38.7077 12.6421 38.7346 12.9088 38.9238 13.0616L44.6226 17.6699L41.3951 19.3451C41.1819 19.4556 41.096 19.7029 41.1985 19.9111L44.3814 26.3792L40.7578 26.604C40.5109 26.6194 40.3205 26.8152 40.3256 27.0484L40.4771 34.1616L37.0332 32.9894C36.8018 32.9107 36.5455 33.0163 36.4498 33.2299L33.5339 39.7335L30.8755 37.3907C30.6975 37.2339 30.421 37.234 30.2432 37.3909L24.7649 42.2261L23.3564 39.0558C23.2619 38.8431 23.0083 38.7364 22.7774 38.8121L15.646 41.1498L15.7678 37.6957C15.776 37.464 15.5907 37.2666 15.3458 37.2463L7.7803 36.6186L9.41903 33.5432C9.53123 33.3327 9.44604 33.0763 9.2265 32.9636L2.51796 29.5235L5.40958 27.3119C5.61047 27.1583 5.6389 26.8793 5.4728 26.6925L0.811317 21.4482L4.49566 20.0678C4.70368 19.9898 4.82283 19.7825 4.77839 19.5755L3.1854 12.155L6.62027 13.0793C6.8833 13.1502 7.15374 12.9915 7.20267 12.7377L8.57095 5.63798L11.7224 7.57814C11.9332 7.70784 12.2152 7.65509 12.3574 7.45929L16.6763 1.51273L18.7171 4.47329C18.8546 4.67258 19.1359 4.73157 19.3498 4.60586Z" stroke="#5C4A04" stroke-width="1.81"/><path d="M7.22969 12.6241C7.03132 26.1555 26.8017 23.973 24.818 11.9382" stroke="#5C4A04" stroke-width="1.81" stroke-linecap="round"/><path d="M24.2666 12.2649C24.1364 12.0598 24.1338 11.7895 24.2907 11.5766L24.2907 11.5766C24.4469 11.3646 24.7122 11.2772 24.9565 11.3287L24.9833 11.2923L25.1812 11.422L25.1812 11.422L25.4022 11.5668L25.4 11.5697C29.4249 14.3668 29.9215 19.2855 27.9735 22.9968L27.9735 22.9969C26.9773 24.8946 25.3315 26.5094 23.1547 27.3993C20.9716 28.292 18.2991 28.4372 15.2897 27.4674L15.043 27.3879L15.1313 27.1442L15.3879 26.4363L15.4701 26.2095L15.6996 26.2835C18.4427 27.1673 20.7871 27.0115 22.6499 26.25C24.519 25.4858 25.9478 24.0932 26.8196 22.4325C28.5722 19.0936 28.0321 14.7997 24.4549 12.455C24.4547 12.4549 24.4546 12.4548 24.4545 12.4547L24.2666 12.2649ZM24.2666 12.2649L24.2334 12.3099L24.4539 12.4543C24.4541 12.4544 24.4542 12.4545 24.4544 12.4546L24.2666 12.2649Z" fill="#5C4A04" stroke="#5C4A04" stroke-width="0.5"/><path d="M15.6932 27.094C18.1397 26.6573 19.2638 23.6 17.3462 21.6658" stroke="#5C4A04" stroke-width="1.81"/><path d="M20.5201 23.7248C21.1774 23.7248 21.7102 23.222 21.7102 22.6018C21.7102 21.9815 21.1774 21.4788 20.5201 21.4788C19.8628 21.4788 19.3299 21.9815 19.3299 22.6018C19.3299 23.222 19.8628 23.7248 20.5201 23.7248Z" fill="#5C4A04"/><path d="M15.2302 27.8402C15.7414 27.8402 16.1559 27.4491 16.1559 26.9667C16.1559 26.4843 15.7414 26.0933 15.2302 26.0933C14.7189 26.0933 14.3045 26.4843 14.3045 26.9667C14.3045 27.4491 14.7189 27.8402 15.2302 27.8402Z" fill="#5C4A04"/></g><defs><clipPath id="clip0_249_5176"><rect width="45.434" height="43" fill="white"/></clipPath></defs></svg>