<svg width="40" height="40" viewBox="0 0 40 40" fill="none" xmlns="http://www.w3.org/2000/svg"><path d="M16.5424 1.41607C17.736 0.501952 19.233 -0.0570321 20.7477 0.00476985C22.1885 0.0721063 23.6035 0.613565 24.7242 1.52122C25.8652 2.43626 26.7009 3.71842 27.0865 5.12787C27.7949 3.87339 28.9074 2.85319 30.2181 2.25454C31.5814 1.61715 33.1597 1.44743 34.6273 1.78319C36.0598 2.12264 37.3189 3.02292 38.2219 4.17133C39.5105 5.80769 40.1738 7.94401 39.9607 10.0222C39.7365 12.0654 38.8012 13.972 37.5513 15.5807C35.8679 17.7604 33.6716 19.489 31.337 20.9243C31.1221 18.347 30.0235 15.8408 28.2054 13.9923C26.2563 11.9777 23.4679 10.726 20.6443 10.8616C18.4324 10.9437 16.3127 11.9362 14.728 13.4628C13.7659 11.5368 13.1534 9.37837 13.336 7.20977C13.4984 4.93324 14.7326 2.7877 16.5424 1.41607Z" fill="#5C4A04"/><path d="M20.1951 12.8632C21.849 12.6252 23.549 13.0671 24.9705 13.9194C26.8624 15.0567 28.3373 16.8942 28.9885 19.0083C29.5715 20.9749 29.5051 23.0873 29.03 25.0686C28.472 27.4383 27.3927 29.6576 26.0903 31.7036C25.0369 33.3482 23.8276 34.8933 22.491 36.3175C21.5917 37.2639 20.649 38.1817 19.5771 38.9325C19.2321 39.1576 18.8678 39.4159 18.4398 39.4214C17.7157 39.4371 17.0036 39.2738 16.3016 39.117C13.871 38.5147 11.5336 37.5637 9.32445 36.3904C6.52676 34.8748 3.87389 32.9331 2.01245 30.3163C0.893558 28.7205 0.0910551 26.8443 0.00711516 24.8786C-0.0805144 22.6759 0.643583 20.4381 2.05211 18.7362C3.04556 17.5343 4.42918 16.6294 5.96962 16.3306C7.68531 15.9644 9.52184 16.2171 11.0789 17.0242C12.1387 17.5666 13.0612 18.3627 13.7705 19.3164C14.0214 17.7695 14.7289 16.2937 15.8173 15.1619C16.9685 13.9387 18.5348 13.1159 20.1951 12.8632Z" fill="#5C4A04"/></svg>