<svg width="56" height="57" viewBox="0 0 56 57" fill="none" xmlns="http://www.w3.org/2000/svg"><path d="M36.743 8.4035C37.3844 8.06225 38.1474 8.13663 38.8343 8.2775C39.4791 8.42275 40.1336 8.52163 40.7768 8.67825C40.6595 9.4185 40.5554 10.1649 40.348 10.8859C39.7591 10.8369 39.1125 10.4991 38.556 10.8308C38.0791 11.1283 38.0354 11.7399 37.9916 12.2448C38.6759 12.3821 39.3654 12.4933 40.0461 12.6481C39.8659 13.3884 39.7495 14.1426 39.6069 14.8916C38.9148 14.7831 38.2358 14.595 37.5366 14.5364C37.0878 16.7869 36.6686 19.0444 36.225 21.2949C36.1331 21.4323 35.9678 21.3404 35.8383 21.3316C34.9799 21.154 34.1093 21.0376 33.2588 20.8215C33.4933 19.3296 33.8441 17.8579 34.1066 16.3704C34.23 15.5496 34.4461 14.7438 34.5301 13.9169C34.2344 13.8696 33.9395 13.8128 33.6411 13.7813C33.3375 13.7086 33.0356 13.6325 32.7338 13.5564C32.8151 12.8039 33.0164 12.0715 33.1231 11.3234C33.7636 11.3969 34.3831 11.6086 35.0306 11.6349C35.1234 11.1055 35.1873 10.5683 35.3343 10.0503C35.5451 9.33363 36.071 8.72725 36.743 8.4035Z" fill="#5C4A04"/><path d="M47.8354 13.3376C50.0894 12.8555 52.3504 12.4031 54.6044 11.9184C55.1478 11.7644 55.7428 12.0374 56 12.5344V17.8211C55.8714 17.2016 55.7725 16.5751 55.5958 15.9679C55.3499 16.0221 55.104 16.0738 54.8573 16.1236C55.0918 16.8245 55.209 17.5814 55.034 18.3103C54.6884 19.5711 53.4581 20.5179 52.1535 20.545C51.0291 20.615 49.8943 19.9859 49.3587 18.9954C49.0639 18.4958 49.0219 17.9078 48.9659 17.3443C48.6867 17.3968 48.4103 17.4668 48.1416 17.5595C48.3805 18.6926 48.6019 19.8293 48.8451 20.9615C48.9151 21.2424 48.9239 21.5556 49.0901 21.8006C49.3211 21.9459 49.6221 21.8435 49.8768 21.8155C51.9164 21.3833 53.9569 20.9554 56 20.538V21.6773C53.8746 22.1296 51.7458 22.5715 49.6178 23.0134C49.2677 23.0799 48.8749 23.1289 48.5546 22.9346C48.2396 22.7684 48.0664 22.4324 47.985 22.099C47.8564 21.5906 47.7645 21.0735 47.649 20.5616C47.2938 18.6891 46.8694 16.8306 46.4958 14.9616C46.3951 14.5548 46.4511 14.0901 46.7548 13.7813C47.0155 13.4558 47.4565 13.4208 47.8354 13.3376ZM54.1984 13.1066C53.8527 13.2073 53.4004 13.1688 53.1711 13.4916C53.0836 13.9318 53.2718 14.3701 53.3488 14.7998C53.3715 15.0623 53.6498 15.2338 53.8983 15.1611C54.2929 15.0876 54.6919 15.0211 55.076 14.9039C55.3394 14.805 55.2886 14.4725 55.2624 14.2511C55.1959 13.9125 55.1583 13.5573 55.0174 13.2396C54.8468 12.9439 54.4679 13.0594 54.1984 13.1066ZM51.6513 15.5916C51.0703 15.708 50.5557 16.093 50.2827 16.6198C50.0588 16.9838 50.0596 17.43 50.106 17.8413C50.239 18.5465 50.8104 19.145 51.5121 19.3051C52.0013 19.4758 52.5341 19.3533 52.9865 19.1345C53.7644 18.7189 54.236 17.7275 53.9324 16.8744C53.6533 15.9425 52.5893 15.3598 51.6513 15.5916Z" fill="#5C4A04"/><path d="M20.5957 12.9964C21.112 12.5072 21.917 12.4092 22.5505 12.7181C23.6084 13.2046 24.3364 14.1662 24.9847 15.0972C26.4416 17.3512 27.377 19.901 28.091 22.4752C28.2826 23.2374 28.5136 23.9934 28.6195 24.7739C28.6256 24.8272 28.6379 24.9331 28.644 24.9865C28.1304 24.9217 27.58 24.8605 27.097 25.095C26.4136 25.4135 25.8615 26.0969 25.8326 26.8686C25.8177 27.0847 25.8186 27.3017 25.816 27.5187C25.4214 27.4986 24.8885 27.5835 24.6697 27.1644C24.2314 25.1247 23.6451 23.0991 22.7176 21.224C22.4035 20.6062 22.0456 19.992 21.5311 19.5177C21.2791 19.2762 20.9116 19.1826 20.5712 19.2369C20.2099 19.3699 20.0182 19.747 19.936 20.1005C19.6315 21.42 19.7592 22.7859 19.8992 24.1185C20.1967 26.3725 20.7025 28.6072 21.4987 30.7405C21.707 31.3119 21.9817 31.8579 22.1681 32.438C22.0334 32.3417 21.8969 32.2499 21.7612 32.1554C21.7227 32.2096 21.6842 32.263 21.6466 32.3172C21.7674 32.7119 21.9704 33.0759 22.0894 33.4705C22.1375 33.5746 22.0465 33.656 22.0001 33.74C21.1794 31.899 20.5747 29.9696 20.0602 28.0236C19.5781 26.1275 19.2526 24.1894 19.131 22.2355C19.089 21.098 19.0864 19.9596 19.1319 18.8221C19.1669 18.1449 19.3034 17.4772 19.3305 16.8C18.5937 17.8754 17.7686 18.9184 16.7125 19.6989C15.288 20.8302 13.8031 21.8846 12.2745 22.8707C11.6296 23.2925 10.9375 23.6346 10.2611 24.0012C10.0047 23.8997 9.74925 23.737 9.464 23.758C8.97837 23.877 8.49975 24.164 8.30287 24.6444C8.07625 24.5971 7.833 24.4842 7.60637 24.591C6.85475 24.906 6.15912 25.5377 5.29462 25.438C6.01912 25.0985 6.76725 24.8132 7.49087 24.4737C11.6515 22.5452 15.5409 19.9535 18.7241 16.6355C18.9455 16.4097 19.1634 16.1569 19.2229 15.8357C19.46 14.8111 19.7977 13.7287 20.5957 12.9964Z" fill="#5C4A04"/><path d="M8.30287 24.6444C8.49975 24.164 8.97837 23.877 9.464 23.758C9.74925 23.737 10.0047 23.8997 10.2611 24.0012C10.2314 24.0161 10.1719 24.0467 10.1421 24.0616C9.919 24.0362 9.65825 23.8989 9.46575 24.0809C9.07113 24.3897 8.60213 24.6619 8.3965 25.1431C7.45675 26.1336 6.77688 27.3805 6.5065 28.7219C6.25713 30.0037 6.566 31.3346 7.21875 32.4502C7.03763 32.4406 6.85125 32.4502 6.67538 32.3977C6.48288 32.1939 6.50563 31.8815 6.44525 31.6242C6.42163 31.6794 6.39713 31.7345 6.3735 31.7905C6.31925 31.7581 6.265 31.7266 6.21075 31.6942C5.85375 31.6741 5.52738 31.4886 5.166 31.5009C4.52025 31.4991 3.87363 31.5035 3.23225 31.5822C2.81925 31.6321 2.408 31.563 1.995 31.5569C1.80338 31.5472 1.67825 31.7196 1.547 31.8334C1.15938 32.242 0.72625 32.613 0.408625 33.082C0.623875 33.0942 0.847875 33.0846 1.05088 33.1695C1.15588 33.4145 1.16288 33.6866 1.18213 33.9491C1.06488 34.041 0.856625 34.1092 0.889875 34.2956C0.889875 34.5634 1.13663 34.7086 1.32213 34.8556C1.38513 35.231 1.6695 35.4917 1.94513 35.7271C2.093 35.5722 2.24 35.4165 2.38613 35.2599C2.47275 35.4025 2.55938 35.546 2.64513 35.6895C2.49113 35.8015 2.33713 35.9152 2.18488 36.0316C2.39575 36.1287 2.61975 36.1979 2.8525 36.2092C3.33113 36.2416 3.80188 36.3344 4.27175 36.4306C4.214 36.4962 4.15713 36.5619 4.09938 36.6284C3.6155 36.5041 3.12025 36.4192 2.62325 36.3746C2.25138 36.3309 1.94425 36.5872 1.6065 36.6957C1.099 36.9084 0.54075 36.9092 0 36.8935V35.5171C0.58625 36.0439 1.37025 36.3895 2.17 36.2889C1.8025 35.8575 1.3825 35.4716 1.05088 35.0105C0.623875 34.454 0.3115 33.824 0 33.1984V29.3729C0.426125 28.3937 1.0465 27.5039 1.8095 26.7575C2.08688 26.4897 2.47538 26.4066 2.828 26.2876C3.66275 26.04 4.4625 25.6926 5.29462 25.438C6.15912 25.5377 6.85475 24.906 7.60637 24.591C7.833 24.4842 8.07625 24.5971 8.30287 24.6444Z" fill="#5C4A04"/><path d="M9.46575 24.0809C9.65825 23.8989 9.919 24.0362 10.1421 24.0616C9.53838 24.3862 8.95213 24.7424 8.3965 25.1431C8.60213 24.6619 9.07113 24.3897 9.46575 24.0809Z" fill="#5C4A04"/><path d="M15.1769 25.2709C15.6643 25.1396 16.2208 25.1641 16.6486 25.4546C17.0879 25.7372 17.241 26.2929 17.2786 26.7837C17.3163 27.2326 17.0363 27.608 16.7729 27.9387C17.038 28.0341 17.3364 28.1094 17.5166 28.3447C17.801 28.686 17.8579 29.1384 17.9533 29.5566C18.0206 29.8699 18.1921 30.1437 18.3654 30.4089C17.9673 30.4999 17.5849 30.688 17.1736 30.6985C16.6784 30.1875 16.926 29.3309 16.4299 28.8251C16.058 28.4804 15.5619 28.826 15.1533 28.9117C15.2696 29.6756 15.4455 30.4307 15.6231 31.1832C15.2583 31.3311 14.882 31.4624 14.4874 31.4965C14.1838 30.0764 13.8933 28.6536 13.587 27.2344C13.4899 26.7575 13.3429 26.2876 13.321 25.7985C13.9466 25.6471 14.5565 25.4406 15.1769 25.2709ZM14.5679 26.3419C14.7149 26.8914 14.8225 27.4505 14.9293 28.0096C15.3475 27.9589 15.8585 27.8827 16.0921 27.4855C16.2313 27.0602 16.1674 26.5081 15.792 26.2194C15.3983 26.0015 14.9643 26.2666 14.5679 26.3419Z" fill="#5C4A04"/><path d="M39.5789 25.6909C40.1704 25.4931 41.0078 25.669 41.2484 26.3113C41.4768 26.8363 41.2213 27.5161 40.6858 27.7358C40.1503 27.9423 39.4616 27.7883 39.1151 27.3149C38.9953 27.1303 38.8859 26.9054 38.9445 26.6805C38.9769 26.278 39.1563 25.8169 39.5789 25.6909Z" fill="#5C4A04"/><path d="M41.9011 29.0946C42.6064 29.1611 43.2915 29.358 43.9898 29.4718C43.9731 29.7246 43.9346 29.9758 43.8953 30.2269C44.1884 30.0729 44.4465 29.8498 44.7641 29.7439C45.6059 29.5094 46.55 29.7614 47.1958 30.3398C47.6009 30.8009 47.8468 31.4151 47.8328 32.032C47.8599 32.5771 47.6945 33.1021 47.5974 33.6315C47.4014 34.5511 47.2474 35.4795 47.0461 36.3974C47.0383 36.6459 46.7583 36.5365 46.6078 36.512C46.0504 36.3711 45.4703 36.3221 44.9269 36.1288C45.1868 35.0551 45.3696 33.9649 45.5936 32.8834C45.6768 32.4301 45.7196 31.899 45.4064 31.5193C44.9995 31.0949 44.2593 31.1001 43.848 31.5184C43.4228 31.8771 43.4481 32.4765 43.337 32.9744C43.1384 33.8616 42.9818 34.7576 42.7954 35.6466C42.6878 35.7586 42.532 35.6764 42.4034 35.6676C41.8381 35.5513 41.2659 35.462 40.7076 35.3115C41.0471 33.229 41.5686 31.178 41.9011 29.0946Z" fill="#5C4A04"/><path d="M0 26.3226C0.56875 26.3165 1.16813 26.3244 1.67913 26.6079C1.0535 26.7111 0.455 26.9745 0 27.4234V26.3226Z" fill="#5C4A04"/><path d="M10.1684 26.7382C10.7363 26.5659 11.3584 26.355 11.9385 26.5965C12.8301 26.9246 13.1696 28.049 12.9036 28.9012C12.7523 29.4472 12.3156 29.8725 11.8134 30.1096C11.4249 30.2855 10.9953 30.3424 10.6076 30.5209C10.7634 31.2034 10.9296 31.8867 11.0084 32.5832C10.6479 32.6786 10.2926 32.7959 9.93213 32.8895C9.54013 31.1246 9.18138 29.3527 8.80163 27.5861C8.7955 27.4409 8.68963 27.251 8.82438 27.1372C9.26538 26.9824 9.72388 26.8835 10.1684 26.7382ZM10.0126 27.7279C10.1631 28.3159 10.2576 28.9179 10.4055 29.5059C10.43 29.5242 10.479 29.561 10.5035 29.5785C10.8448 29.5225 11.1886 29.4315 11.4975 29.2731C11.8904 29.0115 11.9315 28.4655 11.7863 28.0542C11.6918 27.7576 11.4651 27.4225 11.1178 27.4304C10.7328 27.4417 10.3609 27.5704 10.0126 27.7279Z" fill="#5C4A04"/><path d="M38.7021 28.4568C39.3908 28.5408 40.0654 28.7105 40.7479 28.8304C40.6998 29.5881 40.4653 30.3179 40.3436 31.0651C40.0776 32.4021 39.802 33.7383 39.5728 35.0823C38.8649 35.0009 38.1693 34.8346 37.4719 34.6964C37.6679 33.4565 37.9505 32.2315 38.1876 30.9986C38.3609 30.1516 38.5044 29.2985 38.7021 28.4568Z" fill="#5C4A04"/><path d="M29.0378 30.7974C29.1217 30.6495 29.2583 30.5471 29.4131 30.4824C29.4429 31.6155 29.4788 32.753 29.3615 33.8826C29.2749 35.1435 29.0386 36.4044 28.5548 37.576C28.2555 38.2349 27.8539 38.9393 27.1408 39.2123C26.4906 39.4923 25.7513 39.2438 25.1991 38.8623C23.7668 37.8219 22.0833 37.2033 20.391 36.7325C17.8351 36.057 15.2005 35.7131 12.5633 35.581C11.7863 35.5618 11.0093 35.4708 10.2331 35.5329C9.94875 35.5478 9.81488 35.8356 9.67663 36.043C9.42813 36.4175 9.394 36.9233 9.57775 37.331C9.72213 37.6574 10.066 37.8271 10.2498 38.1203C10.3338 38.6803 10.094 39.3041 10.4204 39.8143C10.6164 40.1599 10.8815 40.4644 11.1939 40.7111C11.5386 41.2668 11.4153 41.9624 11.6113 42.567C11.914 42.8339 12.3445 43.0185 12.4408 43.4543C12.5099 43.855 12.593 44.3809 12.1931 44.639C12.1494 44.7808 12.1354 44.9286 12.1258 45.0774C12.0531 45.0861 11.9805 45.0949 11.9079 45.1045C11.8493 44.6539 12.1476 44.2995 12.2946 43.9049C12.3148 43.5908 12.1511 43.246 11.858 43.1086C11.7101 43.0001 11.473 42.9503 11.4328 42.7438C11.2875 42.1759 11.3138 41.5748 11.137 41.0139C11.0023 40.7365 10.6978 40.607 10.4545 40.4425C10.4256 40.579 10.3968 40.7164 10.3688 40.8546C10.2681 40.8564 10.1666 40.859 10.066 40.8625C10.1308 40.6306 10.2226 40.4023 10.2419 40.1616C10.2209 39.956 10.1141 39.7723 10.0555 39.578C9.8945 39.1318 10.031 38.6505 9.94263 38.1946C9.70113 37.961 9.40625 37.7921 9.156 37.5681C9.05538 37.9995 9.01163 38.4405 8.9775 38.8815C8.79025 38.9585 8.60388 39.0373 8.41925 39.1204C8.37288 39.0696 8.3265 39.0198 8.28013 38.9699C7.88988 38.9384 7.49263 38.9034 7.10325 38.9716C6.83375 38.9865 6.755 39.2831 6.622 39.4686C6.59488 39.4503 6.54063 39.4135 6.5135 39.3951C6.70863 38.976 7.02188 38.5726 6.9965 38.0879C6.74188 38.0258 6.67188 38.367 6.52925 38.5149C6.44263 38.507 6.35513 38.4991 6.2685 38.4921C6.2335 38.3591 6.1985 38.2261 6.1635 38.0931C6.06113 38.087 5.95875 38.0826 5.85725 38.0774C6.19763 38.7336 6.4085 39.4433 6.6955 40.1214C6.85738 40.5974 6.84775 41.1093 6.96675 41.5949C7.05513 41.9449 7.02538 42.3063 6.95275 42.6554C6.68325 40.7881 6.202 38.8964 5.12838 37.3188C4.8965 36.9574 4.50188 36.7465 4.09938 36.6284C4.15713 36.5619 4.214 36.4962 4.27175 36.4306C3.80188 36.3344 3.33113 36.2416 2.8525 36.2092C2.61975 36.1979 2.39575 36.1287 2.18488 36.0316C2.33713 35.9152 2.49113 35.8015 2.64513 35.6895C2.55938 35.546 2.47275 35.4025 2.38613 35.2599C2.24 35.4165 2.093 35.5722 1.94513 35.7271C1.6695 35.4917 1.38513 35.231 1.32213 34.8556C1.13663 34.7086 0.889875 34.5634 0.889875 34.2956C0.856625 34.1092 1.06488 34.041 1.18213 33.9491C1.16288 33.6866 1.15588 33.4145 1.05088 33.1695C0.847875 33.0846 0.623875 33.0942 0.408625 33.082C0.72625 32.613 1.15938 32.242 1.547 31.8334C1.67825 31.7196 1.80338 31.5472 1.995 31.5569C2.408 31.563 2.81925 31.6321 3.23225 31.5822C3.87363 31.5035 4.52025 31.4991 5.166 31.5009C5.52738 31.4886 5.85375 31.6741 6.21075 31.6942C6.265 31.7266 6.31925 31.7581 6.3735 31.7905C6.39713 31.7345 6.42163 31.6794 6.44525 31.6242C6.50563 31.8815 6.48288 32.1939 6.67538 32.3977C6.85125 32.4502 7.03763 32.4406 7.21875 32.4502C7.93538 33.5746 9.07638 34.3438 10.2725 34.8828C10.8666 35.1549 11.5325 35.028 12.1625 35.0508C15.288 35.0665 18.4406 35.357 21.4533 36.225C22.2066 36.4201 22.9854 36.6153 23.6259 37.0799C23.0151 36.0019 22.4595 34.8915 22.0001 33.74C22.0465 33.656 22.1375 33.5746 22.0894 33.4705C21.9704 33.0759 21.7674 32.7119 21.6466 32.3172C21.6842 32.263 21.7227 32.2096 21.7612 32.1554C21.8969 32.2499 22.0334 32.3417 22.1681 32.438L22.1874 32.4861C22.3064 32.8195 22.4893 33.1258 22.7203 33.3944C23.0449 33.7873 23.3258 34.2738 23.821 34.4706C24.0931 34.5398 24.4423 34.6019 24.6689 34.391C24.8579 34.2073 24.948 33.9518 25.0495 33.7146C25.1003 33.5939 25.1536 33.4749 25.2079 33.3568C25.7618 33.2089 26.3235 33.0636 26.8328 32.7906C27.7244 32.3348 28.4926 31.6374 29.0378 30.7974Z" fill="#5C4A04"/><path d="M9.156 37.5681C9.40625 37.7921 9.70113 37.961 9.94263 38.1946C10.031 38.6505 9.8945 39.1318 10.0555 39.578C10.1141 39.7723 10.2209 39.956 10.2419 40.1616C10.2226 40.4023 10.1308 40.6306 10.066 40.8625C10.1666 40.859 10.2681 40.8564 10.3688 40.8546C10.3968 40.7164 10.4256 40.579 10.4545 40.4425C10.6978 40.607 11.0023 40.7365 11.137 41.0139C11.3138 41.5748 11.2875 42.1759 11.4328 42.7438C11.473 42.9503 11.7101 43.0001 11.858 43.1086C12.1511 43.246 12.3148 43.5908 12.2946 43.9049C12.1476 44.2995 11.8493 44.6539 11.9079 45.1045C11.9805 45.0949 12.0531 45.0861 12.1258 45.0774C12.2885 45.2235 12.4407 45.381 12.5781 45.5516C12.5816 45.5954 12.5877 45.6811 12.5912 45.724C12.5939 45.7642 12.5991 45.8448 12.6017 45.885C12.5431 46.0994 12.5011 46.4135 12.2351 46.4599C11.5955 46.5666 10.9419 46.4922 10.297 46.4992C9.68975 46.4231 9.1175 46.1895 8.61 45.85C8.526 45.7992 8.442 45.7494 8.358 45.7004L8.2915 45.661C7.84525 45.2384 7.47162 44.7405 7.19862 44.1893C6.99825 43.7028 6.93438 43.1778 6.95275 42.6554C7.02538 42.3063 7.05513 41.9449 6.96675 41.5949C6.84775 41.1093 6.85738 40.5974 6.6955 40.1214C6.4085 39.4433 6.19763 38.7336 5.85725 38.0774C5.95875 38.0826 6.06113 38.087 6.1635 38.0931C6.1985 38.2261 6.2335 38.3591 6.2685 38.4921C6.35513 38.4991 6.44263 38.507 6.52925 38.5149C6.67188 38.367 6.74188 38.0258 6.9965 38.0879C7.02188 38.5726 6.70863 38.976 6.5135 39.3951C6.54063 39.4135 6.59488 39.4503 6.622 39.4686C6.755 39.2831 6.83375 38.9865 7.10325 38.9716C7.49263 38.9034 7.88988 38.9384 8.28013 38.9699C8.3265 39.0198 8.37288 39.0696 8.41925 39.1204C8.60388 39.0373 8.79025 38.9585 8.9775 38.8815C9.01163 38.4405 9.05538 37.9995 9.156 37.5681Z" fill="#5C4A04"/><path d="M25.2 33.9942C25.3705 31.2055 25.322 29.9491 24.6422 27.0379L25.6594 24.6098H28.6125C29.3314 27.8436 29.4593 29.5592 29.4 32.5176L25.2 33.9942Z" fill="#5C4A04"/></svg>