<svg width="43" height="43" viewBox="0 0 43 43" fill="none" xmlns="http://www.w3.org/2000/svg"><path d="M23.2955 5.30209C22.6137 4.12682 20.9163 4.12682 20.2345 5.30209L15.4317 13.579C15.0948 14.1595 14.5125 14.5558 13.8488 14.656L4.84813 16.0154C3.33641 16.2438 2.80613 18.1524 3.98345 19.1278L10.6886 24.6829C11.3092 25.1971 11.6011 26.0083 11.4503 26.8L9.69634 36.011C9.41907 37.4671 10.9476 38.5984 12.2591 37.9079L20.7344 33.4452C21.3794 33.1056 22.1504 33.1056 22.7956 33.4452L31.2708 37.9079C32.5823 38.5984 34.1108 37.4671 33.8335 36.011L32.0797 26.8C31.9289 26.0083 32.2207 25.1971 32.8413 24.6829L39.5465 19.1278C40.7238 18.1524 40.1936 16.2438 38.6818 16.0154L29.6812 14.656C29.0174 14.5558 28.4352 14.1595 28.0983 13.579L23.2955 5.30209Z" fill="#5C4A04"/></svg>