<svg width="37" height="37" viewBox="0 0 37 37" fill="none" xmlns="http://www.w3.org/2000/svg"><path d="M19.0758 0.67654C19.2907 0.374293 19.6255 0.196812 19.9321 0C20.5031 0.314547 20.8009 0.910254 20.9876 1.50596C22.7004 7.13266 24.2687 12.8138 26.3621 18.3158C26.8361 19.3789 27.1797 20.6424 28.2088 21.3189C28.607 21.3207 28.8978 21.0061 29.1621 20.7513C31.2203 18.4511 33.1603 16.0489 34.9965 13.5712C35.6379 12.7559 36.2018 11.8667 37 11.1901C36.9859 11.6628 36.9577 12.1408 36.8291 12.5977C35.3418 17.8448 33.4828 22.9795 31.4546 28.0386C31.0282 27.9718 30.6264 27.8119 30.2405 27.6274C29.1163 27.088 27.9145 26.7435 26.7233 26.3938C25.8652 26.1373 24.9647 25.9949 24.1559 25.5996C23.5533 25.3131 23.2432 24.6858 23.0211 24.0919C21.9533 21.2363 20.9013 18.3632 19.518 15.6413C19.2819 15.274 19.0335 14.6994 18.5136 14.7486C18.0925 14.6976 17.7982 15.0332 17.5515 15.3179C16.9207 16.0858 16.5101 16.9978 16.0661 17.8765C14.6951 20.6002 13.4476 23.3837 12.2335 26.1795C11.844 27.1477 11.3348 28.072 11.0916 29.0912C13.9639 28.2372 16.9031 27.4289 19.9251 27.4376C23.9921 27.3498 28.015 28.7679 31.2819 31.1507C31.5145 31.3282 31.733 31.5285 31.948 31.7288C29.7683 31.4284 27.6009 30.968 25.3894 30.9715C18.3797 30.8098 11.4176 32.8834 5.41583 36.44C4.84314 36.7967 4.16472 37.1728 3.47397 36.9145C2.60878 36.426 2.28455 35.1976 2.81142 34.3542C3.30834 33.588 4.26869 33.2928 4.77618 32.5389C4.28455 32.1365 3.57618 31.8483 3.44402 31.1577C2.25459 26.624 1.10569 22.0763 0.22287 17.4705C0.0977602 16.6692 -0.17713 15.8293 0.166483 15.042C1.04402 15.3513 1.54093 16.1737 2.05723 16.8871C3.32772 18.7041 4.58058 20.5457 6.07838 22.1905C6.63697 22.7651 7.20614 23.3942 7.98147 23.6736C8.39909 23.8687 8.859 23.5541 9.04931 23.1851C9.48103 22.3979 9.71891 21.5245 10.0801 20.7039C12.422 15.1158 14.8696 9.57348 17.3471 4.04342C17.8687 2.89594 18.3269 1.70277 19.0758 0.67654Z" fill="#5C4A04"/></svg>