<svg width="30" height="38" viewBox="0 0 30 38" fill="none" xmlns="http://www.w3.org/2000/svg"><path d="M28.1376 24.8075C27.8976 22.0586 25.0524 20.2204 25.0524 20.2204C25.0524 20.2204 28.6792 19.2488 29.0529 15.0037C29.2894 12.2954 27.5617 9.46869 23.2252 8.20935L24.7198 2.63376L21.1616 1.70281L19.6704 7.26486L16.7188 6.49301L18.21 0.930957L14.6449 0L13.1537 5.56205L7.42204 4.06236L6.47933 7.57292L9.96906 8.48356L5.41664 25.4676L1.92692 24.5502L0.925934 28.274L6.65759 29.7737L5.1664 35.3459L8.74525 36.2972L10.2399 30.725L13.1914 31.4968L11.6831 37.0758L15.2585 38L16.7531 32.4278L17.5793 32.6411C24.545 34.3676 28.5489 29.5469 28.1376 24.8075ZM15.8687 10.0273C15.8687 10.0273 17.3153 10.3963 19.3927 10.9481C21.3638 11.4728 22.8653 13.1925 22.4025 15.1323C21.9397 17.0721 19.8863 18.3077 17.7301 17.7796C15.7521 17.2921 14.0484 16.8182 14.0484 16.8182L15.8687 10.0273ZM16.0298 28.2436C13.973 27.7493 11.3163 27.0113 11.3163 27.0113L13.2017 19.9597C13.2017 19.9597 15.6013 20.6368 17.737 21.1446C20.2908 21.7675 21.8506 23.4229 21.2884 25.6403C20.7262 27.8576 18.8031 28.9105 16.0298 28.2436Z" fill="#5C4A04"/></svg>