<svg width="45" height="29" viewBox="0 0 45 29" fill="none" xmlns="http://www.w3.org/2000/svg"><path d="M0.0798111 21.5222V7.00541C0.0798111 4.76108 0.637649 3.03568 1.75332 1.82919C2.869 0.60973 4.49062 0 6.61819 0C8.74576 0 10.3674 0.60973 11.4831 1.82919C12.5987 3.03568 13.1566 4.76108 13.1566 7.00541V9.72973H9.01171V6.73297C9.01171 4.90378 8.25927 3.98919 6.75441 3.98919C5.23657 3.98919 4.47765 4.90378 4.47765 6.73297V21.7946C4.47765 23.6108 5.23657 24.5189 6.75441 24.5189C8.25927 24.5189 9.01171 23.6108 9.01171 21.7946V17.8054H13.1566V21.5222C13.1566 23.7665 12.5987 25.4984 11.4831 26.7178C10.3674 27.9243 8.74576 28.5276 6.61819 28.5276C4.49062 28.5276 2.869 27.9243 1.75332 26.7178C0.637649 25.4984 0.0798111 23.7665 0.0798111 21.5222Z" fill="#5C4A04"/><path d="M15.4528 21.5222V7.00541C15.4528 4.77406 16.0301 3.04865 17.1847 1.82919C18.3393 0.60973 19.9868 0 22.1274 0C24.2679 0 25.909 0.60973 27.0506 1.82919C28.2052 3.04865 28.7825 4.77406 28.7825 7.00541V21.5222C28.7825 23.7535 28.2052 25.4789 27.0506 26.6984C25.909 27.9178 24.2679 28.5276 22.1274 28.5276C19.9868 28.5276 18.3393 27.9178 17.1847 26.6984C16.0301 25.4789 15.4528 23.7535 15.4528 21.5222ZM19.8506 21.7946C19.8506 23.6368 20.6095 24.5578 22.1274 24.5578C23.6322 24.5578 24.3847 23.6368 24.3847 21.7946V6.73297C24.3847 4.90378 23.6322 3.98919 22.1274 3.98919C20.6095 3.98919 19.8506 4.90378 19.8506 6.73297V21.7946Z" fill="#5C4A04"/><path d="M31.2539 21.5222V7.00541C31.2539 4.77406 31.8312 3.04865 32.9858 1.82919C34.1404 0.60973 35.7879 0 37.9285 0C40.069 0 41.7101 0.60973 42.8517 1.82919C44.0063 3.04865 44.5836 4.77406 44.5836 7.00541V21.5222C44.5836 23.7535 44.0063 25.4789 42.8517 26.6984C41.7101 27.9178 40.069 28.5276 37.9285 28.5276C35.7879 28.5276 34.1404 27.9178 32.9858 26.6984C31.8312 25.4789 31.2539 23.7535 31.2539 21.5222ZM35.6517 21.7946C35.6517 23.6368 36.4106 24.5578 37.9285 24.5578C39.4333 24.5578 40.1858 23.6368 40.1858 21.7946V6.73297C40.1858 4.90378 39.4333 3.98919 37.9285 3.98919C36.4106 3.98919 35.6517 4.90378 35.6517 6.73297V21.7946Z" fill="#5C4A04"/></svg>