<svg width="42" height="42" viewBox="0 0 42 42" fill="none" xmlns="http://www.w3.org/2000/svg"><path d="M19.2458 1.31922C19.6495 1.0625 20.0483 0.773493 20.5149 0.642712C20.9105 0.576514 21.2608 0.826774 21.5902 1.00761C25.0115 3.09849 27.5529 6.52464 28.6831 10.3609C29.6018 13.4044 29.6712 16.6465 29.2514 19.7804C30.9322 20.5602 32.6517 21.7841 33.1183 23.6844C33.811 26.4228 33.5204 29.2919 33.1442 32.0561C33.0441 32.5889 33.0505 33.3413 32.4257 33.5463C31.5764 33.6658 30.7078 33.5996 29.852 33.5931C29.3337 33.6141 28.9059 33.1233 28.9672 32.6147C28.9882 31.5943 28.9026 30.5157 28.3262 29.6406C27.992 29.0917 27.4528 28.7219 26.9086 28.4055C26.7294 28.73 26.6099 29.1643 26.216 29.2903C25.8269 29.392 25.4184 29.3484 25.0212 29.3581C24.8743 29.9894 24.7984 30.6401 24.5852 31.2552C24.4238 31.6459 23.9749 31.7767 23.5858 31.7557C22.081 31.7541 20.5762 31.7541 19.0714 31.7525C18.558 33.0813 18.3239 34.5748 18.7582 35.9585C19.0698 37.0564 19.8109 37.967 20.6699 38.6936C21.9196 37.6926 22.8254 36.1878 22.7963 34.5506C22.8383 34.0129 22.588 33.33 23.0659 32.9247C23.5019 32.5114 24.314 32.7213 24.4916 33.2961C25.0809 36.1878 23.4954 39.2296 20.9637 40.6521C20.531 40.8426 20.1177 40.5245 19.7883 40.2791C18.4305 39.2829 17.3535 37.8589 16.9467 36.2088C16.5624 34.7346 16.7012 33.1653 17.1598 31.7251C16.4461 31.1551 16.5559 30.1541 16.3105 29.3581C15.9133 29.3484 15.5081 29.3888 15.1189 29.2935C14.7185 29.1772 14.5942 28.7413 14.4182 28.4152C13.1136 29.0093 12.3725 30.4156 12.3742 31.8171C12.3499 32.4193 12.5211 33.3138 11.7687 33.5495C10.9146 33.6658 10.0427 33.5964 9.18212 33.5915C8.72035 33.6061 8.35384 33.2137 8.31024 32.7713C7.95665 30.7999 7.77582 28.7946 7.80488 26.7909C7.85493 25.4298 7.97441 24.0251 8.55405 22.7738C9.28222 21.3643 10.6724 20.4488 12.0706 19.7917C11.5281 15.8812 11.801 11.7624 13.4705 8.14245C14.7153 5.39282 16.7351 2.99677 19.2458 1.31922ZM13.9193 12.4114C12.957 17.5329 14.2002 22.7738 16.0393 27.5562C19.1215 27.5546 22.2021 27.5546 25.2827 27.5562C26.0561 25.5218 26.7343 23.4439 27.1654 21.3094C27.8838 17.8477 28.0227 14.1875 27.0007 10.771C26.0061 7.36584 23.7441 4.31266 20.6634 2.52209C17.0807 4.60006 14.6443 8.36365 13.9193 12.4114ZM10.4819 23.0757C9.96519 23.7119 9.81665 24.5482 9.70363 25.3378C9.44691 27.4916 9.65842 29.6665 9.96519 31.8042C10.1638 31.8042 10.364 31.8042 10.5642 31.8058C10.6352 30.7337 10.8677 29.6471 11.4538 28.7316C11.9996 27.8258 12.8747 27.1784 13.8127 26.7231C13.2331 25.0601 12.7423 23.3631 12.3935 21.6371C11.688 22.0133 10.9856 22.4412 10.4819 23.0757ZM28.9349 21.6226C28.5781 23.3534 28.0889 25.052 27.5125 26.7215C28.3844 27.1396 29.1981 27.7257 29.7487 28.533C30.422 29.4872 30.6932 30.6562 30.7675 31.8074C30.9677 31.8058 31.1663 31.8074 31.3665 31.8074C31.67 29.6665 31.8848 27.4868 31.6264 25.3281C31.5134 24.5402 31.3633 23.707 30.8482 23.0693C30.3461 22.4299 29.6324 22.015 28.9349 21.6226ZM18.1431 29.3532C18.185 29.5534 18.227 29.7537 18.269 29.9539C19.8674 29.9603 21.4659 29.9522 23.0627 29.9571C23.1047 29.7553 23.1467 29.5534 23.1902 29.3532C21.5079 29.3532 19.8255 29.3532 18.1431 29.3532Z" fill="#5C4A04"/><path d="M19.7593 8.65256C21.9373 8.21016 24.2914 9.43725 25.1907 11.4636C25.8236 12.8117 25.7994 14.4441 25.1261 15.7713C24.511 17.008 23.3678 17.9719 22.0342 18.3417C20.5585 18.776 18.8906 18.466 17.6716 17.5279C16.3444 16.5479 15.5726 14.8784 15.6937 13.2315C15.7954 11.0115 17.5715 9.02391 19.7593 8.65256ZM20.2372 10.3882C18.6387 10.5691 17.3551 12.1126 17.4795 13.7191C17.5263 15.4177 19.1231 16.8627 20.8184 16.7384C22.5751 16.6996 24.0589 14.993 23.8409 13.2444C23.7182 11.4991 21.9664 10.1057 20.2372 10.3882Z" fill="#5C4A04"/></svg>