<svg width="38" height="38" viewBox="0 0 38 38" fill="none" xmlns="http://www.w3.org/2000/svg"><path d="M6.29005 2.78689C6.76546 2.3771 7.41734 2.31293 8.01817 2.33043C10.5003 2.33335 12.9838 2.33627 15.4659 2.32897C16.0565 2.31293 16.6807 2.43835 17.124 2.85543C17.5717 3.22877 17.7394 3.81648 17.8196 4.3721C18.384 4.37793 18.9498 4.37648 19.5142 4.37064C19.59 3.8121 19.7621 3.22877 20.2113 2.85543C20.6138 2.47481 21.1753 2.3246 21.7178 2.33335C24.3501 2.33189 26.9838 2.33189 29.6161 2.33335C30.1936 2.32168 30.7886 2.50543 31.1984 2.92543C31.5951 3.29585 31.7394 3.84127 31.8153 4.35898C32.454 4.36627 33.1613 4.38377 33.6688 4.82856C34.1909 5.23398 34.4373 5.90335 34.4169 6.55085C34.4198 7.67377 34.4169 8.79668 34.4169 9.9196C34.0276 9.91377 33.6396 9.91523 33.2517 9.92106C33.2488 8.84773 33.2488 7.77293 33.2532 6.69814C33.2459 6.3846 33.2561 6.01856 33.0038 5.78668C32.6888 5.46585 32.1988 5.56648 31.7948 5.53002C31.7803 6.36273 31.8153 7.19689 31.7759 8.0296C31.7453 8.72814 31.3107 9.38439 30.6851 9.6921C30.2184 9.9371 29.6773 9.91669 29.1669 9.9196C26.6353 9.90794 24.1036 9.92835 21.5719 9.91085C20.5919 9.92981 19.663 9.1496 19.5711 8.16377C19.5026 7.29168 19.5565 6.41668 19.5434 5.54314C18.9586 5.54023 18.3767 5.54023 17.7934 5.5446C17.7744 6.41814 17.8284 7.29314 17.7628 8.16377C17.6694 9.14814 16.7434 9.93127 15.7634 9.91085C13.0319 9.92252 10.3005 9.92106 7.57046 9.91085C6.59338 9.92835 5.66442 9.14523 5.56963 8.16377C5.50546 7.28731 5.55942 6.40793 5.54046 5.53002C5.13505 5.56356 4.64359 5.46293 4.32859 5.78668C4.07484 6.0171 4.0865 6.3846 4.08067 6.69814C4.08505 9.47044 4.0865 12.2427 4.08067 15.0165C3.69275 15.0092 3.30484 15.0077 2.91838 15.015C2.91546 12.1931 2.91546 9.37273 2.91692 6.55231C2.8863 5.86398 3.17796 5.16252 3.74817 4.76293C4.24984 4.37064 4.91338 4.3721 5.51859 4.35898C5.59296 3.76981 5.79713 3.15731 6.29005 2.78689ZM7.3313 3.53939C6.95651 3.61814 6.69838 3.98856 6.71588 4.36481C6.68817 5.29231 6.72171 6.21835 6.70421 7.14585C6.71442 7.51335 6.67359 7.89398 6.78442 8.25127C6.93171 8.62169 7.3488 8.76898 7.72067 8.75002C10.3515 8.75002 12.9823 8.75002 15.6132 8.75002C16.0711 8.79814 16.583 8.5021 16.6063 8.00627C16.6573 6.98981 16.6063 5.97189 16.6296 4.95543C16.6107 4.55002 16.6982 4.06293 16.3759 3.74939C16.0638 3.42564 15.5753 3.5146 15.1713 3.49564C12.5594 3.53502 9.94026 3.44168 7.3313 3.53939ZM21.3313 3.53939C20.9565 3.61814 20.6984 3.98856 20.7159 4.36627C20.7028 5.53585 20.7013 6.70689 20.7159 7.87648C20.6882 8.35189 21.1067 8.77044 21.5821 8.74273C24.2596 8.75877 26.9371 8.74564 29.6132 8.75002C30.0711 8.79523 30.583 8.50064 30.6063 8.00627C30.6573 6.94023 30.6078 5.87273 30.6296 4.80523C30.6136 4.44793 30.6661 4.01918 30.3759 3.74939C30.0638 3.4271 29.5753 3.5146 29.1713 3.49564C26.558 3.53356 23.9403 3.44314 21.3313 3.53939Z" fill="#5C4A04" stroke="#5C4A04" stroke-width="0.5"/><path d="M33.5971 11.1099C33.8975 11.0355 34.2607 11.0938 34.3846 11.4176C34.4532 11.8872 34.4123 12.3626 34.4182 12.8336C34.4152 19.1088 34.4196 25.3826 34.4167 31.6563C34.4415 32.3403 34.16 33.0491 33.5855 33.4457C33.1596 33.7695 32.6098 33.8438 32.0892 33.8351C23.0913 33.8307 14.0919 33.8366 5.09399 33.8322C4.37065 33.8657 3.6342 33.5347 3.24482 32.9134C2.86857 32.3738 2.91524 31.687 2.91378 31.0613C2.92253 26.297 2.9094 21.5326 2.91961 16.7682C2.88607 16.4853 3.09024 16.214 3.37899 16.1922C13.4517 14.502 23.5259 12.8161 33.5971 11.1099ZM10.9988 23.5509C9.92399 24.0788 8.57649 24.022 7.58336 23.338C6.7769 22.8188 6.34524 21.9322 5.80274 21.1753C5.23107 20.3674 4.72065 19.5128 4.10086 18.7384C4.05857 22.9457 4.10086 27.153 4.07899 31.3603C4.09357 31.7205 4.0367 32.1566 4.3342 32.4263C4.53107 32.6305 4.82711 32.6611 5.09545 32.6655C14.0948 32.6699 23.0927 32.6611 32.0921 32.6699C32.4042 32.6641 32.7644 32.6684 32.9977 32.4249C33.2588 32.1974 33.2457 31.8255 33.253 31.5105C33.2398 25.2163 33.2617 18.9236 33.2427 12.6295C25.8125 16.2374 18.4202 19.9255 10.9988 23.5509ZM27.8717 13.2668C20.0842 14.5647 12.3025 15.8903 4.51503 17.1736C5.32295 18.4555 6.2169 19.682 7.05253 20.9449C7.42878 21.4801 7.74961 22.0999 8.33441 22.4397C8.99795 22.8363 9.85399 22.8305 10.5365 22.482C16.4384 19.5872 22.33 16.6734 28.2319 13.7786C28.754 13.522 29.2877 13.2857 29.7807 12.9751C29.1375 13.0247 28.5061 13.1632 27.8717 13.2668Z" fill="#5C4A04" stroke="#5C4A04" stroke-width="0.5"/></svg>