<svg width="32" height="40" viewBox="0 0 32 40" fill="none" xmlns="http://www.w3.org/2000/svg"><path fill-rule="evenodd" clip-rule="evenodd" d="M6.4 29.6C6.4 30.56 7.04 31.2 8 31.2H9.6V36.8C9.6 38.08 10.72 39.2 12 39.2C13.28 39.2 14.4 38.08 14.4 36.8V31.2H17.6V36.8C17.6 38.08 18.72 39.2 20 39.2C21.28 39.2 22.4 38.08 22.4 36.8V31.2H24C24.96 31.2 25.6 30.56 25.6 29.6V13.6H6.4V29.6ZM2.4 13.6C1.12 13.6 0 14.72 0 16V27.2C0 28.48 1.12 29.6 2.4 29.6C3.68 29.6 4.8 28.48 4.8 27.2V16C4.8 14.72 3.68 13.6 2.4 13.6ZM29.6 13.6C28.32 13.6 27.2 14.72 27.2 16V27.2C27.2 28.48 28.32 29.6 29.6 29.6C30.88 29.6 32 28.48 32 27.2V16C32 14.72 30.88 13.6 29.6 13.6ZM21.6 4.32001L23.68 2.24001C24 1.92001 24 1.44001 23.68 1.12001C23.36 0.800012 22.88 0.800012 22.56 1.12001L20.16 3.52001C19.04 2.72001 17.6 2.40001 16 2.40001C14.4 2.40001 12.96 2.72001 11.68 3.36001L9.44 0.960012C9.12 0.800012 8.48 0.800012 8.16 0.960012C8 1.28001 8 1.92001 8.16 2.24001L10.24 4.32001C8 6.08001 6.4 8.80001 6.4 12H25.6C25.6 8.80001 24 5.92001 21.6 4.32001ZM12.8 8.80001H11.2V7.20001H12.8V8.80001ZM20.8 8.80001H19.2V7.20001H20.8V8.80001Z" fill="#5C4A04"/></svg>