<svg width="38" height="38" viewBox="0 0 38 38" fill="none" xmlns="http://www.w3.org/2000/svg"><g clip-path="url(#clip0_284_8580)"><path d="M32.0649 1.1875V3.56131H29.6899V5.9375H32.0649V39.1875H3.56488C3.56488 39.1875 1.18988 39.1875 1.18988 36.8125V4.77138C1.18988 4.76425 1.18869 4.75712 1.18869 4.75C1.14713 3.14094 2.147 2.00212 3.03525 1.60787C3.91163 1.178 4.65263 1.19225 4.75238 1.1875H32.0649ZM4.74763 5.9375C4.75 5.9375 4.75238 5.9375 4.75238 5.9375H27.3149V3.56131H4.75238C4.75 3.56844 4.71438 3.55894 4.57544 3.58387C4.43888 3.60644 4.25007 3.65512 4.09569 3.73231C3.79525 3.93537 3.60407 3.98169 3.56488 4.75C3.58269 5.34375 3.724 5.47319 3.88788 5.63231C4.05888 5.78194 4.36407 5.88406 4.57544 5.91612C4.68825 5.93631 4.73338 5.9375 4.74763 5.9375ZM5.93988 36.8125H29.6899V8.3125H5.93988V36.8125Z" fill="#5C4A04"/><path d="M8.3125 27.3125V24.9375H22.5625V27.3125H8.3125Z" fill="#5C4A04"/><path d="M8.3125 17.8125V15.4375H27.3125V17.8125H8.3125Z" fill="#5C4A04"/><path d="M8.3125 22.5625V20.1875H27.3125V22.5625H8.3125Z" fill="#5C4A04"/></g><defs><clipPath id="clip0_284_8580"><rect width="38" height="38" fill="white"/></clipPath></defs></svg>