<svg width="33" height="36" viewBox="0 0 33 36" fill="none" xmlns="http://www.w3.org/2000/svg"><path d="M32.4045 28.2857C32.2404 28.3034 32.091 28.3119 31.9564 28.3119C31.3223 28.3119 30.8739 28.1482 30.6114 27.822C30.3969 27.5541 30.275 27.0048 30.2361 26.2028V9.97639C30.2361 7.92722 30.0928 6.39358 29.8058 5.37484C29.5188 4.35641 29.0505 3.46355 28.4 2.69657C27.6605 1.81002 26.7518 1.13895 25.6747 0.68337C24.5972 0.22779 23.4019 0 22.0887 0C20.6094 0 19.2741 0.326857 18.0822 0.979624C16.8899 1.63302 15.8986 2.58267 15.1081 3.82858C14.3304 2.59466 13.3392 1.64785 12.1341 0.988458C10.9297 0.329696 9.58773 0 8.10877 0C6.61705 0 5.28109 0.302879 4.10222 0.90769C2.92267 1.51313 1.96971 2.37918 1.24298 3.50519C0.796544 4.20024 0.477993 5.00918 0.286662 5.93201C0.0956658 6.85484 0 8.20297 0 9.97639V26.7653H7.82211V9.79656C7.82211 8.8977 7.95268 8.2749 8.21417 7.92722C8.47532 7.57986 8.9184 7.40602 9.54342 7.40602C10.1295 7.40602 10.544 7.57418 10.7864 7.90924C11.0284 8.24493 11.1499 8.87404 11.1499 9.79656V26.7653H19.0674V9.79656C19.0674 8.8977 19.1979 8.2749 19.4594 7.92722C19.7206 7.57986 20.1637 7.40602 20.7887 7.40602C21.3748 7.40602 21.7893 7.57418 22.0317 7.90924C22.2737 8.24493 22.3952 8.87404 22.3952 9.79656V10.3903H22.3868V23.7713C22.3868 26.4088 22.4966 28.2804 22.7161 29.3865C22.9356 30.4933 23.3015 31.4653 23.8141 32.302C24.5462 33.4949 25.4975 34.4086 26.6686 35.0456C27.8398 35.6817 29.1636 36 30.6396 36C31.091 36 31.5059 35.9596 31.8839 35.8795C32.2622 35.799 32.6341 35.6731 33 35.5012V28.2261C32.7681 28.2491 32.5697 28.269 32.4045 28.2857Z" fill="#5C4A04"/></svg>