<svg width="51" height="22" viewBox="0 0 51 22" fill="none" xmlns="http://www.w3.org/2000/svg"><g clip-path="url(#clip0_356_2447)"><path fill-rule="evenodd" clip-rule="evenodd" d="M21.087 9.95705C20.9348 9.48349 20.6704 9.06094 20.294 8.68934C19.6703 8.06561 18.9029 7.75376 17.9919 7.75376C17.0892 7.75376 16.3218 8.06561 15.6899 8.68934C15.058 9.31308 14.742 10.0804 14.742 10.9914C14.742 11.9023 15.058 12.6697 15.6899 13.2934C16.3218 13.9172 17.0892 14.229 17.9919 14.229C18.9029 14.229 19.6703 13.9172 20.294 13.2934C20.5719 13.0191 20.7887 12.717 20.9444 12.3872C20.0757 17.3398 15.7532 21.1034 10.5517 21.1034C4.72418 21.1034 0 16.3793 0 10.5517C0 4.72418 4.72418 0 10.5517 0C16.1797 0 20.7786 4.40614 21.087 9.95705ZM6.89731 7.75376C7.74263 7.75376 8.46486 8.06561 9.06393 8.68934C9.66305 9.31304 9.96259 10.0804 9.96259 10.9914C9.96259 11.8941 9.66305 12.6615 9.06393 13.2934C8.46486 13.9171 7.74263 14.229 6.89731 14.229C5.96172 14.229 5.24364 13.8802 4.743 13.1826V14.069H3.4135V5.45172H4.743V8.78783C5.24364 8.09845 5.96172 7.75376 6.89731 7.75376ZM5.29697 12.4071C5.66628 12.7764 6.12998 12.961 6.68803 12.961C7.24613 12.961 7.70979 12.7764 8.0791 12.4071C8.44841 12.0295 8.63307 11.5577 8.63307 10.9914C8.63307 10.4251 8.44841 9.95731 8.0791 9.588C7.70979 9.21047 7.24613 9.02172 6.68803 9.02172C6.12998 9.02172 5.66628 9.21047 5.29697 9.588C4.92766 9.95731 4.743 10.4251 4.743 10.9914C4.743 11.5577 4.92766 12.0295 5.29697 12.4071ZM17.9919 12.9364C17.4503 12.9364 16.9948 12.7518 16.6255 12.3824C16.2562 12.0131 16.0715 11.5494 16.0715 10.9914C16.0715 10.4333 16.2562 9.96962 16.6255 9.60031C16.9948 9.231 17.4503 9.04634 17.9919 9.04634C18.5336 9.04634 18.9891 9.231 19.3584 9.60031C19.7277 9.96962 19.9123 10.4333 19.9123 10.9914C19.9123 11.5494 19.7277 12.0131 19.3584 12.3824C18.9891 12.7518 18.5336 12.9364 17.9919 12.9364ZM14.3929 7.803C13.4655 7.803 12.8336 8.18462 12.4971 8.94786V7.91379H11.1676V14.069H12.4971V10.9668C12.4971 10.3348 12.6859 9.88345 13.0634 9.61262C13.4409 9.33357 13.884 9.21047 14.3929 9.24331V7.803Z" fill="#5C4A04"/><path fill-rule="evenodd" clip-rule="evenodd" d="M46.7362 5.45215H45.4067V8.78825C44.9059 8.09887 44.188 7.75418 43.2523 7.75418C42.407 7.75418 41.6848 8.06607 41.0857 8.68977C40.4866 9.31351 40.187 10.0808 40.187 10.9918C40.187 11.8946 40.4866 12.6619 41.0857 13.2938C41.6848 13.9176 42.407 14.2294 43.2523 14.2294C44.188 14.2294 44.9059 13.8806 45.4067 13.183V14.0694H46.7362V5.45215ZM43.4616 12.9615C42.9035 12.9615 42.4398 12.7768 42.0705 12.4075C41.7012 12.03 41.5166 11.5581 41.5166 10.9918C41.5166 10.4255 41.7012 9.95774 42.0705 9.58843C42.4398 9.21094 42.9035 9.02215 43.4616 9.02215C44.0196 9.02215 44.4834 9.21094 44.8527 9.58843C45.2221 9.95774 45.4067 10.4255 45.4067 10.9918C45.4067 11.5581 45.2221 12.03 44.8527 12.4075C44.4834 12.7768 44.0196 12.9615 43.4616 12.9615ZM39.838 7.80342C38.9105 7.80342 38.2786 8.18505 37.9422 8.94829V7.91422H36.6126V14.0694H37.9422V10.9672C37.9422 10.3353 38.1309 9.88387 38.5084 9.61305C38.8859 9.334 39.3291 9.21089 39.838 9.24374V7.80342ZM33.7334 7.91422H35.0629V14.0694H33.7334V13.183C33.2328 13.8806 32.5147 14.2294 31.5791 14.2294C30.7338 14.2294 30.0116 13.9176 29.4125 13.2938C28.8134 12.6619 28.5138 11.8945 28.5138 10.9918C28.5138 10.0808 28.8134 9.31351 29.4125 8.68977C30.0116 8.06603 30.7338 7.75418 31.5791 7.75418C32.5147 7.75418 33.2328 8.09887 33.7334 8.78825V7.91422ZM30.3973 12.4075C30.7666 12.7768 31.2303 12.9615 31.7884 12.9615C32.3464 12.9615 32.8102 12.7768 33.1795 12.4075C33.5488 12.03 33.7334 11.5581 33.7334 10.9918C33.7334 10.4255 33.5488 9.95774 33.1795 9.58843C32.8102 9.21089 32.3464 9.02215 31.7884 9.02215C31.2303 9.02215 30.7666 9.21089 30.3973 9.58843C30.028 9.95774 29.8434 10.4255 29.8434 10.9918C29.8434 11.5581 30.028 12.03 30.3973 12.4075ZM22.8972 13.2938C23.5209 13.9176 24.2965 14.2294 25.2239 14.2294C25.823 14.2294 26.3688 14.0858 26.8612 13.7986C27.3536 13.5113 27.7311 13.1215 27.9937 12.6291L26.8489 11.9766C26.7011 12.2639 26.4796 12.4937 26.1841 12.666C25.8968 12.8384 25.5727 12.9245 25.2116 12.9245C24.6699 12.9245 24.2145 12.7399 23.8451 12.3706C23.484 12.0013 23.3035 11.5417 23.3035 10.9918C23.3035 10.4419 23.484 9.98236 23.8451 9.61305C24.2145 9.24374 24.6699 9.05908 25.2116 9.05908C25.5809 9.05908 25.9051 9.14525 26.1841 9.3176C26.4713 9.48172 26.6847 9.71153 26.8242 10.007L27.9691 9.34222C27.7229 8.85803 27.3536 8.47227 26.8612 8.18505C26.3688 7.89782 25.823 7.75418 25.2239 7.75418C24.2965 7.75418 23.5209 8.06603 22.8972 8.68977C22.2817 9.30529 21.974 10.0726 21.974 10.9918C21.974 11.9028 22.2817 12.6701 22.8972 13.2938Z" fill="#5C4A04"/></g><defs><clipPath id="clip0_356_2447"><rect width="51" height="21.1034" fill="white"/></clipPath></defs></svg>