<svg width="31" height="38" viewBox="0 0 31 38" fill="none" xmlns="http://www.w3.org/2000/svg"><path d="M20.5808 0.0236181C20.9804 -0.055731 21.4116 0.0656827 21.6831 0.375431C21.9259 0.648851 21.9498 1.02934 22.0311 1.36968C22.2003 2.1517 22.3514 2.93755 22.5368 3.71574C21.4345 5.36582 20.2692 6.97383 19.143 8.60862C18.838 9.07133 18.4805 9.50058 18.2156 9.98814C18.3026 9.99866 18.4747 10.0197 18.5617 10.0302C19.8906 8.06751 21.2701 6.13637 22.6238 4.18992C22.6439 4.2731 22.6821 4.43944 22.7022 4.52357C22.8972 5.44517 23.0846 6.36868 23.2921 7.28836C23.5359 8.45183 23.7643 9.61912 24.0435 10.7749C22.3523 13.1831 20.686 15.6105 18.9805 18.0072C17.8648 17.3208 16.8093 16.533 15.7023 15.8303C15.0197 16.8628 14.3314 17.8915 13.6335 18.9135C14.5847 19.5712 15.5503 20.207 16.5034 20.8618C16.621 20.9364 16.7319 21.0291 16.8705 21.0655C17.5808 20.0846 18.2453 19.0693 18.9642 18.0951C19.0311 18.1162 19.164 18.1582 19.2309 18.1793C18.5598 19.1898 17.861 20.1869 17.1439 21.1668C17.1669 21.2261 17.1889 21.2863 17.2128 21.3456C17.317 21.4049 17.4193 21.468 17.5197 21.5349C17.2348 21.7318 16.9107 21.8752 16.5799 21.9775C16.6086 21.9584 16.6669 21.9192 16.6956 21.9001C16.839 21.6658 17.0139 21.4498 17.1229 21.1955C17.0426 21.1706 16.8839 21.12 16.8036 21.0951C16.6038 21.4479 16.3438 21.7614 16.1334 22.1075C16.273 22.0932 16.4136 22.0788 16.5541 22.0655C15.6421 23.3236 14.7654 24.6075 13.8782 25.8838C13.7989 25.8752 13.6402 25.858 13.5608 25.8494C14.3811 24.5912 15.2769 23.3838 16.122 22.1429C15.3122 22.3035 14.4738 22.2863 13.6832 22.0416C12.7568 21.7375 11.9241 21.1515 11.3553 20.3561C10.5589 21.3599 9.89163 22.4622 9.11917 23.4851C9.61821 23.9756 10.1679 24.4144 10.7635 24.7834C11.6134 25.2853 12.5455 25.6591 13.5187 25.8331C12.2348 27.7126 10.9146 29.5673 9.61917 31.4382C8.80847 32.5749 8.03888 33.7432 7.20619 34.8627C7.13163 34.3741 7.00926 33.8942 6.90409 33.4124C6.79893 32.8063 6.64501 32.2107 6.52647 31.6084C6.29224 30.4832 6.04655 29.3598 5.81424 28.2346C6.8496 26.8245 7.819 25.3647 8.8362 23.9412C8.9318 23.792 9.05799 23.6544 9.10962 23.4813C9.06182 23.3962 9.00254 23.3178 8.9557 23.2327C9.64498 22.2203 10.3591 21.2242 11.0551 20.2165C11.2052 20.0483 11.0322 19.8609 10.9662 19.6993C10.5484 18.8934 10.4174 17.9584 10.5169 17.0617C10.6593 15.7911 11.3754 14.6 12.4222 13.8686C13.4423 13.1363 14.7673 12.8782 15.9958 13.1124C14.5168 15.2414 13.0274 17.3638 11.5465 19.4919C11.4127 19.685 11.275 19.8752 11.1258 20.0559C11.2167 20.1955 11.3371 20.4383 11.4614 20.1726C13.0962 17.8485 14.7042 15.5043 16.3505 13.1889C16.8007 13.36 17.2376 13.5627 17.6554 13.8026C18.339 12.773 19.0244 11.7443 19.7194 10.7224C19.3342 10.4652 18.9346 10.2291 18.5044 10.0551C17.7768 11.1086 17.0426 12.1593 16.3046 13.207C16.231 13.1764 16.0847 13.1143 16.012 13.0837C16.6659 12.2281 17.2491 11.3199 17.8801 10.4461C17.9872 10.2702 18.1516 10.1172 18.1917 9.90879C16.3466 9.12869 14.2224 9.10288 12.3342 9.75392C14.4929 6.63063 16.6755 3.52263 18.8495 0.409847C19.425 0.273138 20.0091 0.175624 20.5808 0.0236181Z" fill="#5C4A04"/><path d="M13.8964 1.46338C15.3868 1.1565 16.8705 0.817116 18.3619 0.520752C16.2032 3.6756 13.9728 6.78359 11.817 9.94035C11.9318 9.90976 12.1602 9.85049 12.275 9.82085C10.4318 12.4241 8.60961 15.0436 6.79414 17.6669C6.78649 17.5521 6.76928 17.3227 6.76163 17.208C6.55991 17.4164 6.41078 17.6669 6.24156 17.9011C5.57426 18.8666 4.89454 19.8236 4.23011 20.7911C3.77314 18.5722 3.27027 16.3619 2.83337 14.1401C4.5389 11.7568 6.1928 9.33519 7.88017 6.93847C9.01878 5.29795 10.1708 3.66699 11.3036 2.02169C11.7147 1.92322 12.1306 1.84579 12.5436 1.75592C12.9939 1.65841 13.4451 1.56089 13.8964 1.46338ZM11.3878 10.1497C8.77882 11.4327 6.90312 14.1698 6.79605 17.0894C7.21478 16.5808 7.56086 16.0158 7.94709 15.4824C9.13637 13.7816 10.3228 12.078 11.513 10.3772C11.5857 10.2654 11.6526 10.1488 11.7128 10.0293C11.6316 10.0599 11.469 10.1191 11.3878 10.1497Z" fill="#5C4A04"/><path d="M24.2098 1.90131C24.5396 1.88028 24.8809 1.76842 25.1993 1.91661C25.575 2.05714 25.8341 2.42329 25.8771 2.81717C26.076 4.31907 26.2289 5.82766 26.4478 7.32573C25.8303 8.20526 25.2289 9.09818 24.5961 9.96719C24.3915 9.9844 24.489 9.64119 24.4115 9.50926C24.2815 8.90889 24.1496 8.30947 24.0282 7.70718C23.9307 7.25594 23.8312 6.80566 23.7356 6.35442C23.5397 5.39171 23.3293 4.43283 23.1257 3.473C23.4766 2.94241 23.8609 2.43381 24.2098 1.90131Z" fill="#5C4A04"/><path d="M22.8236 2.08473C23.1429 2.03502 23.4641 2.0006 23.7854 1.96045C23.5368 2.31704 23.2796 2.66694 23.0464 3.0331C22.9689 2.71761 22.8982 2.40022 22.8236 2.08473Z" fill="#5C4A04"/><path d="M9.39926 2.43271C9.87918 2.32182 10.361 2.21474 10.8448 2.11914C8.64114 5.2759 6.43658 8.43265 4.23392 11.5904C3.72532 12.2959 3.25688 13.032 2.72438 13.7194C2.17658 11.0751 1.60489 8.43552 1.04849 5.79214C0.983477 5.47284 0.850591 5.13441 0.974873 4.81127C1.08864 4.42026 1.42993 4.1153 1.83146 4.04455C3.14598 3.76253 4.46241 3.48146 5.77788 3.20135C6.85627 2.96712 7.93847 2.74629 9.0159 2.50346C9.14305 2.48243 9.27211 2.45948 9.39926 2.43271ZM2.63355 5.12963C2.01597 5.5866 1.89743 6.56269 2.37926 7.15924C2.57142 7.43266 2.88021 7.58084 3.18135 7.70226C3.88689 7.8514 4.5886 7.45178 4.90122 6.82081C4.4691 6.54739 4.06949 6.21948 3.61634 5.97952C3.48919 6.14013 3.38498 6.31604 3.28269 6.49195C3.51022 6.64969 3.74253 6.80265 3.97197 6.95752C3.58861 7.20991 2.99684 7.08659 2.80851 6.64969C2.55229 6.24051 2.79894 5.66595 3.23967 5.50821C3.48727 5.37915 3.754 5.52542 4.00735 5.55601C4.13067 5.40496 4.22914 5.23574 4.33621 5.07227C3.83622 4.73001 3.10869 4.74722 2.63355 5.12963Z" fill="#5C4A04"/><path d="M26.6697 3.97757C27.4039 4.00721 28.1534 3.79975 28.8733 3.99382C28.7729 4.05692 28.6725 4.1248 28.6066 4.22518C28.075 5.00911 27.5272 5.78348 26.9823 6.5588C26.8724 5.82267 26.815 5.07985 26.6993 4.34563C26.6888 4.22231 26.6792 4.09994 26.6697 3.97757Z" fill="#5C4A04"/><path d="M27.053 7.01687C27.7452 6.04174 28.4287 5.06087 29.1065 4.07617C29.4478 4.319 29.7566 4.6603 29.8025 5.09337C29.8933 6.65932 29.9105 8.22814 29.9851 9.79409C30.0052 10.3342 30.0348 10.8744 30.0243 11.4145C29.3073 12.3887 28.6362 13.3963 27.9364 14.383C27.8685 13.8753 27.8274 13.3638 27.7433 12.86C27.6448 11.8371 27.4956 10.818 27.3723 9.79887C27.2834 9.0006 27.1849 8.20233 27.0712 7.40788C27.0645 7.27786 27.0587 7.14784 27.053 7.01687Z" fill="#5C4A04"/><path d="M24.7041 10.3793C25.3246 9.54944 25.8628 8.65653 26.5138 7.85156C26.6735 9.45766 26.9029 11.0552 27.0855 12.6584C27.1955 13.4672 27.2672 14.2836 27.4087 15.0867C26.9995 15.8027 26.4622 16.4356 26.0291 17.1364C25.9355 16.6966 25.8389 16.2568 25.7452 15.8171C25.6286 15.2148 25.4842 14.6173 25.3685 14.015C25.3035 13.7224 25.2366 13.4299 25.1773 13.1364C25.142 12.9787 25.1133 12.82 25.0779 12.6622C24.9517 12.0609 24.8246 11.4596 24.6869 10.8611C24.6869 10.7033 24.5664 10.5093 24.7041 10.3793Z" fill="#5C4A04"/><path d="M19.2462 18.2166C20.8638 15.8763 22.5091 13.5541 24.1247 11.2119C24.1783 11.5064 24.25 11.797 24.3045 12.0924C24.4393 12.7224 24.5741 13.3534 24.7108 13.9834C24.9288 15.0379 25.1534 16.0895 25.3809 17.1411C25.4201 17.3744 25.4727 17.6038 25.5243 17.8352C21.6544 23.3944 17.7644 28.9393 13.8992 34.5014C12.3467 34.8685 10.7798 35.1706 9.22337 35.5185C8.84957 35.5769 8.4815 35.7241 8.09814 35.6763C7.84862 35.6285 7.64117 35.4755 7.44136 35.3302C7.43275 35.2882 7.41555 35.204 7.4079 35.162C9.57231 32.0759 11.7233 28.9794 13.8849 25.8915C14.9327 26.0664 16.0082 25.9823 17.0407 25.7481C19.0483 25.2596 20.8475 23.9938 21.9881 22.272C22.315 21.7548 22.6898 21.2692 22.9938 20.7376C21.7395 19.904 20.5005 19.0474 19.2462 18.2166Z" fill="#5C4A04"/><path d="M28.0052 14.8456C28.6993 13.8666 29.3733 12.8733 30.0731 11.8982C30.1285 14.6362 30.2557 17.3723 30.3484 20.1094C29.8666 20.8092 29.3781 21.5061 28.8867 22.2002C28.8417 21.6983 28.7796 21.1983 28.7165 20.6983C28.6142 19.9019 28.5262 19.1027 28.4125 18.3092C28.3131 17.2882 28.1639 16.27 28.0425 15.2509C28.0291 15.1161 28.0167 14.9804 28.0052 14.8456Z" fill="#5C4A04"/><path d="M26.1467 17.5481C26.554 16.8923 27.0109 16.2604 27.4746 15.6418C27.6323 17.2642 27.8551 18.8808 28.0578 20.4984C28.1409 21.311 28.2385 22.1227 28.3666 22.9295C28.1075 23.3578 27.7882 23.746 27.5329 24.1762C27.379 23.4945 27.2279 22.8119 27.0874 22.1265C26.8685 21.0739 26.6352 20.0242 26.4211 18.9697C26.335 18.4946 26.1735 18.0319 26.1467 17.5481Z" fill="#5C4A04"/><path d="M4.33813 21.1849C5.15266 20.0453 5.93468 18.8818 6.75398 17.7451C6.7731 19.769 7.56946 21.7556 8.91361 23.2632C7.85244 24.7804 6.79126 26.2995 5.73296 27.8196C5.27694 25.7689 4.85629 23.7097 4.41461 21.6562C4.37924 21.5003 4.3563 21.3426 4.33813 21.1849Z" fill="#5C4A04"/><path d="M20.8274 25.1304C22.4173 22.8426 24.0272 20.5683 25.6046 18.271C26.0014 19.9899 26.3398 21.7232 26.7184 23.4469C26.8121 23.9325 26.922 24.4153 27.0329 24.8981C26.3312 25.835 25.6763 26.8072 25.0129 27.7709C24.8169 28.1801 24.2347 28.355 24.2347 28.8598C23.3064 30.2116 22.3638 31.5538 21.4211 32.8942C19.9106 33.2489 18.3858 33.5519 16.8676 33.8779C16.0206 34.0787 15.1621 34.223 14.3189 34.44C16.5015 31.3454 18.6554 28.2317 20.8274 25.1304Z" fill="#5C4A04"/><path d="M28.9574 22.6793C29.4201 21.9938 29.9077 21.3246 30.3713 20.6382C30.4172 21.382 30.3675 22.1296 30.4545 22.8705C30.508 25.5569 30.661 28.2394 30.7136 30.9258C30.812 31.8369 30.7375 32.7604 30.8321 33.6734C30.8484 34.2537 30.8503 34.8359 30.8799 35.4162C30.899 35.9726 30.5472 36.5128 30.0367 36.7288C29.835 36.8197 29.6084 36.8149 29.3952 36.8608C25.8647 36.9363 22.337 37.1275 18.8064 37.2059C19.1716 36.6868 19.5416 36.1705 19.8953 35.6428C20.2596 35.6199 20.6181 35.5443 20.9842 35.5252C22.8236 35.2747 24.6716 35.0788 26.5109 34.8245C27.2796 34.7709 28.0377 34.6141 28.8073 34.5596C29.5262 34.3885 30.1256 33.7681 30.1897 33.0195C30.2059 32.5425 30.1046 32.0711 30.0558 31.5979C29.8675 30.0606 29.6706 28.5253 29.4966 26.9871C29.4277 26.7117 29.4449 26.424 29.3847 26.1477C29.2853 25.3523 29.1935 24.5559 29.0845 23.7624C29.0635 23.3991 29.0061 23.0397 28.9574 22.6793Z" fill="#5C4A04"/><path d="M27.6094 24.5971C27.8847 24.209 28.1524 23.816 28.4383 23.4355C28.5893 25.1984 28.8637 26.9489 29.0568 28.708C29.1916 29.858 29.3522 31.0043 29.4784 32.1553C29.5243 32.5492 29.639 32.9766 29.4363 33.3484C29.3197 33.6114 29.0692 33.7681 28.8254 33.8991C26.3331 34.2203 23.8389 34.5272 21.3437 34.8245C21.0253 34.8828 20.7012 34.8924 20.3839 34.9546C20.7003 34.489 21.033 34.0349 21.3485 33.5683C21.4775 33.5463 21.6066 33.5224 21.7357 33.4928C22.1534 33.4144 22.5645 33.3035 22.9833 33.227C23.6171 33.0941 24.25 32.9536 24.8838 32.815C25.3045 32.7442 25.7165 32.6314 26.1362 32.5492C26.5874 32.4622 27.0348 32.3571 27.4861 32.2653C27.6046 32.2251 27.7241 32.1869 27.8446 32.1467C28.3388 31.9087 28.6887 31.4422 28.8245 30.9154C28.9134 30.2051 28.6209 29.5234 28.5052 28.8322C28.4822 28.6994 28.4583 28.5665 28.4325 28.4345C28.1993 27.3867 27.9784 26.3361 27.7624 25.2845C27.7117 25.055 27.661 24.8256 27.6094 24.5971Z" fill="#5C4A04"/><path d="M25.3389 27.8702C25.9144 27.0146 26.51 26.1714 27.1085 25.332C27.4756 26.9687 27.8092 28.6131 28.161 30.2536C28.2844 30.6934 28.1266 31.2115 27.7413 31.4696C27.51 31.6322 27.2232 31.6685 26.9545 31.7287C26.2662 31.8597 25.5855 32.0327 24.8962 32.1599C23.8991 32.3826 22.8991 32.5949 21.8991 32.8023C22.7576 31.5203 23.663 30.2698 24.5387 28.9983C24.8542 29.1838 25.1343 29.4276 25.4632 29.5892C25.5903 29.4314 25.6964 29.2584 25.815 29.0939C25.5769 28.9286 25.337 28.767 25.096 28.6083C25.3284 28.483 25.5893 28.4477 25.8475 28.506C26.0827 28.6389 26.2566 28.8454 26.3723 29.0882C26.4048 29.3941 26.335 29.724 26.0827 29.9238C25.8111 30.1867 25.3962 30.1293 25.076 29.9964C24.966 30.1733 24.8523 30.3482 24.749 30.5299C25.25 30.809 25.902 30.854 26.3771 30.4955C27.0702 30.0519 27.227 28.9926 26.6716 28.3798C26.3589 27.9725 25.8379 27.8062 25.3389 27.8702Z" fill="#5C4A04"/><path d="M20.3781 33.7901C20.5454 33.749 20.7146 33.7098 20.8829 33.6677C20.5846 34.1132 20.2586 34.5406 19.9775 34.9966C17.7816 35.2805 15.5818 35.5329 13.3858 35.8216C13.5101 35.6094 13.6478 35.4067 13.7807 35.2002C14.7998 34.9622 15.8275 34.7652 16.8476 34.532C16.9776 34.51 17.1095 34.488 17.2395 34.4612C17.5282 34.3905 17.8179 34.3255 18.1095 34.2662C18.2653 34.2289 18.424 34.2021 18.5818 34.1668C19.1812 34.0444 19.7758 33.8991 20.3781 33.7901Z" fill="#5C4A04"/><path d="M10.4633 35.9075C11.4165 35.7096 12.361 35.462 13.3237 35.3196C13.1727 35.5108 13.0723 35.767 12.8533 35.8922C11.6335 36.0031 10.4241 36.2211 9.20329 36.3052C9.14497 36.2737 9.02738 36.2087 8.96811 36.1771C9.47862 36.1609 9.96045 35.9783 10.4633 35.9075Z" fill="#5C4A04"/><path d="M15.7032 36.1638C16.7242 36.0557 17.7414 35.9114 18.7615 35.7909C18.9976 35.7661 19.2338 35.7364 19.4709 35.7068C19.0999 36.2154 18.7424 36.7335 18.3906 37.2555C16.6621 37.2488 14.9375 37.4047 13.208 37.3989L13.1468 37.4343C12.8371 37.4324 12.5283 37.4525 12.2195 37.4572C12.4356 37.1513 12.6564 36.8492 12.8562 36.5328C13.5254 36.4467 14.1918 36.3425 14.8638 36.2794C15.1401 36.2154 15.4269 36.2316 15.7032 36.1638Z" fill="#5C4A04"/><path d="M10.2616 36.8388C10.993 36.7776 11.7148 36.6314 12.448 36.5864C12.2291 36.8751 12.0235 37.1744 11.8218 37.4755C11.3381 37.4822 10.8524 37.4746 10.3706 37.5338C9.87825 37.5759 9.43753 37.3149 9.09814 36.9832C9.17654 36.9727 9.33332 36.9507 9.41172 36.9392C9.69374 36.8904 9.9815 36.9019 10.2616 36.8388Z" fill="#5C4A04"/></svg>