<svg width="1000" height="66" viewBox="0 0 1000 66" fill="none" xmlns="http://www.w3.org/2000/svg"><g clip-path="url(#clip0)"><path d="M102.167 27.121L68.1194 0L34.048 27.121L0 0V65.1372H136.098V0L102.167 27.121Z" fill="#FF3C32"/><path d="M288.656 3.78052V65.1373H340.151V3.78052H288.656Z" fill="#FF3C32"/><path d="M980.745 26.6279H931.975C931.032 26.5532 930.153 26.1263 929.512 25.4321C928.871 24.738 928.514 23.8276 928.514 22.8826C928.514 21.9375 928.871 21.0272 929.512 20.3331C930.153 19.6389 931.032 19.212 931.975 19.1373H991.476V3.78052H896.001C890.894 3.78052 885.997 5.80913 882.386 9.42009C878.775 13.031 876.746 17.9286 876.746 23.0352C876.746 28.1419 878.775 33.0394 882.386 36.6503C885.997 40.2613 890.894 42.2899 896.001 42.2899H947.801C948.797 42.2899 949.753 42.6857 950.458 43.3903C951.162 44.0949 951.558 45.0505 951.558 46.0469C951.558 47.0434 951.162 47.999 950.458 48.7035C949.753 49.4081 948.797 49.8039 947.801 49.8039H878.883V65.1373H980.745C985.852 65.1373 990.749 63.1087 994.36 59.4977C997.971 55.8867 1000 50.9892 1000 45.8826C1000 40.7759 997.971 35.8784 994.36 32.2674C990.749 28.6565 985.852 26.6279 980.745 26.6279Z" fill="#FF3C32"/><path d="M841.877 3.78048H743.255V65.1372H842.746C846.907 65.1515 851.028 64.3191 854.858 62.6908C858.688 61.0625 862.147 58.6723 865.024 55.6654C867.902 52.6585 870.137 49.0979 871.595 45.2C873.053 41.3021 873.704 37.1483 873.506 32.9913C872.983 24.996 869.41 17.507 863.523 12.0709C857.637 6.63489 849.888 3.66708 841.877 3.78048ZM809.637 49.8039H794.726V19.1373H809.637C813.703 19.1373 817.604 20.7527 820.479 23.6283C823.355 26.5039 824.97 30.4039 824.97 34.4706C824.97 38.5372 823.355 42.4373 820.479 45.3129C817.604 48.1884 813.703 49.8039 809.637 49.8039Z" fill="#FF3C32"/><path d="M686.407 65.1373H737.878L712.518 3.78052H630.333L604.973 65.1373H645.925L650.011 55.2516H682.297L686.407 65.1373ZM654.496 44.4032L666.236 16.2256L677.977 44.4032H654.496Z" fill="#FF3C32"/><path d="M376.876 3.78052C368.886 3.70311 361.169 6.6864 355.31 12.1183C349.45 17.5501 345.891 25.0186 345.364 32.9913C345.167 37.1404 345.814 41.2864 347.266 45.178C348.719 49.0696 350.946 52.6259 353.813 55.6314C356.68 58.6369 360.128 61.0291 363.947 62.6631C367.766 64.2971 371.876 65.1388 376.03 65.1373H463.827V49.804H417.968C413.901 49.804 410.001 48.1885 407.126 45.3129C404.25 42.4374 402.635 38.5373 402.635 34.4706C402.635 30.404 404.25 26.5039 407.126 23.6283C410.001 20.7528 413.901 19.1373 417.968 19.1373H463.921V3.78052H376.876Z" fill="#FF3C32"/><path d="M548.125 3.78052V26.6513H523.117V3.78052H471.646V65.1373H523.117V42.2899H548.125V65.1373H599.596V3.78052H548.125Z" fill="#FF3C32"/><path d="M283.443 26.7922C283.443 20.6891 281.019 14.836 276.703 10.5205C272.388 6.20496 266.535 3.78052 260.432 3.78052H155.141V65.1373H206.636V49.8039H213.939L226.736 65.1373H277.08L263.977 49.4282C269.391 48.6034 274.331 45.8671 277.902 41.7148C281.473 37.5625 283.438 32.2687 283.443 26.7922ZM227.299 34.4706H206.636V19.1373H227.299C228.342 19.0796 229.385 19.2351 230.366 19.5943C231.346 19.9535 232.243 20.5089 233.001 21.2265C233.76 21.9441 234.364 22.8088 234.776 23.7678C235.189 24.7268 235.402 25.7599 235.402 26.804C235.402 27.8481 235.189 28.8812 234.776 29.8402C234.364 30.7992 233.76 31.6639 233.001 32.3815C232.243 33.0991 231.346 33.6544 230.366 34.0136C229.385 34.3729 228.342 34.5284 227.299 34.4706Z" fill="#FF3C32"/></g><defs><clipPath id="clip0"><rect width="1000" height="65.1372" fill="white"/></clipPath></defs></svg>