<svg width="485" height="54" viewBox="0 0 485 54" fill="none" xmlns="http://www.w3.org/2000/svg"><path d="M33.9787 53.4697C28.4012 53.4697 23.4842 52.7848 19.2277 51.4148C14.9712 50.0449 11.4241 48.1613 8.58641 45.764C5.74874 43.3666 3.59602 40.5534 2.12826 37.3243C0.709418 34.0463 0 30.5237 0 26.7564C0 22.9892 0.709418 19.491 2.12826 16.2619C3.59602 12.9839 5.74874 10.1462 8.58641 7.7489C11.4241 5.35155 14.9712 3.46792 19.2277 2.09801C23.4842 0.7281 28.4012 0.0431442 33.9787 0.0431442C39.2627 0.0431442 43.9106 0.605787 47.9225 1.73107C51.9343 2.85636 55.3591 4.42197 58.1968 6.42791C61.0345 8.38493 63.2606 10.6844 64.8751 13.3264C66.4897 15.9684 67.5416 18.806 68.0308 21.8394H52.179C51.8854 20.7631 51.3228 19.7112 50.491 18.6837C49.7082 17.6074 48.583 16.6533 47.1152 15.8216C45.6474 14.9409 43.8372 14.2315 41.6845 13.6933C39.5317 13.1552 36.9632 12.8861 33.9787 12.8861C30.9943 12.8861 28.3523 13.253 26.0528 13.9869C23.8022 14.6718 21.9186 15.6504 20.4019 16.9224C18.8852 18.1456 17.7355 19.6133 16.9527 21.3257C16.2188 22.9892 15.8518 24.7994 15.8518 26.7564C15.8518 28.7134 16.2188 30.5482 16.9527 32.2605C17.7355 33.924 18.8852 35.3918 20.4019 36.6638C21.9186 37.887 23.8022 38.8655 26.0528 39.5994C28.3523 40.2843 30.9943 40.6268 33.9787 40.6268C36.9632 40.6268 39.5317 40.3577 41.6845 39.8195C43.8372 39.2813 45.6474 38.5964 47.1152 37.7647C48.583 36.884 49.7082 35.9299 50.491 34.9025C51.3228 33.8262 51.8854 32.7498 52.179 31.6734H68.0308C67.5416 34.7068 66.4897 37.5689 64.8751 40.2598C63.2606 42.9018 61.0345 45.2013 58.1968 47.1583C55.408 49.1153 51.9833 50.6565 47.9225 51.7818C43.9106 52.9071 39.2627 53.4697 33.9787 53.4697Z" fill="white"/><path d="M109.778 53.4697C104.054 53.4697 99.0392 52.7848 94.7338 51.4148C90.4283 50.0449 86.8323 48.1613 83.9457 45.764C81.0591 43.3177 78.8819 40.48 77.4142 37.2509C75.9953 33.9729 75.2859 30.4748 75.2859 26.7564C75.2859 22.9892 75.9953 19.491 77.4142 16.2619C78.8819 13.0328 81.0591 10.2196 83.9457 7.82229C86.8323 5.37602 90.4283 3.46792 94.7338 2.09801C99.0392 0.7281 104.054 0.0431442 109.778 0.0431442C115.503 0.0431442 120.517 0.7281 124.823 2.09801C129.128 3.46792 132.724 5.37602 135.611 7.82229C138.498 10.2196 140.65 13.0328 142.069 16.2619C143.537 19.491 144.271 22.9892 144.271 26.7564C144.271 30.4748 143.537 33.9729 142.069 37.2509C140.65 40.48 138.498 43.3177 135.611 45.764C132.724 48.1613 129.128 50.0449 124.823 51.4148C120.517 52.7848 115.503 53.4697 109.778 53.4697ZM109.778 40.6268C112.91 40.6268 115.649 40.2843 117.998 39.5994C120.346 38.8655 122.279 37.887 123.795 36.6638C125.361 35.3918 126.511 33.924 127.245 32.2605C128.028 30.5482 128.419 28.7134 128.419 26.7564C128.419 24.7994 128.028 22.9892 127.245 21.3257C126.511 19.6133 125.361 18.1456 123.795 16.9224C122.279 15.6504 120.346 14.6718 117.998 13.9869C115.649 13.253 112.91 12.8861 109.778 12.8861C106.647 12.8861 103.907 13.253 101.559 13.9869C99.2104 14.6718 97.2534 15.6504 95.6878 16.9224C94.1711 18.1456 93.0214 19.6133 92.2386 21.3257C91.5047 22.9892 91.1378 24.7994 91.1378 26.7564C91.1378 28.7134 91.5047 30.5482 92.2386 32.2605C93.0214 33.924 94.1711 35.3918 95.6878 36.6638C97.2534 37.887 99.2104 38.8655 101.559 39.5994C103.907 40.2843 106.647 40.6268 109.778 40.6268Z" fill="white"/><path d="M154.345 52.4423V1.07058H179.003L200.726 42.9752H202.121C201.485 41.0671 200.946 38.9633 200.506 36.6638C200.066 34.3643 199.846 31.5022 199.846 28.0774V1.07058H215.037V52.4423H190.452L168.656 10.5376H167.335C167.628 11.4672 167.922 12.4457 168.215 13.4732C168.509 14.5006 168.754 15.6259 168.949 16.849C169.145 18.0232 169.292 19.3198 169.39 20.7386C169.536 22.1574 169.61 23.7231 169.61 25.4354V52.4423H154.345Z" fill="white"/><path d="M227.051 52.4423V1.07058H251.709L273.432 42.9752H274.827C274.191 41.0671 273.652 38.9633 273.212 36.6638C272.772 34.3643 272.551 31.5022 272.551 28.0774V1.07058H287.743V52.4423H263.158L241.362 10.5376H240.041C240.334 11.4672 240.628 12.4457 240.921 13.4732C241.215 14.5006 241.459 15.6259 241.655 16.849C241.851 18.0232 241.998 19.3198 242.095 20.7386C242.242 22.1574 242.316 23.7231 242.316 25.4354V52.4423H227.051Z" fill="white"/><path d="M351.716 13.253H315.609V20.9588H346.578V31.7468H315.609V40.2598H351.716V52.4423H299.757V1.07058H351.716V13.253Z" fill="white"/><path d="M392.778 53.4697C387.2 53.4697 382.283 52.7848 378.027 51.4148C373.77 50.0449 370.223 48.1613 367.386 45.764C364.548 43.3666 362.395 40.5534 360.927 37.3243C359.509 34.0463 358.799 30.5237 358.799 26.7564C358.799 22.9892 359.509 19.491 360.927 16.2619C362.395 12.9839 364.548 10.1462 367.386 7.7489C370.223 5.35155 373.77 3.46792 378.027 2.09801C382.283 0.7281 387.2 0.0431442 392.778 0.0431442C398.062 0.0431442 402.71 0.605787 406.722 1.73107C410.734 2.85636 414.158 4.42197 416.996 6.42791C419.834 8.38493 422.06 10.6844 423.674 13.3264C425.289 15.9684 426.341 18.806 426.83 21.8394H410.978C410.685 20.7631 410.122 19.7112 409.29 18.6837C408.507 17.6074 407.382 16.6533 405.914 15.8216C404.447 14.9409 402.636 14.2315 400.484 13.6933C398.331 13.1552 395.762 12.8861 392.778 12.8861C389.793 12.8861 387.152 13.253 384.852 13.9869C382.601 14.6718 380.718 15.6504 379.201 16.9224C377.684 18.1456 376.535 19.6133 375.752 21.3257C375.018 22.9892 374.651 24.7994 374.651 26.7564C374.651 28.7134 375.018 30.5482 375.752 32.2605C376.535 33.924 377.684 35.3918 379.201 36.6638C380.718 37.887 382.601 38.8655 384.852 39.5994C387.152 40.2843 389.793 40.6268 392.778 40.6268C395.762 40.6268 398.331 40.3577 400.484 39.8195C402.636 39.2813 404.447 38.5964 405.914 37.7647C407.382 36.884 408.507 35.9299 409.29 34.9025C410.122 33.8262 410.685 32.7498 410.978 31.6734H426.83C426.341 34.7068 425.289 37.5689 423.674 40.2598C422.06 42.9018 419.834 45.2013 416.996 47.1583C414.207 49.1153 410.782 50.6565 406.722 51.7818C402.71 52.9071 398.062 53.4697 392.778 53.4697Z" fill="white"/><path d="M448.32 52.4423V14.1337H428.285V1.07058H484.206V14.1337H464.171V52.4423H448.32Z" fill="white"/></svg>