<svg width="255" height="39" viewBox="0 0 255 39" fill="none" xmlns="http://www.w3.org/2000/svg"><path d="M86.18 13.5654C87.105 13.5654 88.0356 13.6104 88.9718 13.7003C89.908 13.7903 90.805 13.935 91.6643 14.1374C92.5221 14.3384 93.3254 14.5913 94.0713 14.8935C94.8185 15.1957 95.4679 15.5597 96.0192 15.9855C96.5706 16.4114 97.003 16.9005 97.3151 17.4542C97.6272 18.008 97.7839 18.6278 97.7839 19.3094L93.5031 19.9475C93.5031 19.4654 93.296 19.0325 92.8846 18.646C92.4717 18.2595 91.926 17.9349 91.2459 17.6721C90.5657 17.4092 89.7849 17.2083 88.9046 17.0677C88.0244 16.9272 87.1162 16.8583 86.1786 16.8583C85.2872 16.8583 84.4069 16.923 83.5365 17.0509C82.6675 17.1802 81.8894 17.3727 81.2037 17.6299C80.518 17.8885 79.9596 18.2089 79.5314 18.5954C79.1018 18.9819 78.8877 19.4331 78.8877 19.9475V26.9339C78.8877 27.4482 79.1018 27.8938 79.5314 28.269C79.961 28.6443 80.518 28.9577 81.2037 29.2093C81.8894 29.4608 82.6661 29.6478 83.5365 29.7714C84.4069 29.8951 85.2872 29.9555 86.1786 29.9555C87.1148 29.9555 88.023 29.8895 88.9046 29.7546C89.7849 29.621 90.5657 29.4271 91.2459 29.1755C91.926 28.924 92.4717 28.6105 92.8846 28.2353C93.2974 27.86 93.5031 27.4258 93.5031 26.9339L97.7839 28.0076C97.7839 28.6119 97.6272 29.1671 97.3151 29.6702C97.003 30.1734 96.572 30.6245 96.0192 31.0223C95.4679 31.42 94.8185 31.7643 94.0713 32.0553C93.3254 32.3462 92.5221 32.5865 91.6643 32.7777C90.8064 32.9674 89.908 33.1107 88.9718 33.2063C88.0356 33.3005 87.105 33.3483 86.18 33.3483C85.255 33.3483 84.3258 33.3005 83.3966 33.2063C82.466 33.1107 81.5703 32.9674 80.7125 32.7777C79.8547 32.5865 79.0542 32.3462 78.3125 32.0553C77.5708 31.7643 76.9243 31.42 76.3729 31.0223C75.8216 30.6259 75.3892 30.1776 75.0771 29.6787C74.765 29.1811 74.6097 28.6246 74.6097 28.0076V19.3094C74.6097 18.6278 74.765 18.008 75.0771 17.4542C75.3892 16.9005 75.8216 16.41 76.3729 15.9855C76.9243 15.5597 77.5708 15.1971 78.3125 14.8935C79.0542 14.5913 79.8533 14.3398 80.7125 14.1374C81.5703 13.9364 82.466 13.7903 83.3966 13.7003C84.3258 13.6104 85.2536 13.5654 86.18 13.5654Z" fill="white"/><path d="M101.74 14.698C102.054 14.6102 102.515 14.4988 103.127 14.365C103.737 14.2327 104.462 14.1073 105.302 13.9903C106.141 13.8733 107.079 13.773 108.115 13.6908C109.149 13.6072 110.261 13.5654 111.448 13.5654C113.552 13.5654 115.41 13.7214 117.017 14.0321C118.623 14.3427 119.97 14.8693 121.057 15.6132C122.144 16.3571 122.963 17.3448 123.517 18.5763C124.071 19.8078 124.349 21.3458 124.349 23.1875C124.349 24.9957 124.047 26.5086 123.443 27.7234C122.838 28.9382 122.009 29.912 120.957 30.6447C119.904 31.3775 118.673 31.8985 117.261 32.2092C115.85 32.5198 114.338 32.6759 112.726 32.6759C111.404 32.6759 110.178 32.5978 109.047 32.4432C107.915 32.2886 106.913 32.0322 106.04 31.677V39.0005H101.74V14.698ZM111.65 17.1275C110.922 17.1275 110.275 17.1498 109.71 17.1944C109.144 17.239 108.635 17.2975 108.181 17.3685C107.727 17.4396 107.326 17.5232 106.98 17.6179C106.633 17.7126 106.319 17.8143 106.04 17.9258V28.5788C106.522 28.7111 106.972 28.8198 107.392 28.9034C107.812 28.9869 108.266 29.051 108.753 29.0942C109.239 29.1388 109.8 29.1694 110.433 29.1862C111.066 29.2029 111.83 29.2112 112.726 29.2112C114.047 29.2112 115.176 29.0594 116.111 28.7543C117.046 28.4492 117.814 28.0299 118.413 27.4977C119.011 26.9642 119.45 26.3289 119.731 25.592C120.011 24.8536 120.15 24.0512 120.15 23.1861C120.15 22.0103 119.959 21.0338 119.579 20.2564C119.198 19.4791 118.645 18.8578 117.916 18.3925C117.188 17.9258 116.298 17.5984 115.245 17.4103C114.194 17.2223 112.994 17.1275 111.65 17.1275Z" fill="white"/><path d="M139.858 13.5654C140.417 13.5654 141.095 13.5936 141.89 13.65C142.686 13.7065 143.514 13.8038 144.377 13.9449C145.238 14.086 146.092 14.2765 146.938 14.5177C147.782 14.759 148.544 15.0736 149.222 15.4616C149.899 15.8496 150.444 16.3138 150.859 16.8527C151.274 17.3917 151.48 18.0266 151.48 18.7574V31.8053C150.54 31.9958 149.476 32.158 148.29 32.2935C147.271 32.4176 146.056 32.5291 144.645 32.6307C143.234 32.7322 141.661 32.783 139.927 32.783C138.202 32.783 136.37 32.7097 134.427 32.5629C132.485 32.4176 130.455 32.1651 128.34 31.8053V25.7357C128.34 25.0838 128.493 24.5124 128.801 24.0243C129.109 23.5361 129.532 23.1171 130.069 22.7686C130.605 22.4201 131.238 22.1337 131.966 21.9094C132.694 21.685 133.478 21.5044 134.317 21.3704C135.157 21.2349 136.031 21.1432 136.937 21.0924C137.844 21.0417 138.75 21.0163 139.657 21.0163C141.034 21.0163 142.207 21.1037 143.175 21.2773C144.143 21.4522 144.947 21.6399 145.584 21.8416C146.323 22.0885 146.933 22.3651 147.416 22.6684V19.9369C147.416 19.4756 147.303 19.0805 147.08 18.749C146.856 18.4174 146.554 18.1366 146.173 17.9053C145.792 17.6753 145.355 17.4891 144.863 17.3494C144.37 17.2097 143.855 17.0996 143.318 17.0206C142.782 16.943 142.235 16.8922 141.681 16.8697C141.127 16.8471 140.609 16.8358 140.128 16.8358C139.623 16.8358 139.086 16.8499 138.516 16.8781C137.945 16.9064 137.376 16.96 136.811 17.0376C136.244 17.1166 135.702 17.2266 135.182 17.3663C134.662 17.5074 134.199 17.695 133.797 17.9307C133.394 18.1677 133.072 18.4513 132.832 18.7828C132.591 19.1144 132.471 19.5108 132.471 19.9708L128.306 18.8915C128.306 18.1395 128.49 17.4834 128.86 16.9275C129.229 16.3716 129.719 15.8962 130.329 15.5025C130.939 15.1089 131.641 14.7858 132.437 14.5333C133.231 14.2807 134.057 14.0832 134.913 13.9421C135.769 13.8024 136.623 13.7036 137.474 13.6472C138.323 13.5936 139.119 13.5654 139.858 13.5654ZM147.416 25.905C147.136 25.6581 146.789 25.4168 146.374 25.1798C145.959 24.9427 145.451 24.7325 144.845 24.5477C144.239 24.3629 143.521 24.2105 142.687 24.092C141.854 23.9735 140.876 23.9156 139.757 23.9156C138.76 23.9156 137.817 23.9354 136.928 23.9749C136.038 24.0144 135.256 24.1273 134.585 24.3121C133.913 24.4969 133.38 24.7918 132.989 25.1967C132.597 25.6016 132.4 26.1646 132.4 26.8827V29.04C133.386 29.1966 134.472 29.3264 135.658 29.4279C136.845 29.5295 138.166 29.5803 139.622 29.5803C140.786 29.5803 142.027 29.538 143.342 29.4533C144.658 29.3687 146.016 29.198 147.416 28.9398V25.905Z" fill="white"/><path d="M160.506 27.1308C160.919 27.1308 161.33 27.1646 161.737 27.2321C162.144 27.2997 162.508 27.401 162.831 27.5347C163.152 27.6684 163.413 27.8429 163.614 28.0569C163.814 28.2694 163.915 28.5213 163.915 28.8127V31.2686C163.915 31.5375 163.814 31.7683 163.614 31.9583C163.413 32.1497 163.152 32.3059 162.831 32.4298C162.509 32.5536 162.145 32.6437 161.737 32.6986C161.33 32.7549 160.919 32.783 160.506 32.783C160.092 32.783 159.685 32.7549 159.284 32.6986C158.883 32.6423 158.521 32.5522 158.2 32.4298C157.879 32.3059 157.621 32.1497 157.425 31.9583C157.23 31.7683 157.133 31.5389 157.133 31.2686V28.8127C157.133 28.5213 157.23 28.2694 157.425 28.0569C157.621 27.8429 157.879 27.6698 158.2 27.5347C158.521 27.401 158.883 27.2997 159.284 27.2321C159.685 27.1632 160.092 27.1308 160.506 27.1308Z" fill="white"/><path d="M179.442 13.5654C180.367 13.5654 181.298 13.6104 182.234 13.7003C183.17 13.7903 184.067 13.935 184.926 14.1374C185.784 14.3384 186.588 14.5913 187.333 14.8935C188.081 15.1957 188.73 15.5597 189.281 15.9855C189.833 16.4114 190.265 16.9005 190.577 17.4542C190.889 18.008 191.046 18.6278 191.046 19.3094L186.765 19.9475C186.765 19.4654 186.558 19.0325 186.147 18.646C185.734 18.2595 185.188 17.9349 184.508 17.6721C183.828 17.4092 183.047 17.2083 182.167 17.0677C181.287 16.9272 180.378 16.8583 179.441 16.8583C178.549 16.8583 177.669 16.923 176.799 17.0509C175.93 17.1802 175.152 17.3727 174.466 17.6299C173.78 17.8885 173.223 18.2089 172.794 18.5954C172.364 18.9819 172.15 19.4331 172.15 19.9475V26.9339C172.15 27.4482 172.364 27.8938 172.794 28.269C173.223 28.6443 173.78 28.9577 174.466 29.2093C175.152 29.4608 175.928 29.6478 176.799 29.7714C177.669 29.8951 178.549 29.9555 179.441 29.9555C180.377 29.9555 181.285 29.8895 182.167 29.7546C183.047 29.621 183.828 29.4271 184.508 29.1755C185.188 28.924 185.734 28.6105 186.147 28.2353C186.56 27.86 186.765 27.4258 186.765 26.9339L191.046 28.0076C191.046 28.6119 190.889 29.1671 190.577 29.6702C190.265 30.1734 189.834 30.6245 189.281 31.0223C188.73 31.42 188.081 31.7643 187.333 32.0553C186.588 32.3462 185.784 32.5865 184.926 32.7777C184.069 32.9674 183.17 33.1107 182.234 33.2063C181.298 33.3005 180.367 33.3483 179.442 33.3483C178.517 33.3483 177.588 33.3005 176.659 33.2063C175.728 33.1107 174.832 32.9674 173.975 32.7777C173.117 32.5865 172.316 32.3462 171.575 32.0553C170.833 31.7643 170.186 31.42 169.635 31.0223C169.084 30.6259 168.651 30.1776 168.339 29.6787C168.027 29.1811 167.872 28.6246 167.872 28.0076V19.3094C167.872 18.6278 168.027 18.008 168.339 17.4542C168.651 16.9005 169.084 16.41 169.635 15.9855C170.186 15.5597 170.833 15.1971 171.575 14.8935C172.316 14.5913 173.115 14.3398 173.975 14.1374C174.832 13.9364 175.728 13.7903 176.659 13.7003C177.588 13.6104 178.516 13.5654 179.442 13.5654Z" fill="white"/><path d="M199.524 32.7831H195.568V7.91316H199.524V32.7831Z" fill="white"/><path d="M209.616 26.4548C209.616 26.9623 209.805 27.3879 210.181 27.7304C210.555 28.0729 211.061 28.3516 211.694 28.5665C212.328 28.7828 213.06 28.9367 213.889 29.031C214.72 29.1253 215.583 29.1724 216.48 29.1724C217.422 29.1724 218.307 29.1198 219.138 29.0144C219.969 28.909 220.691 28.7495 221.309 28.5346C221.926 28.3183 222.413 28.0396 222.772 27.6985C223.131 27.3561 223.311 26.9415 223.311 26.4562V13.5654L227.786 13.8968V27.5141C227.786 28.1103 227.636 28.658 227.341 29.1544C227.044 29.6508 226.631 30.0959 226.105 30.4883C225.578 30.8807 224.954 31.2204 224.238 31.5074C223.52 31.7944 222.744 32.0315 221.907 32.2201C221.072 32.4073 220.193 32.5487 219.266 32.643C218.341 32.7359 217.413 32.783 216.481 32.783C215.539 32.783 214.609 32.7359 213.689 32.643C212.77 32.5487 211.891 32.4073 211.056 32.2201C210.221 32.0315 209.444 31.7944 208.726 31.5074C208.008 31.2204 207.386 30.8807 206.859 30.4883C206.333 30.0973 205.919 29.655 205.623 29.1627C205.326 28.6719 205.177 28.1228 205.177 27.5141V13.8968L209.617 13.5654V26.4548H209.616Z" fill="white"/><path d="M244.028 13.7312C245.741 13.7312 247.276 13.8515 248.628 14.0906C249.981 14.3298 251.121 14.7004 252.051 15.2025C252.98 15.7032 253.691 16.3382 254.181 17.1074C254.67 17.8753 254.916 18.7886 254.916 19.8473V26.6655C254.916 27.7243 254.672 28.6376 254.181 29.4068C253.691 30.1746 252.982 30.811 252.051 31.3117C251.121 31.8124 249.981 32.183 248.628 32.4236C247.276 32.6628 245.741 32.7831 244.028 32.7831C243.069 32.7831 242.082 32.7327 241.064 32.632C240.047 32.5313 239.06 32.4348 238.102 32.3397C237.146 32.246 236.273 32.1103 235.479 31.9341C234.686 31.7579 234.005 31.6068 233.438 31.4795V7.34793H237.814V14.934C238.805 14.5773 239.843 14.2878 240.929 14.0655C242.015 13.8431 243.046 13.7312 244.028 13.7312ZM242.824 16.8403C242.245 16.8403 241.716 16.8795 241.238 16.9578C240.758 17.0361 240.316 17.1354 239.91 17.2585C239.503 17.3816 239.127 17.5186 238.782 17.6683C238.436 17.8193 238.114 17.9662 237.813 18.1102V28.6404C238.114 28.7411 238.269 28.7914 238.277 28.7928C238.285 28.7942 238.291 28.7956 238.29 28.7942C238.288 28.7942 239.11 28.9019 240.755 29.1173C242.401 29.3327 243.421 29.4404 243.819 29.4404C244.42 29.4404 245.007 29.432 245.579 29.4152C246.151 29.3984 246.685 29.3509 247.18 29.2739C247.674 29.1956 248.127 29.0781 248.54 28.9229C248.952 28.7676 249.306 28.5467 249.602 28.2627C249.898 27.9788 250.128 27.6278 250.293 27.211C250.457 26.7928 250.54 26.2781 250.54 25.6641V20.7508C250.54 19.8711 250.334 19.1718 249.922 18.6543C249.51 18.1354 248.953 17.7438 248.252 17.4767C247.551 17.2095 246.732 17.0375 245.797 16.9592C244.862 16.8795 243.871 16.8403 242.824 16.8403Z" fill="white"/><path d="M9.59925 24.8699L5.07517 9.47485L18.3943 13.5582L29.7678 5.54743L41.3718 13.5582L54.0232 9.75265L50.7672 19.1581H54.5307L59.3486 5.07263L57.7291 4.46317L45.491 0L44.2299 3.42569L52.502 6.44318L41.3718 9.55281L29.7678 1.36489L18.3943 9.55281L0 3.70774L6.04944 24.8699H9.59925Z" fill="white"/><path d="M8.06881 32.7102L8.51587 33.9135H49.7247L50.1284 32.7102L50.8702 30.5221H7.34793L8.06881 32.7102Z" fill="white"/></svg>