<svg width="370" height="78" viewBox="0 0 370 78" fill="none" xmlns="http://www.w3.org/2000/svg"><path d="M7.76918 6.55614V2.13593H60.3464L71.048 71.5798H75.9335V76H0.0919658V71.5798H4.86114L14.9811 6.55614H7.76918ZM25.799 9.11521V52.1541H39.9902L36.1516 9.11521H25.799ZM25.799 76H42.2003L40.5718 58.5518H25.799V76ZM134.16 51.1072V76H76.4642V71.5798H81.5824V6.55614H76.4642V2.13593H111.71V6.55614H106.591V69.0207H115.781L120.55 51.1072H134.16ZM195.955 51.1072V76H138.26V71.5798H143.378V6.55614H138.26V2.13593H173.505V6.55614H168.387V69.0207H177.577L182.346 51.1072H195.955ZM236.348 6.55614H231.23V71.5798H236.348V76H201.103V71.5798H206.221V6.55614H201.103V2.13593H236.348V6.55614ZM244.358 76V71.5798H249.476V6.55614H244.358V2.13593H303.216V27.0287H289.607L284.838 9.11521H274.485V36.5671H296.702V42.9647H274.485V69.0207H284.838L289.607 51.1072H303.216V76H244.358ZM309.066 73.7899L312.207 52.852H327.096L330.702 67.7412H343.613V59.0171L320.698 42.0342C317.286 39.5526 314.766 36.6058 313.137 33.1937C311.509 29.7816 310.695 26.0594 310.695 22.0269C310.695 17.9169 311.044 14.7762 311.741 12.6049C312.517 10.356 313.641 8.53361 315.115 7.13775C316.588 5.66435 318.178 4.46236 319.884 3.53179C321.59 2.60121 323.684 1.90329 326.165 1.438C330.43 0.662526 336.208 0.274788 343.497 0.274788C350.787 0.274788 358.968 1.5931 368.041 4.22971L364.9 25.1676H351.407L348.266 10.2784H336.634V19.0025L359.55 35.9854C362.962 38.467 365.482 41.4138 367.11 44.8259C368.739 48.238 369.553 52.1153 369.553 56.458C369.553 60.8007 368.972 64.2515 367.808 66.8106C366.645 69.2921 365.172 71.2308 363.388 72.6267C361.682 74.0225 359.394 75.1082 356.525 75.8837C351.95 77.1244 345.358 77.7448 336.751 77.7448C328.143 77.7448 318.915 76.4265 309.066 73.7899Z" fill="url(#paint0_linear_71_18790)"/><path d="M7.76918 6.55614V2.13593H60.3464L71.048 71.5798H75.9335V76H0.0919658V71.5798H4.86114L14.9811 6.55614H7.76918ZM25.799 9.11521V52.1541H39.9902L36.1516 9.11521H25.799ZM25.799 76H42.2003L40.5718 58.5518H25.799V76ZM134.16 51.1072V76H76.4642V71.5798H81.5824V6.55614H76.4642V2.13593H111.71V6.55614H106.591V69.0207H115.781L120.55 51.1072H134.16ZM195.955 51.1072V76H138.26V71.5798H143.378V6.55614H138.26V2.13593H173.505V6.55614H168.387V69.0207H177.577L182.346 51.1072H195.955ZM236.348 6.55614H231.23V71.5798H236.348V76H201.103V71.5798H206.221V6.55614H201.103V2.13593H236.348V6.55614ZM244.358 76V71.5798H249.476V6.55614H244.358V2.13593H303.216V27.0287H289.607L284.838 9.11521H274.485V36.5671H296.702V42.9647H274.485V69.0207H284.838L289.607 51.1072H303.216V76H244.358ZM309.066 73.7899L312.207 52.852H327.096L330.702 67.7412H343.613V59.0171L320.698 42.0342C317.286 39.5526 314.766 36.6058 313.137 33.1937C311.509 29.7816 310.695 26.0594 310.695 22.0269C310.695 17.9169 311.044 14.7762 311.741 12.6049C312.517 10.356 313.641 8.53361 315.115 7.13775C316.588 5.66435 318.178 4.46236 319.884 3.53179C321.59 2.60121 323.684 1.90329 326.165 1.438C330.43 0.662526 336.208 0.274788 343.497 0.274788C350.787 0.274788 358.968 1.5931 368.041 4.22971L364.9 25.1676H351.407L348.266 10.2784H336.634V19.0025L359.55 35.9854C362.962 38.467 365.482 41.4138 367.11 44.8259C368.739 48.238 369.553 52.1153 369.553 56.458C369.553 60.8007 368.972 64.2515 367.808 66.8106C366.645 69.2921 365.172 71.2308 363.388 72.6267C361.682 74.0225 359.394 75.1082 356.525 75.8837C351.95 77.1244 345.358 77.7448 336.751 77.7448C328.143 77.7448 318.915 76.4265 309.066 73.7899Z" fill="url(#paint1_linear_71_18790)" style="mix-blend-mode:overlay"/><path d="M7.76918 6.55614V2.13593H60.3464L71.048 71.5798H75.9335V76H0.0919658V71.5798H4.86114L14.9811 6.55614H7.76918ZM25.799 9.11521V52.1541H39.9902L36.1516 9.11521H25.799ZM25.799 76H42.2003L40.5718 58.5518H25.799V76ZM134.16 51.1072V76H76.4642V71.5798H81.5824V6.55614H76.4642V2.13593H111.71V6.55614H106.591V69.0207H115.781L120.55 51.1072H134.16ZM195.955 51.1072V76H138.26V71.5798H143.378V6.55614H138.26V2.13593H173.505V6.55614H168.387V69.0207H177.577L182.346 51.1072H195.955ZM236.348 6.55614H231.23V71.5798H236.348V76H201.103V71.5798H206.221V6.55614H201.103V2.13593H236.348V6.55614ZM244.358 76V71.5798H249.476V6.55614H244.358V2.13593H303.216V27.0287H289.607L284.838 9.11521H274.485V36.5671H296.702V42.9647H274.485V69.0207H284.838L289.607 51.1072H303.216V76H244.358ZM309.066 73.7899L312.207 52.852H327.096L330.702 67.7412H343.613V59.0171L320.698 42.0342C317.286 39.5526 314.766 36.6058 313.137 33.1937C311.509 29.7816 310.695 26.0594 310.695 22.0269C310.695 17.9169 311.044 14.7762 311.741 12.6049C312.517 10.356 313.641 8.53361 315.115 7.13775C316.588 5.66435 318.178 4.46236 319.884 3.53179C321.59 2.60121 323.684 1.90329 326.165 1.438C330.43 0.662526 336.208 0.274788 343.497 0.274788C350.787 0.274788 358.968 1.5931 368.041 4.22971L364.9 25.1676H351.407L348.266 10.2784H336.634V19.0025L359.55 35.9854C362.962 38.467 365.482 41.4138 367.11 44.8259C368.739 48.238 369.553 52.1153 369.553 56.458C369.553 60.8007 368.972 64.2515 367.808 66.8106C366.645 69.2921 365.172 71.2308 363.388 72.6267C361.682 74.0225 359.394 75.1082 356.525 75.8837C351.95 77.1244 345.358 77.7448 336.751 77.7448C328.143 77.7448 318.915 76.4265 309.066 73.7899Z" fill="#C1A875" style="mix-blend-mode:color"/><defs><linearGradient id="paint0_linear_71_18790" x1="25.3438" y1="35.7322" x2="229.167" y2="-162.426" gradientUnits="userSpaceOnUse"><stop stop-color="#576265"/><stop offset="0.172016" stop-color="#9EA1A1"/><stop offset="0.45741" stop-color="#848B8A"/><stop offset="0.553567" stop-color="#576265"/><stop offset="0.823421" stop-color="#576265"/><stop offset="0.925155" stop-color="#757A7B"/><stop offset="1" stop-color="#576265"/></linearGradient><linearGradient id="paint1_linear_71_18790" x1="163.875" y1="23.5517" x2="158.568" y2="-33.9247" gradientUnits="userSpaceOnUse"><stop stop-color="white" stop-opacity="0"/><stop offset="1" stop-color="white"/></linearGradient></defs></svg>