<svg width="160" height="24" viewBox="0 0 160 24" fill="none" xmlns="http://www.w3.org/2000/svg"><path d="M54.128 8.54099C54.7136 8.54099 55.3027 8.56767 55.8954 8.62105C56.4881 8.67443 57.0559 8.76033 57.5999 8.88043C58.1429 8.9997 58.6514 9.14982 59.1236 9.32914C59.5967 9.50845 60.0077 9.72446 60.3568 9.97717C60.7058 10.2299 60.9795 10.5201 61.1771 10.8487C61.3747 11.1773 61.4739 11.5451 61.4739 11.9496L58.7639 12.3283C58.7639 12.0422 58.6328 11.7853 58.3724 11.556C58.111 11.3266 57.7655 11.134 57.335 10.978C56.9044 10.822 56.4101 10.7028 55.8529 10.6194C55.2956 10.536 54.7207 10.4951 54.1272 10.4951C53.5628 10.4951 53.0056 10.5335 52.4546 10.6094C51.9044 10.6861 51.4119 10.8004 50.9778 10.953C50.5437 11.1064 50.1902 11.2966 49.9192 11.5259C49.6472 11.7553 49.5116 12.023 49.5116 12.3283V16.4742C49.5116 16.7795 49.6472 17.0438 49.9192 17.2665C50.1911 17.4892 50.5437 17.6752 50.9778 17.8245C51.4119 17.9738 51.9036 18.0847 52.4546 18.1581C53.0056 18.2315 53.5628 18.2673 54.1272 18.2673C54.7198 18.2673 55.2948 18.2281 55.8529 18.1481C56.4101 18.0689 56.9044 17.9538 57.335 17.8045C57.7655 17.6552 58.111 17.4692 58.3724 17.2465C58.6337 17.0238 58.7639 16.7661 58.7639 16.4742L61.4739 17.1114C61.4739 17.47 61.3747 17.7995 61.1771 18.098C60.9795 18.3966 60.7067 18.6643 60.3568 18.9004C60.0077 19.1364 59.5967 19.3407 59.1236 19.5134C58.6514 19.686 58.1429 19.8286 57.5999 19.9421C57.0568 20.0547 56.4881 20.1397 55.8954 20.1964C55.3027 20.2523 54.7136 20.2807 54.128 20.2807C53.5425 20.2807 52.9542 20.2523 52.366 20.1964C51.7769 20.1397 51.2099 20.0547 50.6669 19.9421C50.1238 19.8286 49.6171 19.686 49.1475 19.5134C48.678 19.3407 48.2687 19.1364 47.9197 18.9004C47.5707 18.6652 47.2969 18.3991 47.0994 18.103C46.9018 17.8078 46.8035 17.4775 46.8035 17.1114V11.9496C46.8035 11.5451 46.9018 11.1773 47.0994 10.8487C47.2969 10.5201 47.5707 10.229 47.9197 9.97717C48.2687 9.72446 48.678 9.50928 49.1475 9.32914C49.6171 9.14982 50.1229 9.00053 50.6669 8.88043C51.2099 8.76117 51.7769 8.67443 52.366 8.62105C52.9542 8.56767 53.5416 8.54099 54.128 8.54099Z" fill="white"/><path d="M63.8452 9.31905C64.0428 9.26651 64.3333 9.19979 64.7187 9.11972C65.1032 9.04049 65.5603 8.96543 66.0892 8.89537C66.6181 8.82531 67.209 8.76526 67.8619 8.71605C68.5139 8.66601 69.2146 8.64099 69.9623 8.64099C71.2885 8.64099 72.4588 8.7344 73.4713 8.92039C74.4839 9.10638 75.3326 9.42164 76.0174 9.867C76.7022 10.3124 77.2187 10.9037 77.5677 11.641C77.9168 12.3782 78.0922 13.299 78.0922 14.4016C78.0922 15.4841 77.9017 16.3899 77.5208 17.1172C77.1398 17.8444 76.6171 18.4274 75.9545 18.8661C75.291 19.3048 74.5149 19.6167 73.6255 19.8027C72.736 19.9887 71.7837 20.0821 70.7676 20.0821C69.9348 20.0821 69.1624 20.0354 68.4492 19.9428C67.7361 19.8502 67.1044 19.6968 66.5543 19.4841V23.8686H63.8452V9.31905ZM70.0899 10.7736C69.631 10.7736 69.2235 10.7869 68.8673 10.8136C68.5103 10.8403 68.1896 10.8753 67.9035 10.9179C67.6173 10.9604 67.3649 11.0104 67.1469 11.0672C66.9281 11.1239 66.7306 11.1848 66.5543 11.2515V17.6292C66.8581 17.7085 67.1416 17.7735 67.4065 17.8236C67.6714 17.8736 67.9575 17.912 68.2641 17.9378C68.5706 17.9645 68.924 17.9829 69.3227 17.9929C69.7213 18.0029 70.2033 18.0079 70.7676 18.0079C71.6003 18.0079 72.3117 17.917 72.9008 17.7343C73.4899 17.5517 73.9736 17.3006 74.351 16.982C74.7284 16.6626 75.0048 16.2823 75.182 15.8411C75.3583 15.3991 75.446 14.9187 75.446 14.4007C75.446 13.6968 75.3255 13.1122 75.0863 12.6468C74.8462 12.1814 74.4972 11.8094 74.0383 11.5309C73.5794 11.2515 73.0186 11.0555 72.3551 10.9429C71.6925 10.8303 70.9368 10.7736 70.0899 10.7736Z" fill="white"/><path d="M87.6825 8.71719C88.0351 8.71719 88.4621 8.73387 88.9635 8.76723C89.4649 8.8006 89.9867 8.85814 90.5307 8.94155C91.0737 9.02495 91.6115 9.13754 92.1448 9.28016C92.6772 9.42278 93.1574 9.60876 93.5844 9.83812C94.0114 10.0675 94.3551 10.3419 94.6164 10.6605C94.8778 10.9791 95.008 11.3544 95.008 11.7864V19.4994C94.4153 19.612 93.7447 19.7079 92.997 19.788C92.3547 19.8614 91.5893 19.9273 90.6999 19.9873C89.8104 20.0474 88.8191 20.0774 87.7259 20.0774C86.6389 20.0774 85.4837 20.034 84.2594 19.9473C83.0351 19.8614 81.7559 19.7121 80.4226 19.4994V15.9115C80.4226 15.5261 80.5192 15.1884 80.7132 14.8998C80.9072 14.6112 81.1739 14.3635 81.5123 14.1575C81.8507 13.9515 82.2493 13.7822 82.7082 13.6496C83.1671 13.517 83.6615 13.4102 84.1903 13.331C84.7192 13.2509 85.2702 13.1967 85.8416 13.1667C86.413 13.1367 86.9844 13.1217 87.5558 13.1217C88.424 13.1217 89.1629 13.1734 89.7732 13.276C90.3836 13.3794 90.8904 13.4903 91.2917 13.6096C91.7576 13.7555 92.1421 13.919 92.446 14.0983V12.4836C92.446 12.2109 92.3751 11.9774 92.2343 11.7814C92.0934 11.5854 91.9029 11.4194 91.6628 11.2826C91.4228 11.1467 91.1473 11.0366 90.8372 10.954C90.5263 10.8715 90.202 10.8064 89.8636 10.7597C89.5252 10.7138 89.1806 10.6838 88.8315 10.6705C88.4825 10.6571 88.1556 10.6505 87.8526 10.6505C87.5346 10.6505 87.1962 10.6588 86.8365 10.6755C86.4768 10.6922 86.118 10.7239 85.7619 10.7697C85.4049 10.8164 85.0629 10.8815 84.7352 10.964C84.4074 11.0475 84.1159 11.1584 83.8626 11.2977C83.6083 11.4378 83.4054 11.6054 83.2539 11.8014C83.1025 11.9974 83.0263 12.2318 83.0263 12.5037L80.4014 11.8656C80.4014 11.4211 80.5174 11.0333 80.7504 10.7047C80.9834 10.3761 81.2917 10.095 81.6762 9.86231C82.0606 9.62961 82.5036 9.43862 83.005 9.28933C83.5055 9.14004 84.0264 9.02328 84.566 8.93988C85.1055 8.85731 85.6432 8.79893 86.1801 8.76557C86.7151 8.73387 87.2165 8.71719 87.6825 8.71719ZM92.446 16.0115C92.2697 15.8656 92.0509 15.723 91.7895 15.5829C91.5282 15.4427 91.2075 15.3185 90.8257 15.2092C90.4439 15.1 89.9912 15.0099 89.4658 14.9398C88.9405 14.8698 88.3239 14.8356 87.6187 14.8356C86.9906 14.8356 86.3962 14.8473 85.8354 14.8706C85.2747 14.894 84.7821 14.9607 84.3587 15.0699C83.9352 15.1792 83.5994 15.3535 83.3532 15.5929C83.106 15.8322 82.982 16.165 82.982 16.5895V17.8647C83.603 17.9573 84.2878 18.034 85.0355 18.0941C85.7832 18.1542 86.6159 18.1842 87.5337 18.1842C88.2672 18.1842 89.0495 18.1592 89.8787 18.1091C90.7079 18.0591 91.5636 17.9582 92.446 17.8055V16.0115Z" fill="white"/><path d="M100.575 16.7263C100.829 16.7263 101.081 16.7463 101.332 16.7863C101.582 16.8264 101.806 16.8864 102.005 16.9657C102.202 17.0449 102.362 17.1483 102.487 17.2751C102.61 17.401 102.672 17.5503 102.672 17.7229V19.1783C102.672 19.3376 102.61 19.4744 102.487 19.587C102.362 19.7004 102.202 19.793 102.005 19.8664C101.807 19.9398 101.583 19.9932 101.332 20.0257C101.081 20.059 100.829 20.0757 100.575 20.0757C100.321 20.0757 100.07 20.059 99.8235 20.0257C99.5764 19.9923 99.354 19.9389 99.1564 19.8664C98.9589 19.793 98.8003 19.7004 98.6798 19.587C98.5602 19.4744 98.5 19.3384 98.5 19.1783V17.7229C98.5 17.5503 98.5602 17.401 98.6798 17.2751C98.8003 17.1483 98.9589 17.0457 99.1564 16.9657C99.354 16.8864 99.5764 16.8264 99.8235 16.7863C100.07 16.7455 100.321 16.7263 100.575 16.7263Z" fill="white"/><path d="M112.578 8.54099C113.164 8.54099 113.753 8.56767 114.346 8.62105C114.938 8.67443 115.506 8.76033 116.05 8.88043C116.593 8.9997 117.102 9.14982 117.574 9.32914C118.047 9.50845 118.458 9.72446 118.807 9.97717C119.156 10.2299 119.43 10.5201 119.627 10.8487C119.825 11.1773 119.924 11.5451 119.924 11.9496L117.214 12.3283C117.214 12.0422 117.083 11.7853 116.823 11.556C116.561 11.3266 116.216 11.134 115.785 10.978C115.355 10.822 114.86 10.7028 114.303 10.6194C113.746 10.536 113.171 10.4951 112.577 10.4951C112.013 10.4951 111.456 10.5335 110.905 10.6094C110.355 10.6861 109.862 10.8004 109.428 10.953C108.994 11.1064 108.641 11.2966 108.369 11.5259C108.097 11.7553 107.962 12.023 107.962 12.3283V16.4742C107.962 16.7795 108.097 17.0438 108.369 17.2665C108.641 17.4892 108.994 17.6752 109.428 17.8245C109.862 17.9738 110.354 18.0847 110.905 18.1581C111.456 18.2315 112.013 18.2673 112.577 18.2673C113.17 18.2673 113.745 18.2281 114.303 18.1481C114.86 18.0689 115.355 17.9538 115.785 17.8045C116.216 17.6552 116.561 17.4692 116.823 17.2465C117.084 17.0238 117.214 16.7661 117.214 16.4742L119.924 17.1114C119.924 17.47 119.825 17.7995 119.627 18.098C119.43 18.3966 119.157 18.6643 118.807 18.9004C118.458 19.1364 118.047 19.3407 117.574 19.5134C117.102 19.686 116.593 19.8286 116.05 19.9421C115.507 20.0547 114.938 20.1397 114.346 20.1964C113.753 20.2523 113.164 20.2807 112.578 20.2807C111.993 20.2807 111.404 20.2523 110.816 20.1964C110.227 20.1397 109.66 20.0547 109.117 19.9421C108.574 19.8286 108.067 19.686 107.598 19.5134C107.128 19.3407 106.719 19.1364 106.37 18.9004C106.021 18.6652 105.747 18.3991 105.55 18.103C105.352 17.8078 105.254 17.4775 105.254 17.1114V11.9496C105.254 11.5451 105.352 11.1773 105.55 10.8487C105.747 10.5201 106.021 10.229 106.37 9.97717C106.719 9.72446 107.128 9.50928 107.598 9.32914C108.067 9.14982 108.573 9.00053 109.117 8.88043C109.66 8.76117 110.227 8.67443 110.816 8.62105C111.404 8.56767 111.992 8.54099 112.578 8.54099Z" fill="white"/><path d="M125.238 20.0756H122.824V5.10822H125.238V20.0756Z" fill="white"/><path d="M131.59 16.4703C131.59 16.7755 131.708 17.0316 131.945 17.2376C132.181 17.4436 132.499 17.6112 132.897 17.7405C133.296 17.8706 133.757 17.9632 134.278 18.0199C134.801 18.0766 135.344 18.1049 135.908 18.1049C136.501 18.1049 137.058 18.0732 137.581 18.0099C138.104 17.9465 138.558 17.8506 138.947 17.7213C139.335 17.5912 139.641 17.4235 139.867 17.2184C140.093 17.0124 140.207 16.763 140.207 16.4711V8.71719L143.022 8.91652V17.1075C143.022 17.4661 142.928 17.7955 142.742 18.0941C142.555 18.3927 142.296 18.6604 141.964 18.8964C141.633 19.1325 141.241 19.3368 140.79 19.5094C140.338 19.6821 139.85 19.8247 139.323 19.9381C138.798 20.0507 138.244 20.1358 137.662 20.1925C137.079 20.2484 136.496 20.2767 135.909 20.2767C135.317 20.2767 134.731 20.2484 134.152 20.1925C133.574 20.1358 133.021 20.0507 132.496 19.9381C131.971 19.8247 131.482 19.6821 131.03 19.5094C130.578 19.3368 130.186 19.1325 129.855 18.8964C129.524 18.6612 129.263 18.3952 129.077 18.0991C128.89 17.8039 128.796 17.4736 128.796 17.1075V8.91652L131.59 8.71719V16.4703H131.59Z" fill="white"/><path d="M153.099 8.71904C154.185 8.71904 155.158 8.79077 156.014 8.93339C156.872 9.076 157.595 9.29702 158.184 9.59643C158.773 9.89501 159.223 10.2737 159.534 10.7324C159.844 11.1902 160 11.7349 160 12.3662V16.4321C160 17.0634 159.845 17.608 159.534 18.0668C159.223 18.5246 158.774 18.9041 158.184 19.2027C157.595 19.5013 156.872 19.7223 156.014 19.8657C155.158 20.0084 154.185 20.0801 153.099 20.0801C152.491 20.0801 151.866 20.0501 151.221 19.99C150.576 19.93 149.95 19.8724 149.343 19.8157C148.737 19.7598 148.184 19.6789 147.681 19.5738C147.178 19.4687 146.747 19.3787 146.387 19.3028V4.91257H149.161V9.4363C149.789 9.22363 150.446 9.05098 151.135 8.91837C151.823 8.78576 152.477 8.71904 153.099 8.71904ZM152.336 10.5731C151.969 10.5731 151.633 10.5964 151.33 10.6431C151.027 10.6898 150.747 10.7491 150.489 10.8224C150.231 10.8958 149.993 10.9776 149.774 11.0668C149.555 11.1569 149.351 11.2445 149.16 11.3304V17.6097C149.351 17.6698 149.449 17.6998 149.454 17.7006C149.459 17.7015 149.463 17.7023 149.462 17.7015C149.461 17.7015 149.982 17.7657 151.025 17.8941C152.068 18.0226 152.714 18.0868 152.967 18.0868C153.348 18.0868 153.72 18.0818 154.082 18.0718C154.444 18.0618 154.783 18.0334 155.096 17.9875C155.41 17.9408 155.697 17.8708 155.958 17.7782C156.22 17.6856 156.444 17.5538 156.632 17.3845C156.819 17.2152 156.965 17.0059 157.069 16.7573C157.174 16.508 157.226 16.2011 157.226 15.8349V12.905C157.226 12.3804 157.096 11.9634 156.835 11.6548C156.573 11.3454 156.221 11.1119 155.776 10.9526C155.332 10.7933 154.813 10.6907 154.22 10.644C153.628 10.5964 153 10.5731 152.336 10.5731Z" fill="white"/><path d="M6.04888 15.3411L3.19808 6.28192L11.591 8.68473L18.7579 3.97084L26.0701 8.68473L34.0422 6.44538L31.9905 11.98H34.3621L37.398 3.69145L36.3775 3.33282L28.6658 0.706482L27.8711 2.72231L33.0837 4.49794L26.0701 6.32779L18.7579 1.50964L11.591 6.32779L0 2.88828L3.812 15.3411H6.04888Z" fill="white"/><path d="M5.06528 20.0838L5.34876 20.842H31.48L31.736 20.0838L32.2064 18.7052H4.60815L5.06528 20.0838Z" fill="white"/></svg>